<svg viewBox="0 0 126 126" fill="none" xmlns="http://www.w3.org/2000/svg"><path fill-rule="evenodd" clip-rule="evenodd" d="M94.5 15.75v94.5a5.25 5.25 0 01-5.25 5.25h-52.5a5.25 5.25 0 01-5.25-5.25v-94.5c0-2.9 2.35-5.25 5.25-5.25h52.5c2.9 0 5.25 2.35 5.25 5.25v0z" fill="#EDE8E2" stroke="#8B9D83" stroke-width="5.25" stroke-linecap="round" stroke-linejoin="round"/><path stroke="#8B9D83" stroke-width="5.25" stroke-linecap="round" stroke-linejoin="round" d="M73.5 10.5v5.25h-21V10.5z"/><path fill-rule="evenodd" clip-rule="evenodd" d="M61.763 56.866l3.957-3.957a3.591 3.591 0 00.673-4.145l-.225-.449a3.591 3.591 0 01.673-4.145l4.907-4.907a.898.898 0 011.438.233l1.982 3.965a7.878 7.878 0 01-1.476 9.093l-10.77 10.771a9.744 9.744 0 01-9.973 2.354l-4.335-1.445a.898.898 0 01-.35-1.486l4.76-4.76a3.591 3.591 0 014.145-.673l.448.224a3.59 3.59 0 004.146-.673z" fill="#306838"/><circle cx="53" cy="88" r="3" fill="#8B9D83"/><circle cx="63" cy="88" r="3" fill="#8B9D83"/><circle cx="73" cy="88" r="3" fill="#306838"/></svg>