<svg>
    <symbol id="slider-arrow-right" viewBox="0 0 11 16" xmlns="http://www.w3.org/2000/svg">
        <g><path d="M0.5 14.5697L2.01671 16L10.5 8L2.01671 0L0.5 1.4303L7.46658 8L0.5 14.5697H0.5Z"/></g>
    </symbol>

    <symbol id="slider-arrow-left" viewBox="0 0 12 20" xmlns="http://www.w3.org/2000/svg">
        <g>
            <path d="M12 18.2121L10.1799 20L0 10L10.1799 0L12 1.78788L3.6401 10L12 18.2121H12Z"/>
        </g>
    </symbol>

    <symbol id="icon-phone" viewBox="0 0 25 24" xmlns="http://www.w3.org/2000/svg">
        <g>
            <path d="M12.2881 15.776L15.8215 12.2816C16.7974 11.3165 17.0393 9.84208 16.4221 8.6213L16.2219 8.22531C15.6047 7.00452 15.8466 5.53011 16.8225 4.565L21.2036 0.232188C21.5167 -0.0773961 22.0242 -0.0773961 22.3372 0.232188C22.3982 0.292438 22.4489 0.362006 22.4874 0.438216L24.2572 3.93888C25.6112 6.61693 25.0805 9.85136 22.9397 11.9685L13.3226 21.4796C10.9923 23.7841 7.54549 24.5888 4.41912 23.5582L0.548316 22.2822C0.128333 22.1437 -0.0986424 21.6948 0.041352 21.2794C0.0807038 21.1627 0.147002 21.0566 0.234995 20.9696L4.48541 16.766C5.46129 15.8009 6.95214 15.5616 8.18654 16.172L8.58694 16.37C9.82134 16.9804 11.3122 16.7412 12.2881 15.776Z"/>
        </g>
    </symbol>

    <symbol id="icon-mail" viewBox="0 0 29 21" xmlns="http://www.w3.org/2000/svg">
        <g>
            <path d="M2 0C0.895431 0 0 0.89543 0 2V19C0 20.1046 0.89543 21 2 21H27C28.1046 21 29 20.1046 29 19V2C29 0.895431 28.1046 0 27 0H2ZM25.8576 3.63129C25.5461 3.04779 24.8246 2.82947 24.2461 3.14366L14.5 8.43717L4.75387 3.14366C4.17538 2.82947 3.45392 3.04779 3.14243 3.63129C2.83094 4.2148 3.04738 4.94254 3.62586 5.25673L13.936 10.8566C14.2881 11.0478 14.7119 11.0478 15.064 10.8566L25.3741 5.25673C25.9526 4.94254 26.1691 4.2148 25.8576 3.63129Z"/>
        </g>
    </symbol>

    <symbol id="icon-inst" viewBox="0 0 30 30" xmlns="http://www.w3.org/2000/svg">
        <g>
            <path d="M21.25 2.5H8.75C5.29822 2.5 2.5 5.29822 2.5 8.75V21.25C2.5 24.7018 5.29822 27.5 8.75 27.5H21.25C24.7018 27.5 27.5 24.7018 27.5 21.25V8.75C27.5 5.29822 24.7018 2.5 21.25 2.5Z" stroke="white" stroke-width="2.5" stroke-linecap="round" stroke-linejoin="round"/>
            <path d="M20.0001 14.2126C20.1544 15.2529 19.9767 16.3154 19.4923 17.2489C19.0079 18.1824 18.2416 18.9394 17.3022 19.4122C16.3628 19.8851 15.2982 20.0496 14.2599 19.8825C13.2215 19.7155 12.2623 19.2252 11.5187 18.4816C10.775 17.7379 10.2848 16.7787 10.1177 15.7404C9.95063 14.7021 10.1152 13.6375 10.588 12.6981C11.0609 11.7587 11.8179 10.9923 12.7514 10.5079C13.6849 10.0236 14.7473 9.84587 15.7876 10.0001C16.8488 10.1575 17.8312 10.652 18.5897 11.4105C19.3483 12.1691 19.8428 13.1515 20.0001 14.2126Z" stroke="white" stroke-width="2.5" stroke-linecap="round" stroke-linejoin="round"/>
            <path d="M21.875 8.125H21.8875" stroke="white" stroke-width="2.5" stroke-linecap="round" stroke-linejoin="round"/>
        </g>
    </symbol>

    <symbol id="icon-geo" viewBox="0 0 24 28" xmlns="http://www.w3.org/2000/svg">
        <g>
            <path d="M11.0469 27.2225C8.20737 24.8407 0 17.4557 0 11.6667C0 4.66667 4.8 0 12 0C19.2 0 24 5.83333 24 11.6667C24 16.5146 15.7117 24.5858 12.9115 27.1743C12.3838 27.6621 11.5976 27.6843 11.0469 27.2225ZM16 10C16 12.2091 14.2091 14 12 14C9.79086 14 8 12.2091 8 10C8 7.79086 9.79086 6 12 6C14.2091 6 16 7.79086 16 10Z"/>
        </g>
    </symbol>

    <symbol id="icon-cross" viewBox="0 0 26 26" xmlns="http://www.w3.org/2000/svg">
        <g>
            <path d="M2 2L24 24M24 2L2 24" stroke="#424242" stroke-width="4" stroke-linecap="round"/>
        </g>
    </symbol>

    <symbol id="icon-burger" viewBox="0 0 28 18" xmlns="http://www.w3.org/2000/svg">
        <g>
            <path d="M0 1H28" stroke="#424242" stroke-width="2"/>
            <path d="M0 9H28" stroke="#424242" stroke-width="2"/>
            <path d="M0 17H16" stroke="#424242" stroke-width="2"/>
        </g>
    </symbol>

    <symbol id="arrow-right" viewBox="0 0 17 18" xmlns="http://www.w3.org/2000/svg">
        <g>
            <path d="M0 10.1245H12.9097L6.95891 16.4247L8.49957 18L17 9.00046L8.50043 0L7.01251 1.57712L12.9097 7.87735H0V10.1245Z"/>
        </g>
    </symbol>

    <symbol id="arrow-left" viewBox="0 0 21 20" xmlns="http://www.w3.org/2000/svg">
        <g>
            <path d="M21 8.5V11.5H3V8.5H21Z"/>
            <path d="M10 2.5L3 10L10 17.5" stroke="#686656" stroke-width="3" stroke-linecap="square"/>
        </g>
    </symbol>
</svg>