<svg viewBox="0 0 110 110" fill="none" xmlns="http://www.w3.org/2000/svg"><path fill-rule="evenodd" clip-rule="evenodd" d="M58.333 99.667c26.694 0 48.334-21.64 48.334-48.334C106.667 24.64 85.027 3 58.333 3 31.64 3 10 24.64 10 51.333c0 26.694 21.64 48.334 48.333 48.334z" fill="#EDE8E2" stroke="#8B9D83" stroke-width="4.833"/><path clip-rule="evenodd" d="M58.333 94.834s19.334-15.818 19.334-43.5c0-27.682-19.334-43.5-19.334-43.5S39 23.652 39 51.334c0 27.682 19.333 43.5 19.333 43.5z" stroke="#8B9D83" stroke-width="4.833"/><path d="M12.417 36.833h91.833m-91.833 29h91.833" stroke="#8B9D83" stroke-width="4.833" stroke-linecap="round"/><path fill-rule="evenodd" clip-rule="evenodd" d="M2 70a2 2 0 00-2 2v36a2 2 0 002 2h51a2 2 0 002-2V72a2 2 0 00-2-2H2zm47.04 5.917a2.242 2.242 0 00-3.056-.928L27.5 85.07 9.016 74.99a2.242 2.242 0 00-3.056.928 2.3 2.3 0 00.916 3.096L26.43 89.68a2.23 2.23 0 002.14 0l19.553-10.667a2.3 2.3 0 00.917-3.096z" fill="#306838"/></svg>