<svg width="122" height="149" viewBox="0 0 122 149" fill="none" xmlns="http://www.w3.org/2000/svg"><path fill-rule="evenodd" clip-rule="evenodd" d="M64 100.039c26.694 0 48.333-21.64 48.333-48.334 0-26.693-21.64-48.333-48.333-48.333-26.694 0-48.334 21.64-48.334 48.333 0 26.694 21.64 48.334 48.334 48.334z" fill="#EDE8E2" stroke="#8B9D83" stroke-width="4.833"/><path clip-rule="evenodd" d="M64 95.206s19.333-15.818 19.333-43.5C83.333 24.024 64 8.206 64 8.206s-19.334 15.818-19.334 43.5c0 27.682 19.334 43.5 19.334 43.5z" stroke="#8B9D83" stroke-width="4.833"/><path d="M18.083 37.205h91.833m-91.833 29h91.833" stroke="#8B9D83" stroke-width="4.833" stroke-linecap="round"/><path d="M7.137 74.138a3.828 3.828 0 013.828-3.828h46.893a3.828 3.828 0 013.828 3.828v31.74a3.828 3.828 0 01-3.828 3.828H10.965a3.828 3.828 0 01-3.828-3.828v-31.74z" fill="#306838"/><path fill-rule="evenodd" clip-rule="evenodd" d="M53.031 75.884a2.273 2.273 0 012.156 4.003l-19.7 10.606a2.272 2.272 0 01-2.155 0L13.635 79.887a2.273 2.273 0 112.155-4.003l18.62 10.027 18.621-10.027z" fill="#fff"/></svg>