<svg viewBox="0 0 405 546" xmlns="http://www.w3.org/2000/svg">
<path d="M245.671 493.182C247.182 497.14 249.306 500.781 251.249 504.67C251.511 507.722 251.808 510.989 252.07 514.04C275.692 513.834 299.008 511.687 321.924 505.628C345.454 499.25 370.801 498.77 393.217 488.15C395.487 487.128 397.722 485.89 399.958 484.652C404.068 486.873 410.81 483.375 409.707 477.806C408.569 472.021 405.718 465.182 404.388 460.974C402.183 454.033 399.763 447.125 397.524 439.969C394.239 429.001 387.788 418.976 381.586 409.133C390.929 412.293 400.16 416.133 409.095 420.904C417.281 425.13 425.446 432.011 436.355 432.493C437.354 433.218 438.103 433.762 439.102 434.488C449.955 406.7 454.847 374.774 467.302 348.721C470.262 342.287 471.021 337.306 471.938 330.533C473.002 323.295 475.247 316.532 475.88 309.362C477.078 294.592 481.25 280.454 481.517 265.389C481.753 258.503 483.816 251.99 483.836 245.138C483.891 238.502 481.754 231.992 480.73 225.526C479.853 218.595 480.452 211.21 479.326 204.098C478.336 197.847 475.439 192.12 473.405 186.257C472.598 183.954 469.84 183.286 467.535 184.093C467.399 183.231 467.297 182.585 467.16 181.722C465.964 169.982 463.894 159.705 460.144 148.59C452.507 125.498 441.17 102.771 425.168 84.096C418.127 75.9323 410.371 67.44 401.265 61.5917C391.659 55.3806 377.163 54.5836 366.015 52.5936C352.108 49.9358 338.998 50.9077 325.127 52.6628C318.838 53.4378 312.436 54.8936 306.011 54.8066C299.121 54.5724 292.275 53.2264 285.566 52.7425C272.614 51.9219 261.033 45.8028 248.67 43.1214C235.127 39.9643 220.766 35.832 206.963 38.0182C183.058 42.0252 159.044 59.3051 139.548 72.9976C130.991 78.9923 122.333 88.5378 115.877 96.63C107.606 107.219 98.2328 116.436 88.6783 125.903C83.9011 130.636 79.4078 135.766 75.1643 141.078C76.1635 141.803 77.1968 142.744 78.196 143.47C79.9105 144.524 81.625 145.578 83.3395 146.632C88.3479 153.129 95.603 157.061 102.132 161.992C103.2 163.149 104.051 164.339 104.903 165.53C106.186 166.652 107.435 167.559 108.718 168.681C108.9 168.432 109.331 168.363 109.513 168.114C113.294 171.05 117.109 174.201 120.675 177.171C120.493 177.421 120.312 177.67 119.915 177.954C122.447 179.983 124.979 182.013 127.727 184.008C127.942 183.973 127.908 183.758 128.124 183.724C129.941 185.424 131.542 187.159 133.143 188.894C137.765 194.348 143.477 198.303 149.075 202.94C153.889 206.817 157.943 211.477 162.792 215.569C164.825 217.236 183.515 231.95 185.751 230.712C183.73 231.916 176.112 228.483 173.569 227.781C167.586 226.298 162.716 224.86 157.028 222.447C145.902 217.803 132.734 217.016 121.018 214.232C115.035 212.75 109.178 213.457 103.263 212.405C97.3487 211.353 91.4792 209.19 85.3489 208.173C77.8565 206.929 69.115 204.779 60.8622 204.319C59.4658 203.877 57.8196 203.254 56.4232 202.812C53.6645 202.145 50.9058 201.477 48.1471 200.809C47.7732 202.636 47.3993 204.463 47.0254 206.289C44.4607 208.242 43.7128 211.895 45.0534 214.776C44.6112 216.171 44.4188 217.748 43.9766 219.144C40.4282 231.636 37.7425 243.991 37.5998 257.049C37.5704 269.425 41.3997 279.644 43.9582 291.611C47.2104 306.561 45.6604 320.504 44.247 335.309C43.2866 347.391 43.9491 358.553 48.5961 369.747C50.8459 375.577 54.1057 380.804 56.537 386.384C59.6728 393.62 60.9016 401.379 62.9932 409.001C66.0963 420.219 72.3429 428.95 77.069 439.248C82.7152 451.167 91.4815 459.058 101.463 467.639C119.358 482.921 137.675 499.462 160.483 506.675C173.05 510.649 186.389 512.513 200.023 513.447C201.534 517.405 206.359 519.955 210.195 516.254C213.451 513.087 216.868 512.325 218.592 507.854C220.758 501.988 219.7 495.307 221.616 489.26C224.337 481.317 227.206 472.909 230.858 465.261C231.369 464.297 231.845 463.117 232.355 462.152C234.117 466.292 236.525 470.329 237.127 471.338C241.522 478.153 242.864 485.231 245.671 493.182ZM402.635 82.8045C422.642 98.8563 435.728 122.853 444.977 146.353C449.477 158.012 453.329 169.774 455.491 182.024C456.276 186.981 458.071 191.336 459.719 196.157C462.276 203.926 463.323 211.934 464.802 219.874C464.87 220.305 464.972 220.952 465.256 221.349C465.36 226.193 465.896 230.968 466.431 235.744C467.376 243.106 466.402 248.121 464.656 255.246C462.639 264.844 463.381 275.11 461.614 284.89C459.212 297.642 458.354 310.371 455.452 322.761C454.376 327.129 454.661 331.723 453.584 336.091C452.213 341.39 448.332 346.202 446.246 351.172C442.253 360.862 439.295 371.493 436.949 381.807C434.75 391.655 430.508 401.164 428.128 411.261C427.425 413.803 426.722 416.344 425.804 418.92C425.02 418.16 424.021 417.435 423.238 416.675C418.673 412.98 413.893 409.318 408.568 406.406C407.103 405.533 405.423 404.695 403.958 403.822C404.287 403.107 404.65 402.608 404.979 401.893C394.58 400.447 383.783 395.088 374.519 391.032C374.405 391.712 374.292 392.393 373.963 393.108C373.316 393.211 372.635 393.098 371.772 393.234C367.73 391.444 363.904 389.62 359.897 388.045C360.226 387.331 360.52 386.4 360.815 385.47C359.419 385.028 358.022 384.586 356.842 384.111C355.661 383.635 354.514 383.375 353.334 382.899C353.005 383.614 352.46 384.363 352.131 385.078C344.615 382.291 337.281 379.255 329.947 376.219C330.128 375.97 330.526 375.686 330.707 375.436C329.061 374.813 327.449 374.406 325.803 373.783C325.371 373.851 325.19 374.101 324.758 374.169C321.466 372.923 318.174 371.677 314.7 370.681C311.941 370.013 308.388 369.913 306.106 368.066C304.822 366.943 302.768 367.931 302.576 369.508C302.135 375.101 305.927 376.71 310.616 378.398C311.547 378.692 312.478 378.986 313.443 379.496C312.83 379.814 312.001 380.166 311.354 380.269C302.388 383.677 292.286 385.498 282.762 386.786C265.906 389.235 246.701 393.602 229.944 388.303C221.566 385.653 208.964 381.463 203.308 375.068C196.835 367.698 191.406 359.942 184.354 353.105C176.803 345.906 168.254 342.179 165.719 331.755C165.264 330.281 165.207 328.522 164.934 326.798C163.99 323.634 161.753 320.674 161.456 317.407C161.081 315.036 161.829 311.383 161.419 308.797C161.351 308.366 161.249 307.719 161.18 307.288C161.793 306.97 162.622 306.618 163.234 306.3C164.063 305.948 163.393 304.508 162.564 304.86C161.951 305.178 161.339 305.496 160.692 305.598C158.782 297.727 155.782 291.353 157.902 282.401C159.692 274.164 157.511 268.765 156.645 260.507C155.984 253.542 156.538 247.269 154.549 240.293C154.378 239.216 153.174 237.197 153.56 238.241C153.492 237.809 153.424 237.378 153.39 237.163C158.01 238.419 162.881 239.857 167.898 240.83C167.932 241.046 167.932 241.046 167.967 241.261C169.729 249.598 168.812 256.371 168.384 264.834C167.684 275.77 170.572 287.022 172.279 297.798C173.985 308.574 176.691 320.076 181.531 329.693C183.405 333.151 185.676 336.327 188.708 338.718C194.306 343.355 197.146 347.324 201.223 353.527C204.131 357.927 209.093 361.338 212.397 365.454C215.634 369.139 217.508 372.598 222.413 374.252C230.36 376.97 240.575 374.468 248.476 374.1C258.783 373.572 268.432 374.474 278.329 371.36C289.055 367.894 299.6 364.677 309.769 359.09C317.702 354.741 320.094 347.513 322.316 339.208C325.467 327 329.3 314.904 331.089 302.47C331.123 302.686 331.372 302.867 331.407 303.082C332.009 304.092 333.881 303.353 333.279 302.344C332.677 301.335 332.109 300.541 331.507 299.532C332.674 292.94 334.375 286.927 336.223 280.448C336.257 280.664 336.507 280.845 336.541 281.06C339.119 286.175 341.448 291.109 344.027 296.223C345.97 300.113 348.23 304.616 352.34 306.837L352.556 306.802C352.329 308.164 351.887 309.559 351.229 310.989C349.324 315.71 346.204 319.739 344.764 324.606C342.406 332.049 344.168 340.386 343.172 348.055C345.568 349.223 347.963 350.39 350.359 351.557C353.886 341.719 352.145 330.728 356.319 320.788C358.587 315.568 359.743 310.304 360.865 304.824C362.636 307.636 364.408 310.448 366.146 313.045C366.748 314.054 368.121 312.953 367.519 311.944C365.463 308.735 363.408 305.526 361.352 302.316C362.247 298.198 363.142 294.079 364.469 289.893C364.911 288.497 365.569 287.067 366.227 285.638C369.896 293.452 373.997 301.197 379.289 308.091C378.586 310.633 377.918 313.39 377.249 316.147C375.685 323.023 375.699 330.09 373.454 336.852C371.685 342.435 367.771 347.032 365.287 352.285C364.447 353.965 363.608 355.644 362.768 357.324C364.914 358.309 367.276 359.261 369.422 360.247C371.871 354.777 373.64 349.195 376.59 344.088C379.358 339.231 381.421 332.719 382.759 327.204C384.652 319.614 386.329 312.058 388.437 304.433C390.433 297.489 392.099 291.261 392.516 284.125C392.754 281.436 393.241 278.929 393.91 276.172C394.194 276.569 394.262 277 394.512 277.181C398.397 284.961 402.498 292.707 406.996 300.168C406.814 300.418 406.882 300.849 406.701 301.099C404.127 308.576 401.837 316.45 400.194 324.222C398.187 332.493 398.406 340.854 395.719 349.012C393.621 355.309 389.378 360.621 386.315 366.408C387.246 366.702 387.927 366.815 388.858 367.11C390.254 367.551 389.665 369.412 388.337 369.402C387.224 369.357 386.293 369.062 385.181 369.018C384.523 370.448 383.649 371.911 382.992 373.341C378.064 370.145 372.626 367.913 367.153 365.466C367.335 365.217 367.482 364.751 367.664 364.502C365.302 363.55 362.941 362.599 360.579 361.647C360.398 361.897 360.216 362.146 360.25 362.362C355.993 360.606 351.588 359.315 347.512 357.31C347.875 356.81 348.057 356.561 348.204 356.096C346.058 355.11 344.162 354.306 342.016 353.32C342.016 353.32 342.05 353.535 341.835 353.57C341.835 353.57 341.835 353.57 341.869 353.785C341.869 353.785 341.869 353.785 341.619 353.604C339.836 352.119 337.658 355.115 339.441 356.6C339.691 356.781 339.94 356.963 339.94 356.963C337.433 360.674 333.245 363.546 329.989 366.713C331.851 367.302 333.747 368.106 335.608 368.695C337.594 367.276 339.546 365.641 341.282 364.041C342.406 362.758 343.745 361.441 345.084 360.125C349.194 362.346 353.383 363.67 357.97 364.711C358.185 364.677 358.435 364.859 358.651 364.825C358.469 365.074 358.288 365.324 358.14 365.789C355.849 369.466 355.316 373.085 354.603 376.954C356.998 378.121 359.144 379.107 361.54 380.274C361.506 380.058 361.653 379.593 361.619 379.377C362.196 374.647 363.841 371.072 365.917 367.429C371.355 369.661 376.464 372.608 381.573 375.554C380.008 378.232 378.477 381.126 376.695 383.838C376.332 384.338 376.003 385.052 375.856 385.518C378.899 386.582 381.726 387.681 384.802 388.961C386.3 385.852 387.831 382.958 389.544 379.815C393.264 372.598 395.373 364.973 399.309 357.722C402.769 351.651 405.093 343.992 406.692 337.332C408.777 328.165 410.862 318.998 413.379 309.762C415.487 302.137 417.301 295.443 418.081 287.808C421.738 292.752 425.214 297.946 427.645 303.526C427.464 303.775 427.498 303.991 427.316 304.24C424.266 312.898 421.715 321.918 419.777 330.62C417.545 340.253 417.719 349.725 414.589 359.279C412.049 366.972 406.648 373.35 403.177 380.749C401.022 385.287 398.799 389.395 396.541 393.288C398.437 394.092 400.084 394.715 401.98 395.519C402.695 395.848 403.013 396.46 402.65 396.96C403.797 397.22 404.727 397.514 405.908 397.99C406.385 396.81 407.111 395.811 407.587 394.631C411.784 386.234 414.187 377.679 418.816 369.214C422.82 362.394 425.586 353.339 427.264 345.783C429.791 335.22 432.103 324.691 435.062 314.06C437.726 304.359 439.948 296.054 440.75 285.764C441.586 275.69 445.76 265.75 445.733 255.813C445.912 247.168 444.376 237.47 442.829 229.099C441.907 223.28 441.122 218.323 442.175 212.412C443.013 206.535 445.179 200.669 445.551 194.645C446.206 184.82 442.672 173.671 440.704 164.041C439.362 156.963 436.442 149.693 432.217 143.955C427.175 137.242 424.005 129.791 419.791 122.726C417.985 119.698 415.69 114.98 412.556 111.942C407.217 101.962 400.311 90.4632 388.856 86.5335C385.347 85.3217 381.431 85.721 377.549 86.3359C370.805 81.4391 363.844 76.5765 356.703 71.9635C374.047 71.2047 390.19 72.6247 402.635 82.8045ZM184.994 393.434C176.209 396.592 166.788 398.526 157.651 400.857C155.902 399.588 154.188 398.534 152.439 397.264C147.908 393.784 144.354 389.487 141.196 384.906C142.922 384.632 144.863 384.325 146.554 383.836C147.632 383.665 147.359 381.941 146.281 382.112C144.124 382.454 142.183 382.761 140.061 383.318C137.437 379.315 134.961 374.847 132.303 370.628C139.102 368.889 145.651 366.968 151.598 364.038C155.846 371.318 159.81 378.202 167.27 383.427C172.982 387.383 178.954 390.193 184.994 393.434ZM139.997 456.897C140.066 457.328 140.168 457.974 140.452 458.371C135.671 454.71 131.107 451.014 126.542 447.319C130.992 447.498 135.26 447.926 139.676 447.89C148.258 447.635 156.839 447.38 165.421 447.126C166.102 447.239 166.397 446.309 166.329 445.877C168.077 447.147 169.826 448.417 171.609 449.902C174.675 452.509 177.128 455.434 179.762 458.11C175.165 458.396 170.352 458.717 165.721 458.788C161.736 458.756 157.752 458.724 153.733 458.477C151.293 458.422 142.564 459.141 141.076 456.726C140.576 456.363 139.929 456.466 139.997 456.897ZM112.666 436.482C116.775 434.505 120.815 432.098 125.174 430.303C128.091 429.178 130.792 428.088 133.709 426.963C139.602 430.669 145.857 433.876 152.147 437.298C147.04 438.549 141.932 439.8 136.824 441.051C133.442 442.028 130.025 442.79 126.927 444.165C126.098 444.517 125.054 444.903 124.01 445.29C119.763 442.206 116.016 439.486 112.666 436.482ZM125.509 446.378C127.166 445.673 128.392 445.037 129.436 444.651C137.176 441.879 145.519 440.115 153.612 438.171C157.722 440.392 161.651 442.863 165.613 445.549C157.679 445.701 149.528 445.887 141.628 446.255C136.781 446.36 131.968 446.68 127.087 446.57C126.371 446.241 125.94 446.309 125.509 446.378ZM185.913 452.276C181.245 447.933 177.225 443.489 172.161 439.431C170.128 437.764 167.914 436.347 165.916 434.897C168.039 434.339 170.127 433.567 172.431 432.76C173.26 432.408 172.623 431.183 171.795 431.535C169.275 432.376 166.971 433.183 164.451 434.024C158.74 430.068 152.666 426.612 146.773 422.905C153.753 420.916 160.984 419.108 168.214 417.3C173.789 420.394 179.148 423.522 184.03 427.83C188.379 431.56 191.355 436.39 196.68 439.303C202.005 442.215 207.841 444.163 213.971 445.18C217.842 445.893 221.429 446.208 225.017 446.524C221.284 450.871 218.471 456.84 216.52 462.672C215.158 462.446 213.796 462.22 212.649 461.959C202.898 460.411 192.896 458.681 185.913 452.276ZM144.809 421.67C141.595 419.528 138.382 417.386 135.384 415.209C133.636 413.94 132.069 412.421 130.502 410.901C136.472 409.514 142.124 407.514 147.811 405.73C153.522 409.686 159.778 412.892 165.818 416.133C158.769 417.692 151.789 419.681 144.809 421.67ZM129.116 409.133C123.779 403.35 119.599 396.501 115.419 389.651C120.595 388.831 125.952 387.762 131.31 386.692C135.206 393.145 139.715 399.28 146.244 404.211C140.342 406.029 134.837 407.564 129.116 409.133ZM107.524 376.099C109.216 375.611 111.122 375.088 112.848 374.814C116.049 374.087 119.499 373.54 122.916 372.778C123.802 374.184 124.438 375.409 125.324 376.815C127.096 379.627 128.652 382.474 130.424 385.286C125.282 386.322 119.925 387.391 114.748 388.211C113.226 385.58 111.67 382.733 109.932 380.137C109.081 378.946 108.195 377.54 107.524 376.099ZM95.7293 343.503C95.5245 342.21 95.5012 340.667 95.5121 339.34C99.4282 338.941 103.594 338.723 107.51 338.323C108.157 338.221 108.804 338.118 109.451 338.016C109.827 340.387 110.418 342.723 111.043 345.275C111.952 348.224 112.862 351.173 113.987 354.088C108.811 354.908 103.85 355.693 98.6401 356.298C97.3104 352.09 96.1622 347.632 95.7293 343.503ZM94.9954 323.515C94.654 321.36 94.097 319.239 93.54 317.118C97.8533 316.435 102.201 315.967 106.548 315.499C107.696 319.957 109.026 324.165 108.983 329.474C108.927 331.913 109.053 334.102 109.394 336.258C107.884 336.497 106.125 336.554 104.581 336.578C101.743 336.807 98.6897 337.069 95.8519 337.298C95.3849 332.953 95.7463 328.256 94.9954 323.515ZM90.2087 303.064C89.81 299.151 88.9799 295.305 87.9341 291.494C92.8944 290.709 97.7074 290.388 102.702 289.818C103.839 295.603 103.217 301.446 104.139 307.265C104.514 309.636 105.105 311.972 105.878 314.059C101.531 314.527 97.183 314.994 92.8697 315.677C91.7898 311.651 90.7099 307.624 90.2087 303.064ZM80.9427 264.102C80.2709 258.465 80.6432 252.441 81.7308 246.745C82.8433 246.79 84.1714 246.8 85.318 247.061C90.2675 247.602 95.2511 248.36 100.235 249.117C99.6111 250.762 98.9532 252.192 98.5793 254.018C97.5366 258.602 96.7438 263.367 97.0634 268.177C96.1666 268.098 95.0883 268.269 94.1915 268.19C89.9914 268.192 86.007 268.161 81.7387 267.732C81.1025 266.507 80.8977 265.214 80.9427 264.102ZM59.0796 233.542C65.1865 233.017 73.4392 233.477 78.1048 233.622C77.8333 236.095 77.2778 238.172 75.8256 240.169C75.281 240.918 75.4516 241.996 75.9854 242.574C75.4749 243.538 75.1801 244.469 74.6356 245.218C70.6511 245.186 66.451 245.189 62.3984 244.726C60.8204 244.534 59.2084 244.126 57.5963 243.719C57.9469 240.35 58.5133 236.946 59.0796 233.542ZM82.5919 242.411C83.2948 239.87 83.6687 238.043 83.827 236.251C84.1559 235.536 84.2692 234.855 84.3483 233.959C90.3761 234.33 96.5854 234.451 102.613 234.822C103.012 238.735 102.911 242.286 100.948 245.248C100.404 245.997 100.54 246.859 101.074 247.437C101.108 247.653 100.893 247.687 100.927 247.902C98.2022 247.45 95.4777 246.998 92.7531 246.546C89.1318 246.015 85.7602 245.665 82.2413 245.781C82.0365 244.487 82.2971 243.342 82.5919 242.411ZM146.53 259.458C146.758 262.294 147.565 264.597 148.406 267.115C148.406 267.115 148.19 267.149 147.975 267.183C142.946 267.537 137.702 267.926 132.605 267.85C132.138 263.505 132.499 258.809 133.395 254.69C137.697 255.334 142.034 256.194 146.336 256.838C146.473 257.7 146.394 258.596 146.53 259.458ZM113.353 299.84C112.989 296.142 112.193 292.513 111.215 289.133C117.754 288.539 124.258 287.73 130.512 286.739C130.58 287.17 130.649 287.601 130.717 288.032C131.683 292.74 131.14 297.686 131.926 302.643C132.438 305.876 133.313 308.609 134.188 311.343C128.115 312.083 122.224 312.575 116.151 313.316C115.003 308.858 113.673 304.65 113.353 299.84ZM110.727 287.443C108.908 281.545 106.874 275.681 105.703 269.681C112.343 269.733 119.2 269.752 125.806 269.589C125.977 270.667 125.932 271.779 126.318 272.822C127.216 277.098 128.943 281.023 130.273 285.23C123.553 286.074 117.265 286.849 110.727 287.443ZM132.878 269.574C137.941 269.435 143.219 269.262 148.248 268.907C148.464 268.873 148.679 268.839 148.861 268.589C149.281 269.848 149.702 271.107 149.907 272.4C150.453 275.848 149.886 279.252 149.502 282.406C145.188 283.089 141.091 283.738 136.777 284.421C135.311 279.351 133.663 274.531 132.878 269.574ZM127.085 258.12C126.268 261.342 125.702 264.745 125.783 268.047C118.926 268.028 112.286 267.975 105.429 267.956C105.327 267.31 105.225 266.663 105.122 266.017C104.553 261.026 104.993 255.433 105.934 250.202C110.486 251.028 115.038 251.853 119.556 252.463C122.712 252.847 125.652 253.265 128.808 253.649C127.935 255.113 127.493 256.509 127.085 258.12ZM123.62 251.599C117.739 250.763 112.041 249.677 106.126 248.625C106.273 248.16 106.387 247.479 106.534 247.014C107.09 244.938 107.498 243.327 107.474 241.784C108.245 239.674 108.551 237.416 108.641 235.192C115.532 235.427 122.672 235.842 129.562 236.076C130.382 241.249 131.735 247 129.046 250.96C128.683 251.46 128.785 252.106 129.069 252.503C127.241 252.13 125.448 251.972 123.62 251.599ZM95.1116 269.811C95.7586 269.709 96.4397 269.822 97.0867 269.72C97.1891 270.366 97.2915 271.013 97.3939 271.659C98.7127 277.194 101.11 282.559 102.463 288.31C97.4343 288.664 92.6555 289.2 87.6952 289.986C85.7402 283.226 83.388 276.75 81.8644 269.921C86.2801 269.885 90.6958 269.848 95.1116 269.811ZM114.691 355.744C116.872 361.142 119.236 366.291 122.03 371.372C118.829 372.1 115.594 372.612 112.393 373.34C110.452 373.647 108.545 374.17 106.638 374.693C103.844 369.613 101.163 363.851 99.1288 357.988C104.339 357.383 109.515 356.564 114.691 355.744ZM150.962 362.813C145.015 365.743 138.25 367.698 131.667 369.404C131.099 368.61 130.747 367.782 130.179 366.988C127.805 363.167 125.578 358.88 123.783 354.525C130.719 353.647 137.904 352.951 144.487 351.245C146.078 354.307 147.634 357.154 149.44 360.182C150.008 360.976 150.61 361.985 150.962 362.813ZM136.019 350.819C131.705 351.502 127.392 352.186 123.079 352.869C120.931 347.686 119.181 342.219 118.362 337.046C124.832 336.022 130.984 334.385 137.317 332.498C137.386 332.929 137.488 333.575 137.772 333.972C139.488 339.224 141.42 344.441 143.783 349.59C141.195 350 138.607 350.409 136.019 350.819ZM118.089 335.322L118.055 335.107C117.349 329.254 118.471 323.774 117.299 317.773C117.128 316.696 116.992 315.834 116.605 314.79C122.712 314.265 128.57 313.558 134.642 312.817C135.268 315.369 135.677 317.955 135.724 321.041C135.589 324.376 136.101 327.609 136.829 330.808C130.711 332.66 124.309 334.116 118.089 335.322ZM142.633 310.226C141.632 305.303 139.871 301.163 139.517 296.138C139.187 292.656 138.425 289.242 137.232 285.896C141.114 285.281 145.211 284.632 149.309 283.983C149.264 285.095 149.219 286.206 149.208 287.534C149.528 292.343 150.631 297.913 151.564 302.405C152.121 304.526 152.609 306.216 153.132 308.121C149.75 309.099 146.299 309.645 142.633 310.226ZM303.477 259.344C305.27 259.502 307.202 264.719 308.611 268.031C308.429 268.281 308.464 268.496 308.316 268.961C307.239 273.329 305.697 277.55 304.336 281.522C300.997 277.19 297.295 273.358 293.956 269.026C293.707 268.845 293.673 268.629 293.389 268.233C294.818 264.692 296.644 260.868 296.745 257.317C296.993 253.301 295.187 250.274 292.439 248.279C292.405 248.063 292.405 248.063 292.371 247.848C288.895 242.654 281.823 242.669 276.227 242.23C267.293 241.657 260.063 243.465 251.264 239.556C246.041 237.29 240.522 231.758 234.415 232.283C225.936 233.184 218.222 245.894 215.863 253.337C212.847 262.21 215.088 273.565 219.654 281.457C223.266 287.513 224.459 290.859 225.551 297.756C226.268 302.282 226.985 306.808 227.918 311.299C229.43 319.455 238.367 328.423 245.622 332.355C254.058 336.763 264.308 334.477 270.935 327.462C278.503 319.415 280.484 305.404 284.692 295.679C288.095 287.85 289.443 281.008 291.483 272.953C291.778 272.022 292.039 270.877 292.515 269.696C296.104 274.209 300.09 278.438 303.463 282.986C300.05 292.142 296.386 301.118 294.222 311.181C291.649 322.856 286.511 332.286 276.013 338.588C267.32 343.721 259.704 348.683 249.283 345.694C239.36 343.068 230.845 339.556 222.931 332.856C214.767 325.975 212.549 316.164 210.695 305.853C209.387 298.99 209.407 292.138 206.59 285.515C202.784 276.839 199.001 269.706 197.896 259.939C197.327 254.948 197.234 248.777 200.07 244.351C202.396 240.889 207.98 238.458 211.339 235.938C217.047 231.499 221.688 225.904 227.646 221.646C231.005 219.126 234.251 217.286 238.621 218.361C241.164 219.063 244.583 222.498 247.375 223.382C254.641 225.987 262.042 225.256 269.648 225.819C276.788 226.235 283.429 226.287 290.307 223.652C296.788 221.3 314.836 217.999 321.196 226.05C324.24 231.312 320.462 236.771 317.899 242.921C317.717 243.17 317.751 243.386 317.57 243.636C317.32 243.454 317.104 243.488 317.07 243.273L316.854 243.307C316.854 243.307 316.854 243.307 316.82 243.091C315.855 242.582 315.197 244.011 316.162 244.521C316.412 244.703 316.662 244.884 316.912 245.065C313.986 251.715 311.491 258.296 309.495 265.24C308.223 262.79 307.201 260.522 306.36 258.004C306.291 257.573 305.826 257.426 305.395 257.494C304.748 257.596 304.282 257.449 303.635 257.552C302.841 258.119 302.796 259.231 303.477 259.344ZM277.797 252.144C282.18 256.089 285.587 260.852 289.176 265.365C288.552 267.01 287.679 268.474 287.237 269.87C283.949 281.216 280.809 292.097 276.374 303.183C274.651 307.653 272.314 312.442 269.875 316.584C264.668 325.583 254.339 328.765 246.107 321.453C243.29 319.027 239.725 316.057 237.124 313.597C233.706 310.162 232.353 304.411 231.353 299.488C229.931 293.306 229.827 288.462 226.465 282.588C219.457 270.442 215.398 253.19 229.584 243.653C237.38 238.441 249.486 250.663 259.043 249.591C265.797 248.963 278.293 244.112 286.569 246.115C285.207 245.889 284.095 245.845 282.801 246.049C281.722 246.22 281.099 247.866 282.279 248.341C286.639 250.744 291.112 252.465 291.387 258.387C291.41 259.93 290.821 261.791 290.015 263.686C286.642 259.138 283.235 254.376 278.489 250.93C277.808 250.817 277.297 251.781 277.797 252.144ZM319.957 254.525C320.434 253.345 320.91 252.164 321.386 250.984C321.739 251.812 322.057 252.425 322.625 253.218C322.659 253.434 322.874 253.4 323.09 253.366C324.362 255.815 325.237 258.549 326.476 260.783C327.782 263.448 329.338 266.294 330.645 268.96C328.434 275.938 326.654 282.847 325.34 289.904C321.649 284.745 317.708 279.404 314.198 273.995C315.83 267.55 317.428 260.89 319.957 254.525ZM354.834 296.058C354.199 299.031 353.814 302.185 353.18 305.157C348.286 302.176 345.9 295.485 343.605 290.767C341.594 286.446 339.368 282.159 337.357 277.838C338.502 273.901 339 270.066 339.748 266.413C342.316 272.855 345.281 279.013 349.142 285.25C351.198 288.46 353.038 291.703 355.128 295.128C355.128 295.128 354.981 295.593 354.834 296.058ZM361.265 251.517C360.31 249.68 359.322 247.627 359.583 246.481C360.559 245.664 361.535 244.846 362.476 243.814C362.976 244.176 363.26 244.573 363.794 245.151C362.841 247.512 361.82 249.441 361.265 251.517ZM380.344 306.378C375.052 299.484 371.383 291.67 367.497 283.89C368.666 281.495 369.8 278.886 370.503 276.344C374.422 284.34 378.307 292.119 382.226 300.115C381.671 302.191 381.116 304.267 380.344 306.378ZM373.892 112.101C371.349 111.399 368.693 111.378 366.071 111.572C362.834 107.887 359.564 103.987 356.327 100.302C360.425 99.6526 364.67 98.5384 368.983 97.8552C372.39 102.618 376.013 107.346 380.033 111.791C384.553 116.598 389.867 120.838 394.569 125.395C395.352 126.155 396.51 125.088 395.726 124.328C391.275 119.952 386.21 115.894 381.759 111.518C377.557 107.323 373.934 102.594 370.493 97.6161C381.095 96.1579 391.504 96.2766 398.647 105.087C398.114 104.509 399.284 106.312 400.385 107.684C403.225 111.653 407.006 114.588 409.664 118.807C410.834 120.61 413.071 123.57 415.592 126.926C415.876 127.323 415.979 127.969 416.013 128.185C418.546 134.411 419.615 139.765 423.159 145.39C424.011 146.581 424.613 147.59 425.215 148.599C425.249 148.815 425.533 149.212 425.567 149.427C427.725 153.283 429.418 156.991 430.85 161.846C433.544 170.477 436.034 182.013 436.605 191.201C436.995 200.64 432.9 209.683 433.04 218.94C433.111 227.766 435.442 236.897 436.16 245.62C437.049 255.421 436.132 262.194 433.899 271.826C431.735 281.89 431.58 292.077 428.519 302.062C425.872 296.516 422.396 291.322 418.489 286.197C418.421 285.766 418.603 285.516 418.534 285.085C419.144 276.373 422.876 267.828 423.02 258.968C423.153 251.436 421.822 243.03 420.661 235.703C419.876 230.746 419.16 226.22 420.134 221.205C420.858 216.009 422.73 211.073 422.989 205.73C423.598 197.017 420.553 187.558 418.79 179.221C417.585 173.005 415.051 166.778 411.36 161.619C406.885 155.7 404.317 149.258 400.489 143.236C398.752 140.64 396.775 136.534 394.356 133.824C389.937 125.466 384.133 115.339 373.892 112.101ZM356.184 113.359C352.949 113.871 349.533 114.633 346.332 115.361C342.743 110.848 339.154 106.335 335.532 101.607C340.628 101.683 345.691 101.544 350.686 100.974C351.98 100.769 353.058 100.598 354.352 100.394C357.589 104.078 360.825 107.763 364.096 111.664C361.111 112.358 358.557 112.983 356.184 113.359ZM332.632 118.194C331.553 118.365 330.225 118.354 329.147 118.525C328.739 120.136 328.297 121.532 328.104 123.109C326.787 121.771 325.47 120.433 324.402 119.276L324.584 119.027C324.368 119.061 324.368 119.061 324.152 119.095C324.152 119.095 324.118 118.879 323.903 118.914C323.869 118.698 323.834 118.483 323.8 118.267C323.743 116.509 322.346 116.067 321.234 116.022C317.248 111.793 313.262 107.564 309.492 103.301L309.707 103.267C317.222 101.856 325.19 101.919 332.944 102.017C336.566 106.745 340.405 111.44 344.244 116.134C340.146 116.783 336.548 117.795 332.632 118.194ZM318.556 118.656C313.925 118.727 309.043 118.616 304.446 118.902C304.333 119.583 304.22 120.264 303.856 120.763C302.289 119.244 300.688 117.509 299.087 115.774C299.937 112.768 300.787 109.761 301.638 106.754C301.751 106.074 301.864 105.393 301.978 104.712L302.193 104.678C302.601 103.067 303.009 101.456 303.383 99.6291C303.917 100.207 304.485 101.001 305.234 101.545C309.788 106.568 314.558 111.557 319.111 116.58C318.783 117.294 318.419 117.794 318.556 118.656ZM291.151 111.729C290.982 114.849 290.778 117.753 290.359 120.692C287.59 121.351 284.752 121.58 281.846 121.377C276.861 116.423 272.307 111.4 267.719 106.161C273.52 107.894 278.322 108.901 284.861 108.307C286.189 108.317 287.699 108.078 288.993 107.873C289.776 108.633 290.594 109.608 291.377 110.368C291.23 110.833 291.082 111.298 291.151 111.729ZM286.667 142.043C286.293 143.87 285.737 145.946 285.148 147.807C271.811 150.141 257.902 143.285 245.222 139.992C240.136 138.588 236.162 137.229 230.907 138.945C228.784 139.502 226.73 140.49 224.857 141.229C223.143 140.175 221.428 139.121 219.93 138.032C215.286 135.233 210.46 132.684 206.145 129.169C205.362 128.41 204.363 127.684 203.579 126.925C209.334 125.571 215.02 123.787 220.173 121.424C222.443 120.402 224.316 119.664 226.223 119.141C235.999 126.429 245.775 133.718 255.733 140.757C256.733 141.482 257.822 139.984 256.823 139.259C247.33 132.367 237.872 125.691 228.776 118.515C230.286 118.276 232.08 118.434 234.373 118.954C237.563 119.554 240.571 120.403 243.796 121.218C251.175 123.142 258.588 125.282 266.036 127.637C272.087 129.551 276.458 130.626 282.814 130.282C284.789 130.19 286.515 129.917 288.422 129.394C288.671 129.575 288.955 129.972 289.421 130.119C288.31 134.272 287.596 138.141 286.667 142.043ZM195.904 152.442C194.496 153.328 193.089 154.214 191.682 155.099C188.684 152.923 185.687 150.747 182.689 148.57C179.907 146.36 176.944 144.399 173.946 142.223C175.58 139.976 177.463 137.91 179.381 136.06C181.48 133.96 184.113 132.438 186.599 131.382C193.696 137.106 200.758 142.615 207.821 148.125C204.076 149.601 199.797 150.5 195.904 152.442ZM138.736 150.229C141.63 147.562 144.274 144.713 146.668 141.683C147.417 142.227 148.201 142.986 148.95 143.53C151.732 145.741 154.73 147.917 157.693 149.878C155.118 153.158 152.542 156.438 149.717 159.537C145.141 157.168 140.384 155.05 135.446 153.181C136.603 152.114 137.76 151.047 138.736 150.229ZM213.183 98.2296C218.983 95.7645 221.866 94.4242 227.746 95.2603C234.48 101.484 241.18 107.493 248.129 113.683C245.586 112.981 243.259 112.245 240.716 111.543C234.483 109.879 229.794 108.191 223.461 110.078C221.985 110.533 220.51 110.988 219.068 111.658C216.82 110.025 214.788 108.359 212.505 106.511C210.223 104.663 207.941 102.816 205.874 100.934C208.394 100.093 210.913 99.2519 213.183 98.2296ZM211.537 66.8978C217.428 66.4066 224.171 67.106 230.801 68.4862C231.585 69.2458 232.118 69.824 232.686 70.6178C235.673 74.1214 238.66 77.625 241.828 80.879C245.031 84.3484 248.233 87.8179 251.401 91.0718C246.497 89.4184 241.592 87.765 236.756 86.5427C230.308 84.9129 225.369 83.0439 219.183 84.4656C217.9 83.3432 216.832 82.1868 215.549 81.0644C211.881 77.4478 208.758 73.0821 205.272 69.2157C204.988 68.8188 204.738 68.6375 204.454 68.2406C207.008 67.6152 209.13 67.0581 211.537 66.8978ZM356.839 72.8256C363.152 77.7907 369.466 82.7558 375.961 87.4712C373.588 87.8469 371.466 88.4041 369.309 88.7456C367.799 88.9847 366.505 89.1897 365.03 89.6443C362.724 86.2537 360.668 83.0445 358.363 79.654C356.909 77.454 355.239 75.2883 353.354 73.1566C354.648 72.9517 355.727 72.7809 356.839 72.8256ZM356.819 79.6775C359.125 83.0681 361.43 86.4587 363.52 89.8834C359.025 90.8163 354.349 91.9988 349.854 92.9316C349.57 92.5348 349.036 91.9565 348.752 91.5596C344.414 86.5026 339.86 81.4798 335.919 76.139C341.061 75.1037 346.419 74.0342 351.845 73.3957C353.48 75.346 355.365 77.4776 356.819 79.6775ZM323.263 78.5854C326.68 77.8233 330.346 77.2426 333.978 76.4464C334.796 77.4215 335.432 78.6463 336.25 79.6215C339.873 84.3499 343.893 88.7945 347.913 93.2391C346.188 93.5123 344.462 93.7856 342.737 94.0589C338.605 94.4923 334.439 94.7103 330.239 94.7128C326.332 89.5874 322.425 84.4621 318.519 79.3368C319.847 79.3474 321.538 78.8586 323.263 78.5854ZM327.401 94.9413C321.226 95.0357 315.017 94.9145 308.876 95.2243C308.786 97.4479 308.48 99.7055 308.174 101.963C307.641 101.385 307.141 101.022 306.823 100.41C305.79 99.4689 304.938 98.2782 303.905 97.3373C304.018 96.6565 304.165 96.1914 304.278 95.5106C304.063 95.5448 303.631 95.6131 303.416 95.6473C303.721 93.3896 304.209 90.8822 304.514 88.6246C304.82 86.3669 305.489 83.6098 305.908 80.6715C309.211 80.5901 312.264 80.3274 315.533 80.0306C319.622 84.9062 323.495 89.816 327.401 94.9413ZM298.404 80.7552C298.109 81.6856 297.815 82.616 297.735 83.5123C297.327 85.1234 296.704 86.7687 296.262 88.1643C294.092 85.6358 291.923 83.1073 289.788 80.7943C292.411 80.5999 295.532 80.7683 298.404 80.7552ZM293.495 97.2185C290.079 97.9806 286.56 98.0961 283.222 97.9619C277.283 91.1702 271.559 84.3443 265.654 77.7681C271.671 79.4662 277.585 80.5178 284.226 80.5706C284.873 80.4682 285.339 80.6154 285.985 80.5129C289.188 83.9824 292.141 87.2705 295.343 90.7399C294.572 92.8504 294.016 94.9267 293.495 97.2185ZM248.5 72.7526C252.905 74.0433 257.31 75.334 261.499 76.6588C267.472 83.666 273.446 90.6733 279.635 97.6464C271.348 96.9705 263.004 94.5364 254.875 92.0681C251.423 88.4173 247.971 84.7664 244.269 80.9343C241.1 77.6803 238.114 74.1767 235.127 70.6731C234.593 70.0948 234.059 69.5166 233.526 68.9383C239.043 70.2737 244.129 71.6775 248.5 72.7526ZM239.927 98.1913C248.204 100.194 256.332 102.663 264.245 105.165C269.083 110.585 273.955 116.22 278.974 121.39C270.04 120.817 261.196 118.02 252.352 115.223C245.153 108.852 238.204 102.662 231.186 96.041C234.16 96.6746 237.135 97.3081 239.927 98.1913ZM213.165 109.279C214.448 110.401 215.912 111.274 217.196 112.396C211.18 114.895 205.483 118.007 199.649 120.257C198.605 120.643 197.561 121.029 196.482 121.2C196.233 121.019 196.233 121.019 195.983 120.837C189.806 116.734 183.629 112.631 177.85 108.244C181.629 106.983 185.659 105.903 189.756 105.254C194.467 104.287 199.359 103.07 204.001 101.672C206.67 104.563 210.133 106.887 213.165 109.279ZM166.557 115.114C166.773 115.08 166.739 114.865 166.955 114.83C170.27 117.619 173.62 120.623 176.936 123.412C178.219 124.534 179.718 125.623 181.035 126.961C175.951 129.754 171.468 133.557 167.519 137.938C165.521 136.487 163.273 134.855 161.274 133.404C159.276 131.953 157.278 130.502 155.313 129.267C158.694 124.092 162.109 119.133 166.557 115.114ZM180.86 113.291C185.106 116.374 189.534 119.207 193.997 122.256C190.183 123.302 186.369 124.348 182.658 126.041C181.625 125.1 180.625 124.374 179.376 123.467C175.561 120.316 171.927 116.915 168.112 113.763C170.461 111.845 172.912 110.573 175.58 109.267C177.328 110.536 179.111 112.021 180.86 113.291ZM149.827 119.752C148.885 120.785 148.193 122 147.251 123.032C145.469 121.547 143.72 120.278 141.937 118.793C139.121 116.367 136.305 113.941 133.307 111.764C137.687 107.315 142.067 102.865 146.981 98.9942C150.581 102.18 154.544 104.866 158.325 107.802C159.074 108.346 159.824 108.89 160.357 109.468C156.419 112.522 152.981 115.939 149.827 119.752ZM128.167 116.997C129.325 115.93 130.482 114.863 131.424 113.83C133.388 115.066 135.318 116.085 137.101 117.57C139.133 119.237 141.166 120.903 143.199 122.57C144.198 123.295 145.197 124.021 145.981 124.78C143.768 127.561 141.59 130.557 139.411 133.553C136.096 130.764 132.564 128.01 129.067 125.471C127.284 123.986 125.536 122.716 123.537 121.265C125.273 119.665 126.828 118.314 128.167 116.997ZM147.939 139.935C150.117 136.939 152.261 133.727 154.406 130.515C157.619 132.658 160.616 134.834 163.648 137.226C164.398 137.77 165.397 138.495 166.18 139.255C165.817 139.754 165.42 140.038 165.057 140.537C163.026 143.068 160.995 145.599 158.998 148.346C155.251 145.625 151.504 142.905 147.939 139.935ZM172.925 144.152C178.455 148.357 184.234 152.744 189.946 156.7C187.778 158.369 185.679 160.469 183.795 162.534C178.039 159.69 172.249 156.631 166.64 153.321C168.784 150.11 170.747 147.148 172.925 144.152ZM188.506 130.859C192.036 129.416 195.883 128.585 199.765 127.971C200.197 127.902 200.844 127.8 201.491 127.697C201.741 127.879 202.025 128.276 202.49 128.423C208.872 133.819 216.161 137.967 223.234 142.149C219.307 143.875 215.449 146.033 211.453 147.328C211.022 147.397 210.841 147.646 210.409 147.715C202.699 142.308 195.603 136.583 188.506 130.859ZM291.365 107.498C291.365 107.498 291.581 107.463 291.365 107.498C291.581 107.463 291.581 107.463 291.365 107.498C291.581 107.463 291.365 107.498 291.365 107.498ZM407.982 298.024C403.166 289.95 398.997 281.773 394.828 273.596C395.792 269.909 396.539 266.255 396.606 262.489C396.549 260.731 396.491 258.972 396.4 256.999C398.274 260.457 400.761 263.598 403.283 266.955C406.054 270.492 408.643 274.28 411.233 278.067C410.316 284.84 409.83 291.545 407.982 298.024ZM181.539 78.4978C187.883 75.2836 195.204 71.2522 202.763 68.7294C204.864 70.8268 206.601 73.4236 208.021 75.408C210.792 78.9458 213.711 82.0184 216.845 85.0568C210.546 87.1592 204.383 90.1236 198.22 93.088C197.686 92.5098 197.152 91.9315 196.8 91.1036C193.745 87.169 190.52 82.1567 185.433 80.753C184.968 80.6058 184.355 80.9238 184.458 81.5703C185.322 85.6311 189.75 88.4645 192.782 90.8564C193.066 91.2533 193.61 90.5042 193.145 90.357C190.828 88.2937 187.581 85.936 186.24 83.0554C190.634 85.6733 193.508 89.8577 196.563 93.7923C194.293 94.8146 191.807 95.8711 189.503 96.6779C183.454 98.9616 176.984 99.9863 171.003 102.701C167.584 99.2658 163.031 94.243 158.82 95.5727C158.388 95.641 158.207 95.8907 158.275 96.3217L158.582 98.2614C158.651 98.6924 159.298 98.59 159.445 98.1248C160.079 95.1522 166.779 101.161 169.345 103.405C169.13 103.44 168.948 103.689 168.733 103.723C166.281 104.995 164.079 106.449 161.912 108.118C158.131 105.182 154.384 102.461 150.603 99.5253C150.568 99.3097 150.784 99.2756 150.534 99.0942C149.785 98.5501 149.251 97.9719 148.502 97.4278C149.296 96.8601 149.875 96.3266 150.669 95.7589C159.589 89.2649 171.518 83.6198 181.539 78.4978ZM102.191 137.239C108.977 132.629 115.945 127.77 122.38 122.332C123.345 122.842 124.06 123.171 124.844 123.93C129.59 127.376 134.155 131.072 138.504 134.801C134.26 140.113 129.767 145.243 124.422 149.183C120.414 147.608 116.406 146.034 112.546 143.994C108.686 141.954 104.542 139.518 100.023 138.908C100.239 138.874 100.421 138.624 100.636 138.59C100.681 137.478 101.476 136.91 102.191 137.239ZM189.856 220.341C190.072 220.307 190.037 220.091 190.253 220.057C188.221 218.391 186.154 216.509 184.121 214.842C183.906 214.876 183.94 215.092 183.724 215.126C179.625 211.578 175.741 207.995 171.858 204.413C171.858 204.413 171.858 204.413 172.073 204.379C166.407 199.311 160.775 194.459 155.109 189.391L154.893 189.426C150.328 185.73 145.945 181.785 141.562 177.84C141.562 177.84 141.778 177.805 141.743 177.59C139.143 175.13 136.361 172.919 133.761 170.459L133.545 170.493C130.979 168.249 128.412 166.004 126.062 163.725C128.639 164.642 131.466 165.741 134.043 166.659C134.974 166.953 135.416 165.557 134.485 165.263C130.943 163.836 127.219 162.658 123.677 161.231C120.861 158.805 118.226 156.129 115.626 153.669C115.41 153.703 115.013 153.987 114.797 154.021C108.768 149.453 102.194 145.634 95.6883 142.246C96.4486 141.462 97.243 140.895 98.0374 140.327C98.6053 141.121 99.2073 142.13 99.5595 142.958C99.8434 143.355 100.241 143.071 100.172 142.64C100.138 142.424 98.8659 139.975 99.2631 139.691C99.8418 139.157 103.418 140.8 104.133 141.129C107.426 142.375 110.355 144.12 113.285 145.865C116.43 147.577 119.506 148.857 122.799 150.103C122.004 150.67 121.176 151.022 120.597 151.556C123.413 153.982 126.195 156.192 129.011 158.618C130.782 157.233 132.336 155.883 134.072 154.282C139.011 156.151 143.802 158.485 148.594 160.819C145.916 163.453 142.988 165.905 139.742 167.744C142.274 169.773 144.625 172.052 147.157 174.081C150.119 171.845 153.012 169.177 155.725 166.759C156.303 166.226 156.666 165.727 157.245 165.193C161.571 167.38 165.715 169.817 170.075 172.219C171.04 172.729 172.129 171.231 171.164 170.721C167.02 168.284 162.694 166.097 158.584 163.876C161.228 161.027 163.622 157.997 165.766 154.785C171.159 158.129 176.916 160.973 182.672 163.817C176.182 171.694 170.396 181.226 161.521 186.608C163.554 188.275 165.62 190.157 167.437 191.857C169.786 189.939 172.317 187.771 174.632 185.636C180.635 180.267 184.39 173.266 188.894 166.808L189.144 166.99C190.109 167.499 190.732 165.854 189.983 165.31C191.254 163.562 192.74 161.78 194.476 160.18C194.658 159.93 194.873 159.896 195.271 159.612C198.2 161.358 201.345 163.069 204.422 164.349C205.387 164.859 206.226 163.179 205.045 162.703C202.184 161.389 199.505 159.825 196.825 158.261C201.013 155.389 206.121 154.138 211.263 153.103C212.341 152.932 213.419 152.761 214.463 152.375C214.963 152.737 215.463 153.1 215.962 153.463C216.712 154.007 217.619 152.759 216.87 152.215L216.62 152.033C220.65 150.953 224.645 149.658 228.356 147.965C229.4 147.579 230.229 147.227 231.057 146.874C236.269 150.468 241.481 154.061 247.464 155.543C248.61 155.803 248.768 154.011 247.622 153.751C242.104 152.415 238.039 149.083 233.361 146.068C235.268 145.545 237.243 145.453 240.002 146.121C242.511 146.607 245.27 147.275 247.813 147.976C254.045 149.64 260.062 151.339 266.329 153.218C271.234 154.871 274.889 155.618 280.167 155.445C281.246 155.274 282.358 155.319 283.618 154.898C283.437 155.148 283.505 155.579 283.323 155.829C282.212 159.981 283.406 163.327 282.942 167.377L282.976 167.593C277.663 167.551 272.532 167.259 267.299 166.32C261.384 165.268 254.709 165 248.942 163.483C241.063 161.196 233.717 155.29 225.113 158.199C217.986 160.654 209.894 166.796 204.288 171.881C199.443 176.184 197.164 182.731 192.25 186.602C186.11 191.109 179.311 192.849 173.251 196.46C175.034 197.945 176.601 199.464 178.418 201.165C180.937 200.324 183.491 199.698 185.83 199.107C191.516 197.323 198.36 194.471 202.49 189.84C204.737 187.275 205.769 184.019 208.015 181.454C210.443 178.639 213.905 176.765 216.617 174.347C219.329 171.929 221.768 167.787 225.048 166.163C233.015 162.029 242.406 168.274 250 170.164C262.613 173.027 273.989 177.853 286.34 177.665C286.94 174.476 287.54 171.288 288.141 168.1C288.141 168.1 288.141 168.1 287.925 168.134L288.107 167.885C290.169 157.175 292.446 146.43 294.474 135.505C294.44 135.289 294.622 135.039 294.588 134.824C296.336 136.093 298.085 137.363 299.799 138.417C300.798 139.142 301.888 137.644 300.888 136.919C298.924 135.684 296.926 134.233 295.143 132.748C296.117 127.733 297.557 122.865 298.997 117.998C300.564 119.517 302.165 121.252 303.732 122.771C303.472 123.917 303.177 124.847 302.916 125.993C303.348 125.925 303.995 125.823 304.392 125.539C305.039 125.436 305.686 125.334 306.333 125.231C307.366 126.172 308.184 127.147 309.217 128.088C310.001 128.848 311.306 127.316 310.306 126.59C309.773 126.012 309.239 125.434 308.739 125.071C311.793 124.808 314.631 124.58 317.718 124.533C317.457 125.679 316.981 126.859 316.936 127.97C316.064 133.632 314.012 138.817 312.424 144.15C312.277 144.615 312.164 145.296 312.016 145.761C307.6 145.798 303.4 145.8 298.985 145.837C298.611 147.663 298.487 149.671 298.113 151.498C302.176 150.633 306.592 150.597 310.792 150.594C310.418 152.421 310.01 154.032 309.636 155.859C309.149 158.366 309.127 161.021 309.106 163.675C310.296 158.626 311.951 153.725 313.459 149.288C316.407 139.984 319.786 130.612 323.381 121.205C328.401 126.376 333.42 131.546 338.655 136.681C339.688 137.622 341.243 136.272 340.21 135.331C336.792 131.895 333.124 128.279 329.706 124.843C333.009 124.762 336.312 124.681 339.581 124.384C342.635 124.121 346.051 123.359 349.468 122.597C353.022 126.894 356.793 131.158 360.563 135.421C361.381 136.396 362.72 135.079 361.936 134.32C358.45 130.453 354.929 126.371 351.624 122.255C358.707 120.913 365.824 119.785 372.057 121.449C374.51 124.375 376.963 127.3 379.632 130.191C380.449 131.166 382.004 129.816 381.186 128.84C379.551 126.89 377.916 124.94 376.065 123.024C377.995 124.044 379.993 125.495 381.663 127.66C381.129 127.082 382.265 128.67 383.151 130.076C385.706 133.648 388.772 136.255 391.112 139.861C392.247 141.449 393.985 144.046 396.188 146.79C396.257 147.221 396.541 147.618 396.575 147.833C398.756 153.232 399.723 157.939 402.914 162.736C403.516 163.745 404.118 164.754 404.686 165.548C404.721 165.764 404.755 165.979 405.004 166.16C406.879 169.619 408.253 172.715 409.583 176.923C411.89 184.511 414.142 194.538 414.508 202.434C414.942 210.76 411.29 218.408 411.259 226.587C411.375 234.301 413.285 242.173 413.833 249.819C414.517 258.327 413.714 264.419 411.923 272.656C411.697 274.017 411.436 275.163 411.209 276.525C406.099 269.381 401.022 262.452 395.911 255.309C395.478 251.179 394.83 247.085 394.215 243.205C393.567 239.11 392.986 235.447 393.632 231.147C394.277 226.847 395.854 222.841 396.033 218.394C396.451 211.259 394.075 203.24 392.552 196.411C391.517 191.273 389.585 186.056 386.496 181.906C382.839 176.962 380.657 171.563 377.466 166.766C376.012 164.566 374.387 161.289 372.253 158.976C368.47 151.843 363.37 143.371 354.991 140.722C350.337 139.25 344.866 141 340.121 141.751C333.651 142.776 327.136 144.913 320.632 145.722C320.201 145.79 319.985 145.824 319.554 145.893C318.964 147.754 318.375 149.614 317.967 151.225C320.838 151.212 323.71 151.199 326.298 150.789C337.797 149.41 352.745 143.287 361.205 153.435C360.921 153.038 361.558 154.263 362.409 155.454C364.431 158.447 367.179 160.442 368.985 163.47C369.871 164.876 371.506 166.827 373.21 169.208C373.278 169.639 373.528 169.82 373.596 170.251C375.391 174.606 376.256 178.667 378.879 182.67C379.447 183.464 379.799 184.292 380.367 185.086C380.401 185.301 380.436 185.517 380.685 185.698C382.242 188.544 383.548 191.21 384.525 194.59C386.412 200.919 388.39 209.221 388.552 215.824C388.963 222.607 385.787 229.075 385.983 235.893C386.11 242.28 387.815 248.858 388.158 255.211C388.284 257.4 388.341 259.159 388.398 260.917C386.001 255.553 383.173 250.256 378.529 247.457C378.029 247.094 377.019 247.696 377.337 248.309C377.621 248.705 377.689 249.137 377.973 249.533C378.008 249.749 378.473 249.896 378.655 249.646C382.504 253.013 384.515 257.334 386.344 261.905C386.765 263.164 387.367 264.173 388.003 265.398C387.765 268.087 387.097 270.844 386.496 274.032C384.637 281.838 384.822 289.983 382.248 297.46C382.248 297.46 382.282 297.676 382.067 297.71C377.898 289.533 373.944 281.322 369.991 273.111C370.341 269.742 369.182 266.612 368.852 263.129C367.849 254.009 370.538 250.048 374.44 242.581C375.79 239.937 377.027 237.974 377.196 234.854C377.353 228.865 374.422 222.922 373.932 217.035C373.646 212.44 373.724 207.347 373.869 202.684C374.06 196.91 373.969 194.936 369.381 189.698C364.225 183.666 361.294 177.723 354.936 173.87C348.554 168.473 344.307 165.39 334.669 163.161C327.324 161.452 321.512 161.047 314.531 163.037C313.863 165.794 313.41 168.517 312.957 171.24C315.805 169.684 318.654 168.128 321.889 167.616C328.359 166.591 336.601 168.378 342.652 170.292C345.445 171.175 347.625 172.376 349.657 174.043C353.893 178.453 357.845 182.467 361.536 187.626C363.558 190.62 368.191 194.747 368.737 198.195C369.522 203.152 366.222 211.628 366.212 217.153C366.248 221.565 367.828 225.955 368.079 230.333C368.251 235.608 366.289 238.57 364.099 242.894C363.736 243.393 363.589 243.858 363.441 244.324C361.874 242.804 360.523 241.251 358.321 242.704C355.325 244.725 357.62 249.443 358.677 251.927C359.063 252.97 359.415 253.798 359.802 254.842C359.417 257.996 359.713 261.263 361.043 265.471C361.918 268.204 361.896 270.859 361.659 273.547C359.466 269.476 357.093 265.654 355.116 261.549C352.503 256.219 351.4 250.649 349.831 244.933C350.365 245.511 350.899 246.089 351.251 246.917C351.535 247.314 351.898 246.815 351.864 246.599C351.159 244.943 350.376 244.184 349.093 243.061C348.593 242.699 348.014 243.232 348.083 243.663C349.004 249.482 350.391 255.448 352.789 260.813C355.186 266.177 358.411 271.19 360.99 276.304C359.653 281.818 356.737 287.14 354.969 292.723C354.685 292.326 354.401 291.929 354.083 291.317C350.221 285.08 345.928 278.911 342.86 272.106C341.52 269.226 340.61 266.277 339.701 263.328C340.291 261.467 340.88 259.606 341.686 257.711C346.438 247.238 351.927 234.438 352.525 222.855C353.032 213.496 348.726 204.457 344.557 196.28C343.603 194.443 341.265 195.035 340.857 196.646C331.512 189.289 316.14 185.758 307.072 188.52C300.738 190.407 295.688 193.416 288.65 193.647C280.284 193.868 274.788 189.878 267.159 187.772C262.289 186.334 258.941 187.527 254.162 188.063C246.545 188.828 241.436 185.881 234.159 184.604C226.201 183.213 220.403 189.875 215.512 195.289C211.961 199.387 210.021 203.891 204.937 206.685C199.637 209.513 193.212 209.426 187.878 212.038C189.695 213.739 191.546 215.655 193.362 217.355C194.372 216.753 195.201 216.401 196.461 215.981C200.206 214.504 203.941 214.354 207.618 212.446C214.757 208.665 218.08 201.731 223.402 196.249C228.361 191.266 230.325 192.501 236.445 194.846C240.452 196.421 243.382 198.166 247.831 198.345C254.506 198.613 260.022 195.751 266.754 197.778C271.625 199.216 275.553 201.686 280.718 202.194C289.289 203.267 296.814 200.528 304.316 196.247C314.269 190.694 338.301 193.074 343.868 205.889C344.186 206.502 344.255 206.933 344.573 207.545C344.607 207.761 344.641 207.976 344.675 208.192C344.709 208.407 344.709 208.407 344.709 208.407C346.039 212.615 347.187 217.073 346.871 220.658C346.148 230.051 342.042 240.422 337.845 248.819C337.188 250.249 336.53 251.679 335.656 253.143C335.622 252.927 335.372 252.746 335.338 252.53C334.668 251.09 333.816 249.899 333.146 248.459C331.237 244.785 335.687 244.964 337.788 247.061C338.072 247.458 338.651 246.924 338.367 246.528C336.947 244.543 333.006 239.202 330.567 243.344C329.693 244.808 330.432 246.68 331.102 248.12C332.193 250.819 333.431 253.053 334.704 255.503C333.275 259.043 331.846 262.583 330.666 266.305C328.44 262.018 326.248 257.947 324.237 253.626C324.237 253.626 324.237 253.626 324.203 253.41C324.384 253.161 324.35 252.945 324.1 252.764C323.43 251.324 322.794 250.099 321.908 248.693C327.386 237.22 333.614 226.292 318.741 218.927C317.526 218.236 316.55 219.053 316.074 220.233C309.25 216.233 298.954 215.433 292.336 216.923C283.778 218.721 277.137 218.668 268.351 217.629C264.514 217.132 260.495 216.885 256.624 216.173C250.891 214.871 246.61 211.573 241.275 209.988C229.422 206.342 218.042 219.632 210.586 226.999C205.23 232.266 196.661 235.391 192.657 242.211C189.049 248.747 190.244 256.29 189.792 263.211C189.51 267.011 188.047 270.336 189.127 274.362C189.889 277.777 192.66 281.314 194.466 284.342C199.134 292.882 198.922 301.311 201.468 310.407C203.491 317.598 205.538 326.332 210.228 332.217C215.736 339.077 224.877 345.141 232.779 348.971C245.688 355.1 261.002 356.872 273.906 350.41C281.692 346.526 286.992 343.698 292.256 336.457C297.339 329.466 298.393 323.555 299.933 315.137C301.134 308.761 302.188 302.85 304.751 296.7C306.509 292.445 309.016 288.734 310.524 284.297C311.443 281.722 312.327 278.93 312.996 276.173C313.848 277.364 314.733 278.77 315.585 279.961C318.459 284.145 321.514 288.08 324.353 292.049C323.787 295.452 323.039 299.106 322.473 302.509C320.989 312.686 317.145 321.911 314.015 331.465C311.067 340.768 309.663 350.049 300.039 354.887C291.425 359.124 282.061 362.816 272.708 365.181C264.184 367.194 254.33 364.999 245.533 365.287C234.329 365.736 227.564 367.692 219.705 358.553C216.968 355.23 213.221 352.51 210.484 349.188C206.93 344.89 205.679 339.786 201.761 335.988C198.128 332.587 193.007 330.968 189.771 327.283C186.319 323.632 185.068 318.528 183.454 313.923C180.125 304.067 177.873 294.04 177.563 283.705C177.459 278.862 177.037 273.405 177.149 268.527C177.374 262.968 178.995 257.851 179.22 252.292C179.287 248.526 178.775 245.293 177.979 241.664C186.697 242.271 193.961 240.679 196.241 234.132C198.396 229.593 194.023 224.32 189.856 220.341ZM137.416 232.623C139.46 232.962 142.684 233.777 146.623 234.921C146.023 238.109 146.069 241.194 146.547 244.212C147.343 247.841 146.811 251.46 146.529 255.261C142.192 254.401 137.89 253.757 133.587 253.113C133.553 252.898 133.734 252.648 133.7 252.432C134.074 250.606 134.551 249.426 134.561 248.098C135.775 244.592 135.342 240.463 135.159 236.516C136.952 236.673 138.712 236.616 140.505 236.773C141.402 236.852 141.629 235.491 140.732 235.412C138.938 235.254 136.929 235.131 135.17 235.188C135.249 234.292 135.112 233.43 135.191 232.534C136.054 232.397 136.735 232.51 137.416 232.623ZM128.993 231.085C128.948 232.197 129.119 233.275 129.323 234.568C122.399 234.118 115.508 233.884 108.618 233.65C108.526 231.676 108.401 229.486 108.275 227.297C115.12 228.643 122.182 229.955 128.993 231.085ZM101.214 225.985C101.589 228.356 102.214 230.908 102.374 233.313C96.3806 233.158 90.5685 232.753 84.5748 232.597C84.9596 229.443 84.8789 226.142 84.7982 222.841C90.2814 223.961 95.7305 224.865 101.214 225.985ZM61.8894 219.179C66.873 219.936 71.8566 220.693 76.8744 221.666C77.4547 225.33 78.2506 228.959 78.1498 232.51C77.4686 232.397 77.0373 232.466 76.3562 232.352C74.3469 232.229 66.06 231.553 59.3061 232.181C59.6459 230.139 59.9856 228.097 60.5752 226.236C60.8809 223.978 61.3681 221.471 61.8894 219.179ZM57.1557 249.312C57.9051 249.856 58.4388 250.434 58.9726 251.013C59.0067 251.228 59.6537 251.126 59.3697 250.729C58.9493 249.47 58.1999 248.926 57.2348 248.416C57.2798 247.304 57.3248 246.192 57.5854 245.046C63.2502 245.916 68.8125 246.14 74.3408 246.148C73.8644 247.328 73.4222 248.724 73.1616 249.87C71.79 255.168 70.9522 261.045 71.4084 266.717C66.9585 266.538 62.4745 266.144 58.0929 266.396C57.9222 265.318 57.7174 264.025 57.5467 262.947C57.0797 258.603 57.0099 253.974 57.1557 249.312ZM58.4683 268.766C62.203 268.617 65.756 268.717 69.5589 268.998C70.24 269.111 70.887 269.009 71.5682 269.122C71.6364 269.553 71.7388 270.199 71.8071 270.63C73.3649 277.674 76.6139 284.229 77.956 291.307C74.9367 291.786 71.8832 292.048 68.5458 291.914C66.9679 291.722 65.6397 291.712 64.3116 291.701C62.8671 283.976 60.1285 276.457 58.4683 268.766ZM65.016 293.357C67.4566 293.412 69.7157 293.717 72.1563 293.772C74.3471 293.646 76.3222 293.555 78.4448 292.997C79.4347 299.247 78.8808 305.521 80.0864 311.737C80.3936 313.677 80.9165 315.582 81.4394 317.488C76.6947 318.239 71.2689 318.878 66.1953 320.344C66.6576 312.097 66.9043 303.883 65.6072 295.693C65.255 294.866 65.1526 294.219 65.016 293.357ZM65.9238 322.817C71.2472 321.532 76.5364 320.032 81.894 318.962C83.4968 324.894 85.2469 330.361 85.2268 337.213C85.3292 337.86 85.1818 338.325 85.2501 338.756C84.3874 338.893 83.3091 339.063 82.4464 339.2C78.5644 339.815 75.0796 340.146 71.2426 339.649C68.9835 339.344 67.6554 339.333 65.5328 339.891C65.3265 334.4 65.5173 328.626 65.9238 322.817ZM71.2861 365.049C67.1853 357.303 65.7066 349.363 65.3063 341.252C68.757 340.705 72.0153 341.736 75.5684 341.836C78.4403 341.823 81.4255 341.129 84.4448 340.651C84.6605 340.617 84.8761 340.583 85.0918 340.548C85.2299 345.608 86.1965 350.315 87.6628 355.385C88.0491 356.429 88.1857 357.291 88.572 358.334C84.5426 359.414 80.8655 361.322 76.8361 362.402C76.8019 362.187 76.9493 361.722 76.8127 360.859C76.7445 360.428 76.3131 360.497 76.1316 360.746C75.8027 361.461 75.2581 362.21 74.9291 362.925C74.5661 363.425 75.0998 364.003 75.5653 364.15C78.4031 363.921 80.6389 362.684 83.1245 361.627C84.9631 360.673 86.87 360.15 89.0266 359.809C91.0607 365.672 93.3105 371.502 95.9575 377.048C94.0165 377.355 92.0414 377.447 90.2478 377.289C87.8072 377.234 85.5481 376.929 82.9259 377.123C81.8476 377.294 79.6909 377.636 77.5684 378.193C75.7391 373.622 73.5126 369.335 71.2861 365.049ZM102.252 423.771C97.2656 414.619 90.7925 407.249 86.6001 397.53C83.8507 391.337 81.1355 385.36 78.3861 379.168C78.8174 379.1 79.4644 378.997 79.8958 378.929C83.9934 378.28 87.8305 378.777 92.0305 378.774C93.79 378.717 95.3338 378.693 97.0591 378.42C98.7519 382.128 100.842 385.553 102.966 389.193C100.31 389.172 97.6534 389.151 94.9971 389.13C94.963 388.914 94.9289 388.699 94.7132 388.733C93.1694 388.757 92.2726 388.678 90.7288 388.701C89.6163 388.657 89.8894 390.381 90.7862 390.46C95.3043 391.07 99.5386 391.283 103.92 391.031C103.954 391.246 104.204 391.427 104.238 391.643C108.702 398.889 112.519 406.238 117.493 412.52C114.111 413.498 110.944 414.441 107.562 415.418C107.13 415.487 107.233 416.133 107.698 416.281C111.399 415.915 115.031 415.119 118.845 414.073C121.831 417.577 125.25 421.012 129.246 423.914C129.996 424.458 130.995 425.184 131.96 425.694C124.798 427.932 117.307 430.886 111.565 435.11C107.75 431.958 104.729 428.239 102.252 423.771ZM205.512 469.938C208.237 470.391 210.711 470.661 213.22 471.148C212.925 472.078 212.631 473.009 212.336 473.939C211.191 477.876 209.58 481.666 208.219 485.637C187.036 481.702 166.805 475.406 149.161 464.503C146.697 462.905 143.983 461.126 141.485 459.312C143.313 459.685 145.107 459.843 147.116 459.967C146.934 460.217 146.968 460.432 147.218 460.613C152.283 464.672 159.491 465.518 165.621 466.536C174.907 467.937 184.228 469.554 193.366 471.42C194.297 471.715 194.49 470.138 193.559 469.843C185.351 468.271 176.962 466.949 168.788 465.592C161.761 464.496 154.768 463.615 148.478 460.193C159.24 461.14 170.262 460.94 181.148 459.879C182.431 461.001 183.964 462.305 185.644 463.143C191.934 466.566 198.666 468.592 205.512 469.938ZM249.576 463.401C248.554 461.133 247.395 458.003 246.202 454.657C243.873 449.723 241.578 445.006 239.862 439.754C238.568 439.959 237.274 440.164 236.014 440.585C230.418 440.145 224.934 439.025 219.27 438.155C211.561 436.946 202.672 435.261 196.507 429.831C192.373 426.067 189.103 422.166 184.538 418.471C182.755 416.986 180.791 415.75 178.792 414.299C179.224 414.231 179.655 414.163 180.268 413.845C181.312 413.458 181.073 411.95 179.995 412.121C178.951 412.507 178.088 412.643 177.044 413.03C171.367 409.29 165.292 405.833 159.615 402.093C168.752 399.762 177.958 397.862 186.924 394.454C190.818 396.709 194.747 399.18 198.312 402.15C201.912 405.335 204.502 409.123 208.646 411.559C213.006 413.962 217.91 415.615 222.928 416.588C234.541 418.725 244.599 418.016 256.166 417.068C261.864 418.153 267.813 419.42 273.591 419.61C276.463 419.597 279.403 420.015 282.309 420.217C286.454 422.654 290.564 424.875 294.855 426.846C300.112 429.328 306.027 430.379 311.283 432.861C312.248 433.371 312.872 431.725 311.907 431.215C307.831 429.21 303.279 428.384 299.021 426.628C294.548 424.907 290.188 422.504 285.828 420.102C287.588 420.044 289.132 420.021 290.857 419.747C293.661 419.303 296.146 418.247 298.847 417.156C303.421 415.327 307.077 416.074 311.64 415.572C316.419 415.036 319.358 411.257 323.432 409.065C327.111 411.354 330.245 414.393 333.345 417.215C335.911 419.46 338.546 422.136 341.612 424.743C340.965 424.846 340.567 425.13 339.92 425.232C333.768 426.869 329.513 429.311 324.247 432.354C318.981 435.397 314.757 433.857 309.366 434.711C305.484 435.326 302.453 437.131 298.674 438.393C291.149 441.131 280.534 439.719 272.418 440.121C271.987 440.189 271.521 440.042 271.306 440.076C266.878 437.243 262.994 433.66 260.665 428.727C260.597 428.296 259.984 428.614 260.018 428.829C261.2 433.502 264.437 437.187 268.4 439.874C260.612 439.561 252.904 438.351 245.219 438.685C246.242 440.953 247.48 443.187 248.503 445.455C250.262 445.397 252.203 445.09 253.962 445.032C261.024 446.344 267.903 447.906 274.794 448.14C278.131 448.274 281.718 448.59 285.056 448.724C290.347 451.421 295.49 454.583 301.076 456.349C304.584 457.561 308.421 458.058 312.076 458.804C308.909 459.748 306.276 461.269 303.144 462.428C294.575 465.553 282.382 463.949 272.938 464.34C267.444 464.548 262.063 464.075 256.682 463.601C257.989 466.266 259.329 469.147 260.67 472.028C265.688 473 270.671 473.757 275.553 473.868C283.306 473.966 291.729 475.504 299.527 474.489C303.409 473.875 306.905 472.216 310.684 470.955C316.95 468.637 322.183 469.576 328.472 468.8C335.838 467.855 340.161 461.647 346.789 458.83C355.506 455.24 364.28 453.408 372.576 448.559C376.832 446.118 381.02 443.245 385.207 440.373C384.821 439.329 384.469 438.501 384.298 437.424C383.457 434.906 382.582 432.173 381.889 429.189C378.235 432.64 373.332 435.184 368.928 438.091C363.152 442.099 357.023 445.279 350.259 447.234C343.244 449.008 338.409 451.983 332.315 455.378C326.652 458.705 322.031 457.449 316.605 458.087C313.415 457.488 310.225 456.888 307.035 456.289C300.405 454.909 294.899 452.246 288.893 449.221C291.118 449.31 293.308 449.184 295.465 448.843C298.916 448.296 302.014 446.922 305.147 445.763C310.549 443.581 315.102 444.407 320.743 443.734C327.247 442.925 330.81 437.5 336.609 435.035C340.968 433.24 345.179 431.911 349.571 430.331C350.536 430.841 351.467 431.136 352.432 431.646C354.294 432.234 356.393 430.134 355.008 428.366C345.086 425.739 325.475 409.404 314.892 399.813C314.132 400.596 313.656 401.776 314.507 402.967C315.075 403.761 315.609 404.339 316.358 404.883C315.745 405.201 315.133 405.519 314.338 406.087C309.867 408.562 306.574 407.316 302.045 408.034C298.81 408.546 296.177 410.068 293.26 411.192C287.211 413.476 278.64 412.403 272.033 412.566C271.784 412.385 271.568 412.419 271.318 412.237C270.353 411.728 257.092 404.77 260.519 402.681C260.701 402.431 260.632 402 260.417 402.034C259.77 402.137 259.157 402.454 258.51 402.557C258.079 402.625 257.931 403.09 257.965 403.306C259.692 407.23 263.439 409.951 267.584 412.387C258.684 412.029 249.976 410.095 241.305 412.573C236.605 412.212 232.268 411.353 227.5 410.561C221.12 409.363 213.628 408.119 208.711 403.596C205.327 400.376 202.409 397.303 198.843 394.333C190.497 387.702 180.733 383.283 172.422 376.867C164.11 370.451 159.236 360.619 154.068 351.716C153.466 350.707 152.864 349.698 152.262 348.689C153.703 348.018 155.36 347.314 156.802 346.644C157.63 346.292 156.96 344.851 156.132 345.204C154.475 345.908 153.033 346.578 151.376 347.282C148.513 341.771 145.798 335.794 144.627 329.793C146.318 329.305 147.759 328.635 149.416 327.93C150.461 327.544 149.79 326.104 148.746 326.49C147.305 327.16 145.829 327.615 144.354 328.069C144.183 326.992 144.012 325.914 143.876 325.052C143.375 320.492 144.202 315.942 143.485 311.417C147.151 310.836 150.602 310.289 154.2 309.278C154.654 310.752 154.893 312.261 154.951 314.019C155.157 319.509 158.451 324.953 158.374 330.046C158.274 337.795 157.64 340.767 163.908 346.844C172.777 355.381 182.803 362.851 190.911 372.171C197.419 379.757 200.713 385.2 210.851 387.792C222.601 390.791 231.933 395.278 244.136 395.555C247.258 395.723 250.13 395.71 253.252 395.878C258.634 400.549 265.219 403.041 272.201 405.249C273.132 405.543 273.79 404.114 272.859 403.819C266.808 401.906 261.154 399.708 256.158 396.081C264.161 396.36 272.198 396.854 280.098 396.487C293.493 395.912 310.053 390.196 322.65 381.794C329.984 384.83 337.387 388.297 344.868 390.868C343.642 391.504 342.667 392.321 341.475 393.172C337.287 396.045 333.031 398.486 327.924 399.737C326.664 400.158 325.62 400.544 324.36 400.964C331.956 407.052 340.836 414.262 347.864 419.555C345.048 417.129 342.085 415.168 339.269 412.742C336.453 410.316 333.886 408.072 330.889 405.895C335.281 404.316 339.708 402.952 343.964 400.511C347.21 398.671 350.387 396.4 353.565 394.13C357.107 395.557 360.649 396.984 364.157 398.196C364.283 400.385 365.555 402.835 367.701 403.821C368.416 404.149 369.416 404.875 370.233 405.85C366.75 410.378 361.234 413.24 356.252 416.68C354.05 418.134 351.849 419.587 349.613 420.825C353.36 423.545 356.539 425.472 358.435 426.276C358.832 425.992 359.264 425.924 359.445 425.674C364.496 422.665 369.909 419.157 374.607 415.32C375.004 415.036 375.367 414.536 375.98 414.218C377.82 417.462 379.377 420.308 380.331 422.146C384.784 430.719 388.306 438.998 390.886 448.31C391.443 450.431 393.102 453.925 393.227 456.114C393.671 458.916 392.503 461.31 392.731 464.146C392.765 464.361 392.799 464.577 392.833 464.792C382.256 471.991 369.873 476.161 355.889 478.597C332.234 482.786 308.376 489.878 284.072 489.972C278.328 489.998 272.584 490.024 266.591 489.869C266.648 491.627 266.671 493.17 266.513 494.962C266.321 496.539 264.164 496.881 263.494 495.44C262.54 493.603 261.801 491.732 261.063 489.861C260.381 489.747 259.734 489.85 259.053 489.737C257.711 482.659 256.074 476.511 253.506 470.069C253.506 470.069 253.506 470.069 253.722 470.035C252.881 467.517 251.824 465.033 250.768 462.55C250.008 463.333 249.792 463.367 249.576 463.401Z" fill="#DCDAD1"/>
<path d="M299.238 175.611C301.987 174.725 304.805 174.279 307.554 173.393C307.753 170.437 308.385 167.412 309.052 164.606C304.568 165.767 299.833 166.742 295.28 167.463C294.466 170.741 293.652 174.02 292.838 177.299C294.789 176.99 296.922 176.427 299.238 175.611Z" fill="#DCDAD1"/>
<path d="M233.34 271.887C233.402 276.481 235.662 280.947 236.59 285.404C237.484 289.647 236.579 293.737 237.006 297.835C237.616 301.685 241.838 311.54 246.253 312.813C251.101 314.019 256.596 308.106 259.434 305.026C264.347 299.643 268.828 294.329 270.556 287.04C271.528 283.378 272.183 279.109 271.823 275.439C271.294 270.699 269.097 270.828 266.655 266.611C267.805 266.867 268.772 267.372 269.157 268.407C269.645 270.083 272.241 269.672 271.753 267.995C270.826 263.538 267.296 263.659 263.301 263.634C257.257 263.276 254.153 260.479 248.919 258.238C246.052 256.938 243.97 256.391 241.076 257.726C236.52 259.764 233.21 266.865 233.34 271.887ZM256.683 266.655C258.299 267.057 262.409 266.406 265.54 266.568C265.574 266.782 265.357 266.816 265.391 267.03C265.738 272.018 268.294 275.559 268.026 280.863C267.481 288.623 264.048 293.552 258.668 298.789C256.559 300.877 254.086 303.461 251.125 304.368C248.38 305.242 250.497 306.003 247.312 304.095C246.811 303.736 244.166 298.236 244.098 297.808C242.339 293.702 242.493 289.073 241.531 284.402C240.184 278.696 237.458 274.085 239.424 268.293C242.943 258.308 250.436 265.014 256.683 266.655Z" fill="#DCDAD1"/>
</svg>
