<svg viewBox="0 0 356 341" xmlns="http://www.w3.org/2000/svg">
<g opacity="0.36">
<path d="M351.249 104.848C345.236 104.214 339.539 101.993 333.684 100.566C332.418 100.249 331.153 99.9319 329.887 99.7733C331.311 98.9804 332.418 97.8704 333.21 96.2846C333.526 95.4917 333.526 94.8574 333.368 94.2231C336.533 92.3202 339.539 90.4172 342.704 88.1971C345.869 85.977 350.932 83.9155 352.673 80.1096C353.464 79.9511 354.097 79.6339 354.888 79.4753C353.939 73.1322 352.356 66.9477 349.825 61.0803C345.71 51.2484 343.02 41.7337 336.374 33.1705C330.52 25.4002 323.557 22.0701 314.696 18.4228C303.461 13.824 291.118 14.4583 279.409 12.3968C268.649 10.4939 259.154 6.52942 248.078 6.52942C241.432 6.52942 234.786 7.32231 228.298 7.32231C222.918 7.32231 217.854 5.41937 212.632 5.57795C210.417 5.57795 208.518 6.05368 206.303 5.73653C203.138 5.26079 200.448 3.51644 197.441 2.40639C193.011 0.979186 188.738 1.13776 184.149 1.29634C173.706 1.6135 163.737 -1.08233 153.451 0.503452C148.229 1.29634 144.115 3.35786 139.052 4.62648C136.52 5.26079 134.305 6.37084 132.247 7.63947C131.614 7.63947 130.982 7.63947 130.349 7.63947C119.588 6.84658 108.512 8.74951 98.2262 10.811C81.2948 14.2997 64.6798 27.3031 55.502 41.7337C50.4384 49.6627 48.856 59.0188 44.5836 67.2648C39.8364 76.9381 36.1969 85.8185 32.7157 96.126C29.5509 105.324 26.7027 114.363 21.9555 122.926C17.5249 131.013 14.9931 140.528 13.4107 149.725C11.6701 159.082 10.4041 169.231 6.28996 178.111C4.70758 181.441 2.17577 184.295 1.06811 187.784C-0.514274 192.542 -0.0395595 197.616 0.593392 202.532C1.70106 210.937 3.75815 219.183 4.86582 227.746C6.13172 237.578 7.7141 248.361 11.1953 257.559C14.2019 265.487 21.1643 271.989 26.7027 278.174C32.5575 284.675 40.3111 288.481 48.6978 291.018C58.825 293.873 68.794 294.507 78.2883 299.582C79.3959 300.216 80.3454 300.692 81.453 301.167C81.7695 301.326 82.086 301.643 82.4024 301.643C82.5607 301.643 82.5607 301.643 82.7189 301.643C83.6684 302.119 84.776 302.595 85.7254 302.912C86.0419 302.436 86.3584 302.119 86.5166 301.643C89.6814 301.009 92.5297 298.947 94.9032 296.569C100.125 291.336 104.081 284.834 109.303 279.601C114.841 274.051 122.278 271.513 128.133 266.439C128.45 266.122 128.766 265.963 128.924 265.646C129.557 265.329 130.19 264.853 130.823 264.377C131.773 263.584 132.406 262.157 133.513 261.364C133.672 261.364 133.83 261.364 133.83 261.523C133.83 262.792 133.83 264.219 133.672 265.487C133.039 271.831 130.032 277.381 129.399 283.724C128.766 290.226 127.817 296.252 126.709 302.595C125.918 307.352 125.601 311.316 126.709 316.074C127.026 317.342 128.291 318.928 129.716 319.087C130.032 319.087 130.349 319.245 130.665 319.245C132.089 319.404 133.197 319.087 134.146 318.452C143.166 320.197 151.869 323.21 160.73 325.43C160.888 329.553 161.996 333.2 165.161 333.359C165.477 333.359 165.477 332.883 165.161 332.883C162.787 332.09 162.154 328.919 162.154 325.906C167.06 327.016 171.649 327.967 176.079 330.822C180.035 333.359 182.884 336.372 187.314 338.116C197.125 341.922 207.569 341.605 217.696 339.226C226.241 337.323 234.469 333.835 242.856 331.614C252.825 328.919 263.427 328.919 273.554 327.016C281.149 325.589 289.22 323.368 295.233 318.135C301.879 312.268 305.36 303.705 309.474 296.093C319.759 277.539 327.671 257.241 334.476 237.261C341.28 217.438 349.825 198.092 353.306 177.159C356.787 156.861 349.508 137.039 353.464 117.058C353.622 116.265 353.781 115.314 353.939 114.521C357.42 112.142 356.471 105.482 351.249 104.848ZM58.192 66.9477C61.515 57.2744 63.8886 48.2355 70.5346 40.148C76.8641 32.5362 86.3584 24.9245 95.5362 21.4358C100.6 19.5328 106.138 19.0571 111.36 17.7885C116.74 16.5198 121.962 14.9341 127.5 14.6169C136.836 14.1412 145.065 12.0797 154.242 10.4939C154.875 10.3353 155.034 9.85956 155.034 9.22525C160.888 8.90809 166.585 9.5424 173.073 10.4939C181.934 11.9211 189.846 10.4939 198.074 14.1412C205.353 17.3127 213.582 16.9956 221.335 18.1056C230.197 19.5328 239.375 18.1056 248.236 18.4228C258.363 18.7399 266.433 22.5458 276.086 24.9245C285.264 27.1446 294.6 27.1446 303.461 30.6333C307.575 32.2191 310.898 35.0735 314.538 37.6107C318.177 39.9894 319.126 42.6852 321.5 46.3325C325.772 52.6756 327.038 60.1288 330.203 66.9477C331.944 70.595 334.001 74.0837 335.109 78.0481C335.741 80.4268 336.058 82.6469 336.216 85.1841C334.001 86.7699 331.944 88.1971 329.57 89.6243C327.197 90.893 324.823 92.3202 322.608 93.7474C322.449 93.7474 322.449 93.7474 322.291 93.7474C321.975 92.6373 321.5 91.3687 321.184 90.2586C318.968 91.6858 316.595 92.9545 314.379 94.3817C314.696 95.1746 314.854 95.8089 315.171 96.6018C312.639 97.7118 310.107 98.9804 307.575 100.09C305.993 100.725 304.569 101.518 303.144 102.469C302.986 101.835 302.67 101.201 302.512 100.725C300.454 101.676 298.397 102.786 296.34 103.738C296.657 104.531 296.973 105.324 297.131 106.116C293.334 108.495 289.536 110.874 285.422 112.301C285.264 111.508 284.947 110.715 284.631 109.922C282.89 110.874 281.308 111.825 279.567 112.935C280.516 115.631 281.308 118.327 281.624 121.34C282.257 126.89 281.466 131.806 281.308 137.356C281.308 139.418 280.833 142.431 281.466 144.492C282.415 147.347 284.947 149.091 285.738 152.104C287.321 158.447 284.314 164.79 284.156 171.133C283.998 177.635 282.257 183.661 280.833 189.846C281.941 190.163 283.048 190.48 283.998 190.797C286.371 185.088 288.903 179.538 289.22 173.195C289.694 167.01 291.435 161.143 291.118 154.958C290.802 148.615 285.264 144.651 285.105 138.308C284.947 135.295 286.371 132.599 286.688 129.586C287.004 126.89 287.004 124.036 286.846 121.34C286.688 119.596 286.529 117.851 286.213 116.265C290.485 116.424 294.758 115.155 298.714 113.57C298.714 113.728 298.714 113.887 298.714 113.887C299.505 120.388 298.397 126.256 298.397 132.599C298.397 135.136 297.764 138.466 298.556 140.845C299.663 144.175 302.67 146.237 303.461 149.725C305.202 157.179 301.72 164.632 301.562 172.085C301.404 183.978 296.498 194.444 295.549 206.179C295.233 206.814 294.758 207.448 294.6 208.082C294.441 208.558 294.125 209.034 293.967 209.509C293.334 207.924 292.859 206.179 292.226 204.593C291.91 203.801 290.644 204.118 290.96 204.911C291.751 206.972 292.543 209.034 293.175 211.254C292.068 213.315 290.96 215.535 289.852 217.597C287.004 222.83 283.839 227.429 282.89 233.296C281.466 242.335 277.352 249.947 271.339 256.29C270.864 255.021 270.547 253.594 270.073 252.325C269.756 251.533 268.649 251.85 268.807 252.643C269.282 254.228 269.756 255.814 270.231 257.4C267.224 260.413 263.901 263.109 260.262 265.329C258.996 261.047 257.572 256.924 255.99 252.801C260.42 249.788 264.851 246.141 266.117 241.225C268.016 239.481 269.282 236.15 270.073 233.772C272.446 234.248 274.662 234.406 276.719 233.772C277.985 233.296 278.776 231.552 277.668 230.442C275.928 228.856 274.029 227.746 271.972 226.636C271.972 226.477 271.972 226.319 272.13 226.16C264.06 224.099 256.148 219.183 249.502 215.06C245.546 212.681 241.273 209.985 237.159 207.131C235.419 206.179 233.52 205.069 231.779 203.959C231.937 203.801 232.096 203.483 232.254 203.325C230.83 202.215 229.564 201.105 228.298 199.836C228.14 199.995 228.14 200.153 227.981 200.312C227.823 200.629 227.665 200.946 227.507 201.422C224.025 199.519 220.228 197.933 216.588 197.299C216.43 197.299 216.272 197.299 216.114 197.299C217.379 195.396 218.645 193.493 219.753 191.907C222.127 187.943 220.544 183.661 221.81 179.38C223.551 173.354 227.981 169.548 229.247 163.046C230.197 158.606 230.038 153.373 228.773 148.933C227.665 144.81 224.817 142.272 221.494 140.686C220.861 137.198 220.228 133.868 219.595 130.537C221.019 131.172 222.601 131.648 224.184 132.123C232.096 134.343 235.419 137.515 237.317 145.602C238.267 149.884 239.375 155.117 239.216 159.874C239.058 159.874 239.058 160.033 239.058 160.192C237.95 165.9 236.368 171.926 234.469 177.477C233.678 179.697 232.412 181.758 232.096 184.137C231.937 186.357 232.729 188.577 232.57 190.797C232.412 193.334 231.463 195.079 230.197 196.823C231.621 197.775 233.045 198.726 234.311 199.678C235.419 197.775 236.21 195.713 236.526 193.493C237.317 188.101 236.368 183.661 237.95 178.428C239.216 174.305 239.691 169.706 239.849 165.266C241.748 160.984 241.59 156.386 241.432 151.47C241.115 145.444 241.115 136.722 237.159 131.806C235.735 130.062 233.836 128.793 231.621 128C230.83 123.084 229.089 118.168 227.348 113.252C230.355 114.68 233.361 116.107 236.368 117.217C236.526 117.534 236.684 118.01 236.684 118.327C236.843 118.803 237.001 119.278 237.001 119.754C236.843 119.437 237.001 124.036 236.368 122.133C236.21 121.816 235.893 121.974 235.893 122.291C236.052 122.767 236.052 123.243 236.21 123.719C236.21 123.877 236.526 124.036 236.684 124.036C239.058 123.56 238.742 120.706 237.95 118.01C241.906 119.754 243.963 122.926 246.812 126.256C251.717 131.965 254.565 139.576 253.774 147.347C253.299 151.787 252.192 156.544 250.926 160.826C249.344 166.693 249.344 171.768 248.552 177.794C247.919 182.551 247.761 187.308 247.128 192.066C246.495 196.506 247.286 201.422 246.495 205.545C246.337 206.179 246.179 206.814 245.862 207.606C246.97 208.399 248.078 209.034 249.344 209.827C251.559 206.496 251.401 203.483 252.034 199.36C253.299 190.004 254.882 180.807 254.882 171.451C254.882 162.253 259.945 152.897 259.154 143.541C258.205 133.075 254.724 126.573 248.552 118.644C248.236 118.168 247.919 117.851 247.603 117.534C247.761 117.534 247.919 117.375 247.919 117.217C248.394 110.557 246.495 104.055 245.388 97.5532C245.388 97.0775 245.229 96.6018 245.229 96.126C246.653 96.4432 248.236 97.0775 249.502 98.029C250.768 98.9804 251.875 100.09 252.983 101.359C253.141 104.214 253.299 107.068 253.616 109.922C253.616 110.239 254.091 110.239 254.091 109.922C254.407 107.702 254.407 105.482 254.407 103.103C255.515 104.372 256.622 105.641 257.73 106.751C262.952 111.667 264.851 117.217 265.167 124.353C265.326 127.524 264.693 130.696 265.167 133.868C265.484 136.722 266.908 139.101 267.699 141.955C269.123 147.347 267.857 152.104 267.383 157.496C266.75 164.156 267.224 171.133 266.591 177.794C266.275 181.282 264.693 184.613 263.585 187.784C265.009 187.943 266.275 188.26 267.699 188.418C268.807 186.833 270.231 185.405 271.18 183.661C273.712 179.221 273.554 173.512 273.87 168.438C274.345 161.619 276.086 153.848 275.136 147.03C274.029 139.576 271.339 133.392 271.18 125.78C271.022 120.547 270.547 114.204 268.016 109.447C266.591 106.751 264.376 104.531 262.161 102.469C259.787 100.249 258.047 97.5532 255.673 95.1746C255.04 94.5403 254.407 94.0645 253.774 93.5888C253.616 91.2101 253.299 88.6729 253.141 86.2942C252.983 84.867 252.825 83.4398 252.825 82.1712C255.04 82.8055 257.572 82.9641 260.104 83.1226C261.211 83.1226 262.003 83.2812 262.952 83.4398C262.477 86.4528 262.003 89.6243 261.211 92.6373C261.053 93.2716 262.003 93.4302 262.161 92.9545C262.952 89.9415 263.585 86.9285 264.06 83.7569C273.237 86.6114 273.87 98.029 277.035 106.592C277.51 108.019 278.143 109.447 278.618 110.874C280.2 109.605 281.782 108.337 283.365 107.226V107.068C279.251 97.8704 279.092 87.2457 270.389 80.5854C268.649 79.3168 266.75 78.6824 264.851 78.3653C265.167 75.0351 265.484 71.5464 265.642 68.2163C268.332 68.8506 271.022 69.1678 273.87 69.1678C289.061 69.8021 289.378 85.3427 293.492 96.6018C293.967 97.7118 294.283 98.8219 294.758 99.9319C296.657 98.8219 298.714 97.7118 300.771 96.7603C296.024 86.1356 295.866 73.7665 285.897 66.1548C281.308 62.6661 275.611 63.6175 270.231 62.9832C263.427 62.1903 258.996 56.1644 252.667 53.9443C240.166 49.6627 226.716 51.5656 213.898 52.3585C207.727 52.6756 204.087 52.1999 198.549 49.8212C193.169 47.6011 188.264 45.0639 182.567 43.7953C178.611 42.8438 174.497 42.5266 170.541 42.2095C173.231 39.6722 176.079 37.135 178.611 34.5977C179.086 34.122 178.295 33.1705 177.82 33.8048C174.972 36.8178 171.807 39.5137 168.642 42.2095C160.414 42.0509 152.185 43.0024 143.957 43.7953C138.893 44.271 133.672 43.6367 128.608 44.1124C125.285 44.4296 121.962 45.381 118.639 46.0154C112.151 47.4426 106.455 50.4556 100.283 52.8342C95.378 54.5786 91.2638 59.6531 89.2067 64.2518C88.2572 66.3134 87.7825 68.5334 87.3078 70.595C86.3584 72.3393 85.7254 74.0837 85.0925 75.828C80.6618 77.731 76.7059 80.2682 72.7499 82.9641C72.2752 79.9511 71.8005 76.9381 71.8005 73.9251C71.8005 73.4494 71.8005 72.9736 71.8005 72.4979C75.44 70.1192 78.9212 67.582 82.2442 64.7276C82.8772 64.2518 81.9277 63.459 81.453 63.9347C78.6047 66.4719 75.5982 68.692 72.4334 70.7535C76.5476 62.6661 78.763 52.0413 84.9342 45.6982C85.0925 45.5396 85.0925 45.5396 85.2507 45.381C87.4661 43.161 90.3143 41.4166 93.9538 40.7823C95.6944 40.4651 97.2768 39.8308 98.701 39.0379C99.3339 39.5137 100.283 38.8793 100.283 38.0865C102.973 36.6593 105.663 34.9149 108.828 34.2806C117.848 32.3776 126.551 32.3776 135.729 31.5848C138.893 31.2676 142.058 30.4747 145.223 29.999C148.862 29.3647 152.027 29.8404 155.667 29.8404C164.844 29.8404 172.282 28.7304 181.459 31.109C191.745 33.9634 201.239 42.3681 212.158 42.5266C218.804 42.5266 225.766 41.8923 232.254 41.258C240.166 40.3065 246.653 40.9409 254.407 41.8923C262.161 42.8438 266.275 45.6982 272.605 50.1384C277.51 53.4685 282.732 53.9443 288.587 54.1028C306.151 54.7372 306.467 72.6565 311.215 85.6599C311.848 87.4042 312.639 89.1486 313.272 90.893C315.645 89.9415 318.177 88.99 320.551 88.0386C320.234 87.4042 320.076 86.7699 319.759 86.1356C314.221 73.7665 314.063 59.4945 302.353 50.4555C296.973 46.3325 290.644 47.6011 284.314 46.8083C276.402 45.8568 271.339 38.8793 264.06 36.3421C249.66 31.4262 234.153 33.6463 219.437 34.5977C212.316 35.0735 208.043 34.2806 201.714 31.7433C195.543 29.0475 189.846 26.3517 183.2 24.7659C168.326 21.4358 153.61 23.1801 138.735 24.9245C132.88 25.5588 126.867 24.7659 121.013 25.2416C117.057 25.5588 113.259 26.6688 109.461 27.4617C101.866 29.0475 95.378 32.6948 88.2572 35.232C82.7189 37.2936 77.8135 43.0024 75.44 48.2355C74.3323 50.6141 73.8576 53.1514 73.2246 55.6886C70.5346 61.0803 68.6357 66.9477 68.0028 72.8151C68.0028 72.8151 67.8445 72.8151 67.8445 72.9736C63.8886 75.1937 60.5656 78.3653 56.6096 80.5854C55.3437 81.3783 53.7614 82.0126 52.3372 82.8055C54.0778 77.2552 56.4514 72.3393 58.192 66.9477ZM316.436 196.189C316.278 196.347 316.278 196.506 316.278 196.823C315.012 201.898 313.905 206.972 313.588 212.205C313.113 212.998 312.797 213.632 312.48 214.267C310.898 217.597 309.158 220.927 307.417 224.099C306.942 221.244 306.467 218.231 306.309 215.377C306.151 211.254 306.151 207.289 305.518 203.166C305.043 199.36 303.936 195.713 302.828 192.066C305.202 186.357 307.575 180.648 307.892 174.146C308.366 166.852 310.423 160.192 310.107 152.897C309.79 145.444 303.303 141.004 302.986 133.392C302.828 129.745 304.41 126.573 304.885 123.084C305.202 120.071 305.202 116.583 305.043 113.411C305.043 112.46 304.885 111.35 304.727 110.398C306.784 109.447 308.683 108.495 310.74 107.861C312.164 107.385 313.588 106.751 315.012 106.116C315.171 106.275 315.329 106.275 315.645 106.434C316.12 106.592 316.753 106.909 317.228 107.068C317.861 113.887 316.753 120.23 316.595 127.049C316.595 129.903 315.962 133.868 316.753 136.563C318.019 140.369 321.5 142.748 322.449 146.871C324.507 155.593 320.392 163.997 320.392 172.561C320.392 180.965 318.335 188.577 316.436 196.189ZM290.485 263.426C288.903 258.51 287.321 253.594 285.897 248.678C285.738 247.885 284.314 248.202 284.631 248.995C286.055 254.228 287.795 259.461 289.536 264.695C286.055 269.293 281.941 273.416 277.193 276.905C276.086 272.465 274.82 268.025 273.554 263.426C276.877 260.572 279.725 257.241 280.833 253.435C283.365 251.215 284.947 246.299 285.897 243.445C287.637 238.846 287.637 233.93 289.061 229.332C289.694 231.869 290.327 234.248 290.96 236.785C292.068 241.542 292.859 246.299 293.808 251.215C294.125 252.801 294.441 254.387 294.758 255.814C293.492 258.669 292.068 261.206 290.485 263.426ZM244.28 286.42C243.489 282.614 242.698 278.649 241.906 274.844C244.913 274.051 247.445 274.685 250.609 275.002C254.724 275.319 257.73 273.892 260.895 272.148C262.003 275.954 262.952 279.759 263.901 283.724C257.73 284.517 251.242 283.09 245.071 286.103C244.755 286.103 244.596 286.261 244.28 286.42ZM232.57 309.255C232.57 309.889 232.57 310.682 232.57 311.316C228.298 312.585 224.025 314.171 219.753 315.598C219.753 312.268 219.595 308.938 219.278 305.766C221.494 304.973 223.709 304.339 225.766 303.705C227.823 303.229 229.88 302.595 231.937 301.802C232.254 304.339 232.57 306.718 232.57 309.255ZM222.601 296.727C221.177 297.044 219.911 297.52 218.645 297.996C218.171 294.031 217.854 290.226 217.538 286.261C217.538 286.103 217.538 286.103 217.538 285.944C218.171 285.785 218.962 285.468 219.595 285.31C222.918 284.517 226.241 283.248 229.247 281.821C229.88 285.627 230.355 289.433 230.83 293.239C230.83 293.397 230.83 293.556 230.83 293.556C228.456 294.983 225.766 296.093 222.601 296.727ZM206.778 301.643C206.619 297.52 206.303 293.397 205.986 289.433C209.468 288.798 212.949 287.53 216.43 286.42C216.43 287.213 216.43 287.847 216.588 288.64C216.747 291.97 217.063 295.142 217.379 298.472C214.848 299.423 212.474 300.375 209.942 301.167C208.835 301.485 207.727 301.643 206.778 301.643ZM153.293 309.096C153.293 309.731 153.293 310.206 153.293 310.841C149.337 310.206 145.539 309.414 141.583 308.779C141.583 306.559 141.9 304.339 141.9 303.07C141.9 301.167 141.9 299.423 141.9 297.52C143.957 297.679 146.172 297.996 148.229 298.472C149.97 298.947 151.711 299.582 153.293 300.375C153.293 303.229 153.293 306.242 153.293 309.096ZM145.856 263.109C148.862 263.426 151.869 263.426 154.875 264.06C154.875 267.708 154.717 271.355 154.559 274.844C152.977 274.368 151.236 274.051 149.337 273.733C147.122 273.416 144.906 273.258 142.849 272.941C143.166 269.61 143.482 266.122 143.641 262.792C144.115 262.95 144.906 262.95 145.856 263.109ZM94.9032 218.39C91.422 213.95 85.8837 206.179 85.5672 201.58C85.409 198.567 87.1496 196.982 88.2572 194.444C89.8396 191.273 90.4726 187.943 92.2132 184.93C94.1121 181.441 97.7515 178.904 99.1757 175.256C100.442 172.243 101.075 168.755 102.024 165.425C103.448 165.583 104.872 165.742 106.455 165.9C108.986 166.059 111.993 166.218 114.683 165.742C112.626 168.755 112.309 172.085 110.094 175.098C106.929 179.062 103.448 182.551 100.916 187.15C98.068 192.7 93.4791 201.105 98.701 206.179C102.024 209.351 106.929 211.254 110.727 213.632C115.316 216.487 118.322 219.658 123.544 221.244C127.659 222.354 131.614 222.037 135.57 222.988C139.368 223.94 141.742 225.684 146.014 225.526C151.552 225.209 153.293 224.891 157.565 229.807C158.673 231.076 159.306 232.503 160.414 233.772C163.737 237.261 166.743 237.102 171.332 238.212C177.345 239.639 183.517 240.432 189.688 241.542C195.068 242.494 201.397 244.079 206.778 242.494C211.05 241.225 215.639 238.688 219.595 236.468C223.076 234.565 226.241 232.186 228.931 229.173C233.678 227.904 236.685 223.306 240.008 219.658C240.64 218.865 241.273 218.231 242.065 217.597C244.122 218.865 246.021 219.976 247.919 221.244C248.869 221.878 249.818 222.513 250.926 223.147C250.135 224.416 249.185 225.843 248.552 227.112C245.546 232.503 241.115 234.723 235.577 237.102C230.513 239.163 224.817 238.529 220.228 241.701C216.747 244.079 213.107 248.202 209.626 249.63C207.094 250.581 201.872 251.533 198.866 251.691C195.859 251.85 193.327 251.691 190.479 252.643C189.53 252.96 188.897 253.118 188.264 253.435C188.105 252.96 188.105 252.643 187.947 252.167C187.789 251.533 186.998 251.691 186.84 252.167C186.523 251.533 185.732 251.057 184.941 250.898C179.561 250.74 174.18 250.264 168.8 249.788C162.787 249.154 161.838 246.299 157.249 242.811C149.337 236.943 142.533 235.516 132.88 234.882C130.032 234.723 127.659 233.613 124.652 232.979C119.588 231.869 111.993 229.649 107.404 226.953C103.132 224.574 99.3339 224.257 96.3274 220.134C96.1692 219.975 96.0109 219.817 95.8527 219.658L96.0109 219.5C96.4856 218.707 95.5362 217.755 94.9032 218.39ZM87.9408 259.461C90.3143 260.254 92.6879 261.206 94.745 262.157C93.4791 264.06 92.2132 265.963 91.1055 268.025C89.9979 269.928 89.0484 271.831 87.9408 273.733C85.5672 272.465 83.0354 271.355 80.5036 270.403C82.086 268.025 83.6683 265.646 85.2507 263.267C86.0419 261.84 86.8331 260.572 87.9408 259.461C87.7825 259.303 87.7825 259.303 87.9408 259.461ZM68.161 285.151C65.1545 284.517 62.3062 283.882 59.4579 283.248C59.9326 282.455 60.5656 281.662 61.1985 281.028C63.0974 278.649 65.3127 276.588 67.3698 274.209C68.161 273.416 68.794 272.465 69.4269 271.672C70.8511 272.465 72.2752 273.099 74.0158 273.733C74.6488 273.892 75.2817 274.209 75.9147 274.368C73.3829 278.015 71.0093 281.504 68.6357 285.151C68.4775 285.31 68.3193 285.151 68.161 285.151ZM77.4971 275.002C76.8641 277.381 74.6488 279.759 73.2246 281.345C73.0664 281.504 73.0664 281.504 72.9082 281.662C74.3323 279.442 75.9147 277.222 77.4971 275.002ZM83.9848 262.474C82.4024 265.012 80.8201 267.39 79.0794 269.928C77.0224 269.135 74.9653 268.5 72.9082 267.707C74.807 265.487 76.5476 263.109 78.4465 260.889C79.5542 259.461 80.8201 258.034 81.9277 256.607C83.3519 257.559 84.776 258.351 86.5166 258.986C85.5672 260.096 84.776 261.206 83.9848 262.474ZM70.3764 266.439C67.5281 264.853 65.7875 262.474 63.4139 260.413C62.148 259.461 61.0403 258.351 59.6162 257.4C62.7809 254.387 66.1039 251.374 69.4269 248.361C69.5852 248.202 69.5852 248.202 69.7434 248.044C71.3258 249.154 73.0664 250.264 74.6488 251.533C76.8641 253.118 78.763 254.546 80.8201 255.814C79.5542 257.559 78.13 259.303 76.7059 261.047C74.9653 263.109 73.3829 265.012 71.8005 267.073C71.1675 266.756 70.8511 266.597 70.3764 266.439ZM49.8054 250.264C46.9571 248.678 44.7418 248.678 42.21 246.458C42.0518 246.299 41.8935 246.141 41.7353 245.982C45.533 242.969 49.1725 239.481 52.4955 235.992C53.6031 238.688 55.1855 240.749 58.0338 242.018C58.825 242.335 59.6162 242.652 60.4074 242.969C58.9832 244.555 57.5591 246.299 55.9767 247.885C54.7108 249.154 53.6031 250.422 52.3372 251.85C51.7043 251.374 50.7548 250.74 49.8054 250.264ZM17.9996 204.276C23.6961 200.312 29.3927 196.347 35.0893 192.383C34.4563 195.713 33.8234 199.202 32.7157 202.373C27.8103 206.655 23.0632 211.095 18.4743 215.694C17.9996 212.047 17.6831 208.241 17.9996 204.276ZM66.8951 85.8185C66.2622 86.2942 65.471 86.7699 64.838 87.4042C59.1415 91.5273 52.9702 94.6988 46.9571 98.1875C47.1154 97.3947 47.2736 96.7603 47.4318 95.9675C48.223 91.8444 49.6472 87.88 51.2296 84.0741C54.0778 82.6469 56.9261 81.0611 59.6162 79.3168C62.148 77.4138 64.838 75.828 67.5281 74.0837C67.5281 74.5594 67.3698 75.0351 67.3698 75.6695C67.2116 78.9996 67.0534 82.4883 66.8951 85.8185ZM46.4824 99.9319C52.4955 96.4432 58.6667 93.2716 64.3633 89.1486C65.1545 88.5143 65.9457 88.0386 66.8951 87.4042C66.7369 91.2101 66.4204 94.8574 65.7875 98.6633C62.7809 100.566 59.7744 102.311 56.7679 104.055C52.6537 106.434 48.6978 108.971 44.7418 111.667C45.2165 107.702 45.8495 103.738 46.4824 99.9319ZM147.596 59.0188C149.654 59.1773 150.445 58.0673 151.869 56.6401C154.401 54.2614 157.407 52.3585 160.097 50.1384C161.205 49.1869 162.471 48.0769 163.579 47.1254C168.009 46.9668 172.123 46.8083 176.712 47.6011C172.282 51.5656 167.693 55.6886 162.946 59.4945C158.198 59.8117 153.293 60.2874 148.546 60.7631C144.115 61.2389 139.843 60.6045 135.412 60.9217C132.564 61.2389 129.716 62.0317 126.867 62.6661C121.329 63.9347 116.424 66.4719 111.202 68.5334C107.088 70.1192 103.448 74.2423 101.707 78.2067C100.916 79.9511 100.442 81.854 99.9669 83.7569C97.5933 88.5143 96.1691 93.5888 96.0109 98.9804C95.8527 102.469 95.8527 105.641 95.5362 108.971C95.378 108.971 95.2197 108.971 94.9032 108.971C91.5802 110.715 88.2572 112.46 84.9342 114.363C85.5672 110.715 86.3584 107.068 86.8331 103.421C87.6243 97.2361 85.409 91.5273 85.409 85.5013C85.409 84.867 85.409 84.2327 85.5672 83.5984C89.3649 76.6209 91.2638 66.7891 96.8021 61.0803L96.9603 60.9217C99.0174 59.0188 101.391 57.5916 104.556 56.9572C105.98 56.6401 107.404 56.1644 108.67 55.53C109.303 56.0058 109.936 55.3715 110.094 54.7372C112.468 53.4685 114.683 52.0413 117.531 51.407C125.443 49.6627 132.88 49.8212 140.951 49.1869C143.799 49.0283 146.331 48.2355 149.179 47.7597C152.344 47.284 155.034 47.6011 158.198 47.6011C159.306 47.6011 160.414 47.6011 161.521 47.6011C158.99 49.8212 156.458 51.8827 153.926 53.9443C151.869 55.53 150.128 58.0673 147.438 58.8602C147.122 58.3845 147.28 58.8602 147.596 59.0188ZM251.084 61.8732C251.084 61.0803 249.818 61.0803 249.818 61.8732C250.135 66.1548 250.451 70.4364 250.926 74.718C247.919 72.8151 245.071 70.4364 241.748 69.1678C230.988 65.5205 219.595 67.1062 208.676 67.8991C203.455 68.2163 200.29 67.7406 195.543 65.679C190.954 63.7761 186.84 61.556 181.776 60.6045C176.079 59.3359 170.383 59.1773 164.844 59.3359C165.161 59.0188 165.477 58.8602 165.794 58.543C170.066 55.2129 174.18 51.407 178.295 47.7597C179.086 47.9183 179.877 48.0769 180.826 48.394C189.688 50.7727 197.916 58.2259 207.41 58.3845C213.107 58.3845 219.278 57.9087 224.975 57.2744C231.937 56.4815 237.476 56.9572 244.28 57.9087C251.084 58.7016 254.565 61.2389 260.104 65.0447C261.528 65.9962 262.952 66.6305 264.376 67.1062C264.376 70.595 264.06 74.0837 263.743 77.5724C261.528 77.4138 259.313 77.4138 257.097 77.2552C255.515 77.0967 253.932 76.4624 252.508 75.828C251.875 70.9121 251.401 66.3134 251.084 61.8732ZM251.875 85.5013C252.034 87.5628 252.192 89.6243 252.35 91.8444C249.66 90.2586 247.128 89.7829 244.122 89.4658C243.489 84.7084 242.698 79.9511 241.748 75.1937C243.805 76.1452 245.704 77.5724 248.078 79.1582C249.185 79.9511 250.293 80.4268 251.401 80.9025C251.559 82.4883 251.717 84.0741 251.875 85.5013ZM243.805 95.8089C244.755 102.786 246.021 109.447 246.812 116.424C243.489 113.094 240.007 112.46 235.577 111.032C233.994 104.689 233.045 98.3461 231.937 92.003C234.311 92.4787 236.685 93.1131 239.216 94.0645C240.64 94.5403 242.065 94.8574 243.647 95.1746C243.805 95.4917 243.805 95.6503 243.805 95.8089ZM221.652 153.848C221.652 154.166 222.127 154.166 222.127 153.848C222.285 151.946 222.285 149.884 222.127 147.822C223.393 148.933 224.342 150.36 224.817 151.946C226.399 158.923 224.658 165.425 220.544 170.975C218.171 174.146 217.696 176.525 217.063 180.49C216.588 183.503 216.747 186.516 215.481 189.211C213.74 193.017 209.626 197.616 206.145 199.995C201.556 203.008 197.283 207.289 191.428 207.448C184.149 207.606 177.82 203.642 172.756 198.726C167.218 193.334 166.743 186.516 157.882 185.564C152.818 184.93 147.596 187.15 142.533 187.784C140.159 188.101 135.57 189.529 135.57 186.991C135.57 184.613 139.052 183.185 140.634 181.441C143.641 178.269 144.906 174.622 146.489 170.816C148.704 165.266 152.344 162.253 155.508 157.654C158.99 152.58 157.407 146.554 156.774 140.686C156.933 140.686 156.933 140.528 156.933 140.369C157.565 138.942 157.407 138.784 159.148 138.466C161.996 137.673 160.256 138.784 161.838 140.528C162.629 141.479 162.946 142.907 163.737 144.017C165.319 146.078 167.851 148.298 170.699 147.981C173.389 147.664 174.972 145.444 176.712 143.699C183.2 137.673 189.371 139.894 196.967 141.321C199.657 141.797 203.613 142.272 207.727 143.065C208.36 147.03 209.309 150.994 209.942 154.958C208.993 154.166 208.043 153.531 206.936 153.056C203.771 151.47 198.233 152.104 194.91 152.58C190.163 153.373 187.789 155.434 183.042 153.69C176.079 151.311 168.8 153.373 163.895 158.606C161.996 160.192 160.414 162.57 158.831 164.315C156.774 166.535 154.875 168.279 154.401 171.292C154.084 173.671 154.401 175.574 156.616 176.842C158.357 177.952 162.471 176.684 164.37 177.001C169.908 177.794 170.857 178.745 172.915 182.71C175.446 187.626 178.136 198.885 184.149 200.47C188.738 201.739 192.853 197.775 196.492 195.872C200.132 193.969 203.929 193.017 206.303 189.529C208.993 185.564 208.676 180.172 210.733 175.891C212.316 172.719 214.056 170.341 215.006 166.852C215.955 163.205 214.215 159.24 211.366 156.227C210.892 154.007 210.417 151.946 209.942 149.884C209.468 147.664 208.993 145.444 208.518 143.224C212.632 144.017 216.905 145.127 219.911 147.03C221.019 149.091 221.335 151.47 221.652 153.848ZM204.404 109.288C207.727 108.495 211.05 107.861 214.689 108.178C215.955 113.094 216.747 118.01 217.379 122.926C216.114 122.45 214.689 121.974 213.265 121.974C211.05 121.816 209.151 122.45 206.936 122.45C206.778 117.851 206.145 113.094 204.404 109.288ZM207.094 134.978C207.252 135.771 207.252 136.563 207.41 137.356C205.828 137.198 204.246 137.039 202.663 136.881C197.283 136.246 190.795 133.392 185.415 134.661C182.884 135.295 179.877 136.563 177.662 137.991C176.712 138.625 176.079 139.418 175.288 140.052C174.497 140.845 173.864 141.479 173.231 142.272C170.857 141.638 168.326 140.845 165.952 140.211C163.579 138.308 164.37 133.709 160.256 133.233C158.515 133.075 157.249 133.868 156.458 134.978C156.141 134.819 155.825 134.978 155.667 135.295C155.508 136.088 155.508 136.881 155.35 137.673C155.192 138.308 155.192 138.784 155.192 139.418C155.192 139.576 155.192 139.735 155.35 139.894C155.192 142.272 155.35 144.651 155.034 147.347C154.559 152.104 153.768 154.483 150.287 157.971C148.229 160.033 146.489 161.46 144.906 163.997C141.267 169.706 138.893 175.257 133.672 179.697C130.823 182.075 127.5 183.978 128.766 188.101C131.773 198.25 150.287 188.736 156.616 189.211C164.211 189.687 167.376 198.092 171.965 203.483C176.079 208.399 179.877 211.095 186.207 212.364C190.795 213.315 195.226 213.474 199.499 211.095C203.771 208.716 209.151 204.752 212.632 201.263C213.265 200.47 214.056 199.678 214.689 198.885C214.848 199.36 215.164 199.836 215.797 200.153C219.278 201.263 222.443 203.642 225.45 206.021C222.918 210.144 221.335 209.034 218.329 210.778C215.639 212.522 212.791 214.901 209.942 216.328C207.094 217.755 203.929 218.073 201.081 219.183C198.233 220.293 195.859 221.878 192.694 222.513C187.631 223.623 184.308 222.671 180.194 220.293C178.769 219.5 177.662 218.865 176.079 218.231C173.073 217.28 169.75 217.755 167.06 215.852C164.211 213.791 164.053 211.729 162.154 208.875C159.781 205.386 156.774 203.008 152.977 201.263C143.482 196.823 136.836 195.237 126.234 196.506C122.595 196.982 116.424 199.678 116.898 192.383C117.057 189.211 122.595 185.088 124.494 182.71C127.184 179.221 130.982 175.732 133.355 172.085C135.412 169.072 136.362 164.632 137.469 161.143C138.893 156.703 141.109 152.738 142.533 148.457C145.856 138.784 140.951 126.414 143.641 116.107C143.799 116.107 143.799 115.948 143.957 115.948C146.172 112.935 147.122 109.605 152.66 113.094C154.084 114.045 155.192 116.424 156.458 117.534C157.882 118.644 159.623 119.12 161.205 120.071C163.737 121.499 165.952 123.56 168.484 124.829C171.49 126.573 175.13 127.683 178.769 127.366C184.782 126.732 188.422 122.291 194.91 123.084C198.707 123.56 202.189 125.304 205.828 126.414C206.461 129.427 206.619 132.123 207.094 134.978ZM212.316 164.949C212.316 165.266 212.791 165.107 212.791 164.949C212.791 164.473 212.791 163.997 212.791 163.522C212.949 163.997 213.107 164.473 213.107 164.949C213.265 166.376 211.841 169.072 211.208 170.182C209.942 172.561 208.36 174.622 207.252 177.001C205.67 180.331 204.879 185.881 201.872 187.943C199.815 189.37 196.65 189.687 194.277 190.797C192.22 191.749 190.163 193.334 187.947 193.493C183.991 193.81 186.681 194.127 184.624 192.066C180.826 188.577 177.662 182.868 174.655 178.587C171.807 174.622 169.592 173.829 164.844 173.829C160.888 173.829 158.99 175.732 159.306 170.499C159.623 166.376 160.097 166.852 162.471 163.997C163.42 162.887 164.37 161.777 165.477 160.509C168.484 158.447 171.016 156.544 174.813 156.069C179.244 155.434 182.251 157.971 186.365 158.447C192.061 158.923 197.125 154.166 203.296 155.276C205.67 155.751 209.626 158.606 211.841 161.619C211.999 162.729 212.158 163.839 212.316 164.949ZM208.36 137.515C208.043 135.453 207.727 133.392 207.569 131.172C207.41 129.903 207.252 128.476 207.252 126.89C208.202 127.049 208.993 127.207 209.942 127.366C213.74 127.683 215.164 128.476 218.329 129.745C218.804 133.075 219.278 136.405 219.753 139.735C216.114 138.466 212.158 137.832 208.36 137.515ZM218.487 123.56C217.854 118.486 217.063 113.411 215.797 108.495C217.063 108.654 218.329 109.129 219.595 109.605C221.652 110.557 223.867 111.508 225.924 112.46C227.507 117.375 229.247 122.291 230.197 127.366C227.348 126.414 224.342 125.78 221.652 124.829C220.702 124.512 219.595 124.036 218.487 123.56ZM214.689 104.531C214.215 102.945 213.582 101.359 212.949 99.7733C212.632 99.139 211.683 99.4562 211.999 100.09C212.632 101.518 213.107 103.103 213.582 104.531C212.949 104.531 212.316 104.372 211.841 104.372C207.252 104.372 204.087 104.848 199.815 106.275C193.486 108.337 187.947 108.495 181.459 106.592C176.238 105.006 171.649 102.945 166.902 100.249C170.383 98.6633 173.864 95.9675 177.029 94.0645C178.453 93.1131 179.877 92.1616 181.143 90.893C181.934 91.3687 182.725 91.6858 183.675 92.003C189.371 93.9059 193.486 92.3202 198.866 91.2101C203.296 90.2586 207.41 91.2101 211.841 90.893C214.531 90.7344 216.905 90.5758 219.278 90.5758C221.019 95.9675 222.601 101.518 224.184 107.068C221.177 105.799 218.012 104.848 214.689 104.531ZM225.45 107.226C223.867 101.676 222.285 96.126 220.544 90.5758C222.285 90.5758 224.184 90.7344 226.083 91.0515C227.823 91.3687 229.564 91.6858 231.146 92.003C231.937 96.4432 232.729 101.042 233.52 105.482C233.836 107.226 234.153 109.129 234.469 110.874C231.463 109.922 228.456 108.654 225.608 107.544C225.608 107.385 225.45 107.226 225.45 107.226ZM237.792 88.5143C235.577 88.0386 233.361 87.5628 231.146 87.0871C230.513 83.9155 229.722 80.5854 228.773 77.5724C228.614 76.9381 227.507 77.2552 227.665 77.8896C228.614 80.9025 229.406 83.9155 230.038 86.9285C226.399 86.2942 222.443 85.8185 218.804 85.977C218.012 83.5984 217.063 81.3783 215.955 78.9996C215.639 78.3653 214.689 78.841 215.006 79.6339C215.955 81.6954 216.746 83.9155 217.538 85.977C209.309 86.1356 201.397 85.977 193.327 86.4528C183.358 87.0871 177.187 79.3168 168.167 77.2552C173.389 74.0837 178.928 71.3879 180.985 65.5205C188.264 67.8991 195.068 73.6079 202.822 73.7665C207.727 73.7665 212.949 73.2908 217.854 72.8151C223.709 72.1807 228.456 72.4979 234.311 73.2908C236.526 73.6079 238.425 74.0837 240.166 74.8766C241.273 79.7925 241.906 84.7084 242.698 89.6243C241.273 89.1486 239.691 88.99 237.792 88.5143ZM82.086 87.4042C81.7695 94.3817 81.7695 100.883 80.6618 107.861C80.0289 111.35 79.3959 114.68 78.6047 118.01C74.9653 120.23 71.484 122.291 67.8445 124.512C68.161 120.864 68.6357 117.217 69.2687 113.728C69.4269 113.094 69.5852 112.46 69.5852 111.667C73.0664 109.447 76.3894 107.385 79.8706 105.165C80.6618 104.689 79.8706 103.421 79.2377 103.896C76.2312 105.958 73.0664 107.861 70.0599 109.764C71.0093 105.165 71.8005 100.566 72.5917 95.8089C75.7564 93.7474 78.763 91.5273 81.7695 89.1486C82.5607 88.5143 81.453 87.5628 80.8201 88.1971C78.2883 90.2586 75.5982 92.1616 72.9082 93.9059C72.9082 93.7474 72.9082 93.7474 72.9082 93.5888C73.3829 90.1001 72.9082 86.6113 72.4334 83.2812C76.0729 80.744 80.0289 78.2067 84.1431 76.4623C82.8772 80.1096 82.2442 83.7569 82.086 87.4042ZM76.3894 128.793C76.0729 130.696 75.9147 132.758 75.5982 134.819C72.5917 136.722 69.7434 138.942 66.8951 141.004C66.4204 141.321 65.9457 141.638 65.471 142.114C66.5786 137.039 67.2116 131.648 67.6863 126.414C71.1675 124.353 74.6488 122.133 78.13 120.071C77.4971 122.926 76.8641 125.78 76.3894 128.793ZM44.2671 113.252C44.7418 112.935 45.2165 112.618 45.6912 112.301C49.8054 109.605 54.2361 107.226 58.5085 104.689C60.7238 103.421 63.0974 101.993 65.3127 100.566C64.5215 105.324 63.4139 109.922 62.4645 114.68C60.2491 116.107 58.0338 117.375 55.8185 118.803C52.0207 121.181 48.0648 123.401 44.2671 125.78C43.0012 126.573 41.8935 127.366 40.6276 128.159C42.21 123.243 43.3177 118.168 44.2671 113.252ZM43.1594 128.159C47.1154 125.622 51.0713 123.243 55.1855 120.864C57.4008 119.437 59.7744 118.01 61.9897 116.583C61.515 118.803 61.1985 121.023 60.7238 123.243C60.4074 125.304 60.0909 127.366 59.9326 129.427L59.7744 129.586C54.2361 132.916 48.6977 136.246 43.4759 140.211C41.2606 141.955 39.0452 143.699 36.6717 145.127C37.4628 140.211 38.4123 135.295 39.9947 130.537C40.9441 129.586 42.0518 128.793 43.1594 128.159ZM36.8299 146.554C39.5199 145.127 41.8935 143.065 44.2671 141.321C49.1725 137.515 54.3943 134.343 59.7744 131.172C59.1415 135.929 58.5085 140.686 57.0844 145.127C56.6096 146.395 56.1349 147.664 55.502 148.774C53.9196 149.884 52.179 150.835 50.5966 151.946C45.2165 155.434 39.8364 158.606 34.2981 161.936C35.0893 156.861 35.7222 151.787 36.5134 146.712C36.5134 146.712 36.6717 146.712 36.8299 146.554ZM53.6031 151.787C53.6031 151.787 53.7614 151.787 53.7614 151.628C53.1284 152.58 52.4955 153.69 51.7043 154.641C51.7043 154.641 51.7043 154.8 51.546 154.8C52.9702 154.641 55.0273 154.958 56.1349 155.117C57.4008 155.117 58.6667 155.117 59.9326 155.276C61.0403 153.69 62.148 151.946 62.9392 150.043C63.7304 148.14 64.3633 146.237 64.9963 144.334C66.1039 143.541 67.2116 142.748 68.3193 141.955C70.6928 140.211 73.0664 138.466 75.44 136.722C75.2817 138.466 74.9653 140.369 74.6488 142.114C76.8641 141.479 79.2377 141.004 81.453 140.528C81.7695 137.991 82.086 135.295 82.4024 132.758C82.7189 132.599 82.8772 132.44 83.1936 132.282C83.9848 131.965 83.3519 130.696 82.5607 131.013C82.8772 127.524 83.1936 124.036 83.8266 120.706C84.1431 119.12 84.4595 117.693 84.776 116.265C88.4155 114.204 91.8967 112.142 95.6944 110.239C95.5362 112.142 95.378 114.204 94.9032 116.265C93.7956 122.291 92.2132 128.159 91.2638 134.185C90.9473 135.929 90.7891 137.515 90.6308 139.259C92.5297 139.101 94.2703 138.942 96.1692 138.784C96.4856 134.819 96.8021 130.855 97.5933 127.049C98.3845 122.609 99.3339 118.327 99.9669 113.728C100.442 114.045 100.758 114.363 101.233 114.68C104.081 116.424 106.613 118.327 109.461 120.071C109.936 120.388 110.411 120.706 110.885 121.023C110.411 124.987 109.461 128.952 108.195 133.233C107.721 134.978 107.404 136.722 107.088 138.466C109.303 138.466 111.676 138.308 113.892 138.308C115.158 133.55 115.949 128.635 116.265 124.194C119.272 125.622 122.278 126.732 125.443 126.573C125.601 126.573 125.76 126.573 126.076 126.414C125.918 127.683 125.76 128.952 125.601 130.22C125.127 132.916 125.127 135.612 124.968 138.466C127.026 138.466 129.083 138.625 131.14 138.625C131.14 138.149 131.14 137.673 131.14 137.198C131.456 132.599 132.564 127.842 132.406 123.084C130.349 122.609 128.45 121.816 126.551 121.023C126.551 121.816 126.393 122.609 126.393 123.401C123.228 121.816 119.747 120.23 116.424 118.644C116.265 117.693 116.265 116.741 116.107 115.79C114.525 114.997 113.101 114.204 111.518 113.252C111.518 114.204 111.518 115.155 111.518 115.948C110.569 115.473 109.619 114.838 108.828 114.363C106.613 112.935 103.448 110.874 100.6 110.081C100.6 109.129 100.6 108.178 100.442 107.226C99.9669 106.909 99.3339 106.751 98.8592 106.434C97.7515 105.958 98.5427 104.214 99.6504 104.531C99.8086 104.531 99.9669 104.689 100.125 104.689C99.6504 101.993 99.1757 99.4562 99.1757 96.7603C99.1757 96.2846 99.1757 95.6503 99.1757 95.016C102.499 88.99 104.081 80.5854 108.828 75.6695L108.986 75.5109C110.727 73.7665 112.784 72.6565 115.474 72.0222C116.74 71.705 117.848 71.2293 118.955 70.7535C119.43 71.0707 120.063 70.595 120.221 70.1192C122.278 69.0092 124.177 67.7406 126.551 67.2648C133.355 65.8376 139.685 65.8376 146.489 65.3619C148.862 65.2033 151.078 64.569 153.451 64.0933C154.559 63.9347 155.667 63.9347 156.774 63.9347C155.667 64.7276 154.559 65.3619 153.451 66.1548C152.66 66.1548 152.185 66.3134 151.869 67.2648C151.711 67.7406 152.185 68.0577 152.66 67.8991C154.717 66.7891 156.616 65.3619 158.515 63.9347C159.306 63.9347 160.256 63.9347 161.205 64.0933C168.009 64.0933 173.389 63.3004 180.194 65.0447C177.978 71.0707 171.332 73.4494 165.952 76.6209C163.895 76.4624 161.838 76.4623 159.623 76.7795C153.293 77.4138 148.071 75.828 141.9 75.3523C136.045 74.8766 131.14 77.5724 126.393 80.5854C125.285 81.3783 122.911 81.854 121.804 82.8055C120.221 84.0741 119.272 85.8185 118.322 87.5628C113.259 93.4302 111.36 100.566 111.202 108.495C112.468 108.971 113.575 109.447 114.841 109.922C114.525 107.544 114.367 105.165 114.683 102.628C115.158 99.7733 115.791 97.0775 116.582 94.6988C116.898 94.6988 117.057 94.5403 117.373 94.3817C119.114 92.4787 120.221 89.9415 122.12 88.0386C124.177 85.8185 124.336 86.4528 126.709 85.1841C133.355 81.5368 138.419 80.1096 146.014 81.5368C149.179 82.1712 152.185 82.6469 155.35 82.6469C156.774 82.6469 158.198 82.4883 159.623 82.1712C158.99 83.1226 158.515 84.2327 158.198 85.5013C158.198 85.8185 158.515 85.977 158.673 85.6599C159.464 84.2327 160.414 82.9641 161.521 82.0126C162.787 81.854 164.053 81.854 165.319 82.1712C170.699 83.2812 174.972 87.5628 179.719 90.2586C178.136 91.6858 176.079 92.9545 174.339 94.0645C173.389 94.6988 168.167 98.1875 165.319 99.4562C160.414 96.4432 155.508 92.9545 150.445 90.4172C147.122 88.6729 142.216 88.5143 138.735 89.3072C138.102 89.4658 137.469 89.7829 136.836 90.1001C128.608 92.3202 126.393 100.408 125.76 108.178C125.601 110.557 125.918 113.094 126.234 115.473C127.975 116.424 129.716 117.217 131.456 118.168C130.032 111.508 128.924 104.848 131.14 98.9804C131.14 98.9804 131.14 98.9804 131.298 98.9804C138.26 93.4302 143.166 90.5758 151.236 96.9189C155.192 99.9319 159.306 101.835 163.579 104.214C166.743 106.116 170.383 107.702 174.022 109.129C172.44 111.35 170.857 113.57 168.959 115.473C168.484 115.948 169.117 116.741 169.592 116.424C171.965 114.68 173.706 112.142 175.288 109.605C179.402 111.032 183.675 111.984 187.947 112.301C193.327 112.777 198.074 111.032 202.98 109.764C204.562 113.094 204.879 116.9 205.195 120.388C205.195 121.181 205.353 121.816 205.353 122.609C205.037 122.609 204.72 122.45 204.246 122.45C196.809 121.023 192.853 118.961 185.257 120.706C180.035 121.974 175.763 124.036 170.857 120.864C168.009 119.12 165.636 117.217 162.787 115.473C158.04 112.777 155.034 106.592 148.862 107.544C144.906 108.178 144.115 110.081 143.482 112.935C140.951 118.486 140.951 126.414 140.792 131.648C140.634 134.343 140.634 136.881 140.476 139.259C140.951 139.259 141.583 139.418 142.058 139.418C143.641 139.576 143.641 141.638 142.058 141.797C141.425 141.797 140.792 141.955 140.159 141.955C139.843 145.285 139.052 148.615 137.311 152.104C135.254 156.386 133.197 160.667 130.982 164.949C126.393 173.512 117.69 179.855 113.259 188.736C110.885 193.493 111.044 200.47 117.215 201.898C122.12 203.008 128.133 200.47 132.88 200.153C138.893 199.678 141.9 201.422 147.438 203.642C150.603 204.911 153.926 205.228 156.458 207.924C158.673 210.302 159.148 213.632 160.572 216.328C162.154 219.024 165.003 221.403 167.851 222.671C170.066 223.623 172.123 223.306 174.339 224.099C176.554 224.891 178.295 226.794 180.352 227.904C184.466 229.966 188.264 229.807 192.694 228.856C197.916 227.746 202.663 224.891 207.727 222.83C212.949 220.768 217.221 216.804 222.127 214.267C224.975 212.681 226.715 211.412 228.456 208.875C229.564 209.668 230.671 210.619 231.779 211.412C234.153 213.157 236.685 214.742 239.216 216.328C237.95 217.597 236.843 218.865 235.893 219.976C234.311 221.72 232.57 223.94 230.671 225.843C230.355 225.367 229.564 225.209 229.089 225.684C223.393 230.283 216.747 231.552 210.259 234.406C203.296 237.419 198.233 239.005 190.479 237.895C183.991 236.943 177.345 235.675 170.857 234.248C168.167 233.613 165.794 233.613 163.579 231.869C161.68 230.283 161.047 227.587 159.306 225.843C156.458 222.988 152.66 220.293 148.704 219.658C146.647 219.341 144.748 219.976 142.691 219.5C140.476 219.024 138.735 217.28 136.52 216.963C131.456 216.328 127.184 218.39 121.962 216.328C118.797 215.06 116.74 212.522 113.892 210.778C111.36 209.034 108.195 208.241 105.822 206.179C99.4921 200.946 102.34 194.762 105.663 189.053C108.828 183.661 114.525 180.49 117.531 175.415C118.481 173.829 118.164 172.085 118.955 170.658C119.43 169.865 120.538 169.389 121.013 168.596C124.336 163.522 127.659 158.606 129.557 152.738C130.665 149.408 130.665 146.395 130.823 143.224C128.608 143.224 126.551 143.382 124.336 143.382C124.336 144.175 124.177 144.968 124.177 145.761C123.861 145.444 123.386 145.127 122.753 145.285C119.272 146.078 115.474 146.078 111.518 146.078C111.835 145.285 112.151 144.334 112.309 143.541C110.252 143.541 108.037 143.541 105.98 143.541C105.822 144.334 105.663 145.127 105.505 145.92C103.132 145.761 100.758 145.761 98.3845 145.761C97.2768 145.761 96.0109 145.92 94.745 145.92C94.9032 145.285 94.9032 144.492 95.0615 143.858C93.1626 143.858 91.2638 144.017 89.3649 144.017C89.2067 144.81 89.0484 145.602 89.0484 146.395C85.8837 146.712 82.8772 146.871 79.7124 146.871V146.712C79.7124 146.554 79.7124 146.554 79.7124 146.395C79.8706 145.761 80.0289 144.968 80.1871 144.334C77.9718 144.492 75.7564 144.492 73.5411 144.492C73.3829 145.127 73.2246 145.761 73.0664 146.395C72.117 146.554 71.6423 147.664 72.5917 148.298C72.5917 148.298 72.5917 148.298 72.5917 148.457C72.117 149.884 71.6423 150.994 71.0093 152.104C70.3764 152.421 69.9016 152.897 69.4269 153.214C66.2622 155.434 63.0974 157.654 59.7744 159.716C59.2997 160.033 58.825 160.35 58.5085 160.667C57.5591 160.826 56.7679 161.143 55.8185 161.302C56.1349 160.826 56.4514 160.192 56.9261 159.716C54.3943 159.557 51.8625 159.082 49.6472 158.447C49.0142 159.874 48.5395 161.302 47.9066 162.729C43.9506 163.363 39.6782 163.839 36.0387 163.68C35.7222 163.68 35.4058 163.68 35.0893 163.522C41.577 159.24 47.7483 155.751 53.6031 151.787ZM95.8527 158.289C88.8902 158.923 81.9277 159.399 74.9653 159.557C74.807 159.557 74.6488 159.557 74.4905 159.557C72.4334 159.557 70.3764 159.557 68.3193 159.557C66.5786 159.557 64.6798 159.557 62.9392 159.399C63.0974 159.24 63.4139 159.082 63.5721 158.923C65.6292 157.496 67.6863 156.069 69.5852 154.8C69.4269 154.958 69.2687 155.276 69.1105 155.434C71.6423 155.434 74.1741 155.276 76.7059 155.276C77.3388 154.324 77.9718 153.214 78.4465 152.104C78.763 151.153 79.2377 150.36 79.5542 149.408C82.5607 150.043 85.5672 150.36 88.5737 150.518C88.099 151.946 87.4661 153.214 86.6749 154.483C88.732 154.324 90.9473 154.007 93.0044 153.848C93.4791 152.897 93.7956 151.946 94.1121 150.835C96.6439 150.994 99.3339 150.994 101.866 150.994C102.499 150.994 103.29 150.994 103.923 150.994C103.606 151.628 103.29 152.104 102.973 152.58C104.872 152.421 106.929 152.263 108.828 152.104C108.986 151.787 109.303 151.47 109.461 150.994C114.999 150.994 121.171 150.201 124.177 146.871C123.861 148.457 123.386 150.043 122.753 151.628C122.911 151.628 123.228 151.628 123.386 151.628C124.968 151.628 125.443 154.007 123.703 154.483C122.911 154.641 121.962 154.958 121.171 155.117C120.696 156.227 120.063 157.179 119.43 158.289C119.114 158.289 118.797 158.13 118.481 158.289C114.367 159.082 109.619 158.447 105.189 157.813C105.189 157.654 105.347 157.654 105.347 157.496C102.182 157.813 99.0174 157.971 95.8527 158.289ZM80.3454 194.92C79.5542 198.092 79.2377 201.58 80.3454 204.593C80.5036 204.911 80.6618 205.228 80.8201 205.545C80.8201 205.545 80.6618 205.545 80.6618 205.703C78.13 208.241 75.7564 210.619 73.3829 213.157C72.4334 209.351 71.484 205.545 72.2752 201.898C73.2246 197.933 75.7564 194.603 76.3894 190.321C76.7059 188.577 77.0223 186.991 77.3388 185.564C77.8135 184.613 78.2883 183.661 78.6047 182.551C78.6047 182.393 78.6047 182.234 78.4465 182.075C79.2377 180.172 80.0289 178.269 81.2948 176.049C83.1936 172.561 84.6178 169.072 86.0419 165.425C88.5737 165.107 90.9473 164.79 93.4791 164.79C94.745 164.79 96.0109 164.949 97.2768 164.949C96.9603 165.9 96.6439 166.852 96.1692 167.803C94.2703 172.878 90.9473 174.464 87.7825 178.745C84.776 183.027 81.7695 190.004 80.3454 194.92ZM70.3764 224.099C70.8511 225.526 71.3258 226.953 72.117 228.063C69.7434 231.552 67.3698 234.882 64.838 238.053C63.4139 237.419 61.9897 237.102 60.5656 235.675C58.825 234.089 58.3503 232.662 58.0338 230.917C58.3503 230.6 58.825 230.125 59.1415 229.807C62.6227 226.319 65.9457 222.83 69.2687 219.341C69.5852 220.927 69.9016 222.513 70.3764 224.099ZM72.9082 229.014C73.6994 229.807 74.4905 230.442 75.7564 231.076C78.13 232.186 80.5036 232.662 82.7189 234.089C79.7124 237.261 76.3894 240.115 73.0664 243.128C71.0093 241.542 68.9522 240.115 67.0534 239.005C66.7369 238.846 66.4204 238.688 66.1039 238.529C68.4775 235.516 70.6928 232.345 72.9082 229.014ZM58.5085 228.38C58.192 228.697 57.8755 229.014 57.5591 229.332C57.4008 228.697 57.4008 227.904 57.2426 227.27C56.4514 223.781 55.1855 219.975 54.5526 216.17C58.825 212.047 62.9392 207.924 66.7369 203.483C66.7369 204.276 66.7369 205.228 66.7369 206.179C67.0534 209.985 67.8446 213.95 68.794 217.914C65.471 221.561 61.9897 225.05 58.5085 228.38ZM54.3943 207.924C54.5526 206.972 54.869 206.021 55.1855 205.228C58.9832 201.898 62.9392 198.567 66.7369 195.237C67.8445 194.127 69.2687 193.176 70.5346 192.224C70.2181 193.017 70.0599 193.81 69.7434 194.444C68.6357 197.14 67.5281 199.043 67.0534 201.105C62.9392 205.862 58.6667 210.302 54.2361 214.584C53.9196 212.364 53.9196 210.144 54.3943 207.924ZM46.9571 211.095C43.1594 214.901 39.2035 218.548 35.2475 222.196C34.931 219.5 34.7728 216.963 35.4058 214.425C36.6717 209.034 39.9947 204.593 40.7858 198.885C40.7858 198.567 40.9441 198.092 40.9441 197.775C45.6912 193.652 50.2801 189.37 54.869 185.247C53.4449 189.846 53.2866 194.762 51.2296 199.36C49.3307 203.642 47.9066 206.179 47.7483 210.302C47.5901 210.619 47.2736 210.778 46.9571 211.095ZM52.9702 167.486C56.7679 167.328 60.4074 167.01 64.0468 166.535C63.5721 167.486 63.2556 168.438 62.7809 169.389C57.2426 174.146 51.546 178.745 45.6912 183.027C46.1659 181.917 46.7989 180.648 47.4318 179.538C49.4889 175.574 51.2296 171.609 52.9702 167.486ZM44.7418 185.564C50.4384 181.6 55.8185 177.159 61.0403 172.719C59.6162 175.574 58.0338 178.269 56.6096 181.124C56.4514 181.282 56.4514 181.6 56.2932 181.758C51.3878 186.198 46.4824 190.48 41.4188 194.762C42.0518 191.59 43.0012 188.736 44.2671 185.881C44.5836 185.723 44.5836 185.723 44.7418 185.564ZM59.1415 194.444C60.0909 187.784 61.8315 183.503 64.838 177.635C65.471 176.367 66.1039 175.257 66.5786 173.988C67.3698 173.195 68.161 172.402 68.9522 171.609C69.5852 170.975 68.794 170.182 68.161 170.499C68.794 168.913 69.4269 167.486 70.0599 165.9C73.5411 165.583 76.8641 165.425 80.3454 165.583C80.5036 165.583 80.6618 165.583 80.8201 165.583C78.9212 170.182 76.5476 174.464 74.1741 178.745C72.2752 182.234 71.9587 185.881 71.1675 189.529C68.4775 191.59 65.9457 194.127 63.4139 196.347C61.0403 198.409 58.6667 200.47 56.1349 202.532C57.4008 199.995 58.6667 197.457 59.1415 194.444ZM43.9506 171.292C39.5199 175.098 34.931 178.587 30.3421 182.234C29.7092 182.71 29.0762 183.185 28.4433 183.661C28.6015 183.344 28.7598 182.868 28.918 182.551C31.1333 177.159 32.5575 171.451 33.5069 165.742C34.931 166.376 36.5134 167.01 38.254 167.169C40.7858 167.486 43.4759 167.645 46.1659 167.645C45.6912 168.755 45.2165 169.706 44.7418 170.658C44.4253 170.816 44.2671 170.975 43.9506 171.292ZM21.0061 194.444C23.0632 191.749 24.962 189.37 26.7027 186.833C27.6521 186.198 28.6015 185.564 29.2345 184.93C33.9816 181.6 38.5705 177.952 42.8429 174.305C42.8429 174.305 42.8429 174.305 43.0012 174.146C41.4188 177.318 39.6782 180.331 37.9376 183.503C36.6717 185.723 36.0387 187.943 35.4058 190.321C29.5509 194.286 23.8544 198.409 17.9996 202.373C18.4743 199.36 19.1072 197.14 21.0061 194.444ZM30.8169 206.814C28.7598 211.412 27.3356 214.584 27.9686 220.451C28.1268 222.988 28.6015 225.526 29.0762 228.063C27.6521 229.332 26.3862 230.759 24.8038 231.869C23.3797 233.137 21.7973 233.93 20.0567 234.565C19.7402 231.235 19.4237 227.904 19.2655 224.891C19.1072 222.513 18.7908 220.134 18.6325 217.914C22.5885 214.108 26.7027 210.461 30.8169 206.814ZM20.2149 235.992C21.4808 235.358 22.905 234.882 24.0126 234.089C25.9115 232.82 27.4939 231.235 29.2345 229.49C29.7092 231.869 30.1839 234.248 30.8169 236.468C30.0257 237.261 29.3927 237.895 28.6015 238.688C26.228 241.066 24.0126 243.604 21.7973 246.141C21.0061 242.811 20.5314 239.481 20.2149 235.992ZM35.4058 223.623C39.6782 219.817 43.6341 215.852 47.7483 211.888C47.7483 212.205 47.7483 212.681 47.7483 212.998C47.9066 215.218 48.223 217.438 48.6978 219.658C46.7989 221.403 44.9 223.147 43.0012 225.05C40.9441 226.794 39.0452 228.697 36.9881 230.6C36.5134 228.38 35.8805 226.001 35.4058 223.623ZM38.5705 236.785C38.254 235.199 37.7793 233.772 37.4628 232.027C39.5199 230.124 41.4188 228.38 43.4759 226.477C45.3747 224.733 47.2736 222.988 49.0142 221.244C49.8054 225.526 50.9131 229.807 52.0207 233.772C52.0207 234.089 52.179 234.248 52.179 234.406C50.5966 235.992 48.856 237.419 47.2736 239.005C45.3747 240.749 43.4759 242.494 41.4188 244.079C41.2606 244.079 41.1023 244.397 40.7858 244.555C39.2035 242.494 39.3617 240.115 38.5705 236.785ZM58.192 247.885C59.6162 246.458 60.8821 245.031 62.148 243.604C63.8886 244.238 65.471 244.872 67.2116 246.141C67.6863 246.458 68.3193 246.934 68.794 247.251C68.4775 247.41 68.3193 247.727 68.0028 247.885C64.838 250.74 61.8315 253.594 58.825 256.448C57.2426 255.18 55.6602 253.911 53.9196 252.801C55.1855 251.057 56.6096 249.471 58.192 247.885ZM84.776 252.96L84.6178 252.801C87.4661 248.995 89.9979 245.031 92.6879 241.066C94.2703 242.176 95.6944 243.286 97.4351 244.079C94.745 247.727 91.8967 251.215 89.2067 254.863C87.6243 254.387 86.2002 253.753 84.776 252.96ZM83.5101 252.167C81.7695 250.898 80.5036 249.154 78.763 247.727C77.3388 246.617 75.7564 245.189 74.1741 243.921C77.4971 240.908 80.8201 238.053 83.8266 234.882C85.7254 236.309 87.7825 237.578 89.6814 239.005C90.3143 239.481 90.9473 239.956 91.5802 240.432C88.8902 244.397 86.2002 248.202 83.5101 252.167ZM83.0354 228.38C80.9783 227.27 79.2377 227.27 77.4971 225.526C75.1235 223.306 75.2817 221.403 74.6488 218.39C74.3323 217.121 74.0158 215.852 73.6994 214.584C76.2312 212.047 78.763 209.351 81.2948 206.814C83.8266 212.205 88.4155 217.121 91.8967 221.878C91.1055 222.988 90.3143 224.257 89.5232 225.526C88.5737 227.27 87.3078 228.856 86.0419 230.283C85.0925 229.649 84.1431 229.014 83.0354 228.38ZM240.008 266.122C239.849 265.329 238.583 265.646 238.742 266.439C238.9 267.232 239.058 268.025 239.216 268.818C238.267 269.135 237.317 269.452 236.21 269.928C233.678 271.196 231.304 272.623 228.931 274.051C228.14 270.245 227.348 266.439 226.241 262.633C227.981 261.523 229.406 260.096 231.463 259.461C234.627 258.193 237.001 258.986 240.166 259.144C244.438 259.461 247.286 257.717 250.768 255.497C252.034 254.704 253.299 253.911 254.724 253.118C256.306 257.241 257.73 261.364 258.996 265.646C258.838 265.805 258.521 265.963 258.363 266.122C252.825 269.293 246.495 267.39 240.482 268.659C240.324 267.866 240.166 266.915 240.008 266.122ZM205.353 283.248C204.879 279.125 204.404 275.161 203.771 271.196C207.094 270.403 210.417 268.976 213.74 268.183C214.056 268.025 214.373 268.025 214.689 267.866C215.797 271.513 216.114 275.636 216.114 279.601C212.632 280.552 209.309 282.138 205.67 283.248C205.67 283.248 205.512 283.248 205.353 283.248ZM170.699 256.29C174.655 256.448 178.453 256.766 182.092 255.973C184.149 257.083 185.257 257.241 187.314 256.924C187.789 259.62 187.947 262.474 188.105 265.329C185.257 265.329 182.409 265.963 179.561 266.597C179.402 266.597 179.244 266.439 179.086 266.439C178.295 266.439 177.345 266.439 176.554 266.439C176.554 264.377 176.554 262.157 176.554 260.096C176.554 259.303 175.446 259.303 175.446 260.096C175.446 262.157 175.446 264.377 175.446 266.439C173.864 266.439 172.282 266.28 170.699 265.646C168.8 264.853 166.585 263.585 164.686 262.474C163.737 261.999 163.262 261.523 161.68 261.047C161.68 259.303 161.68 257.4 161.68 255.656C165.003 256.448 167.376 256.29 170.699 256.29ZM165.477 268.818C169.117 270.562 171.965 270.72 175.288 270.245C175.288 274.526 175.288 278.967 175.288 283.248C173.231 283.248 171.332 283.09 169.275 282.297C167.06 281.345 164.528 279.918 162.471 278.649C162.313 278.649 161.838 278.491 161.838 278.491C161.838 274.685 161.838 270.879 161.838 267.073C163.42 267.708 164.37 268.342 165.477 268.818ZM176.712 270.086C177.662 269.928 178.611 269.769 179.561 269.61C179.877 269.61 180.194 269.293 180.352 269.135C183.2 269.293 187.314 269.293 188.105 269.293C188.264 269.293 188.264 269.293 188.422 269.293C188.422 270.403 188.58 271.513 188.58 272.623C188.738 275.795 189.055 278.967 189.371 281.98C186.048 282.138 182.884 282.772 179.719 283.565C179.561 283.565 179.402 283.407 179.244 283.407C178.453 283.407 177.662 283.407 176.871 283.407C176.712 278.967 176.712 274.526 176.712 270.086ZM189.688 270.403C189.688 270.086 189.688 269.769 189.688 269.61C193.169 270.245 196.334 271.989 199.973 271.831C200.923 271.831 201.714 271.672 202.663 271.513C203.296 275.478 203.771 279.601 204.246 283.565C200.29 284.2 198.074 282.772 193.96 282.297C192.853 282.138 191.745 282.138 190.637 282.138C190.163 278.174 189.846 274.368 189.688 270.403ZM215.797 267.549C219.12 266.597 222.443 265.17 225.45 263.267C226.399 267.073 227.348 270.879 227.981 274.685C224.658 276.588 221.335 278.332 217.221 279.284C217.063 275.319 216.905 271.196 215.797 267.549ZM246.97 251.691C241.115 255.021 234.311 251.85 228.14 255.021C223.076 257.559 219.12 260.73 213.74 262.474C213.582 262.157 213.265 261.84 213.107 261.523C212.632 260.889 211.683 261.523 212.158 262.157C212.316 262.474 212.474 262.633 212.632 262.95C212.316 263.109 211.841 263.109 211.525 263.267C208.36 264.06 205.353 265.646 202.189 266.439C197.916 267.708 195.859 266.28 191.903 265.646C191.112 265.487 190.321 265.487 189.53 265.487C189.371 262.633 189.055 259.779 188.738 256.924C189.53 256.766 190.321 256.607 191.428 256.29C196.176 255.021 202.347 255.814 207.41 255.656C210.575 255.497 213.582 255.021 216.588 253.594C220.861 251.533 222.918 247.727 227.665 246.458C230.355 245.824 233.361 245.982 235.893 244.872C239.375 243.445 245.071 240.432 247.919 238.053C251.559 235.04 253.299 230.442 255.04 226.16C258.205 228.38 261.844 230.6 265.326 232.027C261.686 240.273 255.04 246.934 246.97 251.691ZM158.673 253.118C159.623 253.911 160.414 254.546 161.205 254.863C161.205 255.021 161.205 255.021 161.205 255.18C161.205 256.924 161.205 258.51 161.205 260.254C159.623 259.461 157.882 258.986 156.141 258.51C156.141 255.973 156.141 253.277 156.141 250.74C156.933 251.533 157.882 252.325 158.673 253.118ZM156.141 264.219C158.04 264.695 159.623 265.487 161.205 266.28C161.205 270.086 161.205 273.892 161.205 277.698C159.306 276.588 157.407 275.795 155.508 275.161C155.667 271.513 155.825 267.866 155.825 264.219C155.983 264.219 155.983 264.219 156.141 264.219ZM142.216 265.17C142.058 267.708 141.9 270.245 141.583 272.782C140.792 272.623 139.843 272.623 139.052 272.465C139.21 268.976 139.21 265.487 138.577 262.157C139.685 262.316 140.951 262.474 142.216 262.633C142.216 263.426 142.216 264.377 142.216 265.17ZM140.159 279.442C140.476 279.442 140.634 279.442 140.951 279.601C140.792 281.98 140.634 284.517 140.634 286.895C140.634 287.847 140.634 288.798 140.634 289.75C140.001 289.591 139.21 289.591 138.577 289.433C138.577 288.481 138.577 287.371 138.577 286.42C138.419 284.041 138.577 281.662 138.735 279.284C139.21 279.442 139.685 279.442 140.159 279.442ZM144.59 290.226C143.641 290.067 142.691 290.067 141.742 289.908C141.742 287.371 141.742 284.993 141.9 282.455C141.9 281.504 142.058 280.552 142.058 279.601C145.539 279.918 148.862 279.918 152.344 280.711C152.977 280.87 153.61 281.028 154.242 281.345C154.084 284.2 153.926 287.054 153.61 290.067C153.61 290.86 153.451 291.653 153.451 292.446C150.603 291.336 147.913 290.701 144.59 290.226ZM155.192 281.821C157.249 282.772 159.148 283.882 161.205 284.993C161.205 288.798 161.205 292.604 161.205 296.41C160.888 296.252 160.572 296.093 160.256 295.934C158.357 294.824 156.458 293.873 154.717 293.08C154.875 289.274 155.034 285.627 155.192 281.821ZM161.838 285.627C163.42 285.785 162.946 285.944 163.262 286.261C167.693 288.481 171.174 288.481 175.13 287.847C175.13 292.287 175.13 296.727 175.13 301.326C172.598 301.326 169.908 301.167 167.376 300.216C165.477 299.423 164.844 298.313 161.68 297.362C161.838 293.397 161.838 289.591 161.838 285.627ZM176.871 287.688C177.82 287.53 178.769 287.371 179.719 287.213C180.194 287.213 180.51 286.895 180.668 286.737C183.991 286.895 188.897 286.895 189.688 286.895H189.846C190.004 288.64 190.163 290.384 190.479 292.129C190.795 294.666 190.954 297.362 191.112 299.899C187.314 300.057 183.517 300.85 179.877 301.643C179.719 301.643 179.561 301.485 179.244 301.485C178.453 301.485 177.662 301.485 176.871 301.485C176.871 296.886 176.871 292.287 176.871 287.688ZM191.428 289.75C191.27 288.798 191.27 287.847 191.112 287.054C195.226 287.847 199.182 289.908 203.455 289.75C203.929 289.75 204.404 289.591 204.72 289.591C204.879 291.653 205.037 293.873 205.195 295.934C205.353 297.837 205.353 299.74 205.353 301.802C202.347 301.802 199.815 300.692 196.176 300.216C194.751 300.057 193.486 299.899 192.061 299.899C192.061 296.41 191.745 293.08 191.428 289.75ZM231.621 290.384C231.146 287.371 230.83 284.358 230.355 281.345C231.463 280.711 232.57 280.235 233.52 279.601C235.893 278.174 237.792 276.271 240.482 275.319H240.64C241.432 279.284 242.223 283.248 243.014 287.054C239.216 289.116 235.735 291.336 232.096 293.239C231.937 292.287 231.779 291.336 231.621 290.384ZM262.161 271.196C262.477 271.038 262.794 270.879 263.11 270.72C265.959 268.976 269.44 266.915 272.605 264.536C273.87 268.976 274.978 273.416 276.244 277.857C274.503 279.125 272.605 280.235 270.706 281.345C269.123 282.297 267.383 282.772 265.642 283.248C264.376 279.284 263.268 275.319 262.161 271.196ZM295.233 252.801C294.283 247.727 293.334 242.652 292.226 237.578C291.435 234.406 290.644 231.235 289.852 227.904C289.852 227.746 289.852 227.746 290.011 227.587C291.593 223.94 293.334 220.451 295.233 216.963C296.973 222.83 298.556 228.856 300.296 234.723C300.454 235.199 300.613 235.833 300.771 236.309C299.821 238.529 299.189 240.749 298.714 243.286C298.081 247.251 296.973 250.898 295.549 254.228C295.391 253.753 295.233 253.277 295.233 252.801ZM301.72 234.248C301.404 233.137 300.929 231.869 300.613 230.759C299.03 225.526 297.606 220.293 296.024 215.218C296.34 214.584 296.657 213.791 296.973 213.157C298.714 209.509 301.562 204.911 301.562 200.788C301.562 199.836 300.771 199.36 299.98 199.36C300.613 197.616 301.404 195.713 302.037 193.969C302.828 196.665 303.619 199.36 304.094 202.215C304.885 207.131 304.727 212.047 305.043 217.121C305.202 220.134 305.676 223.147 306.309 226.16C304.569 228.856 302.986 231.552 301.72 234.248ZM30.8169 263.743C28.4433 260.571 25.4368 257.717 24.0126 253.911C23.2214 252.008 22.7467 249.947 22.1138 247.885C24.3291 245.507 26.3862 242.969 28.6015 240.591C29.3927 239.798 30.1839 239.005 31.1333 238.053C31.608 240.115 32.241 242.335 32.7157 244.238C33.1904 246.141 33.9816 247.885 34.931 249.471C34.931 249.63 34.931 249.788 34.931 249.947C34.931 250.264 35.2475 250.581 35.564 250.423C36.6717 251.691 38.0958 252.96 39.8364 253.753C42.5265 255.021 45.3748 255.814 47.9066 257.083C45.0583 260.572 42.21 264.06 39.2035 267.39C39.8364 265.487 40.7858 263.585 41.577 263.267C41.8935 263.267 41.7353 262.792 41.577 262.792L40.3111 262.95C40.1529 262.95 39.9947 263.109 39.9947 263.267C39.2035 265.805 38.0958 267.866 36.8299 270.245C36.3552 270.879 37.3046 271.672 37.9376 271.038C42.0518 267.073 45.8495 262.474 49.4889 258.034C49.6472 258.193 49.8054 258.193 49.9636 258.351C51.2296 259.303 52.4955 260.096 53.9196 261.047C53.2866 261.682 52.6537 262.157 52.0207 262.792C48.0648 266.756 43.3177 270.562 40.4694 275.319C39.8364 274.844 39.3617 274.368 38.7288 273.892C35.564 271.038 33.5069 267.232 30.8169 263.743ZM41.577 276.271C42.8429 275.002 44.1088 273.892 44.7418 272.465C47.9066 268.818 51.3878 265.329 54.869 261.84C56.1349 262.792 57.4008 263.584 58.6667 264.536C61.9897 266.915 64.9963 269.135 68.3193 271.038C67.5281 271.989 66.7369 272.941 65.9457 273.892C64.2051 275.954 62.3062 277.698 60.5656 279.759C59.6162 280.869 58.825 281.98 58.0338 283.09C57.7173 283.09 57.5591 282.931 57.2426 282.931C58.0338 281.345 59.4579 279.918 60.5656 279.442C60.8821 279.284 60.5656 278.808 60.4074 278.967C58.9832 279.442 57.4008 281.028 56.2932 282.772C51.2296 281.345 46.1659 279.759 41.577 276.271ZM87.4661 293.397C81.7695 290.543 76.5476 287.688 70.5346 285.785C71.9587 284.358 73.2246 282.614 74.3323 281.187C75.5982 279.442 77.3388 277.381 77.9718 275.319C80.3454 276.271 82.7189 277.381 84.9342 278.491C83.5101 280.552 82.086 282.772 80.9783 285.151C80.6618 285.785 81.2948 286.42 81.9277 286.103C83.6684 285.31 84.9342 284.2 86.2002 282.455C86.3584 282.138 86.0419 281.821 85.7254 282.138C84.9342 283.09 84.1431 283.724 83.0354 284.2C83.9848 282.455 84.9342 280.87 86.0419 279.125C87.6243 279.918 89.0484 280.869 90.6308 281.98C92.055 280.552 93.6373 279.125 95.0615 277.698C93.0044 276.588 90.9473 275.478 88.8902 274.526C89.8396 273.099 90.6308 271.513 91.5802 270.086C93.0044 267.707 94.4285 265.329 95.8527 263.109C98.5427 264.377 101.233 265.963 103.923 268.025C104.239 268.183 104.398 268.342 104.714 268.659C104.872 268.5 105.189 268.183 105.347 268.025C104.556 271.355 102.024 274.209 100.125 277.064C99.8086 277.698 99.4921 278.332 99.1757 278.967C97.1186 280.711 95.2197 282.455 93.1626 284.2C93.3209 284.358 93.4791 284.358 93.6373 284.517C91.7385 286.895 89.9979 290.701 87.4661 293.397ZM132.406 253.594C131.614 253.753 130.823 254.07 130.032 254.387C129.241 254.228 128.608 253.911 127.817 253.594C126.234 254.863 124.494 256.131 122.911 257.4C123.228 257.559 123.703 257.717 124.019 257.876C121.013 259.937 117.848 261.999 114.841 264.06C113.417 265.17 112.151 266.439 110.727 267.707C108.037 270.245 105.189 272.941 102.499 275.478C104.556 272.623 106.771 269.928 107.088 266.28C107.088 266.122 107.088 266.122 107.088 265.963C107.721 265.329 108.512 264.695 109.145 264.06C105.663 262.316 102.34 260.413 98.8592 258.669C99.9669 257.083 101.075 255.656 102.34 254.07C102.973 253.277 101.866 252.325 101.391 253.118C100.125 254.704 98.8592 256.448 97.5933 258.034C96.1691 257.4 94.745 256.766 93.3209 256.29C92.3714 255.973 91.5802 255.656 90.6308 255.338C93.3209 251.691 96.0109 248.202 98.701 244.714C99.4921 245.031 100.283 245.507 101.075 245.665C106.296 247.568 110.411 249.471 114.999 252.643C116.265 253.594 117.531 254.387 118.797 255.021C120.221 253.753 121.645 252.643 123.07 251.533C117.215 248.995 111.676 245.189 105.663 242.969C104.081 242.494 102.657 241.859 101.075 241.384C101.549 240.749 102.024 240.115 102.499 239.481C102.973 238.688 101.866 238.053 101.391 238.846C100.916 239.481 100.442 240.115 99.9669 240.908C99.4921 240.749 99.0174 240.432 98.5427 240.274C97.2768 239.481 96.1691 238.529 95.2197 237.578C96.6439 235.675 97.9098 233.613 99.3339 231.71C99.8086 231.076 98.701 230.442 98.2262 231.076C96.8021 232.979 95.5362 234.723 94.2703 236.626C93.9538 236.309 93.6373 235.992 93.3209 235.833C91.5802 234.406 89.5232 232.662 87.4661 231.076C88.5737 229.966 89.5232 228.697 90.3143 227.429C91.2638 225.843 92.055 224.416 93.0044 222.988C95.2197 226.001 96.0109 226.477 99.8086 227.746C106.296 229.966 112.309 233.613 118.955 235.675C120.221 235.992 121.487 236.15 122.595 236.309C127.342 237.102 126.393 237.736 129.557 238.688C134.621 240.115 140.318 240.115 145.223 242.176C149.179 243.921 152.344 246.934 155.508 249.788C155.35 249.788 155.192 250.105 155.192 250.264C155.192 252.801 155.192 255.497 155.192 258.034C154.717 257.876 154.242 257.876 153.768 257.876C150.445 257.4 146.964 257.083 143.641 256.766C143.641 254.863 143.641 252.96 144.115 251.057C144.59 248.52 145.381 246.458 145.381 243.921C145.381 243.286 144.432 243.286 144.432 243.921C144.59 247.251 143.166 250.264 142.849 253.594C142.849 254.546 142.691 255.497 142.691 256.607C142.533 256.607 142.216 256.607 142.058 256.607C141.9 256.607 141.583 256.607 141.425 256.607C141.583 256.448 141.9 256.29 142.216 255.973C144.115 254.387 141.742 252.008 139.843 252.801C137.628 253.753 134.463 252.96 132.406 253.594ZM135.729 307.828C136.203 305.608 136.836 303.388 137.153 301.326C137.469 299.899 137.628 298.472 137.944 297.044C138.893 297.044 139.843 297.203 140.792 297.203C140.792 300.375 140.792 303.546 140.634 306.718C140.634 307.193 140.634 307.828 140.476 308.303C140.001 308.303 139.526 308.145 139.052 308.145C137.944 308.145 136.836 307.986 135.729 307.828ZM155.983 311.158C155.508 311.158 154.875 310.999 154.401 310.841C154.401 307.511 154.559 304.18 154.559 301.009C156.774 302.119 158.99 303.546 161.205 304.656C161.205 306.876 161.205 309.096 161.205 311.475C159.464 311.475 157.724 311.475 155.983 311.158ZM162.471 311.316C162.471 309.255 162.471 307.193 162.471 305.132C167.218 307.193 170.699 307.193 175.288 306.401C175.288 308.145 175.288 309.731 175.288 311.475C173.389 311.158 171.332 310.999 169.117 310.999C166.902 311.158 164.686 311.316 162.471 311.316ZM176.871 311.792C176.871 309.889 176.871 308.145 176.871 306.242C177.82 306.083 178.769 305.925 179.877 305.766C180.352 305.608 180.668 305.449 180.985 305.132C184.782 305.291 190.479 305.291 191.428 305.291C191.587 309.255 191.903 313.219 192.061 317.025C191.745 316.867 191.27 316.708 190.954 316.55C186.207 314.488 181.618 312.744 176.871 311.792ZM193.327 317.66C193.011 315.122 192.694 312.427 192.536 309.889C192.536 308.462 192.378 307.035 192.378 305.608C196.809 306.242 200.923 308.462 205.512 308.779C205.512 312.268 205.512 315.598 205.828 319.087C201.714 319.245 197.441 318.928 193.327 317.66ZM206.461 318.77C206.777 315.44 206.936 311.951 206.936 308.621C207.094 308.621 207.094 308.621 207.252 308.621C210.892 308.462 214.531 307.352 218.171 306.083C218.171 306.718 218.329 307.352 218.329 307.986C218.645 310.682 218.487 313.378 218.487 316.074C214.373 317.342 210.417 318.294 206.461 318.77ZM241.273 309.414C238.9 309.731 236.368 310.365 233.994 310.999C233.994 309.572 233.836 307.986 233.678 306.559C233.52 304.815 233.361 303.07 233.203 301.326C236.21 300.057 239.216 298.63 241.906 297.044C242.856 296.41 243.805 295.776 244.596 295.142C244.755 295.617 244.755 296.093 244.913 296.727C245.704 300.692 246.495 304.815 247.286 308.779C245.388 308.779 243.33 309.096 241.273 309.414ZM248.711 308.621C247.919 304.498 247.128 300.375 246.179 296.252C246.021 295.617 245.862 294.983 245.704 294.19C246.97 293.397 248.236 292.446 249.66 291.97C253.774 290.384 257.097 291.336 261.37 291.494C262.952 291.653 264.376 291.494 265.642 291.177C266.275 293.873 266.908 296.569 267.699 299.265C268.332 301.802 268.965 304.656 269.756 307.193C269.282 307.193 268.807 307.352 268.49 307.352C262.003 308.145 255.357 308.145 248.711 308.621ZM271.655 307.193C270.231 301.802 268.807 296.41 267.383 291.018C270.389 290.226 272.921 288.64 275.928 286.895C276.56 286.42 277.352 286.103 277.985 285.627C279.567 291.811 280.833 298.947 285.105 303.863C281.149 306.242 276.402 306.718 271.655 307.193ZM287.162 302.278C287.004 302.436 286.688 302.595 286.529 302.912C282.574 297.52 280.991 291.336 279.251 284.834C283.839 282.138 288.745 278.649 292.384 274.526C293.808 280.235 294.6 286.261 297.606 291.336C294.283 295.3 290.802 299.106 287.162 302.278ZM338.115 200.153C332.102 218.707 325.614 237.578 318.019 255.656C313.113 267.232 306.626 279.601 298.397 290.226C298.397 290.226 298.397 290.226 298.397 290.067C298.397 289.908 298.239 289.908 298.081 289.75C295.866 284.358 294.758 278.808 293.334 273.099C294.758 271.196 295.866 269.135 296.498 266.915C296.815 266.597 296.973 266.28 297.29 265.963C298.714 270.086 300.296 274.209 300.613 278.649C300.613 279.442 301.72 278.967 301.72 278.967C301.72 274.209 300.296 271.038 298.872 267.39C298.556 266.597 298.397 265.805 298.081 264.853C299.98 261.999 301.404 257.876 302.353 255.338C303.461 252.643 303.936 249.788 304.41 246.934C305.36 248.995 306.467 250.898 308.525 252.008C308.841 252.167 309.474 252.008 309.474 251.533C309.949 248.678 309.632 245.982 307.733 243.762C307.575 243.604 307.259 243.762 307.417 244.079C308.841 245.982 309.316 248.044 308.683 250.264C306.784 248.52 305.835 246.299 305.043 243.921C305.518 241.542 305.993 239.163 307.1 236.943C307.417 236.15 307.733 235.358 308.208 234.723C308.525 236.785 308.841 238.846 309.158 240.908C309.158 241.225 309.632 241.225 309.632 240.908C309.79 238.212 309.474 235.516 309.158 232.82C311.215 228.539 313.272 224.416 315.329 220.293C316.278 218.39 317.386 216.328 318.335 214.267C318.335 215.535 318.494 216.804 318.652 218.231C318.968 221.403 319.601 224.733 319.601 228.063C319.601 231.869 318.494 235.516 318.652 239.322C318.652 239.639 319.126 239.639 319.126 239.322C319.601 235.516 320.709 231.869 320.867 228.063C321.025 224.416 320.234 220.61 319.918 216.963C319.759 215.218 319.601 213.474 319.601 211.729C320.234 209.827 320.709 207.924 320.709 206.179C320.709 205.228 320.076 204.752 319.285 204.593C319.285 204.276 319.285 203.801 319.126 203.483C322.449 194.444 327.197 185.723 327.988 175.732C328.621 167.328 330.994 159.557 330.52 151.153C330.045 142.589 322.608 137.356 322.449 128.793C322.291 124.67 324.19 121.023 324.507 117.058C324.823 114.521 324.823 111.825 324.823 109.288C328.146 109.922 331.627 110.398 334.634 111.35C336.216 111.825 337.799 112.301 339.381 112.777C339.697 122.767 339.856 132.758 342.071 142.907C346.343 162.095 344.286 181.282 338.115 200.153Z" fill="#DCDAD1"/>
<path d="M271.336 194.954C269.754 194.474 268.172 194.155 266.59 193.675C266.59 192.876 266.432 192.237 266.59 191.119C265.324 190.799 264.059 190.479 262.793 190C262.635 190.799 262.477 191.598 262.318 192.397C260.578 191.918 258.838 191.278 257.098 190.639C255.358 190 254.092 192.876 255.832 193.835C257.731 194.794 259.787 195.912 261.686 197.031C260.895 202.144 259.471 207.418 257.731 212.052C257.572 212.531 257.256 213.17 256.94 213.649C258.205 214.289 259.471 214.928 260.736 215.407C262.16 212.052 262.951 208.696 264.217 204.381C264.692 202.464 265.166 200.546 265.641 198.629C266.115 198.789 266.59 198.948 266.906 199.108C270.545 200.227 274.5 200.546 277.981 201.985H278.139C276.873 204.541 275.449 207.258 274.184 209.655C272.444 212.851 270.545 215.727 269.279 219.082C270.703 219.722 271.969 220.361 273.393 221C273.551 220.201 273.867 219.402 274.184 218.603C276.082 214.289 278.139 210.294 280.196 206.139C281.778 202.943 284.151 198.948 283.992 195.433C283.992 194.634 283.201 194.155 282.569 194.155C282.569 194.155 282.569 194.155 282.569 193.995C281.619 193.835 280.828 193.675 279.879 193.515C279.563 195.273 279.246 197.031 279.088 198.789C277.506 196.871 274.5 195.753 271.336 194.954Z" fill="#DCDAD1"/>
<path d="M189.539 165.418C186.809 164.152 184.561 162.728 181.189 163.045C178.78 163.203 176.371 164.152 175.407 166.526C173.962 170.006 176.692 173.171 178.459 175.861C180.546 179.025 181.51 183.93 185.043 185.987C187.773 187.569 191.787 187.253 194.196 185.354C195.642 184.246 196.605 182.822 198.05 181.715C199.175 180.766 200.138 180.291 200.62 178.709C202.708 172.063 195.802 165.576 189.539 165.418ZM196.766 177.601C195.802 179.025 194.196 179.816 192.912 180.924C189.379 183.772 186.649 183.297 184.722 179.183C183.919 177.285 182.634 175.861 181.51 174.12C181.028 173.487 180.546 172.854 180.064 172.222C179.583 171.589 179.101 170.956 178.619 170.323C179.101 168.899 179.422 167.475 179.904 166.051C181.189 164.785 185.203 166.051 186.649 166.367C186.97 166.526 188.576 166.684 189.86 167C193.072 170.165 200.62 172.063 196.766 177.601Z" fill="#DCDAD1"/>
</g>
</svg>
