<svg viewBox="0 0 558 522" xmlns="http://www.w3.org/2000/svg">
<path d="M505.441 350.444C499.729 344.092 495.851 336.369 491.057 329.332C490.028 327.801 488.999 326.27 487.82 324.907C490.067 325.418 492.282 325.297 494.616 324.376C495.7 323.841 496.301 323.173 496.736 322.356C501.863 323.345 506.823 324.184 512.25 324.839C517.677 325.494 524.948 328.112 530.383 325.751C531.364 326.332 532.329 326.597 533.31 327.178C538.325 319.604 542.525 311.598 545.428 303.028C550.426 288.789 556.619 276.231 557.757 260.934C558.974 247.219 554.819 237.131 548.972 224.914C541.534 209.452 527.973 198.451 517.631 185.21C508.137 173.034 501.925 159.885 490.294 149.413C483.316 143.129 475.586 137.681 468.774 131.547C463.125 126.46 459.612 119.67 453.978 114.9C451.652 112.806 449.208 111.511 447.182 109.083C444.31 105.59 443.139 101.211 441.034 97.1999C437.734 91.5087 433.098 87.6364 428.129 83.4648C416.863 73.9248 408.95 61.6622 396.648 53.6072C390.413 49.505 384.139 47.7852 377.62 44.3333C374.361 42.6074 370.982 41.6814 367.62 41.0719C366.955 40.4735 366.291 39.8751 365.626 39.2767C355.079 28.2691 341.645 19.7999 328.892 12.2457C307.807 -0.0895489 278.037 -2.11038 254.723 4.40242C241.892 7.96114 231.363 16.3134 219.061 20.954C204.909 26.6481 192.671 32.5547 179.246 40.1133C167.206 46.8026 155.648 53.6242 142.548 58.1498C130.231 62.4739 118.554 70.0955 108.176 78.2808C97.4807 86.4835 86.5325 95.9696 73.7961 101.427C68.9784 103.437 63.6146 104.048 59.145 106.673C52.9747 110.184 48.6637 115.975 44.6691 121.748C37.8665 131.641 32.211 142.266 25.2581 152.327C17.269 163.873 8.7104 176.72 3.64856 189.692C-0.709368 200.881 0.439128 214.307 0.392876 226.053C0.378317 238.432 4.91259 249.769 11.3139 260.368C19.2422 272.947 29.1085 283.04 34.2681 297.358C34.83 299.073 35.376 300.471 36.0881 302.019C36.2701 302.485 36.3019 303.118 36.6342 303.417C36.8003 303.567 36.8003 303.567 36.9665 303.717C37.5125 305.115 38.2246 306.663 38.921 307.894C39.7041 307.693 40.337 307.658 40.9541 307.307C44.8783 309.631 49.8228 310.154 54.5695 309.895C65.0123 309.323 75.3282 306.219 85.7709 305.648C96.8465 305.042 107.06 309.402 118.017 309.596C118.65 309.562 119.133 309.694 119.6 309.51C120.565 309.774 121.68 309.872 122.796 309.97C124.544 310.033 126.561 309.129 128.476 309.341C128.642 309.491 128.808 309.641 128.658 309.807C127.456 311.143 126.103 312.645 124.734 313.831C118.058 319.909 109.641 322.909 102.964 328.987C96.1376 335.233 89.4295 340.678 82.2546 346.308C76.915 350.567 72.8253 354.441 69.4794 360.496C68.6094 362.13 68.4356 364.996 69.7807 366.51C70.113 366.809 70.295 367.275 70.6273 367.574C71.9724 369.088 73.436 369.801 75.0341 370.031C82.8514 380.395 89.1341 391.794 96.3344 402.509C92.5929 406.998 90.2991 411.885 93.4718 415.044C93.8041 415.343 94.255 414.842 93.9227 414.543C92.1819 411.464 94.5233 407.527 97.3789 404.356C101.477 410.162 105.394 415.502 107.341 422.696C109.09 429.106 109.225 434.971 112.224 440.996C118.918 454.277 130.185 463.817 143.073 470.888C153.849 476.963 165.795 481.07 176.705 486.663C189.728 493.25 200.86 503.273 213.297 510.845C222.625 516.523 233.203 521.816 244.476 521.993C257.015 522.1 268.787 516.378 280.321 512.255C308.705 502.45 336.251 488.564 362.332 473.965C388.264 459.533 415.572 447.247 439.066 428.505C461.96 410.43 473.104 382.684 496.195 365.392C497.112 364.707 498.18 363.855 499.098 363.17C505.008 363.957 510.323 356.049 505.441 350.444ZM233.651 33.486C246.308 26.4455 257.367 19.1751 272.011 16.9455C285.871 14.9174 303.054 15.8814 315.997 20.8861C323.118 23.6704 329.384 28.4057 336.069 32.0072C342.921 35.7584 349.907 39.026 356.022 43.9283C366.276 52.2541 376.87 57.8635 388.01 64.8713C388.825 65.3027 389.442 64.9516 390.043 64.2839C396.491 69.4854 401.871 75.5388 407.782 82.674C415.733 92.554 425.394 98.5319 430.577 110.15C435.214 120.371 444.154 127.816 451.243 136.315C459.195 146.195 470.185 153.37 479.188 162.081C489.521 171.99 494.388 183.626 502.269 195.255C509.801 206.269 519.604 215.096 525.602 227.146C528.419 232.704 529.203 238.851 530.62 244.962C532.187 250.907 530.629 254.642 529.664 260.725C528.138 271.442 522.404 280.484 519.264 290.653C517.635 296.138 516.488 301.755 513.894 306.975C512.304 310.078 510.532 312.714 508.294 315.534C504.465 315.109 500.952 314.666 497.107 313.924C493.412 313.016 489.567 312.274 485.889 311.682C485.723 311.532 485.723 311.532 485.556 311.383C486.276 309.915 486.98 308.131 487.7 306.663C484.021 306.071 480.326 305.162 476.648 304.57C476.229 305.704 475.794 306.521 475.374 307.655C471.664 306.43 467.803 305.372 464.093 304.146C461.83 303.318 459.583 302.806 457.186 302.461C457.621 301.644 457.89 300.677 458.175 300.027C455.113 299.083 451.901 298.307 448.839 297.364C448.42 298.498 448.001 299.631 447.415 300.616C441.173 299.529 434.931 298.442 429.259 296.055C429.844 295.071 430.263 293.937 430.682 292.803C427.953 292.159 425.39 291.664 422.51 291.187C420.952 294.923 419.228 298.508 416.704 301.979C412.108 308.419 406.619 312.846 401.192 318.539C399.238 320.709 395.884 323.431 394.595 326.2C392.886 330.102 393.892 334.332 391.867 338.251C387.516 346.424 378.348 350.258 372.17 356.785C365.841 363.48 358.303 368.177 350.946 373.34C351.808 374.721 352.671 376.103 353.367 377.334C361.27 373.569 369.189 370.12 375.533 363.743C381.893 357.682 389.281 353.151 394.811 346.342C400.49 339.366 398.432 329.957 404.278 323.131C406.967 319.809 411.018 318.318 414.206 315.446C417.093 312.908 419.798 309.903 422.187 306.916C423.674 304.93 425.161 302.944 426.332 300.976C430.668 305.182 436.356 307.886 442.013 309.957C441.863 310.124 441.712 310.291 441.712 310.291C436.381 317.882 429.657 323.011 423.645 329.688C421.24 332.359 417.42 335.266 415.996 338.518C414.003 343.07 415.206 348.082 412.73 352.503C407.494 361.994 396.775 366.548 389.545 374.243C378.106 386.613 363.036 392.992 350.917 404.446C349.984 404.815 348.884 405.034 348.117 405.552C347.5 405.903 346.717 406.104 346.1 406.456C346.938 404.188 348.093 401.903 348.931 399.635C349.35 398.502 347.72 397.639 347.301 398.772C346.178 401.69 345.055 404.608 343.616 407.544C340.499 408.666 337.231 409.956 334.115 411.079C326.164 413.894 318.482 415.743 311.925 421.021C301.862 429.189 290.328 433.312 278.003 434.304C278.707 432.52 279.727 430.718 280.431 428.934C280.85 427.8 279.386 427.087 278.801 428.071C277.797 430.189 276.792 432.307 275.788 434.425C269.775 434.754 263.731 434.45 257.805 433.346C260.534 427.642 262.946 421.956 265.193 416.12C272.7 417.138 280.809 417.487 286.798 413.51C290.445 413.469 294.93 411.16 298.016 409.404C300.057 412.149 302.233 414.411 304.994 415.688C306.774 416.384 309.258 415.296 309.147 413.08C308.822 409.765 307.881 406.801 306.773 403.688C306.923 403.521 307.073 403.354 307.39 403.337C300.87 393.537 297.221 380.883 294.151 370.259C292.251 364.016 290.32 357.139 288.706 350.244C287.78 347.597 286.838 344.634 286.063 341.819C286.379 341.802 286.846 341.618 287.162 341.601C286.719 339.086 286.442 336.72 286.315 334.188C285.999 334.206 285.848 334.372 285.532 334.39C285.065 334.574 284.598 334.758 283.981 335.109C282.13 329.815 279.645 324.555 276.425 320.447C276.258 320.297 276.092 320.148 275.926 319.998C279.059 319.192 282.192 318.386 284.858 317.764C291.107 315.835 293.504 309.832 298.891 306.522C306.43 301.824 314.689 302.007 322.181 296.36C327.386 292.584 332.179 286.926 335.058 281.056C337.803 275.669 337.217 270.305 335.231 265.494C337.873 261.223 340.364 257.12 342.856 253.016C343.75 255.03 344.961 257.027 346.171 259.024C352.375 268.841 352.858 275.321 347.187 285.629C344.126 291.033 340.329 297.589 335.654 302.447C335.488 302.297 335.338 302.464 335.187 302.631C328.613 307.593 321.241 312.44 313.987 316.487C311.052 318.076 307.769 319.049 305.182 321.254C302.912 323.441 301.638 326.526 299.368 328.713C296.797 331.234 294.147 332.173 291.164 332.812C291.758 335.16 292.352 337.508 292.779 339.706C295.746 338.75 298.53 337.328 300.967 335.291C306.907 330.364 310.119 324.792 316.74 320.78C321.977 317.637 326.834 313.245 331.209 308.721C337.26 306.009 341.453 301.019 345.946 295.695C351.325 289.052 359.591 279.872 360.096 270.957C360.254 267.775 359.463 264.644 357.888 261.715C361.717 255.792 364.548 248.972 367.38 242.152C369.184 246.497 370.988 250.842 373.093 254.853C372.958 255.336 372.674 255.986 372.373 256.32C372.088 256.971 371.804 257.621 371.353 258.122C371.487 257.638 367.295 262.628 368.434 260.027C368.568 259.544 368.085 259.411 367.785 259.745C367.5 260.396 367.049 260.896 366.765 261.547C366.614 261.714 366.796 262.18 366.962 262.329C369.906 264.073 372.279 260.769 374.003 257.183C376.503 262.759 375.657 268.043 375.492 274.241C375.232 284.888 371.008 295.593 362.813 303.024C358.106 307.249 352.435 311.209 347.047 314.519C339.825 319.199 335.015 324.541 328.473 330.136C323.3 334.545 318.625 339.403 313.451 343.812C308.579 347.887 304.75 353.81 300.012 357.402C299.244 357.92 298.477 358.438 297.393 358.973C297.805 360.855 298.367 362.57 298.944 364.601C304.427 363.191 307.116 359.869 311.689 356.128C321.885 347.476 332.264 339.291 341.131 329.443C349.848 319.761 364.033 314.7 372.069 304.104C380.992 292.19 383.499 282.055 384.534 267.874C384.652 267.074 384.621 266.441 384.589 265.808C384.755 265.958 385.072 265.94 385.222 265.774C392.033 259.212 396.201 250.573 401.2 242.682C401.651 242.181 401.936 241.531 402.387 241.03C403.581 242.71 404.642 244.874 405.069 247.072C405.497 249.271 405.608 251.486 405.568 253.869C403.029 257.023 400.49 260.177 398.117 263.481C397.816 263.815 398.315 264.264 398.615 263.93C401.052 261.892 403.156 259.555 405.41 257.051C405.371 259.434 405.332 261.816 405.443 264.032C406.266 274.144 403 281.781 396.569 289.592C393.729 293.08 390.059 295.82 387.551 299.607C385.178 302.911 384.419 306.761 382.545 310.513C378.93 317.535 373.092 321.346 367.483 326.572C360.506 332.985 354.392 340.778 347.415 347.19C343.776 350.563 338.958 352.573 334.789 354.864C336.134 356.377 337.163 357.908 338.508 359.421C341.174 358.799 344.022 358.643 346.672 357.705C353.539 355.425 358.783 349.266 363.925 344.224C370.886 337.495 380.078 330.961 385.544 322.886C391.445 313.994 394.482 304.941 401.53 296.779C406.324 291.121 411.837 283.995 413.687 276.594C414.747 272.41 414.525 267.979 414.153 263.714C413.765 259.133 414.492 254.65 414.254 249.902C414.191 248.636 413.977 247.537 413.763 246.438C415.852 243.784 417.924 240.814 420.012 238.161C421.199 236.509 422.385 234.857 423.588 233.522C425.313 236.284 427.821 238.844 430.329 241.405C431.492 242.452 432.173 243.367 433.019 244.432C429.665 247.154 426.161 250.044 422.474 252.467C421.707 252.986 422.554 254.05 423.171 253.699C426.857 251.275 430.377 248.702 433.882 245.813C440.813 257.494 430.656 270.111 425.863 282.117C425.009 284.068 424.321 286.169 423.467 288.12C426.331 288.28 429.195 288.441 431.908 288.769L432.059 288.602C436.456 275.031 446.359 263.697 443.534 248.458C442.908 245.478 441.516 243.015 439.822 240.886C443.311 237.679 446.95 234.306 450.272 230.951C452.495 234.162 455.019 237.039 458.01 239.732C473.359 254.761 458.963 271.418 452.612 287.159C452.058 288.777 451.338 290.244 450.785 291.862C453.831 292.488 457.043 293.265 460.104 294.208C465.19 278.536 476.747 265.367 473.493 247.93C471.981 239.919 465.098 235.535 460.05 229.781C453.657 222.513 454.716 211.981 450.174 203.66C441.106 187.335 425.18 176.622 410.97 165.338C404.19 159.838 400.819 155.896 397.258 148.156C393.714 140.733 390.968 133.424 386.189 126.703C382.937 121.962 378.917 117.738 375.064 113.664C380.293 113.537 385.689 113.559 390.752 113.282C391.701 113.23 391.772 111.48 390.673 111.699C384.826 112.178 378.948 112.024 373.07 111.869C364.581 103.923 355.039 97.1451 345.648 90.2003C339.88 85.9138 334.998 80.3092 329.23 76.0227C325.441 73.2149 321.05 71.0747 316.959 68.6008C308.795 63.9693 299.958 61.7551 291.223 58.4244C284.419 55.6229 275.29 57.0746 268.771 59.9705C265.821 61.2428 263.218 63.1309 260.766 64.8521C258.116 65.7906 255.798 67.0283 253.48 68.266C247.024 66.0802 240.466 65.0108 233.757 64.1084C236.114 60.4881 238.471 56.8678 241.327 53.6963C241.778 53.1956 242.229 52.6948 242.679 52.1941C248.755 53.1311 254.815 53.7517 261.01 53.8887C262.125 53.9864 261.88 52.2542 260.931 52.3061C255.535 52.284 250.274 51.7784 244.997 50.9563C256.982 46.3331 269.378 37.2438 281.87 36.4015C282.186 36.3842 282.186 36.3842 282.503 36.3669C286.933 36.1245 291.577 36.9812 296 39.7544C298.128 41.0662 300.391 41.8945 302.637 42.4063C302.851 43.5055 304.449 43.7354 305.201 42.9008C309.378 43.9418 313.856 44.6489 317.78 46.9733C329.054 53.4976 338.192 61.7258 348.581 69.5681C352.204 72.2263 356.279 74.3838 360.053 76.8751C364.475 79.6483 367.347 83.1411 371.169 86.582C380.806 95.2589 389.667 101.122 397.049 112.303C405.144 125.031 407.147 142.854 418.461 153.344C425.439 159.627 433.351 165.542 440.765 171.008C449.974 177.487 456.185 184.288 463.424 192.62C470.664 200.952 472.279 207.846 474.716 218.504C476.711 226.647 481.743 232.085 487.74 237.787C505.582 255.061 488.931 274.222 481.591 292.397C480.602 294.832 479.78 297.416 478.791 299.851C482.185 301.093 485.745 302.485 489.139 303.728C489.408 302.761 489.843 301.944 490.112 300.977C496.02 282.721 509.38 267.548 505.652 246.963C503.911 237.537 496.062 232.888 490.168 226.07C482.762 217.588 484.058 205.456 478.82 195.904C468.359 177.115 449.973 164.791 433.619 151.879C425.691 145.648 421.957 140.774 417.715 132.119C413.79 123.447 410.364 115.224 404.889 107.271C392.427 89.7034 375.321 77.6265 358.05 65.3999C351.301 60.5323 345.739 54.0128 339.14 48.9783C334.686 45.572 329.646 43.15 324.907 40.3941C315.429 34.8824 305.16 32.5879 295.279 28.5265C287.51 25.4603 276.948 26.8318 269.496 30.0961C266.079 31.5527 263.176 33.7746 260.106 35.8469C252.172 38.979 244.617 43.3598 238.391 48.9374C238.391 48.9374 238.225 48.7878 238.075 48.9547C231.817 47.5516 225.322 47.7483 219.064 46.3451C216.983 45.9829 214.721 45.1546 212.474 44.6427C219.562 40.4462 226.713 37.5157 233.651 33.486ZM382.318 413.678C382.001 413.695 381.851 413.862 381.55 414.196C375.412 418.341 369.439 422.635 364.147 427.844C362.897 428.23 361.964 428.598 361.03 428.967C356.213 430.976 351.229 432.836 346.395 434.528C348.602 431.075 350.959 427.455 353.498 424.301C357.24 419.811 360.997 415.638 364.24 410.7C367.349 406.245 369.643 401.358 371.937 396.472C379.839 392.707 387.742 388.942 394.237 382.397C401.649 375.168 410.121 370.102 416.702 362.124C423.434 353.98 420.83 343.173 427.712 334.861C431.003 330.872 435.67 329.03 439.475 325.807C442.663 322.934 445.97 319.262 448.809 315.774C449.711 314.773 450.597 313.454 451.333 312.303C454.394 313.247 457.29 314.04 460.051 315.318C461.997 316.163 464.094 316.842 466.19 317.521C466.206 317.837 466.372 317.987 466.554 318.453C466.903 319.069 467.267 320.001 467.615 320.617C461.817 328.393 454.642 334.022 448.013 341.05C445.308 344.055 440.886 347.629 439.161 351.215C436.883 356.418 438.284 362.213 435.373 367.451C429.267 378.576 416.982 383.533 408.866 392.547C400.9 401.394 391.526 407.461 382.318 413.678ZM291.344 459.917C294.341 453.247 297.339 446.576 300.503 440.055C301.088 439.071 299.292 438.058 298.873 439.192C295.409 446.047 292.276 453.201 289.144 460.355C281.13 461.904 272.903 462.355 264.612 461.539C267.657 455.818 270.536 449.947 273.566 443.91C279.76 444.047 285.907 443.234 290.677 440.275C295.44 440.332 301.76 436.654 305.463 434.547C311.649 431.352 316.308 426.177 322.162 422.683C320.422 425.952 318.832 429.054 317.092 432.323C313.746 438.378 310.068 444.134 306.406 450.206C305.235 452.174 304.064 454.143 303.044 455.944C299.009 457.752 295.109 459.076 291.344 459.917ZM221.035 440.437C223.811 435.683 226.738 430.762 229.514 426.007C233.422 428.015 235.48 431.077 238.502 434.403C242.521 438.626 247.031 439.966 252.007 441.122C249.563 446.175 246.953 451.079 244.192 456.15C236.961 451.15 231.502 443.514 222.166 440.851C221.834 440.552 221.517 440.569 221.035 440.437ZM187.097 453.403C186.496 454.07 185.744 454.905 185.143 455.573C179.455 452.869 173.466 450.499 167.627 447.962C170.783 444.456 173.773 440.801 176.447 437.164C179.524 438.424 182.452 439.85 185.213 441.128C187.824 442.572 190.585 443.849 193.496 444.959C191.424 447.929 189.502 450.732 187.097 453.403ZM188.503 430.791C186.707 429.778 184.927 429.082 183.147 428.386C186.406 423.764 189.68 419.459 193.106 414.987C193.256 414.82 193.256 414.82 193.406 414.653C194.221 415.084 195.352 415.499 196.167 415.93C200.408 418.237 205.099 420.044 209.609 421.384C206.667 425.988 203.558 430.443 200.449 434.898C200.299 435.065 200.149 435.232 200.149 435.232C196.304 434.49 192.427 433.115 188.503 430.791ZM167.229 421.005C170.97 416.516 174.546 411.877 177.971 407.404C182.227 410.028 187.085 411.984 191.792 414.107C191.041 414.941 190.44 415.609 189.854 416.593C186.864 420.248 184.191 423.886 181.367 427.69C177.806 426.298 174.412 425.056 171.003 423.496C169.539 422.783 168.226 421.903 167.229 421.005ZM104.006 378.285C103.405 378.952 102.954 379.453 102.353 380.121C98.7999 375.713 95.5638 371.288 92.0112 366.88C94.1154 364.543 96.5518 362.506 97.7542 361.17C99.5577 359.167 101.211 357.331 103.015 355.328C105.024 357.44 107.05 359.868 108.759 362.314C110.136 364.46 111.362 366.773 112.272 369.104C109.567 372.109 106.711 375.28 104.006 378.285ZM139.782 322.846C142.639 326.023 145.796 328.865 148.351 332.375C144.894 336.214 141.272 339.904 137.799 343.427C136.588 341.43 135.061 339.45 133.368 337.321C131.342 334.893 129.167 332.632 127.307 330.353C130.796 327.147 134.435 323.774 137.757 320.418C138.105 321.034 138.936 321.782 139.782 322.846ZM128.665 227.603C129.218 219.638 130.768 206.223 134.794 201.083C137.483 197.762 140.814 197.738 144.382 196.114C149.049 194.272 152.87 191.365 157.553 189.839C162.854 187.962 169.08 188.732 174.032 186.24C178.217 184.265 182.188 181.191 186.341 178.584C187.686 180.097 189.031 181.61 190.542 183.273C193.05 185.834 196.057 188.843 199.332 190.886C194.317 192.112 190.828 195.318 185.647 196.395C178.566 197.576 171.604 197.957 164.587 200.404C156.336 203.554 143.552 208.062 144.226 218.34C144.709 224.82 148.056 231.461 149.789 237.555C151.902 244.899 152.053 251.079 156.033 257.685C159.301 262.744 163.756 266.15 167.008 270.891C170.093 275.483 170.932 279.564 175.569 283.436C181.685 288.338 183.813 289.65 183.64 298.864C183.6 301.246 182.912 303.347 182.873 305.73C183.056 312.544 186.363 315.219 190.129 320.726C195.09 327.913 200.819 334.582 206.246 341.585C210.994 347.673 216.137 355.327 223.289 358.744C228.977 361.448 236.2 363.116 242.458 364.519C247.917 365.807 253.495 366.295 259.175 365.667C265.362 368.82 272.877 366.821 279.823 366.124C281.239 365.888 282.505 365.818 283.937 365.899C284.895 369.179 285.836 372.143 286.628 375.273C287.023 376.839 287.419 378.404 287.981 380.119C285.948 380.706 283.598 381.311 281.731 382.048C273.465 384.881 266.708 383.029 258.638 380.296C251.368 377.679 245.988 371.626 238.163 370.625C232.254 369.838 224.524 370.737 219.516 368.948C215.956 367.556 209.571 363.621 206.264 360.945C202.957 358.27 200.449 355.709 196.557 354.018C195.259 353.454 194.444 353.022 193.479 352.758C193.764 352.107 194.064 351.774 194.349 351.123C194.784 350.306 193.803 349.725 193.186 350.076C193.455 349.109 193.075 347.86 192.394 346.945C186.896 341.692 181.697 336.105 176.499 330.518C170.787 324.165 172.495 320.263 170.983 312.252C168.237 298.596 162.445 290.661 152.911 280.867C150.07 278.007 148.63 274.595 146.074 271.085C141.81 265.129 135.939 255.611 133.675 248.435C131.444 241.892 127.757 237.968 128.507 230.785C128.492 230.469 128.476 230.152 128.46 229.836L128.776 229.818C130.026 229.433 129.931 227.534 128.665 227.603ZM82.4281 264.253C84.1689 267.331 85.7594 270.577 87.0176 273.523C83.8848 274.329 80.7521 275.136 77.6352 276.258C74.6685 277.214 71.8681 278.32 68.9015 279.275C67.6116 275.696 66.0053 272.134 64.2486 268.739C68.1646 267.731 72.0805 266.723 75.9964 265.716C78.1798 264.961 80.213 264.374 82.4281 264.253C82.4123 263.936 82.4123 263.936 82.4281 264.253ZM37.3114 272.593C34.7557 269.083 32.3661 265.723 29.9766 262.362C31.2266 261.976 32.6426 261.74 33.9084 261.671C38.1567 260.962 42.4366 260.887 46.851 260.328C48.4333 260.241 49.9996 259.838 51.4157 259.602C52.1596 261.783 53.0538 263.797 54.2802 266.11C54.7945 266.876 55.1585 267.808 55.6729 268.573C49.5576 270.019 43.7589 271.447 37.8098 273.042C37.4934 273.059 37.4775 272.743 37.3114 272.593ZM56.7332 270.737C53.8141 272.642 49.2336 273.052 46.2353 273.375C45.9188 273.392 45.9188 273.392 45.6024 273.409C49.2019 272.419 52.9675 271.578 56.7332 270.737ZM75.4187 263.684C71.3525 264.859 67.4365 265.867 63.2041 266.892C61.7957 264.112 60.2369 261.5 58.8284 258.72C62.9264 258.179 67.0085 257.32 71.1064 256.779C73.6221 256.324 76.304 256.018 78.8197 255.563C79.4133 257.911 80.1572 260.092 81.3837 262.405C79.3347 262.676 77.4518 263.097 75.4187 263.684ZM57.3724 254.991C55.8846 250.629 56.3114 246.48 55.773 242.066C55.3455 239.867 55.2346 237.652 54.641 235.304C60.8196 235.124 67.1644 235.095 73.5092 235.065C73.8256 235.047 73.8256 235.047 74.1421 235.03C74.7515 237.695 75.5271 240.509 75.9862 243.34C76.8094 247.104 77.4506 250.401 78.4081 253.681C75.4257 254.321 72.2771 254.81 69.1285 255.3C65.347 255.824 61.8819 256.331 58.2666 257.005C57.9025 256.073 57.7205 255.607 57.3724 254.991ZM51.103 218.517C49.6152 214.155 47.2891 212.061 46.7348 207.33C46.7189 207.013 46.7031 206.697 46.6872 206.38C53.5305 206.799 60.6584 206.568 67.4541 206.037C66.0622 209.922 65.7698 213.588 67.5582 217.616C68.0883 218.698 68.6185 219.78 69.1486 220.862C66.1503 221.185 63.0017 221.674 59.8373 221.848C57.3057 221.986 54.9403 222.274 52.2584 222.58C52.0447 221.481 51.649 219.915 51.103 218.517ZM61.2924 140.04C71.0312 141.253 80.7701 142.465 90.5089 143.678C86.6881 146.585 82.717 149.659 78.548 151.95C69.3393 151.819 60.1465 152.005 50.9696 152.507C53.9279 148.219 57.2027 143.914 61.2924 140.04ZM224.904 61.5777C223.788 61.48 222.507 61.2328 221.241 61.3021C211.352 60.2563 201.866 57.7602 192.246 55.7475C193.164 55.0625 193.931 54.5444 194.848 53.8594C199.587 50.2675 204.84 47.4409 210.108 44.9309C214.452 46.1214 218.945 47.1451 223.423 47.8522C227.885 48.2428 232.213 49.1169 236.69 49.824C236.24 50.3247 235.623 50.6759 235.021 51.3436C231.699 54.6993 228.226 58.222 224.904 61.5777ZM190.094 57.1348C199.714 59.1475 209.2 61.6436 219.089 62.6894C220.521 62.7697 221.803 63.0169 223.401 63.2469C219.628 67.1034 215.839 70.6433 211.567 74.051C206.607 73.2116 201.796 72.2053 196.986 71.1989C190.412 69.8131 183.853 68.7437 177.145 67.8413C181.4 64.1171 185.822 60.5425 190.094 57.1348ZM335.041 109.666C337.05 111.777 338.933 111.357 341.781 111.201C346.694 111.091 351.655 111.93 356.583 112.137C358.648 112.182 361.029 112.211 363.094 112.256C367.897 116.278 372.367 120.001 376.434 125.174C368.024 125.158 359.298 125.16 350.707 124.678C345.421 120.524 339.82 116.387 334.384 112.399C329.281 108.711 325.396 104.004 320.444 100.149C317.152 97.7902 313.41 95.9319 309.818 93.9067C302.801 90.006 295.245 88.0391 287.808 85.2721C281.985 83.0517 274.256 83.9507 268.671 86.4781C266.187 87.5662 263.885 89.1205 261.583 90.6747C254.582 93.4383 248.277 97.4333 243.001 102.959C239.528 106.482 236.523 109.82 233.034 113.026C232.868 112.877 232.702 112.727 232.369 112.428C227.227 111.122 222.085 109.817 216.792 108.678C220.913 105.437 225.201 102.346 229.156 98.9558C235.848 93.1939 238.933 85.0903 244.644 78.7474C245.245 78.0797 245.847 77.412 246.614 76.8939C257.214 73.1399 268.527 64.5861 279.753 63.813L280.069 63.7957C284.033 63.7375 287.877 64.4793 291.802 66.8036C293.598 67.8162 295.544 68.6619 297.474 69.191C297.688 70.2902 298.954 70.2209 299.721 69.7028C303.416 70.6115 307.094 71.2037 310.686 73.2288C320.647 78.8729 328.306 86.0711 337.381 93.0332C340.522 95.5591 343.932 97.1181 347.373 99.3102C351.147 101.802 353.671 104.679 356.994 107.671C358.157 108.718 359.32 109.765 360.483 110.812C355.721 110.756 351.109 110.532 346.496 110.308C342.833 110.033 338.601 111.058 335.025 109.349C335.144 108.549 334.859 109.199 335.041 109.666ZM440.998 210.51C441.75 209.676 440.42 208.479 439.669 209.314C435.943 214.12 432.217 218.926 428.658 223.881C427.305 219.036 426.568 213.839 424.282 209.362C416.44 195.35 402.974 186.248 390.758 176.76C384.975 172.157 382.103 168.664 379.072 162.006C376.057 155.664 373.841 149.438 369.426 143.649C364.647 136.928 358.816 131.375 352.851 126.306C353.484 126.271 353.966 126.404 354.599 126.369C362.241 126.903 370.168 126.787 377.945 126.837C378.625 127.752 379.306 128.667 380.002 129.898C387.052 140.78 388.628 156.405 398.447 165.548C404.428 170.933 411.359 176.267 417.942 180.985C426.004 186.733 431.368 192.47 437.611 199.904C444.004 207.172 445.255 213.134 447.463 222.376C448.056 224.724 448.95 226.738 449.995 228.585C446.688 232.258 443.05 235.631 439.411 239.004C437.235 236.742 434.909 234.648 432.733 232.387C431.222 230.724 430.162 228.56 429.267 226.546C433.262 220.773 437.122 215.483 440.998 210.51ZM419.435 236.13C417.647 238.449 415.859 240.769 413.921 243.255C412.6 239.043 410.392 236.148 407.536 232.972C411.38 227.366 415.058 221.61 418.57 215.705C419.828 218.651 420.47 221.949 421.459 225.862C421.871 227.744 422.583 229.292 423.295 230.84C421.958 232.659 420.621 234.478 419.435 236.13ZM401.192 239.35C395.576 247.592 390.592 255.799 384.81 263.892C384.477 257.245 381.423 253.286 378.124 247.595C382.474 239.422 387.489 231.847 392.338 224.123C394.379 226.868 396.27 229.78 398.027 233.175C399.071 235.022 400.266 236.702 401.627 238.532C401.492 239.016 401.342 239.183 401.192 239.35ZM322.922 279.498C322.622 279.832 323.12 280.281 323.421 279.947C325.391 278.093 327.344 275.923 329.132 273.604C329.409 275.969 329.054 278.369 328.049 280.487C323.098 289.328 315.108 294.526 305.527 296.478C300.029 297.573 297.276 299.628 292.854 303.202C289.5 305.925 286.811 309.246 282.927 310.887C277.492 313.247 268.813 314.198 262.904 313.411C255.23 312.244 246.686 312.711 240.388 307.343C232.594 300.628 229.706 290.471 229.048 280.509C228.343 269.598 234.307 261.971 225.905 252.592C221.189 247.137 213.602 244.537 207.684 240.418C204.891 238.507 198.72 235.671 201.125 233C203.379 230.497 208.387 232.286 211.702 231.946C217.865 231.45 222.651 228.807 227.919 226.297C235.506 222.549 242.183 222.819 249.864 220.97C258.329 218.92 262.379 211.081 267.275 204.307C267.441 204.456 267.592 204.289 267.742 204.122C269.759 203.218 269.743 202.902 271.872 204.214C275.614 206.072 272.734 205.595 272.742 208.927C272.671 210.676 271.651 212.478 271.43 214.394C271.137 218.06 271.692 222.791 274.983 225.15C278.108 227.359 281.874 226.518 285.355 226.328C297.878 226.119 302.254 234.29 308.876 242.973C311.25 246.017 314.953 250.258 318.521 254.982C315.429 259.754 312.668 264.824 309.575 269.596C309.33 267.864 308.934 266.298 308.222 264.75C306.402 260.089 299.985 255.521 296.045 252.88C290.309 249.226 285.863 249.152 282.532 242.828C277.476 233.742 267.879 229.03 257.769 229.901C254.272 229.775 250.356 230.782 247.041 231.122C242.777 231.515 239.13 231.555 235.776 234.278C233.189 236.483 231.718 238.785 232.842 242.215C233.617 245.029 239.14 247.583 240.833 249.712C245.897 255.783 245.992 257.682 244.394 263.8C242.393 271.368 234.547 285.763 239.358 293.117C242.974 298.791 251.051 298.507 256.676 299.945C262.301 301.383 267.191 303.972 272.989 302.544C279.571 300.914 284.349 294.939 290.567 292.377C295.234 290.535 299.316 289.677 303.62 286.902C308.074 283.961 310.003 278.142 309.868 272.278C311.474 269.492 312.929 266.873 314.385 264.254C315.99 261.469 317.596 258.683 319.202 255.897C322.77 260.622 326.204 265.829 327.558 270.675C326.767 273.892 324.845 276.695 322.922 279.498ZM347.045 216.287C351.286 218.594 355.376 221.068 358.897 224.842C355.567 231.214 351.739 237.136 347.744 242.909C346.866 241.212 345.821 239.365 344.326 238.018C342.15 235.757 339.555 234.629 337.229 232.535C341.421 227.544 345.266 221.938 347.045 216.287ZM325.522 245.871C324.936 246.855 324.185 247.69 323.6 248.674C322.088 247.011 320.577 245.348 319.066 243.685C314.018 237.931 309.911 228.793 303.06 225.042C299.8 223.316 295.441 221.809 291.762 221.216C290.164 220.986 288.748 221.223 287.316 221.142C285.734 221.229 284.468 221.298 283.052 221.534C281.161 218.623 279.254 215.394 277.363 212.483C276.674 208.236 281.863 204.143 277.994 199.753C276.317 197.94 274.236 197.578 272.354 197.998C272.172 197.532 271.689 197.4 271.222 197.584C270.305 198.269 269.553 199.104 268.635 199.789C267.868 200.307 267.417 200.807 266.816 201.475C266.666 201.642 266.515 201.809 266.531 202.125C264.111 204.48 262.022 207.133 259.135 209.672C254.128 214.23 251.043 215.986 244.081 216.367C239.967 216.592 236.787 216.449 232.72 217.624C223.488 220.192 215.736 223.79 206.044 223.527C200.799 223.338 195.507 222.199 192.928 227.736C186.466 241.261 214.923 248.75 221.119 255.235C228.643 262.916 224 274.755 223.709 284.769C223.369 293.833 224.802 300.261 230.246 307.581C234.162 312.921 238.664 317.276 245.405 318.812C252.145 320.347 261.552 321.261 268.513 320.88C269.93 320.644 271.512 320.557 272.928 320.321C272.643 320.971 272.525 321.771 272.889 322.703C275.492 327.163 276.56 332.659 277.463 338.005C270.897 339.952 270.287 337.287 265.477 336.281C260.999 335.574 255.754 335.385 251.411 334.194C247.067 333.003 243.444 330.345 239.401 328.821C235.358 327.296 231.363 326.722 227.439 324.397C221.07 320.778 218.483 316.635 216.417 310.242C215.673 308.061 215.111 306.346 214.051 304.182C211.796 300.338 207.856 297.697 206.835 293.151C205.798 288.288 207.586 285.969 208.297 281.169C209.111 275.252 208.209 269.906 205.875 264.48C200.114 250.83 194.638 242.877 182.304 234.189C178.032 231.249 168.997 228.252 176.409 221.023C179.581 217.834 189.304 218.73 193.552 218.021C199.683 216.892 206.977 216.811 212.926 215.216C217.942 213.989 223.147 210.213 227.617 207.588C233.32 204.26 239.404 202.182 244.957 199.021C257.614 191.981 264.187 174.323 276.781 166.017C276.947 166.166 277.097 165.999 277.263 166.149C282.445 165.072 286.598 162.464 289.107 171.373C289.7 173.721 288.609 177.272 288.886 179.637C289.329 182.152 290.706 184.298 291.466 186.796C292.772 190.692 293.144 194.956 294.6 198.685C296.104 203.364 298.873 207.973 302.995 211.08C309.91 216.097 317.94 214.864 324 221.833C327.537 225.924 329.539 231.051 332.309 235.661C330.118 239.43 327.729 242.418 325.522 245.871ZM302.599 282.356C302.298 282.69 302.947 282.972 303.097 282.805C303.548 282.304 303.999 281.803 304.45 281.302C304.165 281.953 303.881 282.603 303.43 283.104C302.243 284.756 298.193 286.247 296.476 286.817C292.892 288.124 289.277 288.798 285.86 290.255C281.042 292.264 274.951 297.358 269.84 296.686C266.327 296.243 262.704 293.585 259.159 292.509C256.098 291.566 252.435 291.29 249.958 289.363C245.504 285.957 248.028 288.834 247.822 284.719C247.141 277.456 249.228 268.455 250.13 261.106C250.896 254.24 249.322 251.311 244.337 246.823C240.183 243.083 236.386 243.29 241.678 238.081C245.918 234.04 245.966 234.99 251.163 234.23C253.212 233.959 255.261 233.688 257.627 233.4C262.737 234.072 267.199 234.463 271.638 237.552C276.891 241.074 277.643 246.587 281.512 250.977C287.043 256.864 296.868 256.643 302.296 263.646C304.338 266.391 305.786 273.136 305.257 278.402C304.371 279.72 303.485 281.038 302.599 282.356ZM324.446 249.739C326.068 247.269 327.689 244.8 329.627 242.314C330.664 240.829 331.85 239.177 333.353 237.508C334.2 238.572 334.88 239.487 335.727 240.552C339.414 244.476 340.158 246.657 342.278 250.984C339.62 254.939 336.963 258.893 334.305 262.847C331.686 258.071 328.133 253.663 324.446 249.739ZM348.306 244.624C352.451 238.684 356.43 232.595 359.759 226.224C360.938 227.587 361.817 229.285 362.695 230.982C363.953 233.929 365.378 237.025 366.636 239.971C363.638 246.642 360.807 253.462 356.994 259.701C354.905 256.007 352.349 252.496 350.427 248.952C349.73 247.72 349.018 246.172 348.306 244.624ZM362.354 221.003C363.358 218.885 364.197 216.618 365.035 214.35C365.304 213.383 364.006 212.819 363.738 213.786C363.049 215.887 362.045 218.005 361.191 219.956C360.526 219.358 360.012 218.592 359.513 218.144C354.695 213.805 350.921 211.314 345.082 208.777C336.483 204.963 330.517 199.893 325.508 191.757C321.528 185.151 318.664 178.642 316.234 171.316C321.393 172.938 327.603 173.392 332.729 174.381C335.127 174.726 337.524 175.071 340.055 174.932C340.435 176.181 340.965 177.263 341.662 178.494C345.84 185.883 351.662 188.104 358.364 192.022C363.918 195.209 367.336 200.1 372.289 203.955C375.263 206.332 377.906 208.409 380.398 210.653C377.116 217.974 373.517 225.312 369.918 232.65C367.964 228.472 365.542 224.479 362.354 221.003ZM371.097 234.014C374.696 226.676 378.295 219.337 381.727 211.85C383.555 213.495 385.399 215.457 387.092 217.586C388.619 219.566 390.146 221.545 391.507 223.375C388.129 228.797 384.602 234.386 381.224 239.808C379.903 241.943 378.432 244.245 377.111 246.38C374.856 242.536 372.901 238.359 370.963 234.497C371.113 234.33 371.097 234.014 371.097 234.014ZM401.792 225.986C399.916 223.391 398.041 220.796 396.166 218.201C398.507 214.264 400.833 210.011 402.692 205.941C403.127 205.124 401.663 204.411 401.228 205.228C399.369 209.297 397.344 213.217 395.153 216.987C391.933 212.878 388.23 208.637 384.258 205.363C385.682 202.111 386.789 198.877 387.881 195.326C388.15 194.359 386.702 193.962 386.283 195.096C385.326 198.164 384.052 201.248 382.929 204.166C374.139 196.554 365.982 188.907 357.057 181.778C345.989 173.021 346.873 159.007 339.356 148.31C347.845 149.908 356.216 152.307 363.936 148.075C369.325 157.461 371.059 169.903 379.05 177.401C384.201 182.038 390.134 186.474 395.736 190.611C402.485 195.479 407.169 200.301 412.565 206.671C414.59 209.099 416.133 211.395 417.209 213.875C413.713 220.097 409.719 225.87 405.89 231.792C404.846 229.945 403.335 228.282 401.792 225.986ZM239.351 77.6088C232.406 84.654 226.244 91.4978 218.468 97.795C214.497 100.869 210.676 103.776 206.689 106.533C200.763 105.429 195.154 104.308 189.229 103.204C193.018 99.6639 196.973 96.2735 200.944 93.1997C201.711 92.6816 202.479 92.1635 203.23 91.3289C208.99 92.2833 214.433 93.255 220.192 94.2094C221.474 94.4567 221.845 92.3733 220.73 92.2756C215.619 91.6031 210.493 90.6141 205.532 89.7747C210.888 85.8316 216.077 81.739 221.417 77.4794C226.694 78.3015 231.955 78.807 237.366 79.1457C238.798 79.226 238.537 77.1773 237.271 77.2465C232.659 77.0229 228.03 76.4826 223.553 75.7755C223.703 75.6086 223.703 75.6086 223.853 75.4417C227.658 72.2182 230.466 68.0972 233.124 64.143C239.35 64.9132 245.909 65.9825 251.882 68.0361C247.096 70.6784 242.974 73.9192 239.351 77.6088ZM194.143 115.789C192.007 117.493 189.887 119.513 187.601 121.384C182.64 120.545 177.546 120.189 172.601 119.666C171.802 119.551 171.003 119.436 170.054 119.488C176.026 115.194 181.801 110.117 187.259 105.057C192.868 106.179 198.628 107.133 204.237 108.254C200.867 110.66 197.497 113.067 194.143 115.789ZM175.143 69.0617C175.942 69.1767 176.741 69.2916 177.54 69.4066C184.415 70.4586 191.322 72.1437 198.213 73.5122C201.741 74.2713 205.586 75.0131 209.265 75.6053C203.925 79.8648 198.404 83.6583 192.898 87.7683C189.219 87.1762 185.691 86.4171 182.012 85.8249C175.77 84.7383 169.512 83.3351 163.27 82.2484C161.189 81.8862 159.275 81.6736 157.194 81.3114C163.515 77.6329 169.487 73.3386 175.143 69.0617ZM159.852 83.705C166.411 84.7743 172.819 86.0106 179.393 87.3965C183.072 87.9886 186.917 88.7304 190.596 89.3225C187.993 91.2106 185.557 93.2483 182.954 95.1364C180.668 97.0071 178.382 98.8779 176.262 100.898L175.946 100.916C166.974 99.1848 158.003 97.454 148.762 96.6901C144.783 96.4318 140.803 96.1735 136.959 95.4318C142.448 91.0052 148.105 86.7283 154.275 83.2167C156.174 83.1128 158.088 83.3255 159.852 83.705ZM135.772 97.0836C139.949 98.1246 144.395 98.1987 148.541 98.6066C157.299 99.2382 165.788 100.837 174.443 102.585C169.269 106.994 164.096 111.403 158.392 114.731C156.691 115.617 154.99 116.504 153.274 117.074C150.56 116.746 147.831 116.102 145.117 115.774C136.161 114.36 127.506 112.612 118.535 110.881C124.175 106.288 129.649 101.545 135.289 96.9514C135.289 96.9514 135.456 97.101 135.772 97.0836ZM148.424 118.45C148.424 118.45 148.59 118.6 148.741 118.433C147.174 118.836 145.458 119.406 143.725 119.659C143.725 119.659 143.575 119.826 143.409 119.677C145.054 120.856 146.914 123.135 147.926 124.349C149.256 125.546 150.585 126.743 151.764 128.106C154.43 127.484 157.246 126.695 159.88 125.44C162.515 124.185 164.983 122.781 167.451 121.376C169.366 121.589 171.28 121.801 173.195 122.014C177.34 122.422 181.486 122.83 185.631 123.238C183.812 124.924 181.676 126.628 179.69 128.165C182.618 129.592 185.561 131.335 188.338 132.929C191.075 130.557 193.962 128.019 196.699 125.647C197.182 125.779 197.498 125.762 197.981 125.894C199.112 126.309 199.65 124.375 198.519 123.961C202.157 120.588 205.796 117.215 209.617 114.308C211.452 112.938 213.137 111.735 214.822 110.532C220.597 111.802 226.207 112.924 231.998 114.511C230.028 116.365 227.908 118.385 225.456 120.106C218.582 125.402 211.359 130.082 204.651 135.527C202.665 137.064 200.996 138.584 199.177 140.27C201.321 141.899 203.299 143.377 205.443 145.006C209.533 141.132 213.622 137.258 218.06 134C223.099 130.074 228.154 126.465 233.177 122.223C233.375 123.005 233.407 123.638 233.605 124.421C234.942 128.95 235.797 133.347 237.135 137.876C237.332 138.658 237.53 139.441 237.728 140.224C233.472 143.948 228.718 147.223 223.331 150.533C221.179 151.921 219.194 153.457 217.208 154.994C219.534 157.089 222.177 159.166 224.503 161.26C230.341 157.45 235.831 153.023 240.371 148.648C242.176 152.993 244.28 157.004 247.754 159.829C247.92 159.979 248.086 160.128 248.569 160.261C247.2 161.446 245.832 162.632 244.463 163.818C241.41 166.207 238.855 169.044 235.983 171.899C238.143 173.844 240.153 175.956 242.313 177.901C242.764 177.4 243.214 176.899 243.665 176.399C248.356 171.857 254.028 167.897 258.371 162.74C256.662 160.294 255.419 157.664 254.177 155.034C253.426 155.869 252.508 156.554 251.757 157.388C249.936 152.727 247.784 147.767 245.798 142.956C246.534 141.805 247.435 140.803 248.171 139.652C247.261 137.321 246.517 135.14 245.757 132.643C244.855 133.644 243.954 134.646 243.202 135.481C242.656 134.082 242.261 132.517 241.881 131.268C240.907 127.671 239.538 122.509 237.299 118.982C238.201 117.98 239.102 116.979 239.838 115.828C239.64 115.045 239.126 114.28 238.928 113.497C238.216 111.949 240.7 110.861 241.562 112.242C241.728 112.392 241.744 112.708 241.91 112.858C243.967 109.571 245.873 106.452 248.428 103.614C248.879 103.113 249.48 102.446 250.082 101.778C259.282 98.5767 268.909 91.226 278.553 90.5395L278.869 90.5222C282.35 90.3317 285.562 91.1081 288.988 92.9837C290.618 93.8467 292.232 94.3931 293.846 94.9396C294.043 95.7222 295.159 95.8199 295.776 95.4687C298.988 96.2451 302.184 96.705 305.127 98.4482C313.625 103.379 320.271 109.363 327.866 115.295C330.508 117.372 333.436 118.799 336.379 120.542C337.692 121.423 338.855 122.47 340.018 123.517C338.104 123.304 336.34 122.925 334.425 122.712C333.594 121.964 332.946 121.682 331.711 122.385C331.094 122.736 331.292 123.519 331.941 123.8C335.153 124.577 338.5 124.87 341.846 125.163C342.677 125.911 343.674 126.808 344.52 127.873C351.665 134.306 358.065 138.558 363.557 146.827C355.519 151.075 346.286 147.296 337.631 145.548C335.622 143.436 333.462 141.491 330.835 139.73C323.588 134.414 319.608 127.808 313.579 121.473C307.882 115.437 300.177 113.637 292.336 112.32C290.422 112.107 287.479 110.364 285.414 110.318C282.55 110.158 279.9 111.096 277.25 112.035C266.372 113.423 257.615 119.14 249.934 127.336C250.812 129.034 251.524 130.582 252.403 132.279C254.325 129.476 256.413 126.823 259.15 124.451C262.354 121.896 265.574 119.656 268.659 117.9C268.991 118.2 269.307 118.182 269.79 118.315C273.421 117.957 276.989 116.334 280.786 116.126C285.051 115.734 284.615 116.551 288.31 117.46C298.745 119.904 305.415 123.189 312.037 131.872C314.759 135.532 317.465 138.875 320.788 141.867C322.283 143.214 323.929 144.393 325.725 145.406C324.159 145.809 322.608 146.528 321.073 147.565C320.773 147.898 320.955 148.365 321.422 148.18C323.605 147.426 325.804 146.988 327.869 147.034C329.349 148.064 330.678 149.261 331.707 150.791C336.304 157.046 336.732 165.593 339.161 172.918C336.147 172.924 332.785 172.315 329.905 171.838C328.307 171.608 319.517 170.343 315.324 168.986C313.029 161.177 311.185 152.867 308.273 145.409C306.437 140.431 301.437 135.626 297.03 133.17C296.215 132.738 295.25 132.474 294.285 132.209C283.541 126.767 273.549 133.185 265.52 140.766C263.1 143.12 261.027 146.09 259.105 148.893C260.031 151.54 261.107 154.02 262.033 156.667C266.85 148.31 272 140.252 279.887 136.171C279.887 136.171 279.887 136.171 280.053 136.32C292.624 137.061 300.48 138.694 302.942 153C304.24 159.912 306.756 165.805 308.988 172.348C310.507 177.343 312.826 182.453 315.295 187.396C311.529 188.237 307.763 189.078 303.966 189.286C303.017 189.338 302.93 190.771 303.729 190.886C307.874 191.293 312.107 190.268 316.173 189.094C319.14 194.486 322.724 199.526 326.91 203.9C332.108 209.487 338.746 212.139 345.099 215.441C343.604 220.442 340.329 224.748 337.355 228.719C336.604 229.554 336.169 230.371 335.417 231.206C335.085 230.906 334.903 230.44 334.404 229.992C327.948 221.458 325.748 215.548 316.12 210.203C309.434 206.602 302.994 204.732 300.85 196.756C299.512 192.227 298.823 187.98 297.486 183.451C295.056 176.125 297.761 166.773 290.379 161.94C285.625 158.868 282.99 160.123 279.62 162.529C271.702 165.977 264.187 174.323 259.061 179.682C256.34 182.37 253.935 185.041 251.514 187.395C252.013 187.844 252.527 188.609 253.026 189.058C254.537 190.721 252.583 192.891 250.771 191.562C250.107 190.963 249.292 190.532 248.627 189.934C245.139 193.14 241.152 195.897 236.017 197.924C229.799 200.486 223.581 203.048 217.197 205.46C204.263 210.135 189.113 208.584 176.044 213.743C169.043 216.506 162.596 224 167.723 231.337C171.822 237.143 180.54 240.157 185.826 244.312C192.59 249.496 194.094 254.174 197.805 261.747C199.926 266.075 203.114 269.55 203.218 274.782C203.289 279.38 200.631 283.334 199.572 287.518C198.678 291.852 199.415 297.048 201.203 301.077C202.627 304.172 205.088 305.783 206.662 308.713C208.237 311.642 208.261 315.29 209.369 318.404C211.735 324.463 215.873 327.887 221.427 331.074C227.962 334.843 235.652 336.326 242.923 338.943C250.359 341.71 258.603 341.577 266.158 343.544C270.652 344.567 273.682 344.877 277.914 343.852C278.326 345.734 278.587 347.783 278.999 349.665C279.838 353.745 280.993 357.808 282.149 361.871C279.617 362.009 277.252 362.297 275.203 362.568C271.888 362.908 267.956 363.599 264.159 363.807C264.277 363.007 263.597 362.092 262.648 362.144C252.308 361.599 244.127 356.651 234.609 353.522C224.443 350.111 217.623 346.993 210.534 338.494C204.624 331.359 198.848 323.74 193.388 316.104C191.165 312.893 188.672 310.649 188 306.719C187.509 303.254 189.399 299.818 189.225 296.336C188.939 290.639 187.507 284.211 183.954 279.803C182.095 277.524 179.5 276.397 177.791 273.951C175.916 271.356 175.741 267.874 173.716 265.446C169 259.991 162.56 258.122 159.031 251.015C156.91 246.687 157.155 242.072 155.818 237.543C154.812 233.313 152.241 229.487 151.703 225.073C150.016 213.58 158.868 209.763 167.768 206.896C176.201 204.212 185.189 206.26 193.155 203.761C195.655 202.989 196.976 200.854 199.159 200.099C200.409 199.714 202.023 200.26 203.273 199.874C211.572 197.674 219.72 195.642 227.275 191.261C231.594 188.803 234.45 185.631 237.622 182.442C235.296 180.348 232.985 178.57 230.659 176.476C229.908 177.31 228.99 177.995 228.239 178.83C228.207 178.197 228.009 177.414 227.194 176.983C222.787 174.526 218.8 170.935 214.646 167.195C215.73 166.66 216.964 165.958 217.882 165.273C215.722 163.328 213.395 161.233 211.236 159.289C210.318 159.974 209.4 160.659 208.483 161.344C206.141 158.933 203.648 156.689 201.156 154.445C199.993 153.397 198.514 152.367 197.184 151.171C197.952 150.653 198.703 149.818 199.471 149.3C197.477 147.505 195.333 145.876 193.339 144.081C192.421 144.766 191.504 145.451 190.752 146.286C187.128 143.627 183.821 140.952 180.498 137.96L180.649 137.793C180.799 137.626 180.799 137.626 180.949 137.459C181.716 136.941 182.634 136.256 183.401 135.738C180.925 133.81 178.599 131.716 176.273 129.622C175.506 130.14 174.738 130.658 173.971 131.176C172.824 130.445 171.273 131.165 171.669 132.73C171.669 132.73 171.669 132.73 171.519 132.897C169.667 133.95 168.117 134.67 166.4 135.24C165.435 134.975 164.486 135.027 163.687 134.912C158.259 134.257 152.832 133.602 147.389 132.63C146.59 132.515 145.791 132.401 145.158 132.435C144.011 131.704 142.88 131.29 141.733 130.56C142.516 130.358 143.449 129.99 144.399 129.938C141.89 127.377 139.683 124.483 137.958 121.721C135.941 122.624 134.09 123.678 132.072 124.582C127.317 121.509 122.38 117.971 118.709 114.363C118.377 114.064 118.045 113.765 117.863 113.298C128.733 114.925 138.519 117.088 148.424 118.45ZM186.624 165.238C178.713 159.323 170.951 153.241 163.49 146.825C163.324 146.676 163.158 146.526 162.992 146.377C160.832 144.432 158.672 142.487 156.512 140.542C154.684 138.896 152.69 137.101 151.013 135.289C151.329 135.271 151.812 135.404 152.128 135.386C155.641 135.829 159.154 136.271 162.35 136.731C162.033 136.749 161.567 136.933 161.25 136.95C163.909 139.344 166.717 141.571 169.376 143.964C170.942 143.561 172.659 142.991 174.209 142.271C175.443 141.569 176.693 141.183 177.927 140.481C180.483 143.991 183.339 147.167 186.346 150.177C184.495 151.23 182.628 151.967 180.595 152.555C182.905 154.332 185.532 156.093 187.842 157.871C189.242 157.318 190.476 156.616 191.861 155.747C194.369 158.307 197.193 160.851 199.852 163.244C200.516 163.843 201.347 164.591 202.012 165.189C201.078 165.557 200.295 165.759 199.512 165.961C201.656 167.589 203.966 169.367 206.11 170.995C206.577 170.811 207.21 170.776 207.827 170.425C213.642 175.661 220.874 180.661 227.187 179.998C225.351 181.368 223.35 182.589 221.182 183.659C221.349 183.809 221.681 184.108 221.847 184.258C223.509 185.754 221.753 188.706 219.474 187.562C218.493 186.981 217.195 186.417 216.214 185.836C214.664 186.555 213.097 186.958 211.381 187.528C211.049 187.229 210.867 186.763 210.384 186.631C205.313 183.576 200.929 178.42 196.878 173.563C197.028 173.396 197.195 173.546 197.345 173.379C193.721 170.721 190.248 167.896 186.624 165.238ZM135.623 189.135C131.787 191.726 128.148 195.099 126.455 199.317C126.321 199.801 126.186 200.284 126.052 200.768C126.052 200.768 125.886 200.618 125.735 200.785C120.672 201.062 115.926 201.322 111.029 201.748C113.639 196.845 116.249 191.941 120.537 188.85C125.291 185.574 131.105 184.463 135.828 180.554C137.814 179.017 139.649 177.647 141.334 176.444C142.734 175.892 144.134 175.339 145.519 174.47C145.669 174.303 145.819 174.136 145.803 173.819C148.438 172.564 151.072 171.309 154.505 170.169C159.806 168.292 164.608 165.966 169.56 163.474C172.519 165.533 175.312 167.444 177.97 169.837C179.299 171.034 180.478 172.398 181.807 173.595C180.573 174.297 179.339 174.999 177.939 175.552C171.136 179.098 166.144 177.626 158.763 179.141C151.548 180.805 141.778 185.307 135.623 189.135ZM97.5014 210.423C96.6472 212.375 95.7929 214.326 95.5716 216.242C89.7729 217.67 84.1244 218.932 78.46 219.876C77.5659 217.862 76.3711 216.182 76.2284 213.333C75.9037 210.018 76.7579 208.067 78.0789 205.932C78.7117 205.897 79.6611 205.845 80.294 205.811C87.2558 205.43 94.0515 204.899 100.847 204.369C99.6765 206.337 98.5059 208.305 97.5014 210.423ZM95.5006 217.992C95.5799 219.574 95.8094 220.99 96.5375 222.854C97.9777 226.267 100.019 229.012 100.992 232.609C94.8297 233.104 88.6352 232.967 82.2904 232.997C81.6334 229.383 80.8261 225.936 79.8844 222.972C79.7024 222.506 79.5204 222.04 79.3384 221.574C84.6862 220.647 90.0183 219.403 95.5006 217.992ZM80.982 203.71C80.3491 203.745 79.7163 203.779 79.0834 203.814C79.5184 202.997 80.2699 202.162 80.7049 201.345C83.1807 196.925 85.4586 191.722 88.4011 187.117C96.7948 186.817 105.022 186.366 113.218 185.283C112.467 186.118 111.565 187.119 110.663 188.121C107.388 192.426 104.462 197.347 101.701 202.418C94.7554 203.115 87.7936 203.496 80.982 203.71ZM96.0503 178.288C97.1182 177.436 98.3523 176.733 99.4361 176.198C106.58 176.283 113.89 176.518 121.034 176.603C123.249 176.482 125.646 176.827 127.877 177.022C126.793 177.557 125.876 178.242 124.942 178.611C121.224 180.401 118.257 181.357 115.805 183.078C106.976 184.196 98.2819 184.831 89.5717 185.149C91.3436 182.513 93.4477 180.176 96.0503 178.288ZM85.2353 174.595C77.6406 175.01 70.03 175.11 62.4194 175.209C64.6422 172.072 66.8807 169.251 69.9501 167.179C76.3893 162.701 84.0868 161.169 90.3282 155.907C90.6288 155.574 91.2458 155.222 91.5464 154.889C100.439 155.037 109.315 154.868 118.041 154.867C112.187 158.361 107.362 163.386 100.843 166.282C94.7914 168.994 90.8914 170.318 86.8175 174.508C86.3508 174.692 85.8682 174.56 85.2353 174.595ZM132.88 134.377C137.018 137.8 141.14 140.907 145.413 143.847C144.012 144.4 142.778 145.102 141.378 145.655C131.054 145.427 120.714 144.882 110.508 143.853C112.059 143.133 113.926 142.397 115.643 141.826C121.56 139.598 127.145 137.071 132.88 134.377ZM107.107 145.626C116.846 146.839 126.703 147.252 136.394 147.515C132.194 149.173 127.977 150.515 123.776 152.173C123.46 152.19 123.159 152.524 122.843 152.541C113.484 152.577 104.275 152.446 94.9005 152.166C98.571 149.426 102.273 147.319 106.308 145.511C106.79 145.644 106.79 145.644 107.107 145.626ZM113.81 168.588C121.119 162.475 127.005 159.613 135.723 156.28C137.59 155.543 139.306 154.973 141.007 154.086C142.589 154 144.172 153.913 145.754 153.826C147.02 153.757 146.94 152.175 145.975 151.91C148.143 150.839 150.16 149.935 152.328 148.865C156.284 151.822 159.923 154.797 163.428 158.255C163.594 158.404 163.76 158.554 163.926 158.704C157.574 161.749 151.024 164.012 144.474 166.275C139.173 168.152 135.384 171.692 131.097 174.783C126.318 174.41 121.255 174.687 116.492 174.63C112.046 174.556 107.6 174.482 102.988 174.258C106.722 172.784 110.456 171.31 113.81 168.588ZM119.803 129.855C111.543 129.673 103.418 129.006 95.1433 128.507C94.0278 128.409 92.9123 128.312 91.7968 128.214C92.2636 128.03 92.8806 127.679 93.3473 127.494C100.784 123.914 107.69 119.251 114.097 114.139C114.991 116.153 116.052 118.317 117.729 120.13C120.087 122.857 122.761 125.567 125.586 128.111C124.035 128.83 122.635 129.383 121.235 129.936C120.752 129.803 120.436 129.821 119.803 129.855ZM73.7676 132.533C78.4826 131.64 82.7309 130.932 86.9632 129.907C88.5613 130.137 90.1594 130.367 91.4252 130.297C99.5659 131.28 107.841 131.779 115.784 131.98C115.784 131.98 115.784 131.98 116.1 131.962C111.433 133.805 106.75 135.331 101.916 137.023C98.4828 138.163 95.7141 139.902 92.795 141.807C82.8901 140.445 73.001 139.399 63.096 138.037C66.4501 135.314 69.2188 133.576 73.7676 132.533ZM72.3459 154.828C65.8274 157.724 61.3261 159.716 56.4297 166.491C54.1912 169.311 52.2849 172.431 50.3786 175.55C47.6809 175.539 44.999 175.845 42.2854 175.517C39.5877 175.506 37.1747 174.844 34.7459 173.867C37.5698 170.062 40.3937 166.257 43.0832 162.936C45.1715 160.283 47.0936 157.48 49.0316 154.993C56.7925 154.727 64.5692 154.778 72.3459 154.828ZM33.5594 175.518C35.4898 176.048 37.436 176.893 39.3505 177.106C42.5467 177.566 45.7112 177.393 49.1921 177.202C47.4361 180.155 45.6801 183.107 44.2406 186.043C42.6584 186.129 41.3926 186.198 39.8103 186.285C35.0636 186.545 30.3328 187.121 25.6019 187.697C27.9274 183.444 30.5852 179.49 33.5594 175.518ZM61.2329 176.861C69.3261 176.894 77.2372 176.461 85.3145 176.177C85.014 176.511 84.5631 177.012 84.2625 177.346C82.3245 179.832 80.5527 182.468 78.947 185.254C75.2999 185.295 71.6528 185.336 67.8555 185.544C64.0423 185.435 60.2449 185.643 56.2814 185.701C57.8871 182.915 59.4769 179.813 61.2329 176.861ZM52.0814 193.707C53.252 191.739 54.1062 189.787 55.4272 187.652C59.3907 187.594 63.0378 187.553 67.0013 187.495C70.6483 187.454 74.2954 187.413 77.7763 187.223C74.5491 192.477 71.6541 198.031 69.0598 203.252C68.7592 203.586 68.7751 203.902 68.6248 204.069C65.4603 204.242 62.28 204.099 59.1155 204.272C55.4685 204.313 51.8214 204.354 48.1585 204.078C47.9923 203.929 47.5256 204.113 47.043 203.981C47.3353 200.315 49.7559 197.96 52.0814 193.707ZM62.1634 223.942C65.0114 223.786 67.6932 223.481 70.3751 223.175C71.6016 225.489 72.6619 227.652 73.2872 230.633C73.4851 231.416 73.6988 232.515 73.8967 233.298C73.4141 233.166 72.9473 233.35 72.4647 233.217C66.4364 233.23 60.5742 233.392 54.712 233.554C54.2529 230.723 53.7937 227.891 53.0181 225.077C56.0006 224.438 58.9989 224.115 62.1634 223.942ZM85.2672 254.417L85.2514 254.1C91.8492 252.787 98.265 251.008 104.847 249.378C105.456 252.042 105.9 254.557 106.976 257.038C100.694 258.333 94.3973 259.313 88.1159 260.609C86.9053 258.612 86.0111 256.598 85.2672 254.417ZM84.6895 252.385C84.0642 249.404 84.3882 246.372 83.9132 243.224C83.47 240.709 83.1611 237.71 82.702 234.879C89.0468 234.849 95.2413 234.986 101.404 234.49C102.045 237.788 103.003 241.068 103.644 244.366C103.858 245.465 104.071 246.564 104.285 247.663C97.7031 249.293 91.2715 250.756 84.6895 252.385ZM106.735 226.899C105.628 223.785 103.8 222.14 103.625 218.658C103.237 214.077 105.207 212.224 107.398 208.454C108.268 206.819 109.138 205.184 110.008 203.55C115.071 203.273 120.285 202.829 125.348 202.552C122.896 210.621 123.056 220.134 122.202 228.433C120.319 228.853 118.286 229.44 116.253 230.028C113.603 230.966 110.771 231.439 108.089 231.744C107.693 230.179 107.297 228.613 106.735 226.899ZM235.787 415.032C236.372 414.047 234.742 413.184 234.157 414.169C233.571 415.153 232.986 416.137 232.401 417.121C231.103 416.557 229.806 415.994 228.192 415.447C224.331 414.389 220.486 413.647 216.641 412.905C219.418 408.151 222.194 403.397 224.638 398.344C227.518 398.821 230.366 398.665 233.127 399.942C237.652 401.599 239.393 404.678 242.566 407.837C246.751 412.21 251.395 413.066 257.155 414.021C259.235 414.383 261.316 414.745 263.563 415.257C261.317 421.093 258.904 426.78 256.176 432.483C255.859 432.501 255.376 432.368 255.06 432.385C246.239 430.488 241.396 422.501 233.88 418.151C234.466 417.167 235.201 416.016 235.787 415.032ZM183.168 400.296C186.577 395.507 189.836 390.885 192.929 386.114C197.169 388.421 202.011 390.06 206.252 392.367C206.734 392.5 207.067 392.799 207.549 392.931C205.255 397.818 201.68 402.457 197.923 406.63C193.366 404.34 188.373 402.868 183.5 400.595C183.5 400.595 183.334 400.446 183.168 400.296ZM172.331 339.157C176.334 343.064 180.021 346.988 184.594 349.594C185.702 352.707 186.715 353.922 189.176 355.532C187.119 358.819 184.58 361.973 182.041 365.127C179.05 362.434 175.458 360.409 171.866 358.384C171.7 358.234 171.684 357.918 171.518 357.768C170.687 357.02 169.69 356.123 168.86 355.375C170.813 353.205 172.917 350.868 174.871 348.698C175.623 347.863 174.46 346.816 173.708 347.651C171.754 349.821 169.65 352.158 167.696 354.327C166.035 352.831 164.524 351.169 163.463 349.005C162.221 346.375 161.097 342.945 160.156 339.982C159.61 338.583 159.562 337.634 158.351 335.637C160.005 333.801 161.808 331.798 163.461 329.961C166.199 333.938 168.842 336.015 172.331 339.157ZM154.974 347.406C157.143 352.683 159.983 355.543 163.923 358.184C159.865 362.691 155.657 367.365 151.599 371.871C149.439 369.927 147.595 367.964 146.187 365.185C144.763 362.089 143.457 358.193 142.499 354.913C142.333 354.763 141.985 354.148 141.985 354.148C145.592 350.141 149.199 346.135 152.806 342.129C153.867 344.293 154.262 345.858 154.974 347.406ZM165.569 359.363C166.716 360.094 167.863 360.825 169.01 361.556C169.343 361.855 169.976 361.82 170.292 361.803C173.133 364.663 177.452 368.552 178.283 369.3C178.449 369.45 178.449 369.45 178.615 369.599C177.563 370.768 176.677 372.086 175.625 373.254C172.786 376.742 170.112 380.38 167.589 383.851C163.949 380.876 160.025 378.552 155.951 376.394C155.784 376.245 155.769 375.928 155.602 375.778C154.772 375.03 153.941 374.282 153.11 373.534C157.152 368.711 161.361 364.037 165.569 359.363ZM178.893 371.965C179.193 371.631 179.494 371.297 179.644 371.13C182.698 375.089 184.368 379.917 188.34 383.191C189.337 384.089 190.318 384.67 191.465 385.401C188.372 390.172 184.963 394.961 181.704 399.583C176.949 396.51 175.976 392.913 172.106 388.523C171.094 387.309 169.931 386.262 168.768 385.214C172.027 380.593 175.301 376.287 178.893 371.965ZM209.013 393.645C213.404 395.785 218.246 397.424 223.206 398.264C220.596 403.167 217.986 408.071 215.043 412.675C209.75 411.537 204.608 410.231 199.386 407.343C202.978 403.021 206.719 398.531 209.013 393.645ZM256.774 406.424C247.47 404.394 243.332 394.623 233.846 392.127C226.124 390.01 218.965 389.609 211.662 386.358C211.797 385.875 211.765 385.242 211.9 384.758C212.002 383.642 210.404 383.412 210.301 384.528C210.167 385.012 210.183 385.328 210.048 385.812C209.566 385.68 209.067 385.231 208.585 385.099C204.51 382.941 199.85 381.768 195.776 379.61C190.087 376.906 189.28 373.459 185.728 369.052C185.047 368.137 184.216 367.389 183.386 366.641C185.925 363.486 188.298 360.183 190.671 356.879C191.652 357.46 192.633 358.041 194.097 358.754C200.283 361.907 206.012 368.576 211.479 373.197C214.952 376.022 218.56 378.363 223.07 379.704C229.51 381.573 235.277 379.512 241.463 382.664C244.889 384.54 247.896 387.549 251.606 388.775C256.614 390.564 265.451 392.778 270.696 392.967C277.374 393.236 283.56 390.041 289.445 387.18C290.664 392.509 292.382 398.287 294.684 403.08C283.047 408.319 269.757 409.047 256.774 406.424ZM162.709 324.448C162.955 326.18 163.184 327.596 163.714 328.678C163.564 328.845 163.564 328.845 163.414 329.012C161.761 330.848 160.258 332.517 158.604 334.353C157.694 332.023 156.318 329.876 154.941 327.73C157.346 325.059 159.901 322.222 162.305 319.551C162.385 321.133 162.63 322.866 162.709 324.448ZM149.53 333.739C151.073 336.035 151.983 338.366 152.893 340.696C149.286 344.702 145.679 348.708 142.072 352.715C141.13 349.751 139.888 347.121 138.495 344.658C142.118 340.969 145.741 337.279 149.198 333.44C149.364 333.589 149.364 333.589 149.53 333.739ZM134.007 321.576C131.436 324.097 128.865 326.618 126.128 328.989C125.448 328.074 124.451 327.177 123.771 326.262C127.243 322.739 130.55 319.067 133.041 314.963C134.054 316.177 135.233 317.541 136.412 318.905C135.66 319.739 134.759 320.741 134.007 321.576ZM118.321 334.654C118.653 334.953 118.819 335.102 119.001 335.568C116.58 337.923 114.01 340.444 111.755 342.948C110.853 343.949 109.952 344.951 109.05 345.952C108.535 345.187 107.705 344.439 107.19 343.674C108.092 342.672 109.144 341.504 110.046 340.502C112.134 337.849 114.555 335.494 116.976 333.14C117.324 333.756 117.822 334.205 118.321 334.654ZM112.753 350.193C111.906 349.128 110.909 348.231 110.063 347.166C112.467 344.496 114.722 341.992 117.293 339.471C118.194 338.469 119.262 337.617 120.164 336.616C123.519 340.241 127.008 343.382 129.912 347.508C130.426 348.274 130.94 349.039 131.304 349.971C128.433 352.826 125.562 355.681 122.374 358.553C121.622 359.388 120.704 360.073 119.953 360.908C118.014 357.046 115.791 353.835 112.753 350.193ZM131.85 351.37C133.109 354.316 134.05 357.28 135.158 360.393C131.551 364.399 127.944 368.405 124.337 372.411C124.155 371.945 123.973 371.479 123.791 371.013C122.849 368.049 121.757 365.252 120.681 362.772C124.454 358.916 128.077 355.226 131.85 351.37ZM135.222 361.659C136.733 363.322 136.084 363.04 136.116 363.673C138.664 370.199 142.319 373.49 147.074 376.563C142.866 381.236 138.658 385.91 134.299 390.751C131.641 388.357 128.966 385.647 127.21 382.252C125.967 379.622 126.355 377.855 123.934 373.862C127.857 369.838 131.464 365.832 135.222 361.659ZM149.052 378.041C150.199 378.772 151.347 379.503 152.494 380.233C152.992 380.682 153.625 380.647 153.942 380.63C157.28 383.939 162.431 388.576 163.262 389.324L163.428 389.474C161.941 391.46 160.454 393.446 159.133 395.581C157.06 398.551 154.672 401.538 152.433 404.358C148.295 400.935 143.556 398.179 138.983 395.573C138.817 395.423 138.801 395.107 138.469 394.807C137.638 394.059 136.807 393.311 135.976 392.563C140.335 387.723 144.694 382.882 149.052 378.041ZM162.384 393.975C163.12 392.824 164.022 391.822 164.607 390.838C168.175 395.562 170.375 401.472 175.012 405.344C175.51 405.793 176.159 406.075 176.491 406.374C174.703 408.694 172.765 411.18 170.978 413.5C169.34 415.653 167.537 417.656 165.583 419.826C162.426 416.983 160.82 413.421 157.449 409.479C156.104 407.966 154.925 406.602 153.43 405.256C156.736 401.584 159.56 397.779 162.384 393.975ZM203.985 432.641C206.342 429.021 208.866 425.55 211.223 421.93C212.987 422.31 214.601 422.856 216.199 423.086C220.044 423.828 223.842 423.62 227.568 425.162L227.734 425.311C224.807 430.232 221.881 435.153 219.104 439.908C213.163 438.487 207.403 437.533 201.778 436.095C202.514 434.944 203.25 433.793 203.985 432.641ZM254.238 441.317C254.721 441.45 255.203 441.582 255.686 441.714C260.33 442.571 265.939 443.692 271.517 444.181C268.637 450.051 265.592 455.772 262.713 461.643C259.683 461.332 256.637 460.706 253.591 460.079C251.028 459.584 248.75 458.44 246.471 457.295C248.899 451.925 251.494 446.705 254.238 441.317ZM306.398 453.222C310.211 446.983 314.023 440.744 317.67 434.355C319.845 430.268 322.02 426.182 324.345 421.929C324.496 421.762 324.496 421.762 324.812 421.744C329.93 419.401 335.065 417.375 340.365 415.498C336.632 423.319 332.582 431.158 328.849 438.98C328.564 439.63 328.129 440.448 327.844 441.098C324.743 442.537 321.974 444.276 319.071 446.498C314.649 450.072 310.029 452.864 305.378 455.023C305.662 454.373 305.947 453.722 306.398 453.222ZM330.795 439.826C331.515 438.358 332.218 436.574 332.938 435.106C336.236 428.102 339.701 421.247 342.849 414.41C343.782 414.041 344.866 413.506 345.8 413.137C351.084 410.944 358.433 408.796 362.341 404.456C363.243 403.454 362.863 402.206 362.032 401.458C364.35 400.22 366.984 398.965 369.302 397.727C367.578 401.313 365.854 404.898 363.647 408.352C359.818 414.274 354.993 419.299 350.516 424.94C347.826 428.261 345.469 431.881 343.278 435.651C338.896 436.843 334.679 438.185 330.795 439.826ZM18.3897 214.753C18.9034 209.17 18.4518 203.323 20.5636 197.971C21.5364 195.22 22.9918 192.601 24.281 189.833C28.8616 189.423 33.4262 188.697 38.0068 188.288C39.589 188.201 41.1713 188.115 43.0699 188.011C41.6145 190.63 40.175 193.565 38.8699 196.017C37.5648 198.469 36.7423 201.053 36.2363 203.62C36.086 203.787 35.9357 203.954 35.7854 204.12C35.4848 204.454 35.5165 205.087 35.9991 205.22C35.9598 207.602 36.2527 210.284 37.3289 212.764C38.9511 216.643 41.1904 220.17 42.6464 223.899C36.3492 224.879 30.052 225.858 23.7389 226.521C26.2071 225.116 29.0075 224.011 30.1388 224.425C30.4711 224.724 30.7559 224.074 30.5897 223.924L29.1103 222.894C28.9441 222.745 28.6276 222.762 28.4773 222.929C25.2418 224.852 22.125 225.975 18.5413 227.282C17.4417 227.5 17.6871 229.233 18.9529 229.163C27.0302 228.88 35.3764 227.63 43.4061 226.397C43.422 226.713 43.5882 226.863 43.604 227.18C44.0314 229.378 44.6092 231.409 45.2028 233.757C43.937 233.827 42.8215 233.729 41.5557 233.798C33.6445 234.231 25.0529 233.749 17.5533 236.064C17.3396 234.965 17.292 234.015 17.0783 232.916C16.4606 226.919 17.9078 220.968 18.3897 214.753ZM17.8146 238.113C20.3462 237.974 22.7275 238.002 24.7447 237.099C31.5245 236.251 38.4864 235.87 45.4482 235.489C45.8756 237.688 46.4533 239.719 46.8808 241.918C48.1155 247.563 49.1682 252.742 50.8538 257.887C49.1213 258.141 47.3888 258.394 45.6562 258.648C41.8747 259.172 38.2277 259.213 34.4462 259.737C32.3972 260.008 30.5144 260.428 28.6316 260.849C28.2993 260.55 28.2834 260.233 27.9511 259.934C30.2848 259.013 33.1328 258.857 34.7467 259.403C35.2293 259.536 35.348 258.736 35.0315 258.753C33.0853 257.907 29.9208 258.08 27.1045 258.869C23.1403 252.58 19.3264 246.123 17.8146 238.113ZM49.7664 299.525C46.4903 291.135 43.7126 283.193 39.2024 275.505C42.0504 275.349 45.0329 274.71 47.5486 274.255C50.5311 273.616 54.3126 273.091 56.9311 271.52C58.5216 274.765 59.9617 278.178 61.2358 281.441C57.7866 282.264 54.1871 283.255 50.7696 284.711C49.8361 285.08 49.8995 286.346 50.8647 286.61C53.4438 287.421 55.8251 287.45 58.8076 286.81C59.2743 286.626 59.2426 285.993 58.6097 286.028C56.8772 286.281 55.4452 286.201 53.8313 285.655C56.4815 284.716 58.9813 283.944 61.7976 283.156C62.7076 285.486 63.3012 287.834 63.9107 290.499C66.7587 290.343 69.7729 290.336 72.6209 290.181C71.513 287.067 70.4051 283.954 69.1469 281.008C71.4965 280.403 73.8302 279.482 76.1798 278.877C79.9296 277.72 83.6794 276.562 87.2788 275.572C88.901 279.451 90.2227 283.663 91.0934 288.376C91.2754 288.842 91.2912 289.159 91.3229 289.792C91.6394 289.775 92.2723 289.74 92.5887 289.723C88.6018 292.48 83.238 293.091 78.5389 294.3C77.6054 294.669 76.6719 295.037 75.7384 295.406C71.9252 295.297 68.2782 295.338 64.4649 295.229C64.4808 295.546 64.647 295.695 64.6628 296.012C60.4145 296.72 54.9798 299.081 49.7664 299.525ZM134.677 300.115C133.696 299.534 132.565 299.12 131.434 298.706C130.753 297.791 130.389 296.858 129.859 295.776C126.995 295.616 123.965 295.306 121.101 295.145C121.283 295.611 121.631 296.227 121.813 296.693C116.703 296.02 111.426 295.198 106.315 294.526C103.768 294.348 101.236 294.486 98.5384 294.475C93.3091 294.603 87.7634 294.748 82.5341 294.875C87.3994 293.815 92.2805 293.072 96.0696 289.532C96.2199 289.365 96.2199 289.365 96.3702 289.198C97.636 289.129 99.0679 289.209 100.334 289.14C98.3317 284.013 96.6461 278.868 94.644 273.741C97.31 273.119 99.8257 272.664 102.658 272.191C104.074 271.955 103.813 269.906 102.563 270.292C99.7306 270.764 96.7481 271.404 93.916 271.876C93.0218 269.862 92.1276 267.848 91.0831 266.001C90.3868 264.769 89.8567 263.687 89.1604 262.456C95.4417 261.16 101.573 260.031 107.704 258.902C108.234 259.984 108.614 261.233 109.294 262.148C112.974 269.088 115.49 274.98 117.303 282.657C117.73 284.855 118.308 286.887 119.036 288.751C121.734 288.762 124.281 288.94 126.828 289.118C123.086 280.912 120.877 271.67 116.668 263.648C115.457 261.652 114.563 259.638 113.352 257.641C114.452 257.422 115.552 257.203 116.651 256.984C117.901 256.598 117.339 254.883 116.089 255.269C114.99 255.488 113.89 255.707 112.64 256.093C112.292 255.477 112.094 254.694 111.746 254.079C111.168 252.047 110.907 249.998 110.812 248.099C114.111 247.443 117.394 246.47 120.693 245.813C121.792 245.594 121.23 243.879 120.131 244.098C116.832 244.755 113.849 245.394 110.717 246.2C110.685 245.567 110.653 244.934 110.471 244.468C109.996 241.32 109.49 237.539 108.833 233.925C111.048 233.804 113.247 233.366 115.28 232.779C117.78 232.007 119.963 231.253 122.313 230.648C121.783 235.914 122.163 237.163 124.949 242.089C129.657 250.559 132.514 260.083 137.538 268.537C138.567 270.067 139.746 271.431 140.758 272.645C144.991 277.968 143.393 277.738 145.815 281.732C149.779 288.021 155.76 293.407 158.957 300.215C161.457 305.791 161.925 311.954 162.543 317.951C162.376 317.801 161.91 317.986 161.759 318.152C159.355 320.823 156.8 323.661 154.395 326.332C154.047 325.716 153.548 325.267 153.05 324.818C150.011 321.176 146.657 317.551 143.468 314.075C145.272 312.072 147.075 310.069 149.377 308.515C152.28 306.293 155.065 304.871 157.47 302.2C158.071 301.533 157.074 300.635 156.473 301.303C153.483 304.958 149.132 306.783 145.643 309.989C144.742 310.99 143.674 311.842 142.622 313.011C142.455 312.861 142.123 312.562 141.957 312.412C141.791 312.263 141.459 311.963 141.292 311.814C141.609 311.796 142.091 311.929 142.724 311.894C146.221 312.02 145.983 307.272 143.238 306.312C140.01 305.219 137.439 301.392 134.677 300.115ZM86.7654 360.343C89.368 358.455 92.1367 356.717 94.4229 354.846C96.1078 353.643 97.6267 352.29 99.3116 351.087C100.309 351.985 101.155 353.049 102.152 353.947C99.1461 357.285 96.1402 360.624 92.9682 363.813C92.5173 364.313 91.9161 364.981 91.2991 365.332C90.8006 364.883 90.4525 364.268 89.954 363.819C88.7909 362.772 87.7782 361.558 86.7654 360.343ZM104.877 382.998C104.378 382.549 103.864 381.784 103.516 381.168C106.672 377.663 109.994 374.307 113 370.969C114.274 374.231 115.248 377.828 116.522 381.091C114.417 383.428 112.313 385.765 110.059 388.269C108.231 386.623 106.404 384.977 104.877 382.998ZM111.538 389.298C113.492 387.129 115.446 384.959 117.4 382.789C120.431 389.447 124.086 392.738 129.656 396.242C128.002 398.078 126.5 399.747 124.846 401.583C123.153 399.454 121.143 397.342 118.817 395.248C116.341 393.32 113.865 391.393 111.538 389.298ZM126.207 403.413C128.011 401.41 129.664 399.574 131.468 397.571C132.615 398.302 133.762 399.032 135.075 399.913C135.724 400.194 136.207 400.327 136.84 400.292C140.677 404.05 146.658 409.435 147.655 410.333C144.064 414.655 140.639 419.128 137.198 423.283C137.016 422.817 136.668 422.202 136.486 421.735C133.455 415.077 130.29 408.903 126.207 403.413ZM137.926 425.148C139.998 422.178 142.221 419.041 144.46 416.221C145.812 414.718 146.999 413.067 148.352 411.564C152.403 416.421 154.618 422.647 159.136 427.32C155.83 430.992 152.673 434.497 149.699 438.469C145.229 434.746 141.044 430.373 137.926 425.148ZM150.664 438.733C154.153 435.527 157.626 432.005 160.782 428.499C160.948 428.649 160.948 428.649 161.114 428.798C165.086 432.072 169.959 434.345 174.983 436.45C174.382 437.118 173.947 437.935 173.346 438.603C171.123 441.74 168.402 444.428 165.847 447.266C160.325 444.711 155.269 441.973 150.664 438.733ZM196.085 461.798C193.292 459.887 190.033 458.162 186.939 456.585C188.292 455.083 189.629 453.264 190.815 451.612C192.302 449.626 193.789 447.641 195.276 445.655C199.636 447.162 204.145 448.502 208.473 449.376C210.071 449.606 211.669 449.836 213.101 449.916C212.816 450.567 212.365 451.068 211.93 451.885C209.003 456.806 205.927 461.894 203 466.815C201.006 465.02 198.546 463.409 196.085 461.798ZM204.646 467.994C207.723 462.906 210.799 457.819 213.71 452.581C214.145 451.764 214.58 450.946 215.166 449.962C217.246 450.324 219.477 450.52 221.424 451.365C227.246 453.586 229.834 457.729 234.17 461.935C235.681 463.598 237.326 464.778 238.956 465.641C237.066 469.077 235.175 472.513 233.451 476.098C231.711 479.368 229.67 482.971 228.096 486.389C227.598 485.94 226.949 485.659 226.617 485.359C219.053 480.06 212.075 473.777 204.646 467.994ZM230.09 488.185C233.705 481.163 237.319 474.141 240.934 467.119C244.842 469.127 249.004 469.852 253.814 470.858C254.93 470.956 256.061 471.37 257.176 471.467C252.976 479.473 247.542 488.182 247.369 497.395C240.961 496.159 235.525 492.172 230.09 488.185ZM251.032 497.671C250.716 497.688 250.233 497.556 249.766 497.74C250.723 488.325 254.923 480.319 259.257 471.83C266.63 473.33 275.088 474.296 282.817 473.397C278.901 480.752 274.021 487.843 272.368 496.027C265.122 497.059 257.859 497.774 251.032 497.671ZM401.323 438.346C377.425 452.191 352.727 465.921 327.618 477.769C311.496 485.317 292.961 492.203 274.251 495.607C274.251 495.607 274.251 495.607 274.402 495.44C274.552 495.273 274.386 495.123 274.37 494.807C277.154 487.037 281.251 480.148 285.166 472.792C288.465 472.136 291.582 471.013 294.351 469.274C294.984 469.24 295.451 469.056 296.083 469.021C293.671 474.707 291.425 480.543 287.549 485.516C286.797 486.351 288.411 486.897 288.411 486.897C292.92 481.89 294.431 477.205 296.392 472.019C296.811 470.885 297.397 469.901 297.966 468.6C302.665 467.391 308.068 464.398 311.47 462.624C315.188 460.834 318.392 458.278 321.596 455.723C320.639 458.79 319.998 461.84 321.106 464.954C321.288 465.42 322.103 465.851 322.554 465.351C325.758 462.795 327.98 459.658 328.091 455.526C328.075 455.209 327.592 455.077 327.458 455.56C327.15 458.91 325.694 461.529 322.926 463.267C322.585 459.636 323.692 456.401 325.116 453.149C327.869 451.094 330.622 449.04 333.889 447.75C334.973 447.214 336.056 446.679 337.156 446.46C335.535 448.929 333.913 451.398 332.291 453.868C331.991 454.201 332.489 454.65 332.79 454.316C335.511 451.628 337.734 448.492 339.957 445.355C346.174 442.793 352.242 440.398 358.31 438.003C361.11 436.897 364.227 435.774 367.178 434.502C365.976 435.837 364.939 437.322 363.753 438.974C361.079 442.612 358.588 446.716 355.431 450.221C351.824 454.227 347.204 457.019 343.763 461.175C343.463 461.508 343.961 461.957 344.262 461.623C348.367 458.066 352.987 455.274 356.761 451.418C360.384 447.728 363.16 442.974 366.284 438.836C367.771 436.85 369.259 434.864 370.912 433.028C373.38 431.623 375.682 430.069 377.335 428.233C378.237 427.232 378.023 426.132 377.343 425.218C377.643 424.884 378.094 424.383 378.229 423.899C390.285 417.527 403.536 412.834 413.835 403.066C422.465 394.818 432.322 388.883 439.789 379.587C447.407 370.125 444.557 357.585 452.507 348.422C456.249 343.932 461.699 341.888 465.789 338.014C468.526 335.643 471.081 332.805 473.486 330.134C476.374 333.944 479.578 337.736 481.833 341.58C483.044 343.577 484.255 345.573 485.465 347.57C476.329 358.385 467.026 369.051 459.734 381.828C446.034 406.065 425.688 424.317 401.323 438.346Z" fill="#DCDAD1" fill-opacity="0.39"/>
</svg>
