<svg width="25" height="24" viewBox="0 0 25 24" fill="none" xmlns="http://www.w3.org/2000/svg">
<path fill-rule="evenodd" clip-rule="evenodd" d="M12.2881 15.776L15.8215 12.2816C16.7974 11.3165 17.0393 9.84208 16.4221 8.6213L16.2219 8.22531C15.6047 7.00452 15.8466 5.53011 16.8225 4.565L21.2036 0.232188C21.5167 -0.0773961 22.0242 -0.0773961 22.3372 0.232188C22.3982 0.292438 22.4489 0.362006 22.4874 0.438216L24.2572 3.93888C25.6112 6.61693 25.0805 9.85136 22.9397 11.9685L13.3226 21.4796C10.9923 23.7841 7.54549 24.5888 4.41912 23.5582L0.548316 22.2822C0.128333 22.1437 -0.0986424 21.6948 0.041352 21.2794C0.0807038 21.1627 0.147002 21.0566 0.234995 20.9696L4.48541 16.766C5.46129 15.8009 6.95214 15.5616 8.18654 16.172L8.58694 16.37C9.82134 16.9804 11.3122 16.7412 12.2881 15.776Z" fill="#306838"/>
</svg>
