<svg viewBox="0 0 110 110" fill="none" xmlns="http://www.w3.org/2000/svg">
<path fill-rule="evenodd" clip-rule="evenodd" d="M58.3333 99.6667C85.0271 99.6667 106.667 78.0271 106.667 51.3333C106.667 24.6396 85.0271 3 58.3333 3C31.6396 3 10 24.6396 10 51.3333C10 78.0271 31.6396 99.6667 58.3333 99.6667Z" fill="#EDE8E2" stroke="#8B9D83" stroke-width="4.83333"/>
<path fill-rule="evenodd" clip-rule="evenodd" d="M58.3333 94.834C58.3333 94.834 77.6667 79.0158 77.6667 51.334C77.6667 23.6522 58.3333 7.83398 58.3333 7.83398C58.3333 7.83398 39 23.6522 39 51.334C39 79.0158 58.3333 94.834 58.3333 94.834Z" stroke="#8B9D83" stroke-width="4.83333"/>
<path d="M12.4167 36.8333H104.25" stroke="#8B9D83" stroke-width="4.83333" stroke-linecap="round"/>
<path d="M12.4167 65.8333H104.25" stroke="#8B9D83" stroke-width="4.83333" stroke-linecap="round"/>
<path fill-rule="evenodd" clip-rule="evenodd" d="M2 70C0.89543 70 0 70.8954 0 72V108C0 109.105 0.895432 110 2 110H53C54.1046 110 55 109.105 55 108V72C55 70.8954 54.1046 70 53 70H2ZM49.04 75.9173C48.4493 74.8059 47.081 74.39 45.9838 74.9885L27.4998 85.0714L9.01575 74.9885C7.91863 74.39 6.55033 74.8059 5.95957 75.9173C5.36881 77.0288 5.7793 78.4149 6.87643 79.0134L26.4301 89.6797C27.0979 90.044 27.9017 90.044 28.5695 89.6797L48.1232 79.0134C49.2203 78.4149 49.6308 77.0288 49.04 75.9173Z" fill="#306838"/>
</svg>
