<svg width="40" height="40" viewBox="0 0 40 40" fill="none" xmlns="http://www.w3.org/2000/svg">
<path d="M6.66659 36.6666H19.9999V19.9999H6.66659V36.6666Z" fill="#FDFDFD"/>
<path d="M33.3333 36.6666V19.9999H19.9999V36.6666H33.3333Z" fill="#FDFDFD"/>
<path d="M12.4999 11.6666L3.33325 11.6666V19.9999H6.66659H19.9999V11.6666L12.4999 11.6666Z" fill="#FDFDFD"/>
<path d="M27.4999 11.6666L19.9999 11.6666V19.9999H33.3333H36.6666V11.6666L27.4999 11.6666Z" fill="#FDFDFD"/>
<path d="M33.3333 36.6666V38.3333C34.2537 38.3333 34.9999 37.5871 34.9999 36.6666H33.3333ZM6.66659 36.6666H4.99992C4.99992 37.5871 5.74611 38.3333 6.66659 38.3333V36.6666ZM3.33325 11.6666L3.33325 9.99992C2.41278 9.99992 1.66659 10.7461 1.66659 11.6666H3.33325ZM36.6666 11.6666H38.3333C38.3333 10.7461 37.5871 9.99992 36.6666 9.99992V11.6666ZM36.6666 19.9999V21.6666C37.5871 21.6666 38.3333 20.9204 38.3333 19.9999H36.6666ZM3.33325 19.9999H1.66659C1.66659 20.9204 2.41278 21.6666 3.33325 21.6666L3.33325 19.9999ZM12.4999 11.6666V9.99992V11.6666ZM8.33325 7.49992H6.66659H8.33325ZM12.4999 3.33325V1.66659V3.33325ZM27.4999 11.6666V9.99992V11.6666ZM27.4999 3.33325V4.99992V3.33325ZM31.6666 19.9999V36.6666H34.9999V19.9999H31.6666ZM33.3333 34.9999H6.66659V38.3333H33.3333V34.9999ZM8.33325 36.6666V19.9999H4.99992V36.6666H8.33325ZM3.33325 13.3333H36.6666V9.99992H3.33325V13.3333ZM34.9999 11.6666V19.9999H38.3333V11.6666H34.9999ZM4.99992 19.9999V11.6666H1.66659V19.9999H4.99992ZM19.9999 9.99992L12.4999 9.99992V13.3333L19.9999 13.3333V9.99992ZM12.4999 9.99992C11.8369 9.99992 11.201 9.73653 10.7322 9.26769L8.37513 11.6247C9.46909 12.7187 10.9528 13.3333 12.4999 13.3333V9.99992ZM10.7322 9.26769C10.2633 8.79884 9.99992 8.16296 9.99992 7.49992H6.66659C6.66659 9.04701 7.28117 10.5307 8.37513 11.6247L10.7322 9.26769ZM9.99992 7.49992C9.99992 6.83688 10.2633 6.20099 10.7322 5.73215L8.37513 3.37513C7.28117 4.46909 6.66659 5.95282 6.66659 7.49992H9.99992ZM10.7322 5.73215C11.201 5.26331 11.8369 4.99992 12.4999 4.99992V1.66659C10.9528 1.66659 9.46909 2.28117 8.37513 3.37513L10.7322 5.73215ZM12.4999 4.99992C14.4898 4.99992 15.9288 6.39716 16.9771 8.30312C17.4819 9.22101 17.8336 10.1544 18.0595 10.8677C18.1714 11.2213 18.2502 11.5134 18.3 11.7127C18.3249 11.8122 18.3424 11.8881 18.3532 11.9363C18.3586 11.9604 18.3622 11.9775 18.3643 11.9872C18.3653 11.9921 18.3659 11.9951 18.3662 11.9961C18.3663 11.9967 18.3663 11.9967 18.3662 11.9963C18.3661 11.996 18.3661 11.9957 18.366 11.9952C18.3659 11.995 18.3658 11.9945 18.3658 11.9944C18.3657 11.994 18.3656 11.9934 19.9999 11.6666C21.6342 11.3397 21.6341 11.3392 21.634 11.3386C21.6339 11.3383 21.6338 11.3377 21.6337 11.3372C21.6335 11.3362 21.6333 11.3351 21.633 11.3339C21.6325 11.3314 21.6319 11.3284 21.6312 11.325C21.6298 11.318 21.6279 11.3091 21.6256 11.2981C21.621 11.2763 21.6146 11.2467 21.6064 11.2097C21.5899 11.1359 21.5659 11.0327 21.5338 10.9043C21.4697 10.6479 21.3727 10.289 21.2373 9.86135C20.9683 9.01211 20.5388 7.86216 19.8978 6.69672C18.6544 4.43601 16.3434 1.66659 12.4999 1.66659V4.99992ZM19.9999 13.3333L27.4999 13.3333V9.99992L19.9999 9.99992V13.3333ZM27.4999 13.3333C29.047 13.3333 30.5307 12.7187 31.6247 11.6247L29.2677 9.26769C28.7988 9.73653 28.163 9.99992 27.4999 9.99992V13.3333ZM31.6247 11.6247C32.7187 10.5307 33.3333 9.04701 33.3333 7.49992H29.9999C29.9999 8.16296 29.7365 8.79884 29.2677 9.26769L31.6247 11.6247ZM33.3333 7.49992C33.3333 5.95282 32.7187 4.46909 31.6247 3.37513L29.2677 5.73215C29.7365 6.20099 29.9999 6.83688 29.9999 7.49992H33.3333ZM31.6247 3.37513C30.5307 2.28117 29.047 1.66659 27.4999 1.66659V4.99992C28.163 4.99992 28.7988 5.26331 29.2677 5.73215L31.6247 3.37513ZM27.4999 1.66659C23.6564 1.66659 21.3454 4.43601 20.1021 6.69672C19.4611 7.86216 19.0315 9.01211 18.7626 9.86135C18.6272 10.289 18.5301 10.6479 18.466 10.9043C18.4339 11.0327 18.41 11.1359 18.3935 11.2097C18.3852 11.2467 18.3788 11.2763 18.3742 11.2981C18.3719 11.3091 18.37 11.318 18.3686 11.325C18.3679 11.3284 18.3673 11.3314 18.3668 11.3339C18.3665 11.3351 18.3663 11.3362 18.3661 11.3372C18.366 11.3377 18.3659 11.3383 18.3659 11.3386C18.3657 11.3392 18.3656 11.3397 19.9999 11.6666C21.6342 11.9934 21.6341 11.994 21.634 11.9944C21.634 11.9945 21.6339 11.995 21.6339 11.9952C21.6338 11.9957 21.6337 11.996 21.6337 11.9963C21.6336 11.9967 21.6336 11.9967 21.6337 11.9961C21.6339 11.9951 21.6345 11.9921 21.6355 11.9872C21.6376 11.9775 21.6413 11.9604 21.6467 11.9363C21.6574 11.8881 21.675 11.8122 21.6998 11.7127C21.7497 11.5134 21.8284 11.2213 21.9404 10.8677C22.1663 10.1544 22.5179 9.22101 23.0228 8.30312C24.0711 6.39716 25.5101 4.99992 27.4999 4.99992V1.66659ZM12.4999 9.99992L3.33325 9.99992L3.33325 13.3333L12.4999 13.3333V9.99992ZM3.33325 21.6666H6.66659V18.3333H3.33325V21.6666ZM6.66659 21.6666H19.9999V18.3333H6.66659V21.6666ZM21.6666 19.9999V11.6666H18.3333V19.9999H21.6666ZM21.6666 36.6666V19.9999H18.3333V36.6666H21.6666ZM36.6666 18.3333H19.9999V21.6666H36.6666V18.3333ZM19.9999 18.3333H3.33325V21.6666H19.9999V18.3333ZM19.9999 21.6666H33.3333V18.3333H19.9999V21.6666ZM33.3333 21.6666H36.6666V18.3333H33.3333V21.6666ZM36.6666 9.99992L27.4999 9.99992V13.3333L36.6666 13.3333V9.99992ZM19.9999 38.3333H33.3333V34.9999H19.9999V38.3333ZM6.66659 38.3333H19.9999V34.9999H6.66659V38.3333Z" fill="#B2D452"/>
</svg>
