<svg viewBox="0 0 558 522" xmlns="http://www.w3.org/2000/svg"><path d="M505.441 350.444c-5.712-6.352-9.59-14.075-14.384-21.112-1.029-1.531-2.058-3.062-3.237-4.425 2.247.511 4.462.39 6.796-.531 1.084-.535 1.685-1.203 2.12-2.02 5.127.989 10.087 1.828 15.514 2.483s12.698 3.273 18.133.912c.981.581 1.946.846 2.927 1.427 5.015-7.574 9.215-15.58 12.118-24.15 4.998-14.239 11.191-26.797 12.329-42.094 1.217-13.715-2.938-23.803-8.785-36.02-7.438-15.462-20.999-26.463-31.341-39.704-9.494-12.176-15.706-25.325-27.337-35.797-6.978-6.284-14.708-11.732-21.52-17.866-5.649-5.087-9.162-11.877-14.796-16.647-2.326-2.094-4.77-3.389-6.796-5.817-2.872-3.493-4.043-7.872-6.148-11.883-3.3-5.691-7.936-9.564-12.905-13.735-11.266-9.54-19.179-21.803-31.481-29.858-6.235-4.102-12.509-5.822-19.028-9.274-3.259-1.726-6.638-2.652-10-3.261l-1.994-1.795c-10.547-11.008-23.981-19.477-36.734-27.031C307.807-.09 278.037-2.11 254.723 4.402c-12.831 3.56-23.36 11.911-35.662 16.552-14.152 5.694-26.39 11.6-39.815 19.16-12.04 6.689-23.598 13.51-36.698 18.036-12.317 4.324-23.994 11.946-34.372 20.13-10.695 8.204-21.644 17.69-34.38 23.147-4.818 2.01-10.181 2.621-14.651 5.246-6.17 3.511-10.481 9.302-14.476 15.075-6.802 9.893-12.458 20.518-19.41 30.579-7.99 11.546-16.549 24.393-21.61 37.365C-.71 200.881.439 214.307.393 226.053c-.015 12.379 4.52 23.716 10.92 34.315 7.93 12.579 17.795 22.672 22.955 36.99a41.62 41.62 0 001.82 4.661c.182.466.214 1.099.546 1.398l.333.3c.546 1.398 1.258 2.946 1.954 4.177.783-.201 1.416-.236 2.033-.587 3.924 2.324 8.869 2.847 13.615 2.588 10.443-.572 20.76-3.676 31.202-4.247 11.076-.606 21.289 3.754 32.246 3.948.633-.034 1.116.098 1.583-.086.965.264 2.08.362 3.196.46 1.748.063 3.765-.841 5.68-.629.166.15.332.3.182.466-1.202 1.336-2.555 2.838-3.924 4.024-6.676 6.078-15.093 9.078-21.77 15.156-6.826 6.246-13.534 11.691-20.71 17.321-5.339 4.259-9.429 8.133-12.775 14.188-.87 1.634-1.043 4.5.302 6.014.332.299.514.765.846 1.064 1.345 1.514 2.809 2.227 4.407 2.457 7.817 10.364 14.1 21.763 21.3 32.478-3.741 4.489-6.035 9.376-2.862 12.535.332.299.783-.202.45-.501-1.74-3.079.601-7.016 3.457-10.187 4.098 5.806 8.015 11.146 9.962 18.34 1.749 6.41 1.884 12.275 4.883 18.3 6.694 13.281 17.961 22.821 30.849 29.892 10.776 6.075 22.722 10.182 33.632 15.775 13.023 6.587 24.155 16.61 36.592 24.182 9.328 5.678 19.906 10.971 31.179 11.148 12.539.107 24.311-5.615 35.845-9.738 28.384-9.805 55.93-23.691 82.011-38.29 25.932-14.432 53.24-26.718 76.734-45.46 22.894-18.075 34.038-45.821 57.129-63.113.917-.685 1.985-1.537 2.903-2.222 5.91.787 11.225-7.121 6.343-12.726zM233.651 33.486c12.657-7.04 23.716-14.31 38.36-16.54 13.86-2.029 31.043-1.065 43.986 3.94 7.121 2.784 13.387 7.52 20.072 11.121 6.852 3.751 13.838 7.019 19.953 11.921 10.254 8.326 20.848 13.936 31.988 20.943.815.432 1.432.08 2.033-.587 6.448 5.201 11.828 11.255 17.739 18.39 7.951 9.88 17.612 15.858 22.795 27.476 4.637 10.221 13.577 17.666 20.666 26.165 7.952 9.88 18.942 17.055 27.945 25.766 10.333 9.909 15.2 21.545 23.081 33.174 7.532 11.014 17.335 19.841 23.333 31.891 2.817 5.558 3.601 11.705 5.018 17.816 1.567 5.945.009 9.68-.956 15.763-1.526 10.717-7.26 19.759-10.4 29.928-1.629 5.485-2.776 11.102-5.37 16.322-1.59 3.103-3.362 5.739-5.6 8.559-3.829-.425-7.342-.868-11.187-1.61-3.695-.908-7.54-1.65-11.218-2.242l-.333-.299c.72-1.468 1.424-3.252 2.144-4.72-3.679-.592-7.374-1.501-11.052-2.093-.419 1.134-.854 1.951-1.274 3.085-3.71-1.225-7.571-2.283-11.281-3.509-2.263-.828-4.51-1.34-6.907-1.685.435-.817.704-1.784.989-2.434-3.062-.944-6.274-1.72-9.336-2.663-.419 1.134-.838 2.267-1.424 3.252-6.242-1.087-12.484-2.174-18.156-4.561.585-.984 1.004-2.118 1.423-3.252-2.729-.644-5.292-1.139-8.172-1.616-1.558 3.736-3.282 7.321-5.806 10.792-4.596 6.44-10.085 10.867-15.512 16.56-1.954 2.17-5.308 4.892-6.597 7.661-1.709 3.902-.703 8.132-2.728 12.051-4.351 8.173-13.519 12.007-19.697 18.534-6.329 6.695-13.867 11.392-21.224 16.555.862 1.381 1.725 2.763 2.421 3.994 7.903-3.765 15.822-7.214 22.166-13.591 6.36-6.061 13.748-10.592 19.278-17.401 5.679-6.976 3.621-16.385 9.467-23.211 2.689-3.322 6.74-4.813 9.928-7.685 2.887-2.538 5.592-5.543 7.981-8.53 1.487-1.986 2.974-3.972 4.145-5.94 4.336 4.206 10.024 6.91 15.681 8.981l-.301.334c-5.331 7.591-12.055 12.72-18.067 19.397-2.405 2.671-6.225 5.578-7.649 8.83-1.993 4.552-.79 9.564-3.266 13.985-5.236 9.491-15.955 14.045-23.185 21.74-11.439 12.37-26.509 18.749-38.628 30.203-.933.369-2.033.588-2.8 1.106-.617.351-1.4.552-2.017.904.838-2.268 1.993-4.553 2.831-6.821.419-1.133-1.211-1.996-1.63-.863-1.123 2.918-2.246 5.836-3.685 8.772-3.117 1.122-6.385 2.412-9.501 3.535-7.951 2.815-15.633 4.664-22.19 9.942-10.063 8.168-21.597 12.291-33.922 13.283.704-1.784 1.724-3.586 2.428-5.37.419-1.134-1.045-1.847-1.63-.863l-3.013 6.354c-6.013.329-12.057.025-17.983-1.079 2.729-5.704 5.141-11.39 7.388-17.226 7.507 1.018 15.616 1.367 21.605-2.61 3.647-.041 8.132-2.35 11.218-4.106 2.041 2.745 4.217 5.007 6.978 6.284 1.78.696 4.264-.392 4.153-2.608-.325-3.315-1.266-6.279-2.374-9.392.15-.167.3-.334.617-.351-6.52-9.8-10.169-22.454-13.239-33.078-1.9-6.243-3.831-13.12-5.445-20.015a133.735 133.735 0 01-2.643-8.425c.316-.017.783-.201 1.099-.218a58.804 58.804 0 01-.847-7.413c-.316.018-.467.184-.783.202-.467.184-.934.368-1.551.719-1.851-5.294-4.336-10.554-7.556-14.662l-.499-.449c3.133-.806 6.266-1.612 8.932-2.234 6.249-1.929 8.646-7.932 14.033-11.242 7.539-4.698 15.798-4.515 23.29-10.162 5.205-3.776 9.998-9.434 12.877-15.304 2.745-5.387 2.159-10.751.173-15.562 2.642-4.271 5.133-8.374 7.625-12.478.894 2.014 2.105 4.011 3.315 6.008 6.204 9.817 6.687 16.297 1.016 26.605-3.061 5.404-6.858 11.96-11.533 16.818-.166-.15-.316.017-.467.184-6.574 4.962-13.946 9.809-21.2 13.856-2.935 1.589-6.218 2.562-8.805 4.767-2.27 2.187-3.544 5.272-5.814 7.459-2.571 2.521-5.221 3.46-8.204 4.099.594 2.348 1.188 4.696 1.615 6.894 2.967-.956 5.751-2.378 8.188-4.415 5.94-4.927 9.152-10.499 15.773-14.511 5.237-3.143 10.094-7.535 14.469-12.059 6.051-2.712 10.244-7.702 14.737-13.026 5.379-6.643 13.645-15.823 14.15-24.738.158-3.182-.633-6.313-2.208-9.242 3.829-5.923 6.66-12.743 9.492-19.563 1.804 4.345 3.608 8.69 5.713 12.701-.135.483-.419 1.133-.72 1.467-.285.651-.569 1.301-1.02 1.802.134-.484-4.058 4.506-2.919 1.905.134-.483-.349-.616-.649-.282-.285.651-.736 1.151-1.02 1.802-.151.167.031.633.197.782 2.944 1.744 5.317-1.56 7.041-5.146 2.5 5.576 1.654 10.86 1.489 17.058-.26 10.647-4.484 21.352-12.679 28.783-4.707 4.225-10.378 8.185-15.766 11.495-7.222 4.68-12.032 10.022-18.574 15.617-5.173 4.409-9.848 9.267-15.022 13.676-4.872 4.075-8.701 9.998-13.439 13.59-.768.518-1.535 1.036-2.619 1.571.412 1.882.974 3.597 1.551 5.628 5.483-1.41 8.172-4.732 12.745-8.473 10.196-8.652 20.575-16.837 29.442-26.685 8.717-9.682 22.902-14.743 30.938-25.339 8.923-11.914 11.43-22.049 12.465-36.23.118-.8.087-1.433.055-2.066.166.15.483.132.633-.034 6.811-6.562 10.979-15.201 15.978-23.092.451-.501.736-1.151 1.187-1.652 1.194 1.68 2.255 3.844 2.682 6.042.428 2.199.539 4.414.499 6.797-2.539 3.154-5.078 6.308-7.451 9.612-.301.334.198.783.498.449 2.437-2.038 4.541-4.375 6.795-6.879-.039 2.383-.078 4.765.033 6.981.823 10.112-2.443 17.749-8.874 25.56-2.84 3.488-6.51 6.228-9.018 10.015-2.373 3.304-3.132 7.154-5.006 10.906-3.615 7.022-9.453 10.833-15.062 16.059-6.977 6.413-13.091 14.206-20.068 20.618-3.639 3.373-8.457 5.383-12.626 7.674 1.345 1.513 2.374 3.044 3.719 4.557 2.666-.622 5.514-.778 8.164-1.716 6.867-2.28 12.111-8.439 17.253-13.481 6.961-6.729 16.153-13.263 21.619-21.338 5.901-8.892 8.938-17.945 15.986-26.107 4.794-5.658 10.307-12.784 12.157-20.185 1.06-4.184.838-8.615.466-12.88-.388-4.581.339-9.064.101-13.812-.063-1.266-.277-2.365-.491-3.464 2.089-2.654 4.161-5.624 6.249-8.277 1.187-1.652 2.373-3.304 3.576-4.639 1.725 2.762 4.233 5.322 6.741 7.883 1.163 1.047 1.844 1.962 2.69 3.027-3.354 2.722-6.858 5.612-10.545 8.035-.767.519.08 1.583.697 1.232a122.49 122.49 0 0010.711-7.886c6.931 11.681-3.226 24.298-8.019 36.304-.854 1.951-1.542 4.052-2.396 6.003 2.864.16 5.728.321 8.441.649l.151-.167c4.397-13.571 14.3-24.905 11.475-40.144-.626-2.98-2.018-5.443-3.712-7.572 3.489-3.207 7.128-6.58 10.45-9.935a49.873 49.873 0 007.738 8.781c15.349 15.029.953 31.686-5.398 47.427-.554 1.618-1.274 3.085-1.827 4.703 3.046.626 6.258 1.403 9.319 2.346 5.086-15.672 16.643-28.841 13.389-46.278-1.512-8.011-8.395-12.395-13.443-18.149-6.393-7.268-5.334-17.8-9.876-26.121-9.068-16.325-24.994-27.038-39.204-38.322-6.78-5.5-10.151-9.442-13.712-17.182-3.544-7.423-6.29-14.732-11.069-21.453-3.252-4.741-7.272-8.965-11.125-13.039 5.229-.127 10.625-.105 15.688-.382.949-.052 1.02-1.802-.079-1.583-5.847.479-11.725.325-17.603.17-8.489-7.946-18.031-14.724-27.422-21.669-5.768-4.286-10.65-9.89-16.418-14.177-3.789-2.808-8.18-4.948-12.271-7.422-8.164-4.632-17.001-6.846-25.736-10.177-6.804-2.801-15.933-1.35-22.452 1.547-2.95 1.272-5.553 3.16-8.005 4.881-2.65.939-4.968 2.176-7.286 3.414-6.456-2.186-13.014-3.255-19.723-4.158 2.357-3.62 4.714-7.24 7.57-10.412l1.352-1.502c6.076.937 12.136 1.558 18.331 1.695 1.115.097.87-1.635-.079-1.583-5.396-.022-10.657-.528-15.934-1.35 11.985-4.623 24.381-13.712 36.873-14.555l.633-.034c4.43-.242 9.074.614 13.497 3.387 2.128 1.312 4.391 2.14 6.637 2.652.214 1.1 1.812 1.33 2.564.495 4.177 1.04 8.655 1.748 12.579 4.072 11.274 6.525 20.412 14.753 30.801 22.595 3.623 2.658 7.698 4.816 11.472 7.307 4.422 2.773 7.294 6.266 11.116 9.707 9.637 8.677 18.498 14.54 25.88 25.721 8.095 12.728 10.098 30.551 21.412 41.041 6.978 6.283 14.89 12.198 22.304 17.664 9.209 6.479 15.42 13.28 22.659 21.612 7.24 8.332 8.855 15.226 11.292 25.884 1.995 8.143 7.027 13.581 13.024 19.283 17.842 17.274 1.191 36.435-6.149 54.61-.989 2.435-1.811 5.019-2.8 7.454 3.394 1.242 6.954 2.634 10.348 3.877.269-.967.704-1.784.973-2.751 5.908-18.256 19.268-33.429 15.54-54.014-1.741-9.426-9.59-14.075-15.484-20.893-7.406-8.482-6.11-20.614-11.348-30.166-10.461-18.789-28.847-31.113-45.201-44.025-7.928-6.231-11.662-11.105-15.904-19.76-3.925-8.672-7.351-16.895-12.826-24.848-12.462-17.568-29.568-29.645-46.839-41.871-6.749-4.868-12.311-11.387-18.91-16.422-4.454-3.406-9.494-5.828-14.233-8.584-9.478-5.512-19.747-7.806-29.628-11.867-7.769-3.067-18.331-1.695-25.783 1.57-3.417 1.456-6.32 3.678-9.39 5.75-7.934 3.132-15.489 7.513-21.715 13.09 0 0-.166-.15-.316.018-6.258-1.403-12.753-1.207-19.011-2.61-2.081-.362-4.343-1.19-6.59-1.702 7.088-4.197 14.239-7.127 21.177-11.157zm148.667 380.192c-.317.017-.467.184-.768.518-6.138 4.145-12.111 8.439-17.403 13.648-1.25.386-2.183.754-3.117 1.123-4.817 2.009-9.801 3.869-14.635 5.561 2.207-3.453 4.564-7.073 7.103-10.227 3.742-4.49 7.499-8.663 10.742-13.601 3.109-4.455 5.403-9.342 7.697-14.228 7.902-3.765 15.805-7.53 22.3-14.075 7.412-7.229 15.884-12.295 22.465-20.273 6.732-8.144 4.128-18.951 11.01-27.263 3.291-3.989 7.958-5.831 11.763-9.054 3.188-2.873 6.495-6.545 9.334-10.033.902-1.001 1.788-2.32 2.524-3.471 3.061.944 5.957 1.737 8.718 3.015 1.946.845 4.043 1.524 6.139 2.203.016.316.182.466.364.932.349.616.713 1.548 1.061 2.164-5.798 7.776-12.973 13.405-19.602 20.433-2.705 3.005-7.127 6.579-8.852 10.165-2.278 5.203-.877 10.998-3.788 16.236-6.106 11.125-18.391 16.082-26.507 25.096-7.966 8.847-17.34 14.914-26.548 21.131zm-90.974 46.239c2.997-6.67 5.995-13.341 9.159-19.862.585-.984-1.211-1.997-1.63-.863-3.464 6.855-6.597 14.009-9.729 21.163-8.014 1.549-16.241 2-24.532 1.184 3.045-5.721 5.924-11.592 8.954-17.629 6.194.137 12.341-.676 17.111-3.635 4.763.057 11.083-3.621 14.786-5.728 6.186-3.195 10.845-8.37 16.699-11.864-1.74 3.269-3.33 6.371-5.07 9.64-3.346 6.055-7.024 11.811-10.686 17.883a321.282 321.282 0 00-3.362 5.738c-4.035 1.808-7.935 3.132-11.7 3.973zm-70.309-19.48c2.776-4.754 5.703-9.675 8.479-14.43 3.908 2.008 5.966 5.07 8.988 8.396 4.019 4.223 8.529 5.563 13.505 6.719-2.444 5.053-5.054 9.957-7.815 15.028-7.231-5-12.69-12.636-22.026-15.299-.332-.299-.649-.282-1.131-.414zm-33.938 12.966l-1.954 2.17c-5.688-2.704-11.677-5.074-17.516-7.611a142.114 142.114 0 008.82-10.798c3.077 1.26 6.005 2.686 8.766 3.964a64.773 64.773 0 008.283 3.831c-2.072 2.97-3.994 5.773-6.399 8.444zm1.406-22.612c-1.796-1.013-3.576-1.709-5.356-2.405 3.259-4.622 6.533-8.927 9.959-13.399l.3-.334c.815.431 1.946.846 2.761 1.277 4.241 2.307 8.932 4.114 13.442 5.454-2.942 4.604-6.051 9.059-9.16 13.514l-.3.334c-3.845-.742-7.722-2.117-11.646-4.441zm-21.274-9.786c3.741-4.489 7.317-9.128 10.742-13.601 4.256 2.624 9.114 4.58 13.821 6.703-.751.834-1.352 1.502-1.938 2.486-2.99 3.655-5.663 7.293-8.487 11.097-3.561-1.392-6.955-2.634-10.364-4.194-1.464-.713-2.777-1.593-3.774-2.491zm-63.223-42.72l-1.653 1.836c-3.553-4.408-6.79-8.833-10.342-13.241 2.104-2.337 4.54-4.374 5.743-5.71l5.261-5.842c2.009 2.112 4.035 4.54 5.744 6.986 1.377 2.146 2.603 4.459 3.513 6.79l-8.266 9.181zm35.776-55.439c2.857 3.177 6.014 6.019 8.569 9.529-3.457 3.839-7.079 7.529-10.552 11.052-1.211-1.997-2.738-3.977-4.431-6.106-2.026-2.428-4.201-4.689-6.061-6.968 3.489-3.206 7.128-6.579 10.45-9.935.348.616 1.179 1.364 2.025 2.428zm-11.117-95.243c.553-7.965 2.103-21.38 6.129-26.52 2.689-3.321 6.02-3.345 9.588-4.969 4.667-1.842 8.488-4.749 13.171-6.275 5.301-1.877 11.527-1.107 16.479-3.599 4.185-1.975 8.156-5.049 12.309-7.656a560.762 560.762 0 004.201 4.689c2.508 2.561 5.515 5.57 8.79 7.613-5.015 1.226-8.504 4.432-13.685 5.509-7.081 1.181-14.043 1.562-21.06 4.009-8.251 3.15-21.035 7.658-20.361 17.936.483 6.48 3.83 13.121 5.563 19.215 2.113 7.344 2.264 13.524 6.244 20.13 3.268 5.059 7.723 8.465 10.975 13.206 3.085 4.592 3.924 8.673 8.561 12.545 6.116 4.902 8.244 6.214 8.071 15.428-.04 2.382-.728 4.483-.767 6.866.183 6.814 3.49 9.489 7.256 14.996 4.961 7.187 10.69 13.856 16.117 20.859 4.748 6.088 9.891 13.742 17.043 17.159 5.688 2.704 12.911 4.372 19.169 5.775 5.459 1.288 11.037 1.776 16.717 1.148 6.187 3.153 13.702 1.154 20.648.457a17.887 17.887 0 014.114-.225c.958 3.28 1.899 6.244 2.691 9.374.395 1.566.791 3.131 1.353 4.846-2.033.587-4.383 1.192-6.25 1.929-8.266 2.833-15.023.981-23.093-1.752-7.27-2.617-12.65-8.67-20.475-9.671-5.909-.787-13.639.112-18.647-1.677-3.56-1.392-9.945-5.327-13.252-8.003-3.307-2.675-5.815-5.236-9.707-6.927-1.298-.564-2.113-.996-3.078-1.26.285-.651.585-.984.87-1.635.435-.817-.546-1.398-1.163-1.047.269-.967-.111-2.216-.792-3.131-5.498-5.253-10.697-10.84-15.895-16.427-5.712-6.353-4.004-10.255-5.516-18.266-2.746-13.656-8.538-21.591-18.072-31.385-2.841-2.86-4.281-6.272-6.837-9.782-4.264-5.956-10.135-15.474-12.399-22.65-2.231-6.543-5.918-10.467-5.168-17.65l-.047-.949.316-.018c1.25-.385 1.155-2.284-.111-2.215zm-46.237 36.65a95.395 95.395 0 014.59 9.27c-3.133.806-6.266 1.613-9.383 2.735-2.967.956-5.767 2.062-8.734 3.017-1.29-3.579-2.896-7.141-4.652-10.536l11.747-3.023c2.184-.755 4.217-1.342 6.432-1.463-.016-.317-.016-.317 0 0zm-45.117 8.34c-2.555-3.51-4.945-6.87-7.334-10.231a16.925 16.925 0 013.931-.691c4.249-.709 8.529-.784 12.943-1.343 1.582-.087 3.149-.49 4.565-.726.744 2.181 1.638 4.195 2.864 6.508.514.766.878 1.698 1.393 2.463-6.115 1.446-11.914 2.874-17.863 4.469-.317.017-.333-.299-.499-.449zm19.422-1.856c-2.919 1.905-7.5 2.315-10.498 2.638l-.633.034c3.6-.99 7.366-1.831 11.131-2.672zm18.686-7.053c-4.066 1.175-7.983 2.183-12.215 3.208-1.408-2.78-2.967-5.392-4.376-8.172 4.098-.541 8.18-1.4 12.278-1.941 2.516-.455 5.198-.761 7.714-1.216.593 2.348 1.337 4.529 2.564 6.842-2.05.271-3.932.692-5.965 1.279zm-18.047-8.693c-1.487-4.362-1.06-8.511-1.599-12.925-.428-2.199-.538-4.414-1.132-6.762 6.179-.18 12.523-.209 18.868-.239l.633-.035c.61 2.665 1.385 5.479 1.844 8.31.823 3.764 1.465 7.061 2.422 10.341-2.982.64-6.13 1.129-9.28 1.619-3.781.524-7.246 1.031-10.861 1.705-.364-.932-.547-1.398-.895-2.014zm-6.269-36.474c-1.488-4.362-3.814-6.456-4.368-11.187l-.048-.95c6.844.419 13.971.188 20.767-.343-1.392 3.885-1.684 7.551.104 11.579l1.59 3.246c-2.998.323-6.146.812-9.31.986-2.532.138-4.898.426-7.58.732-.213-1.099-.609-2.665-1.155-4.063zm10.19-78.477l29.216 3.638c-3.82 2.907-7.792 5.981-11.961 8.272a400.467 400.467 0 00-27.578.557c2.958-4.288 6.233-8.593 10.322-12.467zm163.611-78.462c-1.116-.098-2.397-.345-3.663-.276-9.889-1.046-19.375-3.542-28.995-5.554.918-.685 1.685-1.204 2.602-1.889 4.739-3.592 9.992-6.418 15.26-8.928 4.344 1.19 8.837 2.214 13.315 2.921 4.462.39 8.79 1.265 13.267 1.972-.45.5-1.067.852-1.669 1.52-3.322 3.355-6.795 6.878-10.117 10.234zm-34.81-4.443c9.62 2.013 19.106 4.509 28.995 5.554 1.432.08 2.714.328 4.312.558-3.773 3.856-7.562 7.396-11.834 10.804-4.96-.84-9.771-1.846-14.581-2.852-6.574-1.386-13.133-2.455-19.841-3.358 4.255-3.724 8.677-7.298 12.949-10.706zm144.947 52.531c2.009 2.111 3.892 1.691 6.74 1.535 4.913-.11 9.874.729 14.802.936 2.065.045 4.446.074 6.511.119 4.803 4.022 9.273 7.745 13.34 12.918-8.41-.016-17.136-.014-25.727-.496-5.286-4.154-10.887-8.291-16.323-12.279-5.103-3.688-8.988-8.395-13.94-12.25-3.292-2.359-7.034-4.217-10.626-6.242-7.017-3.901-14.573-5.868-22.01-8.635-5.823-2.22-13.552-1.321-19.137 1.206-2.484 1.088-4.786 2.643-7.088 4.197-7.001 2.763-13.306 6.758-18.582 12.284-3.473 3.523-6.478 6.861-9.967 10.067l-.665-.598c-5.142-1.306-10.284-2.611-15.577-3.75 4.121-3.241 8.409-6.332 12.364-9.722 6.692-5.762 9.777-13.866 15.488-20.209.601-.667 1.203-1.335 1.97-1.853 10.6-3.754 21.913-12.308 33.139-13.081l.316-.017c3.964-.059 7.808.683 11.733 3.008 1.796 1.012 3.742 1.858 5.672 2.387.214 1.1 1.48 1.03 2.247.512 3.695.909 7.373 1.5 10.965 3.526 9.961 5.644 17.62 12.842 26.695 19.804 3.141 2.526 6.551 4.085 9.992 6.277 3.774 2.492 6.298 5.369 9.621 8.361l3.489 3.141c-4.762-.056-9.374-.28-13.987-.504-3.663-.275-7.895.75-11.471-.959.119-.8-.166-.15.016.317zM440.998 210.51c.752-.834-.578-2.031-1.329-1.196-3.726 4.806-7.452 9.612-11.011 14.567-1.353-4.845-2.09-10.042-4.376-14.519-7.842-14.012-21.308-23.114-33.524-32.602-5.783-4.603-8.655-8.096-11.686-14.754-3.015-6.342-5.231-12.568-9.646-18.357-4.779-6.721-10.61-12.274-16.575-17.343.633-.035 1.115.098 1.748.063 7.642.534 15.569.418 23.346.468.68.915 1.361 1.83 2.057 3.061 7.05 10.882 8.626 26.507 18.445 35.65 5.981 5.385 12.912 10.719 19.495 15.437 8.062 5.748 13.426 11.485 19.669 18.919 6.393 7.268 7.644 13.23 9.852 22.472.593 2.348 1.487 4.362 2.532 6.209-3.307 3.673-6.945 7.046-10.584 10.419-2.176-2.262-4.502-4.356-6.678-6.617-1.511-1.663-2.571-3.827-3.466-5.841 3.995-5.773 7.855-11.063 11.731-16.036zm-21.563 25.62c-1.788 2.319-3.576 4.639-5.514 7.125-1.321-4.212-3.529-7.107-6.385-10.283a317.636 317.636 0 0011.034-17.267c1.258 2.946 1.9 6.244 2.889 10.157.412 1.882 1.124 3.43 1.836 4.978-1.337 1.819-2.674 3.638-3.86 5.29zm-18.243 3.22c-5.616 8.242-10.6 16.449-16.382 24.542-.333-6.647-3.387-10.606-6.686-16.297 4.35-8.173 9.365-15.748 14.214-23.472 2.041 2.745 3.932 5.657 5.689 9.052 1.044 1.847 2.239 3.527 3.6 5.357-.135.484-.285.651-.435.818zm-78.27 40.148c-.3.334.198.783.499.449 1.97-1.854 3.923-4.024 5.711-6.343.277 2.365-.078 4.765-1.083 6.883-4.951 8.841-12.941 14.039-22.522 15.991-5.498 1.095-8.251 3.15-12.673 6.724-3.354 2.723-6.043 6.044-9.927 7.685-5.435 2.36-14.114 3.311-20.023 2.524-7.674-1.167-16.218-.7-22.516-6.068-7.794-6.715-10.682-16.872-11.34-26.834-.705-10.911 5.259-18.538-3.143-27.917-4.716-5.455-12.303-8.055-18.221-12.174-2.793-1.911-8.964-4.747-6.559-7.418 2.254-2.503 7.262-.714 10.577-1.054 6.163-.496 10.949-3.139 16.217-5.649 7.587-3.748 14.264-3.478 21.945-5.327 8.465-2.05 12.515-9.889 17.411-16.663.166.149.317-.018.467-.185 2.017-.904 2.001-1.22 4.13.092 3.742 1.858.862 1.381.87 4.713-.071 1.749-1.091 3.551-1.312 5.467-.293 3.666.262 8.397 3.553 10.756 3.125 2.209 6.891 1.368 10.372 1.178 12.523-.209 16.899 7.962 23.521 16.645 2.374 3.044 6.077 7.285 9.645 12.009-3.092 4.772-5.853 9.842-8.946 14.614-.245-1.732-.641-3.298-1.353-4.846-1.82-4.661-8.237-9.229-12.177-11.87-5.736-3.654-10.182-3.728-13.513-10.052-5.056-9.086-14.653-13.798-24.763-12.927-3.497-.126-7.413.881-10.728 1.221-4.264.393-7.911.433-11.265 3.156-2.587 2.205-4.058 4.507-2.934 7.937.775 2.814 6.298 5.368 7.991 7.497 5.064 6.071 5.159 7.97 3.561 14.088-2.001 7.568-9.847 21.963-5.036 29.317 3.616 5.674 11.693 5.39 17.318 6.828 5.625 1.438 10.515 4.027 16.313 2.599 6.582-1.63 11.36-7.605 17.578-10.167 4.667-1.842 8.749-2.7 13.053-5.475 4.454-2.941 6.383-8.76 6.248-14.624 1.606-2.786 3.061-5.405 4.517-8.024l4.817-8.357c3.568 4.725 7.002 9.932 8.356 14.778-.791 3.217-2.713 6.02-4.636 8.823zm24.123-63.211c4.241 2.307 8.331 4.781 11.852 8.555-3.33 6.372-7.158 12.294-11.153 18.067-.878-1.697-1.923-3.544-3.418-4.891-2.176-2.261-4.771-3.389-7.097-5.483 4.192-4.991 8.037-10.597 9.816-16.248zm-21.523 29.584c-.586.984-1.337 1.819-1.922 2.803l-4.534-4.989c-5.048-5.754-9.155-14.892-16.006-18.643-3.26-1.726-7.619-3.233-11.298-3.826-1.598-.23-3.014.007-4.446-.074-1.582.087-2.848.156-4.264.392-1.891-2.911-3.798-6.14-5.689-9.051-.689-4.247 4.5-8.34.631-12.73-1.677-1.813-3.758-2.175-5.64-1.755-.182-.466-.665-.598-1.132-.414-.917.685-1.669 1.52-2.587 2.205-.767.518-1.218 1.018-1.819 1.686-.15.167-.301.334-.285.65-2.42 2.355-4.509 5.008-7.396 7.547-5.007 4.558-8.092 6.314-15.054 6.695-4.114.225-7.294.082-11.361 1.257-9.232 2.568-16.984 6.166-26.676 5.903-5.245-.189-10.537-1.328-13.116 4.209-6.462 13.525 21.995 21.014 28.191 27.499 7.524 7.681 2.881 19.52 2.59 29.534-.34 9.064 1.093 15.492 6.537 22.812 3.916 5.34 8.418 9.695 15.159 11.231 6.74 1.535 16.147 2.449 23.108 2.068 1.417-.236 2.999-.323 4.415-.559-.285.65-.403 1.45-.039 2.382 2.603 4.46 3.671 9.956 4.574 15.302-6.566 1.947-7.176-.718-11.986-1.724-4.478-.707-9.723-.896-14.066-2.087-4.344-1.191-7.967-3.849-12.01-5.373-4.043-1.525-8.038-2.099-11.962-4.424-6.369-3.619-8.956-7.762-11.022-14.155-.744-2.181-1.306-3.896-2.366-6.06-2.255-3.844-6.195-6.485-7.216-11.031-1.037-4.863.751-7.182 1.462-11.982.814-5.917-.088-11.263-2.422-16.689-5.761-13.65-11.237-21.603-23.571-30.291-4.272-2.94-13.307-5.937-5.895-13.166 3.172-3.189 12.895-2.293 17.143-3.002 6.131-1.129 13.425-1.21 19.374-2.805 5.016-1.227 10.221-5.003 14.691-7.628 5.703-3.328 11.787-5.406 17.34-8.567 12.657-7.04 19.23-24.698 31.824-33.004.166.149.316-.018.482.132 5.182-1.077 9.335-3.685 11.844 5.224.593 2.348-.498 5.899-.221 8.264.443 2.515 1.82 4.661 2.58 7.159 1.306 3.896 1.678 8.16 3.134 11.889 1.504 4.679 4.273 9.288 8.395 12.395 6.915 5.017 14.945 3.784 21.005 10.753 3.537 4.091 5.539 9.218 8.309 13.828-2.191 3.769-4.58 6.757-6.787 10.21zm-22.923 36.485c-.301.334.348.616.498.449l1.353-1.503c-.285.651-.569 1.301-1.02 1.802-1.187 1.652-5.237 3.143-6.954 3.713-3.584 1.307-7.199 1.981-10.616 3.438-4.818 2.009-10.909 7.103-16.02 6.431-3.513-.443-7.136-3.101-10.681-4.177-3.061-.943-6.724-1.219-9.201-3.146-4.454-3.406-1.93-.529-2.136-4.644-.681-7.263 1.406-16.264 2.308-23.613.766-6.866-.808-9.795-5.793-14.283-4.154-3.74-7.951-3.533-2.659-8.742 4.24-4.041 4.288-3.091 9.485-3.851 2.049-.271 4.098-.542 6.464-.83 5.11.672 9.572 1.063 14.011 4.152 5.253 3.522 6.005 9.035 9.874 13.425 5.531 5.887 15.356 5.666 20.784 12.669 2.042 2.745 3.49 9.49 2.961 14.756l-2.658 3.954zm21.847-32.617c1.622-2.47 3.243-4.939 5.181-7.425 1.037-1.485 2.223-3.137 3.726-4.806.847 1.064 1.527 1.979 2.374 3.044 3.687 3.924 4.431 6.105 6.551 10.432l-7.973 11.863c-2.619-4.776-6.172-9.184-9.859-13.108zm23.86-5.115c4.145-5.94 8.124-12.029 11.453-18.4 1.179 1.363 2.058 3.061 2.936 4.758 1.258 2.947 2.683 6.043 3.941 8.989-2.998 6.671-5.829 13.491-9.642 19.73-2.089-3.694-4.645-7.205-6.567-10.749-.697-1.232-1.409-2.78-2.121-4.328zm14.048-23.621c1.004-2.118 1.843-4.385 2.681-6.653.269-.967-1.029-1.531-1.297-.564-.689 2.101-1.693 4.219-2.547 6.17-.665-.598-1.179-1.364-1.678-1.812-4.818-4.339-8.592-6.83-14.431-9.367-8.599-3.814-14.565-8.884-19.574-17.02-3.98-6.606-6.844-13.115-9.274-20.441 5.159 1.622 11.369 2.076 16.495 3.065 2.398.345 4.795.69 7.326.551.38 1.249.91 2.331 1.607 3.562 4.178 7.389 10 9.61 16.702 13.528 5.554 3.187 8.972 8.078 13.925 11.933 2.974 2.377 5.617 4.454 8.109 6.698-3.282 7.321-6.881 14.659-10.48 21.997-1.954-4.178-4.376-8.171-7.564-11.647zm8.743 13.011c3.599-7.338 7.198-14.677 10.63-22.164a47.956 47.956 0 015.365 5.736c1.527 1.98 3.054 3.959 4.415 5.789-3.378 5.422-6.905 11.011-10.283 16.433-1.321 2.135-2.792 4.437-4.113 6.572-2.255-3.844-4.21-8.021-6.148-11.883.15-.167.134-.483.134-.483zm30.695-8.028l-5.626-7.785c2.341-3.937 4.667-8.19 6.526-12.26.435-.817-1.029-1.53-1.464-.713a135.182 135.182 0 01-6.075 11.759c-3.22-4.109-6.923-8.35-10.895-11.624 1.424-3.252 2.531-6.486 3.623-10.037.269-.967-1.179-1.364-1.598-.23-.957 3.068-2.231 6.152-3.354 9.07-8.79-7.612-16.947-15.259-25.872-22.388-11.068-8.757-10.184-22.771-17.701-33.468 8.489 1.598 16.86 3.997 24.58-.235 5.389 9.386 7.123 21.828 15.114 29.326 5.151 4.637 11.084 9.073 16.686 13.21 6.749 4.868 11.433 9.69 16.829 16.06 2.025 2.428 3.568 4.724 4.644 7.204-3.496 6.222-7.49 11.995-11.319 17.917-1.044-1.847-2.555-3.51-4.098-5.806zM239.351 77.609c-6.945 7.045-13.107 13.889-20.883 20.186-3.971 3.074-7.792 5.981-11.779 8.738-5.926-1.104-11.535-2.225-17.46-3.329 3.789-3.54 7.744-6.93 11.715-10.004.767-.518 1.535-1.037 2.286-1.871 5.76.954 11.203 1.926 16.962 2.88 1.282.248 1.653-1.836.538-1.933-5.111-.673-10.237-1.662-15.198-2.501 5.356-3.943 10.545-8.036 15.885-12.296 5.277.823 10.538 1.328 15.949 1.667 1.432.08 1.171-1.969-.095-1.9-4.612-.223-9.241-.763-13.718-1.47l.3-.334c3.805-3.224 6.613-7.345 9.271-11.299 6.226.77 12.785 1.84 18.758 3.893-4.786 2.642-8.908 5.883-12.531 9.573zm-45.208 38.18c-2.136 1.704-4.256 3.724-6.542 5.595-4.961-.839-10.055-1.195-15-1.718-.799-.115-1.598-.23-2.547-.178 5.972-4.294 11.747-9.371 17.205-14.431 5.609 1.122 11.369 2.076 16.978 3.197-3.37 2.406-6.74 4.813-10.094 7.535zm-19-46.727l2.397.345c6.875 1.052 13.782 2.737 20.673 4.105 3.528.76 7.373 1.501 11.052 2.093-5.34 4.26-10.861 8.053-16.367 12.163-3.679-.592-7.207-1.35-10.886-1.943-6.242-1.087-12.5-2.49-18.742-3.577-2.081-.362-3.995-.574-6.076-.937 6.321-3.678 12.293-7.972 17.949-12.25zm-15.291 14.643c6.559 1.07 12.967 2.306 19.541 3.692 3.679.592 7.524 1.333 11.203 1.925-2.603 1.889-5.039 3.926-7.642 5.814-2.286 1.871-4.572 3.742-6.692 5.762l-.316.018c-8.972-1.731-17.943-3.462-27.184-4.226-3.979-.258-7.959-.516-11.803-1.258 5.489-4.427 11.146-8.704 17.316-12.215 1.899-.104 3.813.109 5.577.488zm-24.08 13.379c4.177 1.04 8.623 1.115 12.769 1.523 8.758.631 17.247 2.23 25.902 3.978-5.174 4.409-10.347 8.818-16.051 12.146-1.701.886-3.402 1.773-5.118 2.343-2.714-.328-5.443-.972-8.157-1.3-8.956-1.414-17.611-3.162-26.582-4.893 5.64-4.593 11.114-9.336 16.754-13.93 0 0 .167.15.483.133zm12.652 21.366s.166.15.317-.017c-1.567.403-3.283.973-5.016 1.226 0 0-.15.167-.316.018 1.645 1.179 3.505 3.458 4.517 4.672 1.33 1.197 2.659 2.394 3.838 3.757 2.666-.622 5.482-1.411 8.116-2.666 2.635-1.255 5.103-2.659 7.571-4.064l5.744.638 12.436 1.224c-1.819 1.686-3.955 3.39-5.941 4.927 2.928 1.427 5.871 3.17 8.648 4.764 2.737-2.372 5.624-4.91 8.361-7.282.483.132.799.115 1.282.247 1.131.415 1.669-1.519.538-1.933 3.638-3.373 7.277-6.746 11.098-9.653 1.835-1.37 3.52-2.573 5.205-3.776 5.775 1.27 11.385 2.392 17.176 3.979-1.97 1.854-4.09 3.874-6.542 5.595-6.874 5.296-14.097 9.976-20.805 15.421-1.986 1.537-3.655 3.057-5.474 4.743 2.144 1.629 4.122 3.107 6.266 4.736 4.09-3.874 8.179-7.748 12.617-11.006 5.039-3.926 10.094-7.535 15.117-11.777.198.782.23 1.415.428 2.198 1.337 4.529 2.192 8.926 3.53 13.455l.593 2.348c-4.256 3.724-9.01 6.999-14.397 10.309-2.152 1.388-4.137 2.924-6.123 4.461 2.326 2.095 4.969 4.172 7.295 6.266 5.838-3.81 11.328-8.237 15.868-12.612 1.805 4.345 3.909 8.356 7.383 11.181.166.15.332.299.815.432l-4.106 3.557c-3.053 2.389-5.608 5.226-8.48 8.081 2.16 1.945 4.17 4.057 6.33 6.002l1.352-1.502c4.691-4.542 10.363-8.502 14.706-13.659-1.709-2.446-2.952-5.076-4.194-7.706-.751.835-1.669 1.52-2.42 2.354-1.821-4.661-3.973-9.621-5.959-14.432.736-1.151 1.637-2.153 2.373-3.304a93.54 93.54 0 01-2.414-7.009l-2.555 2.838c-.546-1.399-.941-2.964-1.321-4.213-.974-3.597-2.343-8.759-4.582-12.286.902-1.002 1.803-2.003 2.539-3.154-.198-.783-.712-1.548-.91-2.331-.712-1.548 1.772-2.636 2.634-1.255.166.15.182.466.348.616 2.057-3.287 3.963-6.406 6.518-9.244l1.654-1.836c9.2-3.201 18.827-10.552 28.471-11.239l.316-.017c3.481-.19 6.693.586 10.119 2.462 1.63.863 3.244 1.41 4.858 1.956.197.782 1.313.88 1.93.529 3.212.776 6.408 1.236 9.351 2.98 8.498 4.93 15.144 10.914 22.739 16.846 2.642 2.077 5.57 3.504 8.513 5.247 1.313.881 2.476 1.928 3.639 2.975-1.914-.213-3.678-.592-5.593-.805-.831-.748-1.479-1.03-2.714-.327-.617.351-.419 1.134.23 1.415 3.212.777 6.559 1.07 9.905 1.363.831.748 1.828 1.645 2.674 2.71 7.145 6.433 13.545 10.685 19.037 18.954-8.038 4.248-17.271.469-25.926-1.279-2.009-2.112-4.169-4.057-6.796-5.818-7.247-5.316-11.227-11.922-17.256-18.257-5.697-6.036-13.402-7.836-21.243-9.153-1.914-.213-4.857-1.956-6.922-2.002-2.864-.16-5.514.778-8.164 1.717-10.878 1.388-19.635 7.105-27.316 15.301.878 1.698 1.59 3.246 2.469 4.943 1.922-2.803 4.01-5.456 6.747-7.828 3.204-2.555 6.424-4.795 9.509-6.551.332.3.648.282 1.131.415 3.631-.358 7.199-1.981 10.996-2.189 4.265-.392 3.829.425 7.524 1.334 10.435 2.444 17.105 5.729 23.727 14.412 2.722 3.66 5.428 7.003 8.751 9.995a27.61 27.61 0 004.937 3.539c-1.566.403-3.117 1.122-4.652 2.159-.3.333-.118.8.349.615 2.183-.754 4.382-1.192 6.447-1.146 1.48 1.03 2.809 2.227 3.838 3.757 4.597 6.255 5.025 14.802 7.454 22.127-3.014.006-6.376-.603-9.256-1.08-1.598-.23-10.388-1.495-14.581-2.852-2.295-7.809-4.139-16.119-7.051-23.577-1.836-4.978-6.836-9.783-11.243-12.239-.815-.432-1.78-.696-2.745-.961-10.744-5.442-20.736.976-28.765 8.557-2.42 2.354-4.493 5.324-6.415 8.127.926 2.647 2.002 5.127 2.928 7.774 4.817-8.357 9.967-16.415 17.854-20.496l.166.149c12.571.741 20.427 2.374 22.889 16.68 1.298 6.912 3.814 12.805 6.046 19.348 1.519 4.995 3.838 10.105 6.307 15.048-3.766.841-7.532 1.682-11.329 1.89-.949.052-1.036 1.485-.237 1.6 4.145.407 8.378-.618 12.444-1.792 2.967 5.392 6.551 10.432 10.737 14.806 5.198 5.587 11.836 8.239 18.189 11.541-1.495 5.001-4.77 9.307-7.744 13.278-.751.835-1.186 1.652-1.938 2.487-.332-.3-.514-.766-1.013-1.214-6.456-8.534-8.656-14.444-18.284-19.789-6.686-3.601-13.126-5.471-15.27-13.447-1.338-4.529-2.027-8.776-3.364-13.305-2.43-7.326.275-16.678-7.107-21.511-4.754-3.072-7.389-1.817-10.759.589-7.918 3.448-15.433 11.794-20.559 17.153-2.721 2.688-5.126 5.359-7.547 7.713.499.449 1.013 1.214 1.512 1.663 1.511 1.663-.443 3.833-2.255 2.504-.664-.599-1.479-1.03-2.144-1.628-3.488 3.206-7.475 5.963-12.61 7.99-6.218 2.562-12.436 5.124-18.82 7.536-12.934 4.675-28.084 3.124-41.153 8.283-7.001 2.763-13.448 10.257-8.321 17.594 4.099 5.806 12.817 8.82 18.103 12.975 6.764 5.184 8.268 9.862 11.979 17.435 2.121 4.328 5.309 7.803 5.413 13.035.071 4.598-2.587 8.552-3.646 12.736-.894 4.334-.157 9.53 1.631 13.559 1.424 3.095 3.885 4.706 5.459 7.636 1.575 2.929 1.599 6.577 2.707 9.691 2.366 6.059 6.504 9.483 12.058 12.67 6.535 3.769 14.225 5.252 21.496 7.869 7.436 2.767 15.68 2.634 23.235 4.601 4.494 1.023 7.524 1.333 11.756.308.412 1.882.673 3.931 1.085 5.813.839 4.08 1.994 8.143 3.15 12.206-2.532.138-4.897.426-6.946.697-3.315.34-7.247 1.031-11.044 1.239.118-.8-.562-1.715-1.511-1.663-10.34-.545-18.521-5.493-28.039-8.622-10.166-3.411-16.986-6.529-24.075-15.028-5.91-7.135-11.686-14.754-17.146-22.39-2.223-3.211-4.716-5.455-5.388-9.385-.491-3.465 1.399-6.901 1.225-10.383-.286-5.697-1.718-12.125-5.271-16.533-1.859-2.279-4.454-3.406-6.163-5.852-1.875-2.595-2.05-6.077-4.075-8.505-4.716-5.455-11.156-7.324-14.685-14.431-2.121-4.328-1.876-8.943-3.213-13.472-1.006-4.23-3.577-8.056-4.115-12.47-1.687-11.493 7.165-15.31 16.065-18.177 8.433-2.684 17.421-.636 25.387-3.135 2.5-.772 3.821-2.907 6.004-3.662 1.25-.385 2.864.161 4.114-.225 8.299-2.2 16.447-4.232 24.002-8.613 4.319-2.458 7.175-5.63 10.347-8.819-2.326-2.094-4.637-3.872-6.963-5.966-.751.834-1.669 1.519-2.42 2.354-.032-.633-.23-1.416-1.045-1.847-4.407-2.457-8.394-6.048-12.548-9.788 1.084-.535 2.318-1.237 3.236-1.922l-6.646-5.984-2.753 2.055c-2.342-2.411-4.835-4.655-7.327-6.899-1.163-1.048-2.642-2.078-3.972-3.274.768-.518 1.519-1.353 2.287-1.871-1.994-1.795-4.138-3.424-6.132-5.219-.918.685-1.835 1.37-2.587 2.205a129.824 129.824 0 01-10.254-8.326l.151-.167.3-.334c.767-.518 1.685-1.203 2.452-1.721-2.476-1.928-4.802-4.022-7.128-6.116l-2.302 1.554c-1.147-.731-2.698-.011-2.302 1.554l-.15.167c-1.852 1.053-3.402 1.773-5.119 2.343-.965-.265-1.914-.213-2.713-.328-5.428-.655-10.855-1.31-16.298-2.282-.799-.115-1.598-.229-2.231-.195-1.147-.731-2.278-1.145-3.425-1.875.783-.202 1.716-.57 2.666-.622-2.509-2.561-4.716-5.455-6.441-8.217-2.017.903-3.868 1.957-5.886 2.861-4.755-3.073-9.692-6.611-13.363-10.219-.332-.299-.664-.598-.846-1.065 10.87 1.627 20.656 3.79 30.561 5.152zm38.2 46.788c-7.911-5.915-15.673-11.997-23.134-18.413l-.498-.448-6.48-5.835c-1.828-1.646-3.822-3.441-5.499-5.253.316-.018.799.115 1.115.097 3.513.443 7.026.885 10.222 1.345-.317.018-.783.202-1.1.219 2.659 2.394 5.467 4.621 8.126 7.014 1.566-.403 3.283-.973 4.833-1.693 1.234-.702 2.484-1.088 3.718-1.79 2.556 3.51 5.412 6.686 8.419 9.696-1.851 1.053-3.718 1.79-5.751 2.378 2.31 1.777 4.937 3.538 7.247 5.316 1.4-.553 2.634-1.255 4.019-2.124 2.508 2.56 5.332 5.104 7.991 7.497l2.16 1.945c-.934.368-1.717.57-2.5.772 2.144 1.628 4.454 3.406 6.598 5.034.467-.184 1.1-.219 1.717-.57 5.815 5.236 13.047 10.236 19.36 9.573a38.509 38.509 0 01-6.005 3.661l.665.599c1.662 1.496-.094 4.448-2.373 3.304-.981-.581-2.279-1.145-3.26-1.726-1.55.719-3.117 1.122-4.833 1.692-.332-.299-.514-.765-.997-.897-5.071-3.055-9.455-8.211-13.506-13.068.15-.167.317-.017.467-.184-3.624-2.658-7.097-5.483-10.721-8.141zm-51.001 23.897c-3.836 2.591-7.475 5.964-9.168 10.182l-.403 1.451s-.166-.15-.317.017c-5.063.277-9.809.537-14.706.963 2.61-4.903 5.22-9.807 9.508-12.898 4.754-3.276 10.568-4.387 15.291-8.296a179.232 179.232 0 015.506-4.11c1.4-.552 2.8-1.105 4.185-1.974.15-.167.3-.334.284-.651 2.635-1.255 5.269-2.51 8.702-3.65 5.301-1.877 10.103-4.203 15.055-6.695 2.959 2.059 5.752 3.97 8.41 6.363 1.329 1.197 2.508 2.561 3.837 3.758-1.234.702-2.468 1.404-3.868 1.957-6.803 3.546-11.795 2.074-19.176 3.589-7.215 1.664-16.985 6.166-23.14 9.994zm-38.122 21.288c-.854 1.952-1.708 3.903-1.93 5.819-5.798 1.428-11.447 2.69-17.111 3.634-.894-2.014-2.089-3.694-2.232-6.543-.324-3.315.53-5.266 1.85-7.401l2.216-.121c6.962-.381 13.758-.912 20.553-1.442-1.17 1.968-2.341 3.936-3.346 6.054zm-2 7.569c.079 1.582.308 2.998 1.036 4.862 1.44 3.413 3.482 6.158 4.455 9.755-6.162.495-12.357.358-18.702.388-.657-3.614-1.464-7.061-2.406-10.025l-.546-1.398c5.348-.927 10.68-2.171 16.163-3.582zM80.982 203.71l-1.899.104c.435-.817 1.187-1.652 1.622-2.469 2.476-4.42 4.754-9.623 7.696-14.228 8.394-.3 16.621-.751 24.817-1.834l-2.555 2.838c-3.275 4.305-6.201 9.226-8.962 14.297-6.946.697-13.907 1.078-20.719 1.292zm15.068-25.422c1.068-.852 2.302-1.555 3.386-2.09 7.144.085 14.454.32 21.598.405 2.215-.121 4.612.224 6.843.419-1.084.535-2.001 1.22-2.935 1.589-3.718 1.79-6.685 2.746-9.137 4.467-8.829 1.118-17.523 1.753-26.233 2.071 1.772-2.636 3.876-4.973 6.478-6.861zm-10.815-3.693c-7.594.415-15.205.515-22.816.614 2.223-3.137 4.462-5.958 7.531-8.03 6.44-4.478 14.137-6.01 20.378-11.272.3-.333.918-.685 1.218-1.018 8.893.148 17.769-.021 26.495-.022-5.854 3.494-10.679 8.519-17.198 11.415-6.052 2.712-9.952 4.036-14.026 8.226-.466.184-.949.052-1.582.087zm47.645-40.218c4.138 3.423 8.26 6.53 12.533 9.47-1.401.553-2.635 1.255-4.035 1.808-10.324-.228-20.664-.773-30.87-1.802a50.94 50.94 0 015.135-2.027c5.917-2.228 11.502-4.755 17.237-7.449zm-25.773 11.249c9.739 1.213 19.596 1.626 29.287 1.889-4.2 1.658-8.417 3-12.618 4.658-.316.017-.617.351-.933.368a824.435 824.435 0 01-27.943-.375c3.671-2.74 7.373-4.847 11.408-6.655.482.133.482.133.799.115zm6.703 22.962c7.309-6.113 13.195-8.975 21.913-12.308 1.867-.737 3.583-1.307 5.284-2.194l4.747-.26c1.266-.069 1.186-1.651.221-1.916 2.168-1.071 4.185-1.975 6.353-3.045 3.956 2.957 7.595 5.932 11.1 9.39l.498.449c-6.352 3.045-12.902 5.308-19.452 7.571-5.301 1.877-9.09 5.417-13.377 8.508-4.779-.373-9.842-.096-14.605-.153-4.446-.074-8.892-.148-13.504-.372 3.734-1.474 7.468-2.948 10.822-5.67zm5.993-38.733c-8.26-.182-16.385-.849-24.66-1.348l-3.346-.293c.467-.184 1.084-.535 1.55-.72 7.437-3.58 14.343-8.243 20.75-13.355.894 2.014 1.955 4.178 3.632 5.991 2.358 2.727 5.032 5.437 7.857 7.981-1.551.719-2.951 1.272-4.351 1.825-.483-.133-.799-.115-1.432-.081zm-46.035 2.678c4.715-.893 8.963-1.601 13.195-2.626 1.598.23 3.196.46 4.462.39 8.14.983 16.416 1.482 24.359 1.683l.316-.018c-4.667 1.843-9.35 3.369-14.184 5.061-3.433 1.14-6.202 2.879-9.121 4.784-9.905-1.362-19.794-2.408-29.699-3.77 3.354-2.723 6.123-4.461 10.672-5.504zm-1.422 22.295c-6.519 2.896-11.02 4.888-15.916 11.663-2.239 2.82-4.145 5.94-6.051 9.059-2.698-.011-5.38.295-8.094-.033-2.697-.011-5.11-.673-7.54-1.65 2.825-3.805 5.649-7.61 8.338-10.931 2.089-2.653 4.01-5.456 5.949-7.943 7.76-.266 15.537-.215 23.314-.165zm-38.787 20.69c1.93.53 3.877 1.375 5.791 1.588 3.197.46 6.361.287 9.842.096-1.756 2.953-3.512 5.905-4.951 8.841l-4.43.242c-4.747.26-9.478.836-14.21 1.412 2.326-4.253 4.984-8.207 7.958-12.179zm27.674 1.343c8.093.033 16.004-.4 24.081-.684l-1.051 1.169a68.374 68.374 0 00-5.316 7.908c-3.647.041-7.294.082-11.091.29-3.814-.109-7.611.099-11.575.157 1.606-2.786 3.196-5.888 4.952-8.84zm-9.152 16.846c1.171-1.968 2.025-3.92 3.346-6.055 3.964-.058 7.61-.099 11.574-.157 3.647-.041 7.294-.082 10.775-.272-3.227 5.254-6.122 10.808-8.716 16.029-.3.334-.285.65-.435.817-3.165.173-6.345.03-9.51.203-3.647.041-7.294.082-10.957-.194-.166-.149-.632.035-1.115-.097.292-3.666 2.713-6.021 5.038-10.274zm10.082 30.235c2.848-.156 5.53-.461 8.212-.767 1.227 2.314 2.287 4.477 2.912 7.458.198.783.412 1.882.61 2.665-.483-.132-.95.052-1.432-.081-6.029.013-11.89.175-17.753.337-.46-2.831-.918-5.663-1.694-8.477 2.983-.639 5.98-.962 9.145-1.135zm23.104 30.475l-.016-.317c6.598-1.313 13.014-3.092 19.596-4.722.609 2.664 1.053 5.179 2.129 7.66-6.282 1.295-12.579 2.275-18.86 3.571-1.21-1.997-2.105-4.011-2.849-6.192zm-.578-2.032c-.625-2.981-.3-6.013-.776-9.161-.443-2.515-.752-5.514-1.211-8.345 6.345-.03 12.54.107 18.702-.389.641 3.298 1.599 6.578 2.24 9.876l.641 3.297c-6.582 1.63-13.013 3.093-19.596 4.722zm22.046-25.486c-1.107-3.114-2.935-4.759-3.11-8.241-.388-4.581 1.582-6.434 3.773-10.204l2.61-4.904c5.063-.277 10.277-.721 15.34-.998-2.452 8.069-2.292 17.582-3.146 25.881-1.883.42-3.916 1.007-5.949 1.595-2.65.938-5.482 1.411-8.164 1.716-.396-1.565-.792-3.131-1.354-4.845zm129.052 188.133c.585-.985-1.045-1.848-1.63-.863l-1.756 2.952c-1.298-.564-2.595-1.127-4.209-1.674-3.861-1.058-7.706-1.8-11.551-2.542 2.777-4.754 5.553-9.508 7.997-14.561 2.88.477 5.728.321 8.489 1.598 4.525 1.657 6.266 4.736 9.439 7.895 4.185 4.373 8.829 5.229 14.589 6.184 2.08.362 4.161.724 6.408 1.236-2.246 5.836-4.659 11.523-7.387 17.226-.317.018-.8-.115-1.116-.098-8.821-1.897-13.664-9.884-21.18-14.234.586-.984 1.321-2.135 1.907-3.119zm-52.619-14.736c3.409-4.789 6.668-9.411 9.761-14.182 4.24 2.307 9.082 3.946 13.323 6.253.482.133.815.432 1.297.564-2.294 4.887-5.869 9.526-9.626 13.699-4.557-2.29-9.55-3.762-14.423-6.035l-.332-.299zm-10.837-61.139c4.003 3.907 7.69 7.831 12.263 10.437 1.108 3.113 2.121 4.328 4.582 5.938-2.057 3.287-4.596 6.441-7.135 9.595-2.991-2.693-6.583-4.718-10.175-6.743-.166-.15-.182-.466-.348-.616l-2.658-2.393 6.011-6.677a.785.785 0 00-1.163-1.047l-6.012 6.676c-1.661-1.496-3.172-3.158-4.233-5.322-1.242-2.63-2.366-6.06-3.307-9.023-.546-1.399-.594-2.348-1.805-4.345l5.11-5.676c2.738 3.977 5.381 6.054 8.87 9.196zm-17.357 8.249c2.169 5.277 5.009 8.137 8.949 10.778l-12.324 13.687c-2.16-1.944-4.004-3.907-5.412-6.686-1.424-3.096-2.73-6.992-3.688-10.272-.166-.15-.514-.765-.514-.765l10.821-12.019c1.061 2.164 1.456 3.729 2.168 5.277zm10.595 11.957l3.441 2.193c.333.299.966.264 1.282.247 2.841 2.86 7.16 6.749 7.991 7.497l.332.299c-1.052 1.169-1.938 2.487-2.99 3.655-2.839 3.488-5.513 7.126-8.036 10.597-3.64-2.975-7.564-5.299-11.638-7.457-.167-.149-.182-.466-.349-.616l-2.492-2.244c4.042-4.823 8.251-9.497 12.459-14.171zm13.324 12.602l.751-.835c3.054 3.959 4.724 8.787 8.696 12.061.997.898 1.978 1.479 3.125 2.21-3.093 4.771-6.502 9.56-9.761 14.182-4.755-3.073-5.728-6.67-9.598-11.06-1.012-1.214-2.175-2.261-3.338-3.309a207.83 207.83 0 0110.125-13.249zm30.12 21.68c4.391 2.14 9.233 3.779 14.193 4.619-2.61 4.903-5.22 9.807-8.163 14.411-5.293-1.138-10.435-2.444-15.657-5.332 3.592-4.322 7.333-8.812 9.627-13.698zm47.761 12.779c-9.304-2.03-13.442-11.801-22.928-14.297-7.722-2.117-14.881-2.518-22.184-5.769.135-.483.103-1.116.238-1.6.102-1.116-1.496-1.346-1.599-.23-.134.484-.118.8-.253 1.284-.482-.132-.981-.581-1.463-.713-4.075-2.158-8.735-3.331-12.809-5.489-5.689-2.704-6.496-6.151-10.048-10.558-.681-.915-1.512-1.663-2.342-2.411 2.539-3.155 4.912-6.458 7.285-9.762.981.581 1.962 1.162 3.426 1.875 6.186 3.153 11.915 9.822 17.382 14.443 3.473 2.825 7.081 5.166 11.591 6.507 6.44 1.869 12.207-.192 18.393 2.96 3.426 1.876 6.433 4.885 10.143 6.111 5.008 1.789 13.845 4.003 19.09 4.192 6.678.269 12.864-2.926 18.749-5.787 1.219 5.329 2.937 11.107 5.239 15.9-11.637 5.239-24.927 5.967-37.91 3.344zm-94.065-81.976c.246 1.732.475 3.148 1.005 4.23l-.3.334-4.81 5.341c-.91-2.33-2.286-4.477-3.663-6.623l7.364-8.179c.08 1.582.325 3.315.404 4.897zm-13.179 9.291c1.543 2.296 2.453 4.627 3.363 6.957l-10.821 12.019c-.942-2.964-2.184-5.594-3.577-8.057 3.623-3.689 7.246-7.379 10.703-11.218l.332.299zm-15.523-12.163c-2.571 2.521-5.142 5.042-7.879 7.413-.68-.915-1.677-1.812-2.357-2.727 3.472-3.523 6.779-7.195 9.27-11.299a312.439 312.439 0 003.371 3.942l-2.405 2.671zm-15.686 13.078c.332.299.498.448.68.914-2.421 2.355-4.991 4.876-7.246 7.38l-2.705 3.004c-.515-.765-1.345-1.513-1.86-2.278l2.856-3.172c2.088-2.653 4.509-5.008 6.93-7.362.348.616.846 1.065 1.345 1.514zm-5.568 15.539c-.847-1.065-1.844-1.962-2.69-3.027 2.404-2.67 4.659-5.174 7.23-7.695.901-1.002 1.969-1.854 2.871-2.855 3.355 3.625 6.844 6.766 9.748 10.892.514.766 1.028 1.531 1.392 2.463-2.871 2.855-5.742 5.71-8.93 8.582-.752.835-1.67 1.52-2.421 2.355-1.939-3.862-4.162-7.073-7.2-10.715zm19.097 1.177c1.259 2.946 2.2 5.91 3.308 9.023l-10.821 12.018-.546-1.398a87.247 87.247 0 00-3.11-8.241c3.773-3.856 7.396-7.546 11.169-11.402zm3.372 10.289c1.511 1.663.862 1.381.894 2.014 2.548 6.526 6.203 9.817 10.958 12.89l-12.775 14.188c-2.658-2.394-5.333-5.104-7.089-8.499-1.243-2.63-.855-4.397-3.276-8.39 3.923-4.024 7.53-8.03 11.288-12.203zm13.83 16.382l3.442 2.192c.498.449 1.131.414 1.448.397 3.338 3.309 8.489 7.946 9.32 8.694l.166.15c-1.487 1.986-2.974 3.972-4.295 6.107-2.073 2.97-4.461 5.957-6.7 8.777-4.138-3.423-8.877-6.179-13.45-8.785-.166-.15-.182-.466-.514-.766l-2.493-2.244 13.076-14.522zm13.332 15.934c.736-1.151 1.638-2.153 2.223-3.137 3.568 4.724 5.768 10.634 10.405 14.506.498.449 1.147.731 1.479 1.03-1.788 2.32-3.726 4.806-5.513 7.126-1.638 2.153-3.441 4.156-5.395 6.326-3.157-2.843-4.763-6.405-8.134-10.347-1.345-1.513-2.524-2.877-4.019-4.223 3.306-3.672 6.13-7.477 8.954-11.281zm41.601 38.666c2.357-3.62 4.881-7.091 7.238-10.711 1.764.38 3.378.926 4.976 1.156 3.845.742 7.643.534 11.369 2.076l.166.149a2146.987 2146.987 0 00-8.63 14.597c-5.941-1.421-11.701-2.375-17.326-3.813l2.207-3.454zm50.253 8.676l1.448.397c4.644.857 10.253 1.978 15.831 2.467-2.88 5.87-5.925 11.591-8.804 17.462-3.03-.311-6.076-.937-9.122-1.564-2.563-.495-4.841-1.639-7.12-2.784 2.428-5.37 5.023-10.59 7.767-15.978zm52.16 11.905c3.813-6.239 7.625-12.478 11.272-18.867 2.175-4.087 4.35-8.173 6.675-12.426.151-.167.151-.167.467-.185 5.118-2.343 10.253-4.369 15.553-6.246-3.733 7.821-7.783 15.66-11.516 23.482-.285.65-.72 1.468-1.005 2.118-3.101 1.439-5.87 3.178-8.773 5.4a65.793 65.793 0 01-13.693 8.525c.284-.65.569-1.301 1.02-1.801zm24.397-13.396c.72-1.468 1.423-3.252 2.143-4.72 3.298-7.004 6.763-13.859 9.911-20.696.933-.369 2.017-.904 2.951-1.273 5.284-2.193 12.633-4.341 16.541-8.681.902-1.002.522-2.25-.309-2.998 2.318-1.238 4.952-2.493 7.27-3.731-1.724 3.586-3.448 7.171-5.655 10.625-3.829 5.922-8.654 10.947-13.131 16.588-2.69 3.321-5.047 6.941-7.238 10.711-4.382 1.192-8.599 2.534-12.483 4.175zM18.39 214.753c.513-5.583.062-11.43 2.174-16.782.972-2.751 2.428-5.37 3.717-8.138 4.58-.41 9.145-1.136 13.726-1.545l5.063-.277c-1.456 2.619-2.895 5.554-4.2 8.006-1.305 2.452-2.128 5.036-2.634 7.603l-.45.5c-.301.334-.27.967.213 1.1-.04 2.382.254 5.064 1.33 7.544 1.622 3.879 3.861 7.406 5.317 11.135-6.297.98-12.594 1.959-18.907 2.622 2.468-1.405 5.268-2.51 6.4-2.096.332.299.617-.351.45-.501l-1.479-1.03c-.166-.149-.482-.132-.633.035-3.235 1.923-6.352 3.046-9.936 4.353-1.1.218-.854 1.951.412 1.881 8.077-.283 16.423-1.533 24.453-2.766.016.316.182.466.198.783.427 2.198 1.005 4.229 1.599 6.577-1.266.07-2.382-.028-3.647.041-7.911.433-16.503-.049-24.003 2.266-.213-1.099-.261-2.049-.475-3.148-.617-5.997.83-11.948 1.312-18.163zm-.575 23.36c2.531-.139 4.912-.111 6.93-1.014 6.78-.848 13.741-1.229 20.703-1.61.428 2.199 1.005 4.23 1.433 6.429 1.234 5.645 2.287 10.824 3.973 15.969l-5.198.761c-3.781.524-7.428.565-11.21 1.089-2.049.271-3.932.691-5.814 1.112-.333-.299-.349-.616-.68-.915 2.333-.921 5.18-1.077 6.795-.531.482.133.601-.667.285-.65-1.947-.846-5.111-.673-7.927.116-3.965-6.289-7.779-12.746-9.29-20.756zm31.951 61.412c-3.276-8.39-6.053-16.332-10.564-24.02 2.848-.156 5.83-.795 8.347-1.25 2.982-.639 6.764-1.164 9.382-2.735 1.59 3.245 3.03 6.658 4.305 9.921-3.45.823-7.049 1.814-10.466 3.27-.934.369-.87 1.635.095 1.899 2.579.811 4.96.84 7.943.2.466-.184.435-.817-.198-.782-1.733.253-3.165.173-4.779-.373 2.65-.939 5.15-1.711 7.967-2.499.91 2.33 1.503 4.678 2.113 7.343 2.848-.156 5.862-.163 8.71-.318-1.108-3.114-2.216-6.227-3.474-9.173 2.35-.605 4.683-1.526 7.033-2.131 3.75-1.157 7.5-2.315 11.099-3.305a62.197 62.197 0 013.814 12.804c.182.466.198.783.23 1.416l1.266-.069c-3.987 2.757-9.351 3.368-14.05 4.577l-2.8 1.106c-3.814-.109-7.46-.068-11.274-.177.016.317.182.466.198.783-4.248.708-9.683 3.069-14.897 3.513zm84.911.59c-.981-.581-2.112-.995-3.243-1.409-.681-.915-1.045-1.848-1.575-2.93-2.864-.16-5.894-.47-8.758-.631.182.466.53 1.082.712 1.548-5.11-.673-10.387-1.495-15.498-2.167-2.547-.178-5.079-.04-7.777-.051-5.229.128-10.775.273-16.004.4 4.865-1.06 9.746-1.803 13.536-5.343l.3-.334c1.266-.069 2.698.011 3.964-.058-2.002-5.127-3.688-10.272-5.69-15.399 2.666-.622 5.182-1.077 8.014-1.55 1.416-.236 1.155-2.285-.095-1.899-2.832.472-5.815 1.112-8.647 1.584-.894-2.014-1.788-4.028-2.833-5.875-.696-1.232-1.226-2.314-1.923-3.545 6.282-1.296 12.413-2.425 18.544-3.554.53 1.082.91 2.331 1.59 3.246 3.68 6.94 6.196 12.832 8.009 20.509.427 2.198 1.005 4.23 1.733 6.094 2.698.011 5.245.189 7.792.367-3.742-8.206-5.951-17.448-10.16-25.47-1.211-1.996-2.105-4.01-3.316-6.007l3.299-.657c1.25-.386.688-2.101-.562-1.715-1.099.219-2.199.438-3.449.824-.348-.616-.546-1.399-.894-2.014-.578-2.032-.839-4.081-.934-5.98 3.299-.656 6.582-1.629 9.881-2.286 1.099-.219.537-1.934-.562-1.715-3.299.657-6.282 1.296-9.414 2.102-.032-.633-.064-1.266-.246-1.732-.475-3.148-.981-6.929-1.638-10.543 2.215-.121 4.414-.559 6.447-1.146 2.5-.772 4.683-1.526 7.033-2.131-.53 5.266-.15 6.515 2.636 11.441 4.708 8.47 7.565 17.994 12.589 26.448 1.029 1.53 2.208 2.894 3.22 4.108 4.233 5.323 2.635 5.093 5.057 9.087 3.964 6.289 9.945 11.675 13.142 18.483 2.5 5.576 2.968 11.739 3.586 17.736-.167-.15-.633.035-.784.201a54332.74 54332.74 0 01-7.364 8.18c-.348-.616-.847-1.065-1.345-1.514-3.039-3.642-6.393-7.267-9.582-10.743 1.804-2.003 3.607-4.006 5.909-5.56 2.903-2.222 5.688-3.644 8.093-6.315.601-.667-.396-1.565-.997-.897-2.99 3.655-7.341 5.48-10.83 8.686-.901 1.001-1.969 1.853-3.021 3.022l-.665-.599-.665-.598c.317-.018.799.115 1.432.08 3.497.126 3.259-4.622.514-5.582-3.228-1.093-5.799-4.92-8.561-6.197zm-47.912 60.228c2.603-1.888 5.372-3.626 7.658-5.497 1.685-1.203 3.204-2.556 4.889-3.759.997.898 1.843 1.962 2.84 2.86-3.006 3.338-6.012 6.677-9.184 9.866-.45.5-1.052 1.168-1.669 1.519-.498-.449-.847-1.064-1.345-1.513-1.163-1.047-2.176-2.261-3.189-3.476zm18.112 22.655c-.499-.449-1.013-1.214-1.361-1.83 3.156-3.505 6.478-6.861 9.484-10.199 1.274 3.262 2.248 6.859 3.522 10.122l-6.463 7.178c-1.828-1.646-3.655-3.292-5.182-5.271zm6.661 6.3l5.862-6.509c3.031 6.658 6.686 9.949 12.256 13.453l-4.81 5.341c-1.693-2.129-3.703-4.241-6.029-6.335-2.476-1.928-4.952-3.855-7.279-5.95zm14.669 14.115l5.261-5.842c1.147.731 2.294 1.461 3.607 2.342.649.281 1.132.414 1.765.379 3.837 3.758 9.818 9.143 10.815 10.041-3.591 4.322-7.016 8.795-10.457 12.95-.182-.466-.53-1.081-.712-1.548-3.031-6.658-6.196-12.832-10.279-18.322zm11.719 21.735c2.072-2.97 4.295-6.107 6.534-8.927 1.352-1.503 2.539-3.154 3.892-4.657 4.051 4.857 6.266 11.083 10.784 15.756-3.306 3.672-6.463 7.177-9.437 11.149-4.47-3.723-8.655-8.096-11.773-13.321zm12.738 13.585a154.277 154.277 0 0010.118-10.234l.332.299c3.972 3.274 8.845 5.547 13.869 7.652-.601.668-1.036 1.485-1.637 2.153-2.223 3.137-4.944 5.825-7.499 8.663-5.522-2.555-10.578-5.293-15.183-8.533zm45.421 23.065c-2.793-1.911-6.052-3.636-9.146-5.213 1.353-1.502 2.69-3.321 3.876-4.973l4.461-5.957c4.36 1.507 8.869 2.847 13.197 3.721 1.598.23 3.196.46 4.628.54-.285.651-.736 1.152-1.171 1.969-2.927 4.921-6.003 10.009-8.93 14.93-1.994-1.795-4.454-3.406-6.915-5.017zm8.561 6.196c3.077-5.088 6.153-10.175 9.064-15.413.435-.817.87-1.635 1.456-2.619 2.08.362 4.311.558 6.258 1.403 5.822 2.221 8.41 6.364 12.746 10.57a17.406 17.406 0 004.786 3.706c-1.89 3.436-3.781 6.872-5.505 10.457-1.74 3.27-3.781 6.873-5.355 10.291-.498-.449-1.147-.73-1.479-1.03-7.564-5.299-14.542-11.582-21.971-17.365zm25.444 20.191l10.844-21.066c3.908 2.008 8.07 2.733 12.88 3.739 1.116.098 2.247.512 3.362.609-4.2 8.006-9.634 16.715-9.807 25.928-6.408-1.236-11.844-5.223-17.279-9.21zm20.942 9.486c-.316.017-.799-.115-1.266.069.957-9.415 5.157-17.421 9.491-25.91 7.373 1.5 15.831 2.466 23.56 1.567-3.916 7.355-8.796 14.446-10.449 22.63-7.246 1.032-14.509 1.747-21.336 1.644zm150.291-59.325c-23.898 13.845-48.596 27.575-73.705 39.423-16.122 7.548-34.657 14.434-53.367 17.838l.151-.167c.15-.167-.016-.317-.032-.633 2.784-7.77 6.881-14.659 10.796-22.015 3.299-.656 6.416-1.779 9.185-3.518.633-.034 1.1-.218 1.732-.253-2.412 5.686-4.658 11.522-8.534 16.495-.752.835.862 1.381.862 1.381 4.509-5.007 6.02-9.692 7.981-14.878.419-1.134 1.005-2.118 1.574-3.419 4.699-1.209 10.102-4.202 13.504-5.976 3.718-1.79 6.922-4.346 10.126-6.901-.957 3.067-1.598 6.117-.49 9.231.182.466.997.897 1.448.397 3.204-2.556 5.426-5.693 5.537-9.825-.016-.317-.499-.449-.633.034-.308 3.35-1.764 5.969-4.532 7.707-.341-3.631.766-6.866 2.19-10.118 2.753-2.055 5.506-4.109 8.773-5.399 1.084-.536 2.167-1.071 3.267-1.29l-4.865 7.408c-.3.333.198.782.499.448 2.721-2.688 4.944-5.824 7.167-8.961 6.217-2.562 12.285-4.957 18.353-7.352 2.8-1.106 5.917-2.229 8.868-3.501-1.202 1.335-2.239 2.82-3.425 4.472-2.674 3.638-5.165 7.742-8.322 11.247-3.607 4.006-8.227 6.798-11.668 10.954-.3.333.198.782.499.448 4.105-3.557 8.725-6.349 12.499-10.205 3.623-3.69 6.399-8.444 9.523-12.582 1.487-1.986 2.975-3.972 4.628-5.808 2.468-1.405 4.77-2.959 6.423-4.795.902-1.001.688-2.101.008-3.015.3-.334.751-.835.886-1.319 12.056-6.372 25.307-11.065 35.606-20.833 8.63-8.248 18.487-14.183 25.954-23.479 7.618-9.462 4.768-22.002 12.718-31.165 3.742-4.49 9.192-6.534 13.282-10.408 2.737-2.371 5.292-5.209 7.697-7.88 2.888 3.81 6.092 7.602 8.347 11.446l3.632 5.99c-9.136 10.815-18.439 21.481-25.731 34.258-13.7 24.237-34.046 42.489-58.411 56.518z" fill="#DCDAD1" fill-opacity=".39"/></svg>