<svg viewBox="0 0 426 757" xmlns="http://www.w3.org/2000/svg"><path d="M85.078 683.876c-2.095 5.489-5.04 10.537-7.734 15.931-.363 4.232-.774 8.762-1.138 12.993-32.748-.285-65.07-3.259-96.84-11.661-32.62-8.843-67.76-9.507-98.834-24.232-3.147-1.417-6.246-3.134-9.345-4.85-5.698 3.08-15.044-1.77-13.515-9.493 1.577-8.022 5.531-17.506 7.375-23.341 3.057-9.625 6.413-19.204 9.517-29.128 4.555-15.209 13.499-29.111 22.097-42.76-12.953 4.382-25.75 9.707-38.137 16.323-11.349 5.862-22.668 15.404-37.791 16.073l-3.81 2.766c-15.044-38.533-21.824-82.803-39.088-118.93-4.104-8.922-5.155-15.828-6.426-25.22-1.475-10.037-4.587-19.415-5.464-29.357-1.66-20.482-7.443-40.086-7.812-60.977-.327-9.549-3.187-18.58-3.215-28.081-.074-9.203 2.888-18.231 4.308-27.197 1.216-9.61.386-19.852 1.948-29.714 1.373-8.667 5.389-16.609 8.209-24.74 1.119-3.193 4.943-4.119 8.137-3l.521-3.288c1.659-16.281 4.529-30.531 9.729-45.945 10.588-32.022 26.307-63.538 48.491-89.435 9.761-11.321 20.515-23.097 33.139-31.207 13.317-8.614 33.414-9.72 48.868-12.48 19.28-3.686 37.455-2.34 56.685.093 8.718 1.075 17.592 3.093 26.5 2.972 9.552-.325 19.042-2.192 28.343-2.863 17.956-1.139 34.011-9.625 51.15-13.344 18.776-4.379 38.686-10.11 57.821-7.079 33.139 5.555 66.429 29.516 93.457 48.502 11.862 8.312 23.864 21.548 32.814 32.769 11.466 14.683 24.459 27.463 37.704 40.59 6.623 6.563 12.851 13.677 18.734 21.042-1.385 1.006-2.818 2.311-4.203 3.317l-7.131 4.385c-6.943 9.01-17.002 14.464-26.053 21.302-1.48 1.603-2.661 3.254-3.842 4.906-1.779 1.556-3.511 2.813-5.289 4.37-.252-.346-.85-.441-1.102-.787-5.242 4.071-10.531 8.442-15.474 12.56.251.347.503.693 1.054 1.086-3.511 2.814-7.021 5.628-10.831 8.395-.299-.048-.252-.346-.551-.394-2.518 2.358-4.738 4.764-6.958 7.17-6.408 7.563-14.326 13.049-22.087 19.478-6.675 5.377-12.296 11.839-19.018 17.514-2.818 2.311-28.729 22.716-31.828 20.999 2.8 1.669 13.361-3.091 16.887-4.065 8.294-2.056 15.046-4.05 22.932-7.397 15.425-6.441 33.68-7.532 49.922-11.393 8.294-2.057 16.414-1.077 24.614-2.535 8.199-1.459 16.336-4.459 24.835-5.87 10.387-1.725 22.506-4.707 33.947-5.346 1.936-.613 4.218-1.477 6.154-2.089l11.473-2.778 1.555 7.599c3.555 2.707 4.592 7.773 2.733 11.768.613 1.935.88 4.122 1.493 6.057 4.918 17.322 8.641 34.455 8.838 52.562.04 17.162-5.27 31.333-8.817 47.927-4.51 20.73-2.362 40.065-.403 60.595 1.331 16.754.411 32.232-6.031 47.755-3.12 8.084-7.639 15.334-11.01 23.071-4.348 10.034-6.052 20.793-8.952 31.363-4.302 15.555-12.963 27.663-19.515 41.943-7.828 16.529-19.982 27.472-33.819 39.372-24.811 21.192-50.204 44.13-81.823 54.133-17.423 5.512-35.915 8.098-54.816 9.393-2.095 5.489-8.785 9.025-14.102 3.894-4.514-4.391-9.251-5.448-11.64-11.647-3.003-8.135-1.535-17.399-4.191-25.785-3.773-11.014-7.749-22.673-12.812-33.278-.708-1.338-1.368-2.974-2.076-4.311-2.441 5.74-5.78 11.338-6.614 12.738-6.095 9.451-7.956 19.266-11.847 30.291zm-217.579-569.055c-27.737 22.26-45.88 55.537-58.703 88.124-6.239 16.168-11.581 32.478-14.578 49.466-1.088 6.874-3.577 12.913-5.862 19.597-3.545 10.774-4.998 21.879-7.048 32.89-.095.597-.237 1.494-.63 2.044-.145 6.717-.887 13.34-1.629 19.962-1.311 10.208.04 17.162 2.459 27.043 2.796 13.309 1.767 27.545 4.216 41.107 3.329 17.683 4.518 35.333 8.539 52.514 1.493 6.057 1.097 12.428 2.589 18.485 1.901 7.347 7.281 14.02 10.173 20.912 5.534 13.437 9.635 28.179 12.887 42.48 3.047 13.656 8.927 26.841 12.226 40.844.975 3.524 1.949 7.048 3.222 10.62 1.086-1.054 2.471-2.06 3.558-3.113 6.328-5.125 12.956-10.202 20.338-14.241 2.03-1.21 4.36-2.373 6.39-3.583-.455-.992-.959-1.684-1.415-2.675 14.416-2.006 29.385-9.439 42.229-15.063.157.944.314 1.887.77 2.879.896.142 1.84-.015 3.037.174 5.603-2.482 10.907-5.012 16.464-7.195-.456-.992-.865-2.282-1.274-3.572 1.936-.612 3.872-1.225 5.51-1.885 1.636-.66 3.225-1.02 4.862-1.68.456.991 1.211 2.03 1.667 3.021 10.42-3.864 20.588-8.075 30.755-12.285-.251-.346-.802-.74-1.054-1.086 2.283-.864 4.517-1.429 6.8-2.293.598.095.85.441 1.447.536 4.565-1.728 9.13-3.456 13.945-4.838 3.825-.926 8.75-1.065 11.915-3.627 1.778-1.557 4.626-.187 4.893 2 .61 7.756-4.647 9.987-11.147 12.327-1.29.408-2.581.817-3.92 1.524.85.441 2 .929 2.896 1.071 12.43 4.726 26.435 7.251 39.638 9.035 23.367 3.395 49.992 9.45 73.223 2.101 11.615-3.675 29.085-9.486 36.926-18.354 8.974-10.22 16.501-20.976 26.278-30.457 10.469-9.983 22.321-15.152 25.836-29.607.631-2.044.71-4.483 1.089-6.874 1.308-4.388 4.41-8.492 4.821-13.022.521-3.288-.516-8.353.052-11.94l.331-2.092c-.849-.441-1.998-.929-2.847-1.37-1.149-.488-.22-2.485.929-1.997.849.441 1.699.882 2.596 1.024 2.648-10.916 6.807-19.755 3.869-32.168-2.482-11.422.543-18.908 1.744-30.359.916-9.659.149-18.358 2.907-28.031.236-1.494 1.906-4.294 1.37-2.847l.237-1.494c-6.406 1.743-13.158 3.737-20.114 5.086l-.095.598c-2.444 11.56-1.173 20.952-.58 32.688.969 15.165-3.034 30.768-5.401 45.711-2.367 14.943-6.119 30.892-12.828 44.228-2.599 4.797-5.748 9.2-9.951 12.517-7.761 6.429-11.698 11.933-17.351 20.535-4.031 6.101-10.91 10.832-15.492 16.54-4.487 5.11-7.085 9.907-13.885 12.2-11.017 3.769-25.179.301-36.132-.209-14.288-.731-27.665.52-41.386-3.797-14.87-4.806-29.487-9.266-43.584-17.013-10.998-6.031-14.314-16.053-17.394-27.57-4.368-16.929-9.68-33.701-12.16-50.943-.046.299-.393.55-.44.849-.835 1.4-3.43.376-2.596-1.024.834-1.399 1.622-2.5 2.456-3.9-1.617-9.14-3.974-17.479-6.535-26.462-.048.298-.394.55-.441.849-3.575 7.092-6.804 13.934-10.38 21.026-2.693 5.394-5.827 11.638-11.525 14.718l-.3-.047c.315 1.888.928 3.823 1.84 5.805 2.64 6.546 6.966 12.133 8.962 18.882 3.269 10.322.825 21.882 2.205 32.517l-9.963 4.856c-4.889-13.642-2.475-28.884-8.26-42.667-3.144-7.238-4.747-14.538-6.301-22.137-2.457 3.9-4.913 7.8-7.323 11.401-.834 1.4-2.738-.127-1.903-1.527l8.55-13.351c-1.24-5.71-2.481-11.421-4.32-17.227-.613-1.935-1.525-3.918-2.437-5.9-5.087 10.835-10.773 21.576-18.11 31.137.974 3.524 1.9 7.347 2.828 11.17 2.167 9.534 2.148 19.335 5.26 28.712 2.451 7.741 7.878 14.115 11.321 21.4l3.491 6.986c-2.975 1.367-6.249 2.687-9.224 4.054-3.395-7.584-5.847-15.325-9.936-22.406-3.837-6.735-6.697-15.766-8.551-23.412-2.624-10.526-4.948-21.004-7.871-31.576-2.766-9.629-5.076-18.267-5.654-28.162-.329-3.728-1.004-7.205-1.931-11.028-.393.55-.488 1.148-.834 1.4-5.387 10.788-11.072 21.529-17.309 31.877.252.346.157.944.409 1.29 3.568 10.368 6.742 21.287 9.02 32.064 2.78 11.469 2.477 23.063 6.202 34.375 2.907 8.733 8.79 16.098 13.035 24.123-1.29.408-2.234.565-3.525.973-1.936.613-1.119 3.193.723 3.178 1.542-.062 2.832-.47 4.375-.532.912 1.982 2.122 4.012 3.034 5.995 6.832-4.433 14.371-7.527 21.958-10.921-.252-.346-.456-.991-.708-1.338l9.822-3.959c.251.347.503.693.456.992 5.902-2.435 12.009-4.225 17.66-7.007-.504-.692-.755-1.038-.96-1.683 2.975-1.367 5.604-2.483 8.578-3.85 0 0-.047.299.252.346l-.047.299.346-.251c2.472-2.06 5.491 2.095 3.02 4.154l-.693.503c3.476 5.146 9.281 9.129 13.796 13.521-2.581.816-5.21 1.932-7.791 2.748-2.753-1.968-5.459-4.234-7.866-6.454-1.557-1.778-3.413-3.604-5.27-5.43-5.698 3.081-11.505 4.918-17.864 6.362-.299-.048-.645.204-.944.157.252.346.504.692.708 1.337 3.177 5.099 3.914 10.117 4.903 15.482-3.32 1.618-6.296 2.985-9.617 4.604.047-.299-.157-.944-.11-1.243-.8-6.56-3.08-11.517-5.957-16.568-7.54 3.095-14.623 7.181-21.706 11.267 2.17 3.714 4.293 7.727 6.762 11.488.504.692.96 1.683 1.164 2.328-4.218 1.477-8.137 3.001-12.403 4.776-2.075-4.311-4.198-8.324-6.573-12.683-5.157-10.007-8.08-20.58-13.536-30.635-4.797-8.419-8.018-19.039-10.233-28.274-2.891-12.712-5.781-25.424-9.269-38.231-2.923-10.573-5.437-19.855-6.518-30.443-5.071 6.856-9.889 14.059-13.26 21.796.252.346.204.645.456.992 4.228 12.004 7.764 24.512 10.45 36.579 3.095 13.358 2.853 26.493 7.191 39.74 3.521 10.668 11.008 19.513 15.819 29.772 2.987 6.294 6.069 11.99 9.199 17.387-2.629 1.116-4.911 1.98-7.54 3.095-.991.456-1.432 1.305-.929 1.997-1.589.361-2.88.77-4.517 1.43-.66-1.637-1.667-3.022-2.327-4.658-5.818-11.644-9.149-23.507-15.565-35.246-5.551-9.457-9.386-22.012-11.71-32.49-3.504-14.647-6.708-29.247-10.809-43.989-3.693-13.452-6.772-24.969-7.884-39.237-1.159-13.97-6.944-27.753-6.907-41.534-.247-11.987 1.883-25.435 4.028-37.043 1.278-8.07 2.367-14.943.907-23.14-1.161-8.149-4.163-16.284-4.679-24.637-.907-13.623 3.993-29.084 6.721-42.438 1.861-9.815 5.91-19.897 11.767-27.853 6.991-9.309 11.386-19.642 17.229-29.439 2.504-4.199 5.685-10.741 10.03-14.955 7.402-13.839 16.977-29.785 32.858-35.235 4.863-1.68 10.292-1.127 15.674-.274 9.35-6.791 19-13.534 28.901-19.931-24.045-1.052-46.424.918-63.678 15.035zm301.703 430.732c12.178 4.38 25.239 7.061 37.906 10.293 2.424-1.761 4.801-3.222 7.225-4.983 6.281-4.826 11.209-10.785 15.587-17.138-2.392-.379-5.083-.805-7.427-1.483-1.495-.237-1.117-2.627.378-2.391 2.99.474 5.681.9 8.623 1.672 3.638-5.551 7.071-11.747 10.756-17.597-9.425-2.411-18.504-5.075-26.749-9.138-5.89 10.096-11.386 19.642-21.728 26.888-7.918 5.486-16.197 9.383-24.571 13.877zm62.376 88.001c-.095.597-.237 1.494-.63 2.044 6.627-5.077 12.955-10.202 19.284-15.327-6.169.249-12.087.843-18.208.793l-35.691-1.058c-.944.157-1.353-1.133-1.258-1.731-2.425 1.761-4.849 3.521-7.32 5.581-4.251 3.615-7.652 7.672-11.304 11.383 6.373.396 13.045.84 19.466.938 5.524-.044 11.047-.088 16.618-.431 3.384-.077 15.485.921 17.548-2.429.693-.503 1.59-.361 1.495.237zm37.891-28.311c-5.696-2.74-11.297-6.078-17.339-8.567-4.044-1.56-7.789-3.072-11.832-4.631-8.17 5.139-16.843 9.587-25.563 14.333l21.243 5.202c4.689 1.356 9.425 2.412 13.721 4.318 1.148.488 2.596 1.024 4.043 1.559 5.888-4.275 11.082-8.048 15.727-12.214zm-17.805 13.723c-2.297-.976-3.996-1.858-5.444-2.394-10.731-3.844-22.296-6.288-33.516-8.984-5.698 3.08-11.144 6.506-16.638 10.231 11 .211 22.299.469 33.252.978 6.72.145 13.392.589 20.159.436.991-.456 1.589-.361 2.187-.267zm-83.739 8.182c6.47-6.021 12.044-12.185 19.065-17.812 2.817-2.311 5.887-4.276 8.658-6.288-2.943-.772-5.838-1.844-9.032-2.962-1.149-.489-.267-2.187.882-1.699 3.493 1.166 6.687 2.285 10.18 3.451 7.918-5.486 16.339-10.279 24.509-15.419-9.677-2.758-19.701-5.265-29.724-7.771-7.729 4.29-15.158 8.628-21.928 14.602-6.029 5.172-10.155 11.871-17.537 15.91s-15.472 6.74-23.971 8.151c-5.366.988-10.34 1.426-15.313 1.864 5.175 6.028 9.075 14.304 11.778 22.391 1.889-.313 3.777-.627 5.367-.988 13.519-2.148 27.384-4.547 37.066-13.43zm56.985-42.442c4.455-2.971 8.91-5.942 13.065-8.96 2.425-1.76 4.597-3.867 6.77-5.974-8.277-1.923-16.113-4.696-23.996-7.17-7.918 5.486-16.591 9.933-24.965 14.427 9.772 2.161 19.449 4.919 29.126 7.677zm21.756-17.387c7.399-8.018 13.195-17.517 18.99-27.015-7.176-1.136-14.603-2.619-22.03-4.102-5.402 8.948-11.653 17.455-20.704 24.293 8.182 2.521 15.813 4.649 23.744 6.824zm29.935-45.807c-2.345-.678-4.988-1.403-7.38-1.782-4.438-1.009-9.221-1.767-13.958-2.823-1.228 1.95-2.11 3.648-3.338 5.598-2.457 3.9-4.614 7.847-7.071 11.747 7.128 1.435 14.555 2.918 21.731 4.055 2.11-3.649 4.268-7.596 6.677-11.197 1.181-1.651 2.409-3.601 3.339-5.598zm16.353-45.202c.284-1.793.317-3.933.302-5.773-5.429-.554-11.205-.856-16.634-1.409l-2.69-.426c-.521 3.287-1.341 6.527-2.208 10.066-1.26 4.09-2.521 8.179-4.081 12.221 7.176 1.136 14.052 2.226 21.275 3.063 1.844-5.835 3.436-12.016 4.036-17.742zm1.019-27.717c.473-2.989 1.246-5.93 2.018-8.871-5.98-.947-12.007-1.596-18.034-2.244-1.592 6.181-3.435 12.017-3.375 19.379.077 3.382-.097 6.418-.571 9.406 2.093.332 4.532.412 6.673.444 3.934.317 8.167.681 12.101.998.647-6.024.147-12.537 1.188-19.112zm6.637-28.359c.553-5.427 1.704-10.759 3.154-16.044-6.877-1.089-13.549-1.533-20.473-2.324-1.577 8.022-.715 16.124-1.993 24.193-.52 3.288-1.34 6.528-2.411 9.422 6.027.648 12.054 1.296 18.033 2.243 1.498-5.583 2.995-11.167 3.69-17.49zm12.848-54.029c.932-7.818.416-16.171-1.092-24.069-1.542.062-3.383.077-4.973.438-6.861.751-13.77 1.802-20.679 2.852.864 2.281 1.776 4.264 2.295 6.797 1.445 6.356 2.544 12.964 2.1 19.633 1.244-.109 2.738.127 3.982.018 5.822.003 11.346-.041 17.263-.636.882-1.698 1.166-3.491 1.104-5.033zm30.311-42.378c-8.466-.728-19.907-.09-26.375.111.376 3.43 1.146 6.309 3.159 9.079.755 1.038.519 2.533-.221 3.335.707 1.337 1.116 2.627 1.871 3.666 5.524-.044 11.346-.041 16.965-.683 2.187-.266 4.422-.831 6.657-1.396-.486-4.673-1.271-9.392-2.056-14.112zm-32.596 12.299c-.974-3.524-1.493-6.057-1.712-8.542-.456-.992-.613-1.936-.722-3.178-8.357.514-16.965.683-25.322 1.197-.553 5.427-.413 10.351 2.308 14.458.755 1.039.565 2.234-.175 3.036-.047.299.252.346.205.645l11.331-1.881c5.02-.737 9.694-1.222 14.573-1.062.284-1.793-.077-3.382-.486-4.673zm-88.64 23.643c-.317 3.933-1.435 7.126-2.601 10.617l.598.095c6.971.491 14.241 1.03 21.307.924.648-6.025.147-12.538-1.094-18.249-5.965.894-11.977 2.086-17.941 2.98-.19 1.195-.08 2.438-.269 3.633zm45.991 55.995c.506-5.128 1.61-10.161 2.965-14.848a407.62 407.62 0 01-26.751-3.318l-.284 1.793c-1.341 6.528-.588 13.387-1.677 20.261-.71 4.483-1.923 8.273-3.137 12.064 8.419 1.027 16.586 1.708 25.005 2.735 1.592-6.182 3.436-12.017 3.879-18.687zm3.643-17.191c2.521-8.179 5.341-16.31 6.966-24.631-9.207.074-18.712.1-27.87-.125-.237 1.494-.175 3.036-.71 4.483-1.246 5.929-3.64 11.371-5.484 17.206 9.316 1.169 18.034 2.244 27.098 3.067zm-30.709-24.777c-7.018-.193-14.336-.433-21.307-.924-.299-.048-.598-.095-.85-.441-.583 1.746-1.166 3.491-1.45 5.285-.757 4.781.028 9.501.561 13.875l17.64 2.793c2.033-7.03 4.318-13.715 5.406-20.588zm8.033-15.884c1.131 4.468 1.916 9.188 1.804 13.765 9.505-.026 18.711-.1 28.216-.126l.426-2.69c.79-6.921.179-14.677-1.124-21.929-6.311 1.145-12.622 2.29-18.885 3.136-4.375.532-8.451 1.112-12.827 1.645 1.211 2.03 1.824 3.965 2.39 6.199zm4.803-9.043c8.153-1.16 16.053-2.665 24.253-4.124-.205-.645-.362-1.589-.566-2.234-.77-2.879-1.335-5.113-1.303-7.253-1.069-2.926-1.493-6.057-1.617-9.14-9.553.325-19.451.902-29.004 1.227-1.136 7.173-3.012 15.147.716 20.639.503.693.361 1.589-.033 2.14 2.534-.518 5.021-.737 7.554-1.255zm39.521 25.254c-.897-.142-1.841.015-2.738-.128l-.426 2.69c-1.829 7.676-5.152 15.115-7.028 23.089a234.423 234.423 0 0120.472 2.324c2.711-9.374 5.972-18.355 8.085-27.824l-18.365-.151zm-27.148 119.162c-3.025 7.486-6.301 14.626-10.175 21.672 4.437 1.009 8.922 1.719 13.359 2.728 2.691.426 5.334 1.152 7.978 1.877 3.874-7.046 7.591-15.035 10.412-23.166-7.223-.838-14.399-1.974-21.574-3.111zm-50.284 9.805c8.245 4.063 17.623 6.773 26.749 9.138.787-1.101 1.276-2.249 2.063-3.35a119.813 119.813 0 008.867-17.283c-9.615-1.216-19.576-2.181-28.702-4.546-2.205 4.246-4.363 8.193-6.867 12.392-.787 1.101-1.622 2.501-2.11 3.649zm20.717-16.632l17.939 2.841c2.977-7.188 5.404-14.769 6.54-21.941-8.97-1.421-17.498-3.691-26.278-6.307-.095.598-.237 1.495-.631 2.045-2.379 7.282-5.057 14.517-8.334 21.657l10.764 1.705zm24.857-21.491l.048-.299c.979-8.116-.576-15.715 1.048-24.036.237-1.494.426-2.69.962-4.137-8.466-.728-16.586-1.708-25.005-2.735-.867 3.539-1.435 7.126-1.5 11.404.187 4.625-.523 9.108-1.532 13.544 8.481 2.569 17.356 4.587 25.979 6.259zm-34.024-34.799c1.387-6.827 3.829-12.567 4.32-19.536a58.639 58.639 0 013.169-14.203l-16.743-2.652c.062 1.542.124 3.084.139 4.924-.443 6.67-1.973 14.393-3.266 20.621-.772 2.942-1.45 5.285-2.175 7.928 4.689 1.355 9.473 2.113 14.556 2.918zM4.954 359.62c-2.486.219-5.165 7.454-7.118 12.046.252.346.204.645.409 1.29 1.492 6.058 3.63 11.911 5.516 17.417 4.63-6.006 9.762-11.321 14.39-17.327.347-.252.395-.551.788-1.101-1.98-4.909-4.512-10.212-4.652-15.136-.344-5.568 2.16-9.767 5.97-12.534l.095-.598c4.818-7.202 14.622-7.181 22.38-7.79 12.386-.796 22.41 1.711 34.608-3.709 7.24-3.143 14.891-10.815 23.357-10.087 11.755 1.249 22.449 18.873 25.718 29.195 4.181 12.303 1.074 28.048-5.256 38.994-5.008 8.397-6.663 13.037-8.177 22.6-.994 6.276-1.988 12.552-3.281 18.781-2.098 11.31-14.488 23.746-24.546 29.199-11.695 6.113-25.904 2.944-35.09-6.783-10.493-11.159-13.239-30.588-19.071-44.073-4.717-10.856-6.586-20.343-9.414-31.513-.408-1.291-.77-2.88-1.43-4.516-4.975 6.258-10.501 12.123-15.178 18.428 4.732 12.698 9.81 25.143 12.81 39.098 3.565 16.189 10.688 29.266 25.241 38.004 12.052 7.117 22.608 13.997 37.057 9.852 13.755-3.642 25.56-8.512 36.533-17.803 11.318-9.543 14.393-23.149 16.964-37.446 1.813-9.517 1.786-19.018 5.692-28.203 5.277-12.031 10.522-21.923 12.054-35.466.79-6.921.919-15.479-3.013-21.616-3.224-4.8-10.965-8.17-15.621-11.665-7.914-6.155-14.347-13.914-22.606-19.818-4.657-3.494-9.157-6.045-15.216-4.554-3.525.973-8.264 5.737-12.136 6.962-10.073 3.613-20.333 2.601-30.877 3.381-9.899.577-19.105.651-28.64-3.004-8.985-3.261-34.004-7.836-42.822 3.328-4.22 7.297 1.017 14.866 4.57 23.394.252.346.204.645.456.991.346-.251.645-.204.693-.503l.299.048.047-.299c1.338-.708 2.25 1.275.912 1.982l-1.04.755c4.057 9.22 7.516 18.346 10.281 27.975 1.764-3.397 3.182-6.543 4.348-10.034.094-.598.74-.802 1.338-.707.897.142 1.542-.062 2.439.08 1.101.787 1.163 2.328.22 2.485zm35.601-9.985c-6.077 5.471-10.8 12.075-15.776 18.333.865 2.282 2.076 4.312 2.689 6.247 4.557 15.733 8.91 30.821 15.056 46.194 2.39 6.199 5.629 12.839 9.01 18.583 7.218 12.478 21.537 16.891 32.95 6.75 3.904-3.364 8.848-7.483 12.453-10.894 4.739-4.764 6.615-12.739 8.002-19.565 1.971-8.572 2.115-15.289 6.777-23.436 9.716-16.842 15.344-40.766-4.321-53.99-10.808-7.226-27.591 9.722-40.84 8.237-9.364-.871-26.688-7.597-38.16-4.819 1.888-.314 3.43-.376 5.224-.092 1.495.237 2.36 2.519.722 3.178-6.044 3.332-12.245 5.72-12.626 13.931-.033 2.14.785 4.72 1.9 7.348 4.677-6.306 9.401-12.91 15.981-17.689.944-.157 1.652 1.181.96 1.684zm-58.448 3.303l-1.98-4.909c-.49 1.148-.93 1.997-1.717 3.098-.048.299-.347.251-.646.204-1.764 3.397-2.977 7.188-4.694 10.286-1.81 3.695-3.968 7.643-5.78 11.338 3.065 9.677 5.532 19.258 7.353 29.043 5.117-7.154 10.581-14.561 15.447-22.062-2.262-8.936-4.477-18.171-7.983-26.998zm-48.352 57.596c.88 4.122 1.413 8.495 2.292 12.617 6.785-4.133 10.093-13.413 13.275-19.955 2.788-5.992 5.875-11.936 8.663-17.928-1.588-5.46-2.278-10.777-3.314-15.843-3.56 8.933-7.672 17.473-13.026 26.122-2.85 4.45-5.401 8.948-8.299 13.697l.409 1.29zm-8.913-61.764c1.323-2.548 2.693-5.394 2.332-6.983-1.353-1.134-2.706-2.267-4.011-3.699-.693.503-1.087 1.053-1.827 1.855 1.32 3.273 2.736 5.948 3.506 8.827zm-26.454 76.076c7.337-9.561 12.425-20.397 17.812-31.185-1.62-3.32-3.192-6.939-4.166-10.463-5.434 11.087-10.82 21.876-16.255 32.963.77 2.879 1.54 5.758 2.609 8.685zm8.956-269.402c3.526-.973 7.208-1.003 10.843-.733 4.487-5.111 9.022-10.52 13.509-15.63-5.68-.899-11.566-2.444-17.545-3.391-4.724 6.604-9.747 13.161-15.32 19.325-6.266 6.666-13.634 12.546-20.151 18.866-1.087 1.053-2.691-.426-1.605-1.48 6.171-6.068 13.192-11.696 19.364-17.765 5.825-5.817 10.848-12.374 15.619-19.278-14.698-2.021-29.128-1.856-39.032 10.362.74-.802-.882 1.698-2.409 3.601-3.937 5.503-9.179 9.575-12.864 15.425-1.622 2.5-4.724 6.604-8.219 11.258-.394.551-.536 1.447-.583 1.746-3.513 8.635-4.995 16.059-9.908 23.859-1.181 1.651-2.016 3.05-2.851 4.45-.047.299-.441.849-.488 1.148-2.992 5.347-5.339 10.49-7.325 17.221-3.734 11.969-7.188 27.966-7.98 40.707-.54 13.088 5.136 25.629 4.942 38.465-.1 12.239-3.331 24.9-4.328 36.997-1.233 13.59.038 22.982 3.133 36.34 2.999 13.954 3.214 28.081 7.457 41.926 3.67-7.69 8.489-14.892 13.905-22 .095-.597-.157-.944-.062-1.541-.845-12.082-6.018-23.93-6.217-36.216-.185-10.445 1.661-22.101 3.271-32.262 1.089-6.874 2.083-13.15.732-20.104-1.004-7.205-3.598-14.049-3.957-21.459-.844-12.082 3.378-25.199 5.822-36.76 1.672-8.619 5.185-17.254 10.303-24.408 6.203-8.209 9.764-17.142 15.07-25.492 2.41-3.601 5.15-9.294 8.504-13.052 6.126-11.59 14.174-25.634 28.37-30.125zm24.549 1.744c4.485.71 9.221 1.767 13.658 2.776 4.976-6.258 9.951-12.517 14.974-19.074-7.066.107-14.084-.086-21.008-.876l-5.083-.805c-4.487 5.11-8.974 10.22-13.509 15.629 4.139.962 7.68 1.829 10.968 2.35zm32.651 6.703c1.495.237 3.337.222 4.831.459.566 2.234 1.179 4.169 1.446 6.356 1.826-1.855 3.652-3.711 5.132-5.314l-.252-.347.598.095s.048-.299.347-.251l.142-.897c.08-2.438 2.015-3.051 3.558-3.113 5.526-5.864 11.052-11.729 16.279-17.641l-.3-.047c-10.416-1.957-21.464-1.868-32.212-1.732-5.023 6.557-10.344 13.066-15.666 19.576 5.68.9 10.668 2.302 16.097 2.856zm19.514.64c6.42.098 13.187-.056 19.56.341.158.944.315 1.888.818 2.58 2.173-2.107 4.392-4.512 6.612-6.918l-3.535-12.508-.471-2.832-.3-.047c-.565-2.234-1.13-4.468-1.649-7.001-.74.802-1.527 1.902-2.566 2.657-6.313 6.965-12.926 13.883-19.239 20.849.456.991.96 1.683.77 2.879zm37.993-9.607c.234 4.326.516 8.353 1.096 12.428a38.964 38.964 0 0011.803.95c6.91-6.87 13.224-13.836 19.585-21.1-8.043 2.402-14.7 3.799-23.764 2.976-1.841.015-3.934-.317-5.728-.601-1.086 1.053-2.22 2.406-3.306 3.459.204.645.409 1.29.314 1.888zm6.214 42.036c.518 2.533 1.288 5.412 2.106 7.993 18.49 3.234 37.77-6.272 55.35-10.841 7.052-1.946 12.56-3.831 19.846-1.452 2.942.773 5.79 2.143 8.386 3.167 2.377-1.462 4.754-2.924 6.832-4.433 6.438-3.882 13.127-7.418 19.11-12.291 1.086-1.053 2.471-2.059 3.557-3.113-7.977-1.876-15.861-4.35-23.004-7.626-3.147-1.417-5.743-2.441-8.386-3.166-13.554 10.107-27.108 20.215-40.913 29.976-1.385 1.006-2.895-1.071-1.51-2.077 13.16-9.557 26.273-18.816 38.882-28.766-2.093-.332-4.579-.113-7.758.609-4.423.831-8.594 2.009-13.063 3.139a626.248 626.248 0 00-30.833 8.903c-8.388 2.654-14.448 4.145-23.26 3.668a34.217 34.217 0 01-7.774-1.231c-.346.251-.74.802-1.385 1.006 1.54 5.758 2.529 11.123 3.817 16.535zm125.827 14.415l5.852 3.684 12.468-9.054c3.856-3.066 7.965-5.785 12.121-8.803-2.265-3.116-4.876-5.98-7.535-8.546-2.91-2.912-6.56-5.022-10.006-6.487-9.839 7.939-19.63 15.579-29.422 23.219 5.193 2.048 11.125 3.294 16.522 5.987zm79.252-3.072a102.722 102.722 0 01-10.995-11.852c-1.039.755-2.125 1.808-3.164 2.563a175.41 175.41 0 01-12.121 8.803c3.57 4.548 7.14 9.096 11.057 13.393a186.737 186.737 0 0119.785-8.815c-1.605-1.479-3.209-2.959-4.562-4.092zM130.14 136.2c-8.04-3.418-12.037-5.277-20.189-4.117-9.336 8.631-18.624 16.964-28.258 25.547 3.525-.973 6.752-1.994 10.277-2.967 8.641-2.308 15.141-4.648 23.921-2.032 2.046.63 4.091 1.26 6.089 2.19 3.117-2.264 5.935-4.575 9.099-7.137 3.164-2.563 6.329-5.125 9.194-7.735-3.493-1.166-6.986-2.332-10.133-3.749zm2.284-43.448c-8.167-.68-17.515.29-26.707 2.204-1.086 1.053-1.826 1.855-2.613 2.956-4.141 4.859-8.282 9.717-12.674 14.23-4.44 4.811-8.88 9.622-13.272 14.134 6.799-2.293 13.598-4.586 20.303-6.281 8.939-2.26 15.786-4.852 24.362-2.881 1.779-1.557 3.259-3.16 5.038-4.717 5.085-5.015 9.415-11.069 14.248-16.43.394-.551.74-.803 1.134-1.353-3.54-.867-6.483-1.64-9.819-1.862zm-201.436 8.229c-8.753 6.885-17.505 13.771-26.51 20.31 3.29.521 6.232 1.293 9.222 1.767 2.093.331 3.886.615 5.932 1.246 3.196-4.702 6.047-9.152 9.243-13.854 2.016-3.051 4.33-6.054 6.944-9.01-1.794-.284-3.289-.521-4.831-.459zm.027 9.501c-3.196 4.702-6.393 9.404-9.29 14.153 6.231 1.293 12.714 2.933 18.945 4.226.394-.55 1.134-1.352 1.527-1.902 6.015-7.013 12.328-13.978 17.792-21.385-7.128-1.435-14.555-2.918-22.077-3.803-2.267 2.705-4.881 5.661-6.897 8.711zm46.52-1.516c-4.737-1.057-9.82-1.862-14.855-2.966-1.134 1.353-2.016 3.051-3.15 4.403-5.022 6.557-10.596 12.721-16.169 18.884l7.176 1.137c5.728.601 11.503.903 17.326.906l16.249-21.322c-1.841.014-4.186-.663-6.578-1.042zm-5.738 22.681c8.56.13 17.169-.038 25.682.391.125 3.083.548 6.214.972 9.345.74-.802 1.433-1.305 1.874-2.154 1.432-1.305 2.613-2.956 4.046-4.261-.157-.944-.362-1.589-.518-2.533l1.195.189c-.423-3.13-1.098-6.607-1.522-9.738-.424-3.131-1.35-6.954-1.931-11.028-4.58-.113-8.813-.477-13.345-.889-5.668 6.762-11.037 13.57-16.453 20.678zm40.2-19.674c.409 1.29.817 2.581.927 3.823.566 2.235 1.43 4.516 2.043 6.451 3.007-3.506 6.014-7.013 8.974-10.22-3.635-.269-7.963-.036-11.944-.054zm6.805 22.829c4.736 1.057 9.614 1.217 14.241 1.031 8.234-9.419 16.17-18.884 24.357-28.004-8.342 2.355-16.541 3.814-25.747 3.888-.897-.143-1.543.062-2.44-.08-4.44 4.811-8.533 9.371-12.973 14.182 1.07 2.926 1.839 5.805 2.562 8.983zm62.38-33.929c-6.108 1.79-12.214 3.58-18.022 5.418-8.282 9.717-16.563 19.434-25.144 29.104 11.489-.938 23.056-4.314 34.326-7.737 4.786-5.063 9.572-10.125 14.704-15.44 4.393-4.512 8.534-9.371 12.674-14.23l2.22-2.405c-7.649 1.852-14.7 3.8-20.759 5.29zm11.882 35.275c-11.474 2.778-22.743 6.202-33.713 9.672-6.707 7.516-13.461 15.331-20.42 22.5 12.385-.796 24.646-4.674 36.907-8.553 9.98-8.836 19.615-17.42 29.344-26.601-4.123.879-8.247 1.757-12.118 2.982zm37.101 15.374c-1.779 1.556-3.81 2.766-5.589 4.323 8.34 3.465 16.238 7.779 24.325 10.898 1.448.536 2.895 1.072 4.39 1.308l.693-.503c8.563-5.689 17.126-11.379 25.139-17.463-5.24-1.749-10.826-3.246-16.506-4.146-6.531-1.341-13.313-3.028-19.748-4.966-3.7 4.009-8.501 7.232-12.704 10.549zm64.612 8.089c-.299-.048-.251-.347-.55-.394-4.597 3.867-9.241 8.034-13.838 11.901-1.779 1.556-3.857 3.065-5.683 4.921 7.048 3.873 13.262 9.146 18.736 15.221l8.658-6.287c2.771-2.012 5.541-4.024 8.264-5.738-4.686-7.175-9.42-14.052-15.587-19.624zm-19.827-2.528c-5.888 4.276-12.027 8.205-18.213 12.433 5.287 1.45 10.574 2.9 15.719 5.247 1.433-1.305 2.818-2.311 4.549-3.568 5.29-4.371 10.328-9.087 15.617-13.457-3.256-2.661-6.655-4.424-10.352-6.235-2.424 1.76-4.896 3.82-7.32 5.58zm43.021 8.958c1.305 1.433 2.265 3.116 3.57 4.549 2.472-2.06 4.896-3.82 7.368-5.88 3.904-3.364 7.808-6.728 11.964-9.746-6.072-6.17-12.144-12.34-18.956-17.708-4.99 4.418-10.484 8.143-15.726 12.214-1.039.755-2.078 1.51-2.818 2.311 5.459 4.235 10.225 8.972 14.598 14.26zm30.027-3.822c-1.604-1.479-3.209-2.959-4.514-4.391-2.723 1.713-5.399 3.127-7.871 5.187l-8.453 6.933c-1.386 1.006-2.771 2.012-3.857 3.065 3.067 3.856 6.087 8.01 9.106 12.165a258.584 258.584 0 0114.341-11.208c2.472-2.06 4.896-3.82 7.667-5.832-2.407-2.22-4.562-4.093-6.419-5.919zm-27.411 31.809c-3.019-4.155-5.992-8.608-8.964-13.061a195.006 195.006 0 00-12.814 9.305c-1.039.755-2.424 1.761-3.511 2.814.504.693 1.054 1.086 1.558 1.779 2.815 3.509 5.631 7.019 8.399 10.827 5.194-3.773 10.389-7.545 15.332-11.664zm-34.639 5.849c-7.666 5.832-15.679 11.915-23.597 17.401 3.005 2.314 5.915 5.226 8.526 8.09 7.98-3.944 16.008-8.187 23.784-12.776-2.973-4.453-5.693-8.561-8.713-12.715zm-21.599-18.433c-4.894-2-10.228-3.151-15.61-4.004l-2.391-.378c-.347.251-.74.801-1.386 1.006-8.847 7.483-18.952 13.235-28.759 19.034 5.444 2.394 10.793 5.386 16.332 7.182.598.095.85.441 1.448.536 10.688-7.498 20.527-15.437 30.366-23.376zM21.754 149.056s-.299-.047 0 0c-.299-.047-.299-.047 0 0-.299-.047 0 0 0 0zm-161.68 264.207c6.677-11.197 12.457-22.536 18.237-33.875-1.336-5.113-2.372-10.179-2.464-15.401.079-2.439.159-4.877.286-7.614-2.598 4.797-6.047 9.152-9.542 13.807-3.842 4.905-7.432 10.158-11.022 15.41 1.27 9.392 1.943 18.689 4.505 27.673zM174.01 108.836c-8.795-4.457-18.943-10.046-29.423-13.544-2.912 2.908-5.321 6.509-7.29 9.261-3.841 4.906-7.888 9.167-12.233 13.38 8.733 2.915 17.276 7.026 25.82 11.136.74-.802 1.48-1.604 1.968-2.752 4.236-5.456 8.708-12.407 15.759-14.353.645-.205 1.495.236 1.353 1.133-1.199 5.631-7.338 9.56-11.541 12.877-.393.551-1.148-.488-.503-.692 3.211-2.861 7.714-6.131 9.572-10.126-6.092 3.631-10.075 9.433-14.311 14.89 3.147 1.417 6.593 2.882 9.787 4.001 8.386 3.166 17.356 4.587 25.648 8.351 4.738-4.764 11.052-11.729 16.889-9.886.598.095.85.441.755 1.039l-.426 2.69c-.094.597-.991.455-1.196-.19-.879-4.122-10.167 4.211-13.725 7.323.299.048.55.394.849.441 3.399 1.764 6.451 3.779 9.456 6.093 5.242-4.071 10.437-7.844 15.679-11.915.047-.299-.252-.346.094-.598 1.039-.755 1.779-1.556 2.818-2.311-1.101-.787-1.903-1.527-3.005-2.314-12.365-9.005-28.901-16.832-42.794-23.934zm109.999 81.451c-9.408-6.392-19.068-13.13-27.988-20.67-1.338.707-2.329 1.163-3.416 2.216-6.58 4.779-12.908 9.904-18.937 15.076 5.882 7.365 12.111 14.479 19.521 19.942 5.556-2.184 11.112-4.368 16.464-7.196 5.351-2.829 11.097-6.208 17.36-7.054-.299-.047-.55-.394-.849-.441-.063-1.542-1.164-2.329-2.155-1.873zM162.472 305.528c-.299-.047-.252-.346-.551-.393 2.818-2.311 5.683-4.921 8.501-7.232.299.047.252.346.551.394 5.683-4.921 11.067-9.889 16.451-14.857l-.299-.047c7.856-7.028 15.664-13.756 23.52-20.784l.298.047c6.329-5.124 12.406-10.595 18.482-16.066 0 0-.299-.048-.251-.347 3.605-3.411 7.462-6.477 11.067-9.888l.299.047c3.558-3.113 7.115-6.226 10.374-9.386-3.572 1.272-7.492 2.796-11.064 4.069-1.291.408-1.904-1.527-.613-1.936 4.91-1.979 10.073-3.612 14.984-5.592 3.904-3.364 7.556-7.075 11.161-10.486.299.047.85.441 1.149.488 8.359-6.335 17.473-11.631 26.492-16.33-1.054-1.086-2.155-1.873-3.256-2.66-.788 1.1-1.622 2.5-2.111 3.648-.393.551-.944.157-.849-.441.047-.299 1.811-3.696 1.26-4.089-.802-.74-5.76 1.538-6.752 1.994-4.564 1.728-8.625 4.148-12.686 6.569-4.36 2.373-8.626 4.148-13.19 5.876 1.101.787 2.25 1.275 3.052 2.015-3.904 3.364-7.761 6.43-11.665 9.794-2.454-1.92-4.61-3.793-7.016-6.013-6.847 2.592-13.489 5.829-20.132 9.066 3.713 3.652 7.771 7.052 12.271 9.602-3.51 2.814-6.769 5.975-10.28 8.788-4.106-3.101-8.117-6.8-11.877-10.152-.802-.74-1.306-1.433-2.108-2.172-5.997 3.032-11.742 6.411-17.787 9.743-1.337.707-2.847-1.37-1.509-2.077 5.745-3.379 11.742-6.412 17.44-9.492a100.76 100.76 0 01-9.956-12.606c-7.477 4.637-15.457 8.581-23.438 12.525 8.997 10.922 17.018 24.14 29.321 31.603-2.818 2.311-5.683 4.921-8.202 7.279-3.257-2.66-6.765-5.667-9.974-8.626-8.322-7.445-13.526-17.154-19.77-26.108l-.347.252c-1.338.707-2.202-1.575-1.163-2.329-1.762-2.424-3.822-4.894-6.229-7.114-.252-.346-.551-.393-1.101-.787-4.061 2.42-8.422 4.793-12.687 6.569-1.338.707-2.501-1.622-.865-2.282 3.967-1.822 7.682-3.991 11.397-6.16-5.806-3.983-12.887-5.717-20.015-7.153-1.495-.236-2.99-.473-4.437-1.009l-2.078 1.509c-1.039.755-2.297-.976-1.258-1.731l.346-.251c-5.586-1.498-11.125-3.294-16.27-5.641a80.334 80.334 0 01-3.744-1.512c-7.226 4.983-14.451 9.965-22.745 12.022-1.59.361-1.81-2.125-.22-2.486 7.65-1.852 13.285-6.474 19.77-10.655-2.643-.725-5.381-.852-9.206.074-3.478.675-7.302 1.601-10.828 2.574a863.464 863.464 0 00-25.67 7.27c-6.799 2.293-11.867 3.328-19.184 3.088-1.495-.237-3.038-.175-4.784-.758.252.347.157.944.409 1.291 1.54 5.758-.115 10.398.528 16.014l-.047.299c7.365-.059 14.478-.464 21.733-1.766 8.2-1.459 17.453-1.831 25.448-3.935 10.923-3.171 21.108-11.362 33.035-7.328 9.882 3.403 21.098 11.919 28.87 18.971 6.717 5.966 9.876 15.044 16.688 20.412 8.511 6.25 17.936 8.662 26.338 13.669-2.472 2.059-4.644 4.166-7.163 6.524-3.493-1.166-7.034-2.033-10.275-2.853-7.883-2.474-17.371-6.427-23.097-12.849-3.114-3.557-4.544-8.072-7.659-11.629-3.366-3.903-8.164-6.501-11.924-9.854-3.76-3.353-7.141-9.096-11.688-11.348-11.045-5.732-24.063 2.929-34.592 5.55-17.485 3.97-33.257 10.663-50.378 10.402l-2.497-13.262.3.047-.253-.346c-2.857-14.852-6.014-29.75-8.825-44.901.047-.299-.204-.645-.157-.944-2.424 1.761-4.848 3.521-7.225 4.983-1.386 1.006-2.896-1.071-1.51-2.077a75.444 75.444 0 007.965-5.785c-1.35-6.954-3.346-13.703-5.342-20.453-2.173 2.107-4.393 4.513-6.565 6.619.361 1.589.77 2.88 1.131 4.469-.598-.095-1.495-.237-2.045-.631l-2.691-.426c-1.433 1.305-2.566 2.657-4 3.962-1.085 1.053-2.894-1.071-1.509-2.077.74-.802 1.48-1.604 2.173-2.107-4.233-.364-8.168-.681-12.448-.746.361 1.589 1.022 3.225 1.084 4.767 1.208 7.85 4.054 15.041 6.254 22.436.204.645.361 1.589.565 2.234 6.122.05 11.945.053 18.066.104.519 2.533.69 5.317 1.209 7.85-5.633-1.198-11.755-1.249-17.578-1.252.519 2.533 1.084 4.767 1.602 7.3.676 3.477.706 7.158.736 10.839-1.65-7.001-3.945-13.798-6.035-19.95-4.086-12.902-8.77-25.898-13.754-38.941-6.958 7.169-13.917 14.339-21.175 21.461-1.432 1.305-3.588-.569-2.155-1.873 4.739-4.764 9.824-9.78 14.563-14.544-4.58-.112-9.16-.225-13.691-.636-4.233-.364-8.97-1.421-13.706-2.477-4.928 5.959-10.155 11.871-15.382 17.783-1.134 1.352-2.99-.474-1.904-1.527 4.833-5.362 9.714-11.022 14.296-16.73-9.819-1.861-19.685-3.424-28.326-1.116-3.4 4.056-6.802 8.113-10.501 12.122-1.134 1.353-3.289-.52-2.156-1.873 2.268-2.704 4.535-5.409 7.101-8.066-2.676 1.415-5.446 3.427-7.761 6.43.74-.802-.834 1.4-2.063 3.349-3.543 4.954-7.793 8.57-11.037 13.57-1.575 2.202-3.984 5.803-7.038 9.608-.095.598-.489 1.148-.536 1.447-3.025 7.486-4.365 14.014-8.79 20.666-.834 1.399-1.669 2.799-2.456 3.899-.048.299-.095.598-.441.85-2.599 4.796-4.505 9.09-6.349 14.925-3.199 10.522-6.32 24.426-6.828 35.375-.603 11.546 4.46 22.151 4.502 33.493-.162 10.697-2.81 21.613-3.57 32.215-.949 11.798.165 20.246 2.647 31.668.314 1.888.675 3.477.989 5.364 7.086-9.906 14.124-19.514 21.21-29.421.6-5.725 1.5-11.404 2.352-16.783.899-5.678 1.704-10.759.809-16.722-.894-5.962-3.08-11.516-3.329-17.683-.578-9.895 2.716-21.015 4.828-30.484 1.435-7.125 4.114-14.36 8.396-20.115 5.071-6.856 8.095-14.342 12.52-20.994 2.016-3.05 4.268-7.595 7.228-10.803 5.244-9.892 12.315-21.639 23.93-25.314 6.453-2.041 14.038.386 20.615 1.427 8.97 1.421 18.001 4.383 27.018 5.505l1.495.237c.817 2.58 1.635 5.16 2.2 7.394-3.981-.017-7.963-.035-11.55-.604-15.941-1.912-36.663-10.402-48.393 3.671.394-.55-.488 1.148-1.67 2.799-2.802 4.152-6.612 6.918-9.116 11.117-1.228 1.95-3.495 4.654-5.857 7.957-.095.597-.441.849-.536 1.447-2.489 6.039-3.687 11.67-7.325 17.221-.787 1.101-1.275 2.249-2.062 3.349-.048.299-.095.598-.441.85-2.158 3.947-3.969 7.643-5.325 12.33-2.616 8.776-5.359 20.29-5.583 29.445-.57 9.407 3.832 18.376 3.561 27.83-.177 8.856-2.541 17.979-3.017 26.788-.174 3.036-.254 5.474-.334 7.912 3.324-7.439 7.246-14.783 13.684-18.665.692-.503 2.092.332 1.651 1.181-.393.55-.488 1.148-.882 1.698-.047.299-.692.503-.944.157-5.337 4.669-8.125 10.661-10.661 16.999-.583 1.746-1.417 3.146-2.299 4.844.329 3.729 1.255 7.552 2.088 11.972 2.576 10.825 2.32 22.119 5.887 32.488 0 0-.047.299.252.346 5.78-11.339 11.261-22.725 16.743-34.111-.486-4.672 1.12-9.013 1.58-13.842 1.39-12.647-2.338-18.139-7.747-28.493-1.872-3.667-3.586-6.389-3.82-10.715-.217-8.306 3.847-16.547 4.527-24.711.396-6.37.289-13.434.087-19.899-.264-8.007-.137-10.744 6.223-18.009 7.148-8.365 11.212-16.605 20.027-21.949 8.847-7.483 14.734-11.759 28.096-14.851 10.183-2.369 18.24-2.931 27.918-.173.927 3.823 1.554 7.599 2.182 11.374-3.949-2.157-7.898-4.314-12.383-5.024-8.969-1.421-20.395 1.058-28.784 3.712-3.872 1.225-6.894 2.891-9.712 5.202-5.872 6.116-11.35 11.682-16.468 18.837-2.803 4.151-9.226 9.874-9.984 14.655-1.088 6.874 3.486 18.627 3.499 26.288-.05 6.12-2.24 12.206-2.589 18.278-.239 7.315 2.482 11.422 5.517 17.417.503.693.707 1.338.912 1.983 2.172-2.107 4.046-4.261 7.098-2.246 4.153 2.803.972 9.345-.493 12.789-.536 1.447-1.024 2.595-1.56 4.042.533 4.374.122 8.904-1.721 14.739-1.214 3.79-1.184 7.471-.855 11.2 3.04-5.646 6.331-10.945 9.072-16.638 3.622-7.392 5.152-15.115 7.327-23.042-.74.802-1.48 1.604-1.968 2.752-.394.55-.897-.142-.85-.441.977-2.296 2.063-3.35 3.842-4.906.693-.503 1.495.237 1.4.834-1.278 8.069-3.201 16.343-6.525 23.782-3.323 7.439-7.796 14.389-11.37 21.482 1.853 7.646 5.894 15.026 8.346 22.767.394-.55.787-1.101 1.228-1.95 5.354-8.649 11.307-17.203 15.56-26.64 1.858-3.994 3.119-8.084 4.38-12.173-.818-2.58-1.635-5.161-2.751-7.788-6.588-14.523-14.197-32.272-15.025-48.333-.703-12.979 5.267-25.513 11.047-36.852 1.323-2.548 4.565-1.728 5.13.506 12.956-10.202 34.266-15.099 46.838-11.269 8.78 2.616 15.781 6.788 25.538 7.108 11.598.305 19.217-5.228 29.793-8.148 6.752-1.994 11.394-.34 18.019.403 10.559 1.06 17.642-3.026 27.73-4.799 11.033-1.929 19.07 7.31 25.85 14.817 4.923 5.682 7.612 11.928 14.66 15.802 7.348 3.921 16.255 3.8 23.65 7.422-2.519 2.358-5.085 5.015-7.604 7.373-1.4-.834-2.549-1.322-4.296-1.905-5.192-2.048-10.369-2.255-15.467-4.901-9.896-5.244-14.503-14.858-21.881-22.46-6.874-6.909-9.597-5.196-18.08-1.944-5.557 2.183-9.618 4.604-15.787 4.852-9.253.373-16.9-3.596-26.233-.785-6.752 1.994-12.198 5.421-19.359 6.125-11.882 1.488-22.314-2.309-32.713-8.245-13.799-7.7-47.115-4.399-54.834 13.373-.44.849-.535 1.447-.976 2.296l-.142.896-.048.299c-1.843 5.835-3.435 12.017-2.997 16.988 1.002 13.026 6.693 27.407 12.51 39.051.913 1.982 1.825 3.965 3.036 5.995.047-.299.393-.551.44-.849.93-1.998 2.11-3.649 3.04-5.646 2.646-5.095-3.523-4.847-6.435-1.939-.394.551-1.196-.189-.803-.739 1.968-2.752 7.432-10.158 10.813-4.415 1.211 2.03.187 4.625-.742 6.622-1.512 3.744-3.229 6.842-4.993 10.239 1.98 4.909 3.962 9.818 5.596 14.978 3.087-5.944 6.127-11.59 8.915-17.582l.047-.299c-.252-.346-.204-.645.142-.896.93-1.998 1.811-3.696 3.04-5.646-7.595-15.908-16.228-31.062 4.392-41.275 1.684-.959 3.037.174 3.697 1.811 9.46-5.548 23.734-6.657 32.908-4.592 11.864 2.492 21.07 2.418 33.252.978 5.319-.69 10.89-1.033 16.257-2.021 7.948-1.805 13.882-6.379 21.28-8.577 16.431-5.057 32.207 13.373 42.542 23.588 7.425 7.303 19.305 11.635 24.856 21.092 5 9.064 3.344 19.524 3.969 29.12.391 5.27 2.42 9.88.922 15.464-1.056 4.735-4.898 9.64-7.402 13.839-6.473 11.842-6.178 23.53-9.709 36.145-2.805 9.971-5.643 22.083-12.146 30.243-7.636 9.513-20.308 17.923-31.263 23.234-17.896 8.5-39.126 10.959-57.015 1.998-10.794-5.386-18.141-9.307-25.439-19.347-7.046-9.694-8.506-17.89-10.642-29.564-1.664-8.841-3.124-17.038-6.677-25.566-2.437-5.9-5.913-11.046-8.003-17.198-1.273-3.572-2.5-7.442-3.426-11.265-1.181 1.651-2.41 3.601-3.59 5.252-3.984 5.802-8.22 11.259-12.156 16.762.785 4.72 1.821 9.786 2.606 14.506 2.056 14.111 7.385 26.903 11.723 40.151 4.087 12.902 6.033 25.77 19.375 32.479 11.942 5.874 24.922 10.994 37.888 14.273 11.817 2.79 25.478-.254 37.674.146 15.532.622 24.911 3.332 35.806-9.341 3.794-4.607 8.989-8.379 12.784-12.986 4.928-5.96 6.662-13.038 12.093-18.305 5.038-4.716 12.136-6.962 16.623-12.072 4.786-5.063 6.52-12.141 8.758-18.526 4.616-13.668 7.738-27.572 8.169-41.903.144-6.717.73-14.283.575-21.047-.311-7.709-2.559-14.804-2.87-22.513-.093-5.222.617-9.705 1.721-14.739-12.086.843-22.157-1.364-25.316-10.443-2.988-6.294 3.074-13.605 8.852-19.124zm72.697 17.029c-2.833.47-7.302 1.6-12.764 3.186.832 4.421.768 8.7.105 12.884-1.104 5.033-.366 10.052.025 15.322 6.012-1.192 11.977-2.086 17.941-2.979.048-.299-.204-.645-.156-.944-.519-2.533-1.179-4.17-1.194-6.01-1.682-4.862-1.081-10.588-.827-16.062-2.487.219-4.926.139-7.413.358-1.243.109-1.557-1.778-.314-1.888 2.487-.219 5.272-.39 7.712-.31-.11-1.243.079-2.439-.03-3.681-1.196-.19-2.14-.033-3.085.124zm11.678-2.133c.062 1.541-.174 3.036-.458 4.829 9.599-.624 19.152-.949 28.704-1.275.127-2.737.302-5.773.476-8.809-9.49 1.867-19.279 3.687-28.722 5.255zm38.511-7.074c-.521 3.287-1.388 6.826-1.609 10.161 8.309-.215 16.366-.777 24.676-.993-.534-4.374-.422-8.951-.31-13.529-7.601 1.553-15.155 2.808-22.757 4.361zm54.517-9.441c-6.909 1.051-13.818 2.101-20.774 3.45-.805 5.081-1.909 10.114-1.769 15.038.944-.157 1.542-.062 2.486-.219 2.786-.172 14.274-1.109 23.637-.239-.471-2.832-.942-5.664-1.759-8.244-.423-3.131-1.099-6.608-1.821-9.786zm6.56 41.785c-1.039.755-1.779 1.557-2.519 2.358-.047.299-.944.157-.55-.393.583-1.746 1.622-2.5 2.96-3.208-.063-1.541-.125-3.083-.486-4.672-7.853 1.207-15.565 1.518-23.228 1.529.66 1.636 1.273 3.572 1.634 5.161 1.901 7.347 3.062 15.496 2.43 23.361 6.169-.248 12.385-.795 18.459-.446l.757-4.782c.648-6.024.745-12.442.543-18.908zm-1.821 26.978c-5.177-.208-10.103-.069-15.375.322-.944.156-1.841.014-2.785.171l-.332 2.092c-2.16 9.768-6.664 18.858-8.525 28.673 4.186.663 8.419 1.027 13.046.841 2.187-.267 4.028-.281 5.869-.296 2.004-10.712 5.8-21.139 8.102-31.803zm-9.078 34.099c-3.384.077-6.515.5-9.899.577-3.037-.175-5.775-.302-8.718-1.075-1.372 8.667-.605 17.367-2.277 25.987-.426 2.689-1.151 5.332-1.876 7.974 6.578 1.042 14.1 1.927 21.133 3.96-.64-11.437-.982-22.826.817-34.183.488-1.148.63-2.044.82-3.24zm-1.26 40.852c-7.38-1.781-14.713-3.862-22.14-5.344-2.222 8.226-4.649 15.807-4.621 25.308-.142.897.062 1.542-.033 2.14l3.887.615c5.382.853 10.213 1.311 15.532.622 3.132-.423 4.973-.438 7.916.335.286-7.614.022-15.621-.541-23.676zm-7.437 58.562c5.686-10.741 7.736-21.751 8.292-32.998-4.784-.758-9.301.671-14.227.81-3.981-.018-8.12-.98-12.306-1.643l-.897-.142c-.191 7.016-1.532 13.544-3.565 20.574-.535 1.447-.725 2.643-1.26 4.09 5.586 1.497 10.683 4.142 16.269 5.64.048-.299-.157-.944.033-2.139.094-.598.692-.503.944-.157.456.991 1.211 2.03 1.667 3.021.503.692-.237 1.494-.882 1.698-3.934-.316-7.034-2.033-10.479-3.497-2.549-1.323-5.193-2.048-8.183-2.522-2.82 8.131-5.939 16.215-9.609 23.906 2.691.426 5.429.553 7.916.334 3.383-.076 6.515-.499 10.15-.23 1.495.237 4.485.71 7.427 1.483 2.536-6.338 5.623-12.283 8.71-18.228zm-42.932 81.432c6.913-12.692 15.888-22.912 21.7-36.39 3.812-8.587 7.577-16.875 11.388-25.462l-2.092-.332c-5.681-.899-11-.21-16.823-.213-2.439-.08-4.579-.113-6.971-.492-2.347 5.143-5.245 9.892-8.19 14.94l11.048-.088c.047-.299.094-.598.393-.55 2.141.032 3.384-.077 5.524-.045 1.542-.062 1.164 2.329-.08 2.439-6.263.846-12.133 1.141-18.208.792-.047.299-.393.55-.441.849-6.188 10.049-11.48 20.24-18.377 28.951 4.689 1.355 9.079 2.663 13.769 4.019.598.094.455.991-.19 1.195-5.13-.506-10.165-1.61-15.452-3.06-4.141 4.859-8.88 9.622-14.421 13.647-1.039.754-2.424 1.76-3.762 2.467 9.929 3.105 20.313 7.2 28.274 13.056 5.289-4.37 9.477-9.527 12.911-15.723zm-143.154 64.025c-3.777.628-7.208 1.003-10.686 1.678l1.226 3.87c1.587 5.46 3.819 10.715 5.705 16.222 29.368-5.459 57.414-14.19 81.876-29.31 3.416-2.216 7.178-4.684 10.641-7.199-2.534.518-5.02.737-7.806.909.252.346.205.645-.142.896-7.021 5.628-17.014 6.802-25.513 8.214-12.873 1.943-25.794 4.186-38.464 6.774-1.29.409-1.557-1.778-.266-2.186 11.378-2.181 23.009-4.015 34.34-5.897 9.742-1.52 19.436-2.742 28.157-7.488-14.92 1.313-30.2 1.038-45.291-.433-1.779 1.556-3.904 3.364-6.234 4.527-8.72 4.746-18.053 7.556-27.543 9.423zm-61.087-9.062c1.417-3.146 3.024-7.486 4.679-12.126 3.229-6.841 6.41-13.384 8.79-20.666 1.793.284 3.587.569 5.334 1.152 7.758-.61 15.36-2.163 23.213-3.37 10.686-1.677 23.009-4.015 31.557-11.545 5.731-5.22 10.265-10.629 16.594-15.753 2.471-2.06 5.194-3.773 7.965-5.785-.598-.095-1.196-.19-2.046-.63-1.447-.536-1.116-2.628.379-2.391 1.448.535 2.644.725 4.091 1.26 7.871-5.187 16.292-9.98 24.163-15.167-12.667-3.232-25.429-5.866-37.859-10.592-5.399 3.128-10.845 6.554-15.789 10.673-4.99 4.418-8.58 9.67-14.326 13.049-6.044 3.332-12.843 5.625-19.799 6.974-16.101 2.964-30.043 1.981-46.078.667-7.901 1.506-16.148 3.263-24.158 3.527-3.981-.018-8.058.561-12.086.842-5.746 3.379-11.444 6.46-17.393 9.194-7.288 3.441-15.488 4.899-22.775 8.34-1.338.708-2.203-1.574-.865-2.281 5.65-2.781 11.962-3.926 17.864-6.361 6.202-2.388 12.246-5.72 18.29-9.051-2.439-.08-4.58-.113-6.971-.492-3.887-.616-7.333-2.08-11.077-3.593-6.341-2.536-11.409-1.5-17.735-2.196-6.625-.743-10.698-5.983-16.347-9.022-5.1 3.175-9.445 7.388-13.743 11.303-3.558 3.113-7.21 6.823-11.46 10.439.896.142 1.447.535 2.344.678 8.528 2.269 14.428 5.655 21.728 9.875 7.3 4.219 13.156 2.083 20.63 3.267 5.382.852 9.583 3.356 14.822 5.105 10.432 3.797 25.147 1.838 36.399 2.395.598.094 1.243-.11 1.542-.062 6.139-3.93 11.523-8.898 14.752-15.739.095-.598.944-.157.897.142-1.64 6.48-6.126 11.59-11.62 15.316 10.796-.435 21.481-2.112 32.135-1.65-1.417 3.145-3.134 6.243-4.552 9.388-2.439-.08-5.13-.506-7.569-.586-9.789 1.82-19.326 3.986-28.879 4.311-4.627.186-9.6.624-14.226.81-7.335 3.74-14.466 8.125-22.21 10.575-4.863 1.68-10.182 2.37-15.25 3.405 4.39 1.308 8.04 3.418 12.383 5.025 11.88 4.332 28.782 2.108 41.875 2.65 7.616.287 15.076-.37 22.535-1.026-1.81 3.695-3.67 7.69-5.528 11.685-6.956 1.349-13.865 2.399-20.632 2.553-10.749.135-22.426 2.269-33.237.863-5.382-.853-10.228-3.152-15.467-4.901-8.686-3.214-15.941-1.912-24.659-2.986-10.213-1.312-16.205-9.92-25.394-13.826-12.083-4.977-24.247-7.517-35.748-14.24-5.9-3.385-11.705-7.368-17.51-11.351.535-1.447 1.024-2.595 1.26-4.09 1.166-3.491 2.38-7.282 3.341-11.418 5.066 4.785 11.862 8.312 17.967 12.342 8.007 5.558 16.504 9.967 25.882 12.678 9.724 2.459 16.426 6.584 24.875 11.292 7.85 4.613 14.256 2.871 21.778 3.756L.01 632.721c9.19-1.914 16.825-5.607 25.151-9.803a46.197 46.197 0 01-9.111-.524c-4.784-.757-9.08-2.663-13.422-4.27-7.49-3.024-13.8-1.879-21.621-2.812-9.017-1.122-13.956-8.644-21.996-12.062-6.042-2.488-11.88-4.332-17.969-6.522-1.337.707-2.628 1.116-3.966 1.823-2.581.816-5.491-2.095-3.57-4.548 13.755-3.642 40.942-26.296 55.615-39.596 1.054 1.086 1.714 2.722.533 4.373-.787 1.101-1.527 1.903-2.566 2.657.85.441 1.699.882 2.8 1.669 6.2 3.433 10.764 1.705 17.042 2.7 4.485.71 8.135 2.82 12.179 4.379 8.386 3.167 20.268 1.679 29.427 1.904.346-.252.645-.204.992-.456 1.337-.707 19.722-10.356 14.97-13.253-.25-.346-.156-.944.143-.896.897.142 1.746.583 2.643.725.598.094.803.739.755 1.038-2.394 5.442-7.589 9.214-13.334 12.593 12.338-.496 24.41-3.18 36.43.256 6.516-.5 12.528-1.692 19.138-2.79 8.845-1.662 19.232-3.387 26.049-9.66 4.691-4.465 8.737-8.726 13.68-12.845 11.571-9.196 25.107-15.324 36.63-24.221 11.523-8.898 18.28-22.533 25.446-34.877l2.503-4.199c-1.998-.929-4.295-1.906-6.293-2.835-1.149-.488-.219-2.486.929-1.998 2.297.977 4.296 1.906 6.593 2.883 3.969-7.643 7.733-15.931 9.358-24.252-2.345-.678-4.343-1.607-6.64-2.584-1.448-.535-.519-2.532.929-1.997 1.998.929 4.044 1.56 6.089 2.19l.663-4.184c.695-6.323-.451-12.632.543-18.908-5.083-.805-9.867-1.563-14.855-2.966-.63 2.045-.961 4.137-1.041 6.575-.286 7.614-4.853 15.162-4.746 22.225.137 10.745 1.017 14.867-7.674 23.294-12.295 11.838-26.195 22.197-37.437 35.122-9.021 10.519-13.588 18.068-27.643 21.662-16.289 4.16-29.227 10.383-46.145 10.767-4.327.233-8.309.215-12.637.449-7.462 6.477-16.59 9.933-26.27 12.995-1.29.409-2.202-1.574-.912-1.982 8.389-2.654 16.227-5.702 23.154-10.732-11.095.387-22.237 1.074-33.19.564-18.569-.796-41.526-8.721-58.989-20.372-10.168 4.211-20.43 9.019-30.802 12.584 1.699.882 3.052 2.015 4.704 3.196 5.805 3.983 11.705 7.368 18.786 9.103 1.746.583 3.194 1.118 4.94 1.701-10.531 8.442-22.841 18.44-32.586 25.781 3.904-3.364 8.013-6.083 11.917-9.448 3.904-3.364 7.462-6.477 11.618-9.495-6.09-2.19-12.226-4.081-18.126-7.466-4.5-2.551-8.905-5.699-13.31-8.848-4.91 1.98-9.821 3.959-14.685 5.64-.174 3.035-1.938 6.432-4.913 7.799-.991.456-2.377 1.462-3.51 2.814 4.828 6.28 12.475 10.248 19.381 15.018 3.052 2.015 6.105 4.03 9.204 5.747-5.195 3.772-9.602 6.444-12.23 7.56-.551-.394-1.15-.489-1.4-.835-7.002-4.172-14.507-9.037-21.02-14.358-.55-.393-1.053-1.086-1.903-1.527-2.551 4.498-4.709 8.445-6.032 10.993-6.174 11.889-11.057 23.37-14.634 36.283-.773 2.941-3.072 7.785-3.247 10.821-.615 3.885 1.004 7.205.688 11.138l-.142.897c14.663 9.981 31.83 15.763 51.216 19.14 32.793 5.807 65.868 15.641 99.56 15.769 7.964.036 15.926.072 24.236-.144-.08 2.438-.112 4.578.107 7.063.266 2.187 3.256 2.66 4.186.663 1.323-2.548 2.347-5.143 3.37-7.738.945-.156 1.842-.014 2.786-.171 1.861-9.815 4.13-18.34 7.69-27.273l-.298-.048c1.166-3.491 2.63-6.936 4.096-10.38 1.054 1.086 1.353 1.133 1.652 1.181z" fill="#DCDAD1"/><path d="M11.34 243.183c-3.818-1.235-7.732-1.855-11.55-3.089-.27-4.138-1.143-8.371-2.065-12.297a204.637 204.637 0 0019.126 3.974l3.376 13.764c-2.71-.429-5.672-1.213-8.888-2.352zm90.688 134.039c-.093 6.398-3.227 12.62-4.518 18.828-1.243 5.911.005 11.605-.592 17.313-.85 5.362-6.709 19.092-12.825 20.871-6.715 1.685-14.316-6.542-18.243-10.829-6.797-7.489-12.995-14.884-15.38-25.033-1.34-5.099-2.242-11.044-1.74-16.155.74-6.602 3.782-6.425 7.17-12.301-1.593.358-2.933 1.062-3.468 2.504-.677 2.336-4.272 1.767-3.595-.569 1.29-6.209 6.178-6.045 11.711-6.085 8.37-.507 12.673-4.406 19.923-7.533 3.972-1.814 6.857-2.578 10.861-.722 6.307 2.831 10.882 12.717 10.696 19.711zm-32.32-7.257c-2.238.562-7.929-.34-12.264-.11-.047.298.252.345.205.643-.486 6.947-4.031 11.882-3.666 19.269.745 10.806 5.493 17.665 12.936 24.952 2.917 2.905 6.34 6.501 10.439 7.761 3.8 1.212.867 2.275 5.28-.386.694-.5 4.364-8.164 4.459-8.76 2.44-5.721 2.234-12.167 3.571-18.673 1.873-7.948 5.654-14.373 2.94-22.437-4.86-13.901-15.246-4.553-23.9-2.259z" fill="#DCDAD1"/></svg>