<svg viewBox="0 0 356 341" xmlns="http://www.w3.org/2000/svg"><g opacity=".36" fill="#DCDAD1"><path d="M351.249 104.848c-6.013-.634-11.71-2.855-17.565-4.282-1.266-.317-2.531-.634-3.797-.793 1.424-.793 2.531-1.903 3.323-3.488.316-.793.316-1.428.158-2.062 3.165-1.903 6.171-3.806 9.336-6.026 3.165-2.22 8.228-4.282 9.969-8.087.791-.159 1.424-.476 2.215-.635-.949-6.343-2.532-12.527-5.063-18.395-4.115-9.832-6.805-19.346-13.451-27.91-5.854-7.77-12.817-11.1-21.678-14.747-11.235-4.599-23.578-3.965-35.287-6.026-10.76-1.903-20.255-5.868-31.331-5.868-6.646 0-13.292.793-19.78.793-5.38 0-10.444-1.903-15.666-1.744-2.215 0-4.114.476-6.329.159-3.165-.476-5.855-2.22-8.862-3.33-4.43-1.428-8.703-1.27-13.292-1.11-10.443.317-20.412-2.38-30.698-.794-5.222.793-9.336 2.855-14.399 4.123-2.532.635-4.747 1.745-6.805 3.013h-1.898c-10.761-.792-21.837 1.11-32.123 3.172C81.295 14.3 64.68 27.303 55.502 41.734c-5.064 7.929-6.646 17.285-10.918 25.53-4.748 9.674-8.387 18.555-11.868 28.862-3.165 9.198-6.013 18.237-10.76 26.8-4.431 8.087-6.963 17.602-8.545 26.799-1.74 9.357-3.007 19.506-7.121 28.386-1.582 3.33-4.114 6.184-5.222 9.673-1.582 4.758-1.108 9.832-.475 14.748 1.108 8.405 3.165 16.651 4.273 25.214 1.266 9.832 2.848 20.615 6.33 29.813 3.006 7.928 9.968 14.43 15.507 20.615 5.854 6.501 13.608 10.307 21.995 12.844 10.127 2.855 20.096 3.489 29.59 8.564a29.393 29.393 0 003.165 1.585c.316.159.633.476.95.476h.316c.95.476 2.057.952 3.006 1.269.317-.476.633-.793.792-1.269 3.164-.634 6.013-2.696 8.386-5.074 5.222-5.233 9.178-11.735 14.4-16.968 5.538-5.55 12.975-8.088 18.83-13.162.317-.317.633-.476.791-.793.633-.317 1.266-.793 1.899-1.269.95-.793 1.583-2.22 2.69-3.013.159 0 .317 0 .317.159 0 1.269 0 2.696-.158 3.964-.633 6.344-3.64 11.894-4.273 18.237-.633 6.502-1.582 12.528-2.69 18.871-.791 4.757-1.108 8.721 0 13.479.317 1.268 1.582 2.854 3.007 3.013.316 0 .633.158.949.158 1.424.159 2.532-.158 3.481-.793 9.02 1.745 17.723 4.758 26.584 6.978.158 4.123 1.266 7.77 4.431 7.929.316 0 .316-.476 0-.476-2.374-.793-3.007-3.964-3.007-6.977 4.906 1.11 9.495 2.061 13.925 4.916 3.956 2.537 6.805 5.55 11.235 7.294 9.811 3.806 20.255 3.489 30.382 1.11 8.545-1.903 16.773-5.391 25.16-7.612 9.969-2.695 20.571-2.695 30.698-4.598 7.595-1.427 15.666-3.648 21.679-8.881 6.646-5.867 10.127-14.43 14.241-22.042 10.285-18.554 18.197-38.852 25.002-58.832 6.804-19.823 15.349-39.169 18.83-60.102 3.481-20.298-3.798-40.12.158-60.101.158-.793.317-1.744.475-2.537 3.481-2.379 2.532-9.039-2.69-9.673zm-293.057-37.9c3.323-9.674 5.697-18.712 12.343-26.8 6.33-7.612 15.823-15.224 25.001-18.712 5.064-1.903 10.602-2.379 15.824-3.648 5.38-1.268 10.602-2.854 16.14-3.171 9.336-.476 17.565-2.537 26.742-4.123.633-.159.792-.634.792-1.269 5.854-.317 11.551.317 18.039 1.269 8.861 1.427 16.773 0 25.001 3.647 7.279 3.172 15.508 2.855 23.261 3.965 8.862 1.427 18.04 0 26.901.317 10.127.317 18.197 4.123 27.85 6.502 9.178 2.22 18.514 2.22 27.375 5.708 4.114 1.586 7.437 4.44 11.077 6.978 3.639 2.378 4.588 5.074 6.962 8.722 4.272 6.343 5.538 13.796 8.703 20.615 1.741 3.647 3.798 7.136 4.906 11.1.632 2.379.949 4.599 1.107 7.136-2.215 1.586-4.272 3.013-6.646 4.44a100.656 100.656 0 00-6.962 4.123h-.317c-.316-1.11-.791-2.378-1.107-3.488-2.216 1.427-4.589 2.695-6.805 4.123.317.793.475 1.427.792 2.22-2.532 1.11-5.064 2.378-7.596 3.488-1.582.635-3.006 1.428-4.431 2.379-.158-.634-.474-1.268-.632-1.744-2.058.951-4.115 2.061-6.172 3.013.317.793.633 1.586.791 2.378-3.797 2.379-7.595 4.758-11.709 6.185-.158-.793-.475-1.586-.791-2.379a85.256 85.256 0 00-5.064 3.013c.949 2.696 1.741 5.392 2.057 8.405.633 5.55-.158 10.466-.316 16.016 0 2.062-.475 5.075.158 7.136.949 2.855 3.481 4.599 4.272 7.612 1.583 6.343-1.424 12.686-1.582 19.029-.158 6.502-1.899 12.528-3.323 18.713 1.108.317 2.215.634 3.165.951 2.373-5.709 4.905-11.259 5.222-17.602.474-6.185 2.215-12.052 1.898-18.237-.316-6.343-5.854-10.307-6.013-16.65-.158-3.013 1.266-5.709 1.583-8.722.316-2.696.316-5.55.158-8.246-.158-1.744-.317-3.489-.633-5.075 4.272.159 8.545-1.11 12.501-2.695v.317c.791 6.501-.317 12.369-.317 18.712 0 2.537-.633 5.867.159 8.246 1.107 3.33 4.114 5.392 4.905 8.88 1.741 7.454-1.741 14.907-1.899 22.36-.158 11.893-5.064 22.359-6.013 34.094-.316.635-.791 1.269-.949 1.903-.159.476-.475.952-.633 1.427-.633-1.585-1.108-3.33-1.741-4.916-.316-.792-1.582-.475-1.266.318.791 2.061 1.583 4.123 2.215 6.343-1.107 2.061-2.215 4.281-3.323 6.343-2.848 5.233-6.013 9.832-6.962 15.699-1.424 9.039-5.538 16.651-11.551 22.994-.475-1.269-.792-2.696-1.266-3.965-.317-.792-1.424-.475-1.266.318l1.424 4.757c-3.007 3.013-6.33 5.709-9.969 7.929a166.729 166.729 0 00-4.272-12.528c4.43-3.013 8.861-6.66 10.127-11.576 1.899-1.744 3.165-5.075 3.956-7.453 2.373.476 4.589.634 6.646 0 1.266-.476 2.057-2.22.949-3.33-1.74-1.586-3.639-2.696-5.696-3.806 0-.159 0-.317.158-.476-8.07-2.061-15.982-6.977-22.628-11.1-3.956-2.379-8.229-5.075-12.343-7.929a95.903 95.903 0 01-5.38-3.172c.158-.158.317-.476.475-.634a41.49 41.49 0 01-3.956-3.489c-.158.159-.158.317-.317.476-.158.317-.316.634-.474 1.11-3.482-1.903-7.279-3.489-10.919-4.123h-.474c1.265-1.903 2.531-3.806 3.639-5.392 2.374-3.964.791-8.246 2.057-12.527 1.741-6.026 6.171-9.832 7.437-16.334.95-4.44.791-9.673-.474-14.113-1.108-4.123-3.956-6.661-7.279-8.247-.633-3.488-1.266-6.818-1.899-10.149 1.424.635 3.006 1.111 4.589 1.586 7.912 2.22 11.235 5.392 13.133 13.479.95 4.282 2.058 9.515 1.899 14.272-.158 0-.158.159-.158.318-1.108 5.708-2.69 11.734-4.589 17.285-.791 2.22-2.057 4.281-2.373 6.66-.159 2.22.633 4.44.474 6.66-.158 2.537-1.107 4.282-2.373 6.026 1.424.952 2.848 1.903 4.114 2.855 1.108-1.903 1.899-3.965 2.215-6.185.791-5.392-.158-9.832 1.424-15.065 1.266-4.123 1.741-8.722 1.899-13.162 1.899-4.282 1.741-8.88 1.583-13.796-.317-6.026-.317-14.748-4.273-19.664-1.424-1.744-3.323-3.013-5.538-3.806-.791-4.916-2.532-9.832-4.273-14.748 3.007 1.428 6.013 2.855 9.02 3.965.158.317.316.793.316 1.11.159.476.317.951.317 1.427-.158-.317 0 4.282-.633 2.379-.158-.317-.475-.159-.475.158.159.476.159.952.317 1.428 0 .158.316.317.474.317 2.374-.476 2.058-3.33 1.266-6.026 3.956 1.744 6.013 4.916 8.862 8.246 4.905 5.709 7.753 13.32 6.962 21.091-.475 4.44-1.582 9.197-2.848 13.479-1.582 5.867-1.582 10.942-2.374 16.968-.633 4.757-.791 9.514-1.424 14.272-.633 4.44.158 9.356-.633 13.479-.158.634-.316 1.269-.633 2.061 1.108.793 2.216 1.428 3.482 2.221 2.215-3.331 2.057-6.344 2.69-10.467 1.265-9.356 2.848-18.553 2.848-27.909 0-9.198 5.063-18.554 4.272-27.91-.949-10.466-4.43-16.968-10.602-24.897-.316-.476-.633-.793-.949-1.11.158 0 .316-.159.316-.317.475-6.66-1.424-13.162-2.531-19.664 0-.475-.159-.951-.159-1.427 1.424.317 3.007.951 4.273 1.903 1.266.951 2.373 2.061 3.481 3.33.158 2.855.316 5.709.633 8.563 0 .317.475.317.475 0 .316-2.22.316-4.44.316-6.819 1.108 1.269 2.215 2.538 3.323 3.648 5.222 4.916 7.121 10.466 7.437 17.602.159 3.171-.474 6.343 0 9.515.317 2.854 1.741 5.233 2.532 8.087 1.424 5.392.158 10.149-.316 15.541-.633 6.66-.159 13.637-.792 20.298-.316 3.488-1.898 6.819-3.006 9.99 1.424.159 2.69.476 4.114.634 1.108-1.585 2.532-3.013 3.481-4.757 2.532-4.44 2.374-10.149 2.69-15.223.475-6.819 2.216-14.59 1.266-21.408-1.107-7.454-3.797-13.638-3.956-21.25-.158-5.233-.633-11.576-3.164-16.333-1.425-2.696-3.64-4.916-5.855-6.978-2.374-2.22-4.114-4.916-6.488-7.294-.633-.635-1.266-1.11-1.899-1.586-.158-2.379-.475-4.916-.633-7.295-.158-1.427-.316-2.854-.316-4.123 2.215.634 4.747.793 7.279.952 1.107 0 1.899.158 2.848.317-.475 3.013-.949 6.184-1.741 9.197-.158.635.792.793.95.317a86.142 86.142 0 001.899-9.197c9.177 2.854 9.81 14.272 12.975 22.835.475 1.427 1.108 2.855 1.583 4.282 1.582-1.269 3.164-2.537 4.747-3.648v-.158c-4.114-9.198-4.273-19.822-12.976-26.483-1.74-1.268-3.639-1.903-5.538-2.22.316-3.33.633-6.819.791-10.149 2.69.635 5.38.952 8.228.952 15.191.634 15.508 16.175 19.622 27.434.475 1.11.791 2.22 1.266 3.33 1.899-1.11 3.956-2.22 6.013-3.172-4.747-10.624-4.905-22.994-14.874-30.605-4.589-3.489-10.286-2.538-15.666-3.172-6.804-.793-11.235-6.819-17.564-9.039-12.501-4.281-25.951-2.378-38.769-1.586-6.171.318-9.811-.158-15.349-2.537-5.38-2.22-10.285-4.757-15.982-6.026-3.956-.951-8.07-1.268-12.026-1.586 2.69-2.537 5.538-5.074 8.07-7.611.475-.476-.316-1.428-.791-.793-2.848 3.013-6.013 5.709-9.178 8.404-8.228-.158-16.457.793-24.685 1.586-5.064.476-10.285-.158-15.349.317-3.323.318-6.646 1.269-9.969 1.903-6.488 1.428-12.184 4.44-18.356 6.82-4.905 1.744-9.02 6.818-11.076 11.417-.95 2.061-1.424 4.281-1.9 6.343-.949 1.744-1.582 3.489-2.215 5.233-4.43 1.903-8.386 4.44-12.342 7.136-.475-3.013-.95-6.026-.95-9.039v-1.427c3.64-2.379 7.121-4.916 10.444-7.77.633-.476-.316-1.269-.791-.793-2.848 2.537-5.855 4.757-9.02 6.819 4.115-8.088 6.33-18.713 12.501-25.056l.317-.317c2.215-2.22 5.063-3.964 8.703-4.599 1.74-.317 3.323-.951 4.747-1.744.633.476 1.582-.159 1.582-.951 2.69-1.428 5.38-3.172 8.545-3.806 9.02-1.903 17.723-1.903 26.901-2.696 3.164-.317 6.329-1.11 9.494-1.586 3.639-.634 6.804-.159 10.444-.159 9.177 0 16.615-1.11 25.792 1.269 10.286 2.854 19.78 11.26 30.699 11.418 6.646 0 13.608-.635 20.096-1.269 7.912-.952 14.399-.317 22.153.634 7.754.952 11.868 3.806 18.198 8.246 4.905 3.33 10.127 3.806 15.982 3.965 17.564.634 17.88 18.553 22.628 31.557.633 1.744 1.424 3.489 2.057 5.233 2.373-.951 4.905-1.903 7.279-2.854-.317-.635-.475-1.27-.792-1.903-5.538-12.37-5.696-26.641-17.406-35.68-5.38-4.123-11.709-2.855-18.039-3.648-7.912-.951-12.975-7.929-20.254-10.466-14.4-4.916-29.907-2.696-44.623-1.744-7.121.476-11.394-.317-17.723-2.855-6.171-2.695-11.868-5.391-18.514-6.977-14.874-3.33-29.59-1.586-44.465.159-5.855.634-11.868-.16-17.722.317-3.956.317-7.754 1.427-11.552 2.22-7.595 1.585-14.083 5.233-21.204 7.77-5.538 2.062-10.444 7.77-12.817 13.004-1.108 2.378-1.582 4.915-2.215 7.453-2.69 5.391-4.59 11.259-5.222 17.126 0 0-.159 0-.159.159-3.955 2.22-7.278 5.391-11.234 7.611-1.266.793-2.849 1.428-4.273 2.22 1.74-5.55 4.114-10.466 5.855-15.857zm258.244 129.241c-.158.158-.158.317-.158.634-1.266 5.075-2.373 10.149-2.69 15.382-.475.793-.791 1.427-1.108 2.062-1.582 3.33-3.322 6.66-5.063 9.832-.475-2.855-.95-5.868-1.108-8.722-.158-4.123-.158-8.088-.791-12.211-.475-3.806-1.582-7.453-2.69-11.1 2.374-5.709 4.747-11.418 5.064-17.92.474-7.294 2.531-13.954 2.215-21.249-.317-7.453-6.804-11.893-7.121-19.505-.158-3.647 1.424-6.819 1.899-10.308.317-3.013.317-6.501.158-9.673 0-.951-.158-2.061-.316-3.013 2.057-.951 3.956-1.903 6.013-2.537 1.424-.476 2.848-1.11 4.272-1.745.159.159.317.159.633.318.475.158 1.108.475 1.583.634.633 6.819-.475 13.162-.633 19.981 0 2.854-.633 6.819.158 9.514 1.266 3.806 4.747 6.185 5.696 10.308 2.058 8.722-2.057 17.126-2.057 25.69 0 8.404-2.057 16.016-3.956 23.628zm-25.951 67.237c-1.582-4.916-3.164-9.832-4.588-14.748-.159-.793-1.583-.476-1.266.317 1.424 5.233 3.164 10.466 4.905 15.7-3.481 4.598-7.595 8.721-12.343 12.21-1.107-4.44-2.373-8.88-3.639-13.479 3.323-2.854 6.171-6.185 7.279-9.991 2.532-2.22 4.114-7.136 5.064-9.99 1.74-4.599 1.74-9.515 3.164-14.113.633 2.537 1.266 4.916 1.899 7.453 1.108 4.757 1.899 9.514 2.848 14.43.317 1.586.633 3.172.95 4.599-1.266 2.855-2.69 5.392-4.273 7.612zM244.28 286.42c-.791-3.806-1.582-7.771-2.374-11.576 3.007-.793 5.539-.159 8.703.158 4.115.317 7.121-1.11 10.286-2.854 1.108 3.806 2.057 7.611 3.006 11.576-6.171.793-12.659-.634-18.83 2.379-.316 0-.475.158-.791.317zm-11.71 22.835v2.061c-4.272 1.269-8.545 2.855-12.817 4.282 0-3.33-.158-6.66-.475-9.832 2.216-.793 4.431-1.427 6.488-2.061a45.94 45.94 0 006.171-1.903c.317 2.537.633 4.916.633 7.453zm-9.969-12.528c-1.424.317-2.69.793-3.956 1.269-.474-3.965-.791-7.77-1.107-11.735v-.317c.633-.159 1.424-.476 2.057-.634 3.323-.793 6.646-2.062 9.652-3.489.633 3.806 1.108 7.612 1.583 11.418v.317a25.462 25.462 0 01-8.229 3.171zm-15.823 4.916c-.159-4.123-.475-8.246-.792-12.21 3.482-.635 6.963-1.903 10.444-3.013 0 .793 0 1.427.158 2.22.159 3.33.475 6.502.791 9.832-2.531.951-4.905 1.903-7.437 2.695-1.107.318-2.215.476-3.164.476zm-53.485 7.453v1.745c-3.956-.635-7.754-1.427-11.71-2.062 0-2.22.317-4.44.317-5.709v-5.55c2.057.159 4.272.476 6.329.952 1.741.475 3.482 1.11 5.064 1.903v8.721zm-7.437-45.987c3.006.317 6.013.317 9.019.951 0 3.648-.158 7.295-.316 10.784-1.582-.476-3.323-.793-5.222-1.111-2.215-.317-4.431-.475-6.488-.792.317-3.331.633-6.819.792-10.149.474.158 1.265.158 2.215.317zM94.903 218.39c-3.481-4.44-9.02-12.211-9.336-16.81-.158-3.013 1.583-4.598 2.69-7.136 1.583-3.171 2.216-6.501 3.956-9.514 1.9-3.489 5.538-6.026 6.963-9.674 1.266-3.013 1.899-6.501 2.848-9.831 1.424.158 2.848.317 4.431.475 2.531.159 5.538.318 8.228-.158-2.057 3.013-2.374 6.343-4.589 9.356-3.165 3.964-6.646 7.453-9.178 12.052-2.848 5.55-7.437 13.955-2.215 19.029 3.323 3.172 8.228 5.075 12.026 7.453 4.589 2.855 7.595 6.026 12.817 7.612 4.115 1.11 8.07.793 12.026 1.744 3.798.952 6.172 2.696 10.444 2.538 5.538-.317 7.279-.635 11.551 4.281 1.108 1.269 1.741 2.696 2.849 3.965 3.323 3.489 6.329 3.33 10.918 4.44 6.013 1.427 12.185 2.22 18.356 3.33 5.38.952 11.709 2.537 17.09.952 4.272-1.269 8.861-3.806 12.817-6.026 3.481-1.903 6.646-4.282 9.336-7.295 4.747-1.269 7.754-5.867 11.077-9.515a12.572 12.572 0 012.057-2.061c2.057 1.268 3.956 2.379 5.854 3.647.95.634 1.899 1.269 3.007 1.903-.791 1.269-1.741 2.696-2.374 3.965-3.006 5.391-7.437 7.611-12.975 9.99-5.064 2.061-10.76 1.427-15.349 4.599-3.481 2.378-7.121 6.501-10.602 7.929-2.532.951-7.754 1.903-10.76 2.061-3.007.159-5.539 0-8.387.952-.949.317-1.582.475-2.215.792-.159-.475-.159-.792-.317-1.268-.158-.634-.949-.476-1.107 0-.317-.634-1.108-1.11-1.899-1.269-5.38-.158-10.761-.634-16.141-1.11-6.013-.634-6.962-3.489-11.551-6.977-7.912-5.868-14.716-7.295-24.369-7.929-2.848-.159-5.221-1.269-8.228-1.903-5.064-1.11-12.659-3.33-17.248-6.026-4.272-2.379-8.07-2.696-11.077-6.819l-.474-.476.158-.158c.475-.793-.475-1.745-1.108-1.11zm-6.962 41.071a67.787 67.787 0 016.804 2.696c-1.266 1.903-2.532 3.806-3.64 5.868-1.107 1.903-2.057 3.806-3.164 5.708-2.374-1.268-4.906-2.378-7.437-3.33l4.747-7.136c.79-1.427 1.582-2.695 2.69-3.806-.159-.158-.159-.158 0 0zm-19.78 25.69c-3.007-.634-5.855-1.269-8.703-1.903a11.958 11.958 0 011.74-2.22c1.9-2.379 4.115-4.44 6.172-6.819.791-.793 1.424-1.744 2.057-2.537 1.424.793 2.848 1.427 4.589 2.061.633.159 1.266.476 1.899.635a430.295 430.295 0 00-7.28 10.783c-.157.159-.316 0-.474 0zm9.336-10.149c-.633 2.379-2.848 4.757-4.272 6.343l-.317.317c1.424-2.22 3.007-4.44 4.59-6.66zm6.488-12.528a200.73 200.73 0 01-4.906 7.454c-2.057-.793-4.114-1.428-6.17-2.221 1.898-2.22 3.639-4.598 5.537-6.818 1.108-1.428 2.374-2.855 3.482-4.282 1.424.952 2.848 1.744 4.589 2.379a27.998 27.998 0 00-2.532 3.488zm-13.609 3.965c-2.848-1.586-4.589-3.965-6.962-6.026-1.266-.952-2.374-2.062-3.798-3.013 3.165-3.013 6.488-6.026 9.81-9.039l.317-.317c1.583 1.11 3.323 2.22 4.906 3.489 2.215 1.585 4.114 3.013 6.171 4.281-1.266 1.745-2.69 3.489-4.114 5.233-1.74 2.062-3.323 3.965-4.906 6.026-.632-.317-.949-.476-1.424-.634zm-20.57-16.175c-2.849-1.586-5.064-1.586-7.596-3.806l-.475-.476c3.798-3.013 7.438-6.501 10.76-9.99 1.108 2.696 2.69 4.757 5.539 6.026l2.373.951c-1.424 1.586-2.848 3.33-4.43 4.916-1.266 1.269-2.374 2.537-3.64 3.965a17.658 17.658 0 00-2.532-1.586zM18 204.276l17.09-11.893c-.634 3.33-1.267 6.819-2.374 9.99a283.2 283.2 0 00-14.242 13.321c-.474-3.647-.79-7.453-.474-11.418zM66.895 85.818c-.633.476-1.424.952-2.057 1.586-5.696 4.123-11.868 7.295-17.88 10.784.157-.793.316-1.428.474-2.22.791-4.124 2.215-8.088 3.798-11.894 2.848-1.427 5.696-3.013 8.386-4.757 2.532-1.903 5.222-3.489 7.912-5.233 0 .475-.158.951-.158 1.585-.158 3.33-.317 6.82-.475 10.15zM46.482 99.933c6.014-3.489 12.185-6.66 17.881-10.783.791-.635 1.583-1.11 2.532-1.745-.158 3.806-.475 7.453-1.108 11.26-3.006 1.902-6.013 3.647-9.02 5.391-4.113 2.379-8.07 4.916-12.025 7.612.475-3.965 1.108-7.929 1.74-11.735zM147.596 59.02c2.058.158 2.849-.952 4.273-2.379 2.532-2.379 5.538-4.282 8.228-6.502 1.108-.951 2.374-2.061 3.482-3.013 4.43-.158 8.544-.317 13.133.476-4.43 3.965-9.019 8.088-13.766 11.894-4.748.317-9.653.792-14.4 1.268-4.431.476-8.703-.158-13.134.159-2.848.317-5.696 1.11-8.545 1.744-5.538 1.269-10.443 3.806-15.665 5.867-4.114 1.586-7.754 5.71-9.495 9.674-.791 1.744-1.265 3.647-1.74 5.55-2.374 4.757-3.798 9.832-3.956 15.223-.158 3.489-.158 6.661-.475 9.991h-.633c-3.323 1.744-6.646 3.489-9.969 5.392.633-3.648 1.424-7.295 1.9-10.942.79-6.185-1.425-11.894-1.425-17.92 0-.634 0-1.268.158-1.903 3.798-6.977 5.697-16.809 11.235-22.518l.158-.158c2.057-1.903 4.431-3.33 7.596-3.965 1.424-.317 2.848-.793 4.114-1.427.633.476 1.266-.159 1.424-.793 2.374-1.269 4.589-2.696 7.437-3.33 7.912-1.744 15.349-1.586 23.42-2.22 2.848-.159 5.38-.951 8.228-1.427 3.165-.476 5.855-.159 9.019-.159h3.323c-2.531 2.22-5.063 4.282-7.595 6.343-2.057 1.586-3.798 4.123-6.488 4.916-.316-.475-.158 0 .158.159zm103.488 2.854c0-.793-1.266-.793-1.266 0 .317 4.282.633 8.563 1.108 12.845-3.007-1.903-5.855-4.282-9.178-5.55-10.76-3.648-22.153-2.062-33.072-1.269-5.221.317-8.386-.158-13.133-2.22-4.589-1.903-8.703-4.123-13.767-5.075-5.697-1.268-11.393-1.427-16.932-1.268.317-.317.633-.476.95-.793 4.272-3.33 8.386-7.136 12.501-10.783.791.158 1.582.317 2.531.634 8.862 2.379 17.09 9.832 26.584 9.99 5.697 0 11.868-.475 17.565-1.11 6.962-.793 12.501-.317 19.305.635 6.804.793 10.285 3.33 15.824 7.136 1.424.951 2.848 1.585 4.272 2.061 0 3.489-.316 6.978-.633 10.466-2.215-.158-4.43-.158-6.646-.317-1.582-.158-3.165-.793-4.589-1.427-.633-4.916-1.107-9.515-1.424-13.955zm.791 23.628c.159 2.062.317 4.123.475 6.343-2.69-1.585-5.222-2.061-8.228-2.378a223.196 223.196 0 00-2.374-14.272c2.057.951 3.956 2.378 6.33 3.964 1.107.793 2.215 1.269 3.323 1.745.158 1.585.316 3.171.474 4.598zm-8.07 10.308c.95 6.977 2.216 13.638 3.007 20.615-3.323-3.33-6.805-3.964-11.235-5.392-1.583-6.343-2.532-12.686-3.64-19.029a46.022 46.022 0 017.279 2.061c1.424.476 2.849.793 4.431 1.11.158.318.158.476.158.635zm-22.153 58.039c0 .318.475.318.475 0a38.349 38.349 0 000-6.026c1.266 1.111 2.215 2.538 2.69 4.124 1.582 6.977-.159 13.479-4.273 19.029-2.373 3.171-2.848 5.55-3.481 9.515-.475 3.013-.316 6.026-1.582 8.721-1.741 3.806-5.855 8.405-9.336 10.784-4.589 3.013-8.862 7.294-14.717 7.453-7.279.158-13.608-3.806-18.672-8.722-5.538-5.392-6.013-12.21-14.874-13.162-5.064-.634-10.286 1.586-15.349 2.22-2.374.317-6.963 1.745-6.963-.793 0-2.378 3.482-3.806 5.064-5.55 3.007-3.172 4.272-6.819 5.855-10.625 2.215-5.55 5.855-8.563 9.019-13.162 3.482-5.074 1.899-11.1 1.266-16.968.159 0 .159-.158.159-.317.632-1.427.474-1.585 2.215-1.903 2.848-.793 1.108.318 2.69 2.062.791.951 1.108 2.379 1.899 3.489 1.582 2.061 4.114 4.281 6.962 3.964 2.69-.317 4.273-2.537 6.013-4.282 6.488-6.026 12.659-3.805 20.255-2.378 2.69.476 6.646.951 10.76 1.744.633 3.965 1.582 7.929 2.215 11.893-.949-.792-1.899-1.427-3.006-1.902-3.165-1.586-8.703-.952-12.026-.476-4.747.793-7.121 2.854-11.868 1.11-6.963-2.379-14.242-.317-19.147 4.916-1.899 1.586-3.481 3.964-5.064 5.709-2.057 2.22-3.956 3.964-4.43 6.977-.317 2.379 0 4.282 2.215 5.55 1.741 1.11 5.855-.158 7.754.159 5.538.793 6.487 1.744 8.545 5.709 2.531 4.916 5.221 16.175 11.234 17.76 4.589 1.269 8.704-2.695 12.343-4.598 3.64-1.903 7.437-2.855 9.811-6.343 2.69-3.965 2.373-9.357 4.43-13.638 1.583-3.172 3.323-5.55 4.273-9.039.949-3.647-.791-7.612-3.64-10.625-.474-2.22-.949-4.281-1.424-6.343l-1.424-6.66c4.114.793 8.387 1.903 11.393 3.806 1.108 2.061 1.424 4.44 1.741 6.818zm-17.248-44.56c3.323-.793 6.646-1.427 10.285-1.11 1.266 4.916 2.058 9.832 2.69 14.748-1.265-.476-2.69-.952-4.114-.952-2.215-.158-4.114.476-6.329.476-.158-4.599-.791-9.356-2.532-13.162zm2.69 25.69c.158.793.158 1.585.316 2.378l-4.747-.475c-5.38-.635-11.868-3.489-17.248-2.22-2.531.634-5.538 1.902-7.753 3.33-.95.634-1.583 1.427-2.374 2.061-.791.793-1.424 1.427-2.057 2.22-2.374-.634-4.905-1.427-7.279-2.061-2.373-1.903-1.582-6.502-5.696-6.978-1.741-.158-3.007.635-3.798 1.745-.317-.159-.633 0-.791.317-.159.793-.159 1.586-.317 2.378-.158.635-.158 1.111-.158 1.745 0 .158 0 .317.158.476-.158 2.378 0 4.757-.316 7.453-.475 4.757-1.266 7.136-4.747 10.624-2.058 2.062-3.798 3.489-5.381 6.026-3.639 5.709-6.013 11.26-11.234 15.7-2.849 2.378-6.172 4.281-4.906 8.404 3.007 10.149 21.521.635 27.85 1.11 7.595.476 10.76 8.881 15.349 14.272 4.114 4.916 7.912 7.612 14.242 8.881 4.588.951 9.019 1.11 13.292-1.269 4.272-2.379 9.652-6.343 13.133-9.832.633-.793 1.424-1.585 2.057-2.378.159.475.475.951 1.108 1.268 3.481 1.11 6.646 3.489 9.653 5.868-2.532 4.123-4.115 3.013-7.121 4.757-2.69 1.744-5.538 4.123-8.387 5.55-2.848 1.427-6.013 1.745-8.861 2.855-2.848 1.11-5.222 2.695-8.387 3.33-5.063 1.11-8.386.158-12.5-2.22-1.425-.793-2.532-1.428-4.115-2.062-3.006-.951-6.329-.476-9.019-2.379-2.849-2.061-3.007-4.123-4.906-6.977-2.373-3.489-5.38-5.867-9.177-7.612-9.495-4.44-16.141-6.026-26.743-4.757-3.639.476-9.81 3.172-9.336-4.123.159-3.172 5.697-7.295 7.596-9.673 2.69-3.489 6.488-6.978 8.861-10.625 2.057-3.013 3.007-7.453 4.114-10.942 1.424-4.44 3.64-8.405 5.064-12.686 3.323-9.673-1.582-22.043 1.108-32.35.158 0 .158-.159.316-.159 2.215-3.013 3.165-6.343 8.703-2.854 1.424.951 2.532 3.33 3.798 4.44 1.424 1.11 3.165 1.586 4.747 2.537 2.532 1.428 4.747 3.489 7.279 4.758 3.006 1.744 6.646 2.854 10.285 2.537 6.013-.634 9.653-5.075 16.141-4.282 3.797.476 7.279 2.22 10.918 3.33.633 3.013.791 5.709 1.266 8.564zm5.222 29.971c0 .317.475.158.475 0v-1.427c.158.475.316.951.316 1.427.158 1.427-1.266 4.123-1.899 5.233-1.266 2.379-2.848 4.44-3.956 6.819-1.582 3.33-2.373 8.88-5.38 10.942-2.057 1.427-5.222 1.744-7.595 2.854-2.057.952-4.114 2.537-6.33 2.696-3.956.317-1.266.634-3.323-1.427-3.798-3.489-6.962-9.198-9.969-13.479-2.848-3.965-5.063-4.758-9.811-4.758-3.956 0-5.854 1.903-5.538-3.33.317-4.123.791-3.647 3.165-6.502.949-1.11 1.899-2.22 3.006-3.488 3.007-2.062 5.539-3.965 9.336-4.44 4.431-.635 7.438 1.902 11.552 2.378 5.696.476 10.76-4.281 16.931-3.171 2.374.475 6.33 3.33 8.545 6.343l.475 3.33zm-3.956-27.434c-.317-2.062-.633-4.123-.791-6.343-.159-1.269-.317-2.696-.317-4.282.95.159 1.741.317 2.69.476 3.798.317 5.222 1.11 8.387 2.379l1.424 9.99c-3.639-1.269-7.595-1.903-11.393-2.22zm10.127-13.955c-.633-5.074-1.424-10.149-2.69-15.065 1.266.159 2.532.634 3.798 1.11 2.057.952 4.272 1.903 6.329 2.855 1.583 4.915 3.323 9.831 4.273 14.906-2.849-.952-5.855-1.586-8.545-2.537-.95-.317-2.057-.793-3.165-1.269zm-3.798-19.029c-.474-1.586-1.107-3.172-1.74-4.758-.317-.634-1.266-.317-.95.317.633 1.428 1.108 3.013 1.583 4.441-.633 0-1.266-.159-1.741-.159-4.589 0-7.754.476-12.026 1.903-6.329 2.062-11.868 2.22-18.356.317-5.221-1.586-9.81-3.647-14.557-6.343 3.481-1.586 6.962-4.281 10.127-6.184 1.424-.952 2.848-1.903 4.114-3.172.791.476 1.582.793 2.532 1.11 5.696 1.903 9.811.317 15.191-.793 4.43-.951 8.544 0 12.975-.317 2.69-.159 5.064-.317 7.437-.317 1.741 5.392 3.323 10.942 4.906 16.492-3.007-1.269-6.172-2.22-9.495-2.537zm10.761 2.695c-1.583-5.55-3.165-11.1-4.906-16.65 1.741 0 3.64.158 5.539.476 1.74.317 3.481.634 5.063.951.791 4.44 1.583 9.039 2.374 13.479.316 1.744.633 3.647.949 5.392-3.006-.952-6.013-2.22-8.861-3.33 0-.159-.158-.318-.158-.318zm12.342-18.712l-6.646-1.427c-.633-3.172-1.424-6.502-2.373-9.515-.159-.634-1.266-.317-1.108.318a94.99 94.99 0 012.373 9.038c-3.639-.634-7.595-1.11-11.234-.951-.792-2.379-1.741-4.599-2.849-6.977-.316-.635-1.266-.159-.949.634.949 2.061 1.74 4.281 2.532 6.343-8.229.159-16.141 0-24.211.476-9.969.634-16.14-7.136-25.16-9.198 5.222-3.171 10.761-5.867 12.818-11.734 7.279 2.378 14.083 8.087 21.837 8.245 4.905 0 10.127-.475 15.032-.95 5.855-.635 10.602-.318 16.457.475 2.215.317 4.114.793 5.855 1.586 1.107 4.916 1.74 9.831 2.532 14.747-1.425-.475-3.007-.634-4.906-1.11zm-155.706-1.11c-.317 6.978-.317 13.479-1.424 20.457-.633 3.489-1.266 6.819-2.057 10.149-3.64 2.22-7.121 4.281-10.76 6.502.316-3.648.79-7.295 1.424-10.784.158-.634.316-1.268.316-2.061 3.481-2.22 6.804-4.282 10.286-6.502.79-.476 0-1.744-.633-1.269-3.007 2.062-6.172 3.965-9.178 5.868.95-4.599 1.74-9.198 2.532-13.955 3.164-2.062 6.171-4.282 9.177-6.66.792-.635-.316-1.586-.949-.952-2.532 2.062-5.222 3.965-7.912 5.709v-.317c.475-3.489 0-6.978-.475-10.308 3.64-2.537 7.596-5.074 11.71-6.819-1.266 3.648-1.899 7.295-2.057 10.942zm-5.697 41.389c-.316 1.903-.474 3.965-.79 6.026-3.007 1.903-5.856 4.123-8.704 6.185-.475.317-.95.634-1.424 1.11 1.108-5.075 1.74-10.466 2.215-15.7 3.481-2.061 6.963-4.281 10.444-6.343-.633 2.855-1.266 5.709-1.74 8.722zm-32.122-15.541l1.424-.951c4.114-2.696 8.545-5.075 12.817-7.612a155.173 155.173 0 006.805-4.123c-.791 4.758-1.9 9.356-2.849 14.114-2.215 1.427-4.43 2.695-6.645 4.123-3.798 2.378-7.754 4.598-11.552 6.977-1.266.793-2.373 1.586-3.64 2.379 1.583-4.916 2.69-9.991 3.64-14.907zm-1.108 14.907c3.956-2.537 7.912-4.916 12.026-7.295 2.216-1.427 4.59-2.854 6.805-4.281-.475 2.22-.791 4.44-1.266 6.66-.317 2.061-.633 4.123-.791 6.184l-.159.159c-5.538 3.33-11.076 6.66-16.298 10.625-2.215 1.744-4.43 3.488-6.804 4.916.79-4.916 1.74-9.832 3.323-14.59.95-.951 2.057-1.744 3.164-2.378zm-6.33 18.395c2.69-1.427 5.065-3.489 7.438-5.233 4.905-3.806 10.127-6.978 15.507-10.149-.633 4.757-1.266 9.514-2.69 13.955-.474 1.268-.95 2.537-1.582 3.647-1.582 1.11-3.323 2.061-4.905 3.172-5.38 3.488-10.76 6.66-16.299 9.99.791-5.075 1.424-10.149 2.215-15.224 0 0 .159 0 .317-.158zm16.774 5.233s.158 0 .158-.159c-.633.952-1.266 2.062-2.057 3.013 0 0 0 .159-.158.159 1.424-.159 3.481.158 4.589.317 1.266 0 2.532 0 3.798.159 1.107-1.586 2.215-3.33 3.006-5.233.791-1.903 1.424-3.806 2.057-5.709l3.323-2.379 7.121-5.233c-.158 1.744-.475 3.647-.791 5.392 2.215-.635 4.589-1.11 6.804-1.586.316-2.537.633-5.233.95-7.77.316-.159.474-.318.79-.476.792-.317.159-1.586-.632-1.269.316-3.489.633-6.977 1.266-10.307.316-1.586.633-3.013.949-4.441 3.64-2.061 7.12-4.123 10.918-6.026-.158 1.903-.316 3.965-.79 6.026-1.108 6.026-2.69 11.894-3.64 17.92-.317 1.744-.475 3.33-.633 5.074 1.899-.158 3.64-.317 5.538-.475.317-3.965.633-7.929 1.424-11.735.791-4.44 1.74-8.722 2.374-13.321.475.317.791.635 1.266.952 2.848 1.744 5.38 3.647 8.228 5.391l1.424.952c-.474 3.964-1.424 7.929-2.69 12.21-.474 1.745-.791 3.489-1.107 5.233 2.215 0 4.588-.158 6.804-.158a77.332 77.332 0 002.373-14.114c3.007 1.428 6.013 2.538 9.178 2.379.158 0 .317 0 .633-.159l-.475 3.806c-.474 2.696-.474 5.392-.633 8.246 2.058 0 4.115.159 6.172.159v-1.427c.316-4.599 1.424-9.356 1.266-14.114-2.057-.475-3.956-1.268-5.855-2.061 0 .793-.158 1.586-.158 2.378-3.165-1.585-6.646-3.171-9.969-4.757-.159-.951-.159-1.903-.317-2.854a66.13 66.13 0 01-4.589-2.538v2.696c-.949-.475-1.899-1.11-2.69-1.585-2.215-1.428-5.38-3.489-8.228-4.282 0-.952 0-1.903-.158-2.855-.475-.317-1.108-.475-1.583-.792-1.108-.476-.316-2.22.791-1.903.159 0 .317.158.475.158-.475-2.696-.95-5.233-.95-7.929v-1.744c3.324-6.026 4.906-14.43 9.653-19.347l.158-.158c1.741-1.745 3.798-2.855 6.488-3.489 1.266-.317 2.374-.793 3.481-1.269.475.318 1.108-.158 1.266-.634 2.057-1.11 3.956-2.378 6.33-2.854 6.804-1.427 13.134-1.427 19.938-1.903 2.373-.159 4.589-.793 6.962-1.269 1.108-.158 2.216-.158 3.323-.158-1.107.793-2.215 1.427-3.323 2.22-.791 0-1.266.158-1.582 1.11-.158.476.316.793.791.634 2.057-1.11 3.956-2.537 5.855-3.964.791 0 1.741 0 2.69.158 6.804 0 12.184-.793 18.989.952-2.216 6.026-8.862 8.404-14.242 11.576-2.057-.159-4.114-.159-6.329.159-6.33.634-11.552-.952-17.723-1.428-5.855-.475-10.76 2.22-15.507 5.233-1.108.793-3.482 1.269-4.589 2.22-1.583 1.27-2.532 3.013-3.482 4.758-5.063 5.867-6.962 13.003-7.12 20.932 1.266.476 2.373.952 3.639 1.427-.316-2.378-.474-4.757-.158-7.294.475-2.855 1.108-5.55 1.899-7.93.316 0 .475-.158.791-.316 1.741-1.903 2.848-4.44 4.747-6.343 2.057-2.22 2.216-1.586 4.589-2.855 6.646-3.647 11.71-5.074 19.305-3.647 3.165.634 6.171 1.11 9.336 1.11 1.424 0 2.848-.159 4.273-.476-.633.952-1.108 2.062-1.425 3.33 0 .317.317.476.475.159.791-1.427 1.741-2.696 2.848-3.647 1.266-.159 2.532-.159 3.798.158 5.38 1.11 9.653 5.392 14.4 8.088-1.583 1.427-3.64 2.695-5.38 3.805-.95.635-6.172 4.124-9.02 5.392-4.905-3.013-9.811-6.502-14.874-9.039-3.323-1.744-8.229-1.903-11.71-1.11-.633.159-1.266.476-1.899.793-8.228 2.22-10.443 10.308-11.076 18.078-.159 2.379.158 4.916.474 7.295 1.741.951 3.482 1.744 5.222 2.695-1.424-6.66-2.532-13.32-.316-19.188h.158c6.962-5.55 11.868-8.404 19.938-2.061 3.956 3.013 8.07 4.916 12.343 7.295 3.164 1.902 6.804 3.488 10.443 4.915-1.582 2.221-3.165 4.441-5.063 6.344-.475.475.158 1.268.633.951 2.373-1.744 4.114-4.282 5.696-6.819 4.114 1.427 8.387 2.379 12.659 2.696 5.38.476 10.127-1.269 15.033-2.537 1.582 3.33 1.899 7.136 2.215 10.624 0 .793.158 1.428.158 2.221-.316 0-.633-.159-1.107-.159-7.437-1.427-11.393-3.489-18.989-1.744-5.222 1.268-9.494 3.33-14.4.158-2.848-1.744-5.221-3.647-8.07-5.391-4.747-2.696-7.753-8.881-13.925-7.929-3.956.634-4.747 2.537-5.38 5.391-2.531 5.551-2.531 13.479-2.69 18.713-.158 2.695-.158 5.233-.316 7.611.475 0 1.107.159 1.582.159 1.583.158 1.583 2.22 0 2.379-.633 0-1.266.158-1.899.158-.316 3.33-1.107 6.66-2.848 10.149-2.057 4.282-4.114 8.563-6.329 12.845-4.589 8.563-13.292 14.906-17.723 23.787-2.374 4.757-2.215 11.734 3.956 13.162 4.905 1.11 10.918-1.428 15.665-1.745 6.013-.475 9.02 1.269 14.558 3.489 3.165 1.269 6.488 1.586 9.02 4.282 2.215 2.378 2.69 5.708 4.114 8.404 1.582 2.696 4.431 5.075 7.279 6.343 2.215.952 4.272.635 6.488 1.428 2.215.792 3.956 2.695 6.013 3.805 4.114 2.062 7.912 1.903 12.342.952 5.222-1.11 9.969-3.965 15.033-6.026 5.222-2.062 9.494-6.026 14.4-8.563 2.848-1.586 4.588-2.855 6.329-5.392 1.108.793 2.215 1.744 3.323 2.537 2.374 1.745 4.906 3.33 7.437 4.916-1.266 1.269-2.373 2.537-3.323 3.648-1.582 1.744-3.323 3.964-5.222 5.867-.316-.476-1.107-.634-1.582-.159-5.696 4.599-12.342 5.868-18.83 8.722-6.963 3.013-12.026 4.599-19.78 3.489-6.488-.952-13.134-2.22-19.622-3.647-2.69-.635-5.063-.635-7.278-2.379-1.899-1.586-2.532-4.282-4.273-6.026-2.848-2.855-6.646-5.55-10.602-6.185-2.057-.317-3.956.318-6.013-.158-2.215-.476-3.956-2.22-6.171-2.537-5.064-.635-9.336 1.427-14.558-.635-3.165-1.268-5.222-3.806-8.07-5.55-2.532-1.744-5.697-2.537-8.07-4.599-6.33-5.233-3.482-11.417-.159-17.126 3.165-5.392 8.862-8.563 11.868-13.638.95-1.586.633-3.33 1.424-4.757.475-.793 1.583-1.269 2.058-2.062 3.323-5.074 6.646-9.99 8.544-15.858 1.108-3.33 1.108-6.343 1.266-9.514-2.215 0-4.272.158-6.487.158 0 .793-.159 1.586-.159 2.379-.316-.317-.791-.634-1.424-.476-3.481.793-7.279.793-11.235.793.317-.793.633-1.744.791-2.537h-6.329l-.475 2.379c-2.373-.159-4.747-.159-7.12-.159-1.108 0-2.374.159-3.64.159.158-.635.158-1.428.316-2.062-1.898 0-3.797.159-5.696.159-.158.793-.317 1.585-.317 2.378a92.067 92.067 0 01-9.336.476v-.476c.159-.634.317-1.427.475-2.061-2.215.158-4.43.158-6.646.158l-.475 1.903c-.949.159-1.424 1.269-.474 1.903v.159c-.475 1.427-.95 2.537-1.583 3.647-.633.317-1.107.793-1.582 1.11-3.165 2.22-6.33 4.44-9.653 6.502-.474.317-.949.634-1.266.951-.949.159-1.74.476-2.69.635.317-.476.633-1.11 1.108-1.586a34.855 34.855 0 01-7.279-1.269c-.633 1.427-1.108 2.855-1.74 4.282-3.956.634-8.229 1.11-11.868.951-.317 0-.633 0-.95-.158 6.488-4.282 12.66-7.771 18.514-11.735zm42.25 6.502c-6.963.634-13.925 1.11-20.888 1.268H68.32c-1.741 0-3.64 0-5.38-.158.157-.159.474-.317.632-.476 2.057-1.427 4.114-2.854 6.013-4.123-.158.158-.316.476-.474.634 2.531 0 5.063-.158 7.595-.158.633-.952 1.266-2.062 1.74-3.172.317-.951.792-1.744 1.108-2.696 3.007.635 6.013.952 9.02 1.11-.475 1.428-1.108 2.696-1.9 3.965 2.058-.159 4.273-.476 6.33-.635.475-.951.792-1.902 1.108-3.013 2.532.159 5.222.159 7.754.159h2.057c-.317.634-.633 1.11-.95 1.586 1.899-.159 3.956-.317 5.855-.476.158-.317.475-.634.633-1.11 5.538 0 11.71-.793 14.716-4.123a27.09 27.09 0 01-1.424 4.757h.633c1.582 0 2.057 2.379.317 2.855-.792.158-1.741.475-2.532.634-.475 1.11-1.108 2.062-1.741 3.172-.316 0-.633-.159-.949 0-4.114.793-8.862.158-13.292-.476 0-.159.158-.159.158-.317-3.165.317-6.33.475-9.494.793zm-15.508 36.63c-.79 3.172-1.107 6.66 0 9.673l.475.952s-.158 0-.158.158c-2.532 2.538-4.906 4.916-7.28 7.454-.949-3.806-1.898-7.612-1.107-11.259.95-3.965 3.481-7.295 4.114-11.577.317-1.744.633-3.33.95-4.757.475-.951.95-1.903 1.266-3.013 0-.158 0-.317-.159-.476.792-1.903 1.583-3.806 2.849-6.026 1.899-3.488 3.323-6.977 4.747-10.624 2.532-.318 4.905-.635 7.437-.635 1.266 0 2.532.159 3.798.159-.317.951-.633 1.903-1.108 2.854-1.899 5.075-5.222 6.661-8.386 10.942-3.007 4.282-6.014 11.259-7.438 16.175zm-9.969 29.179c.475 1.427.95 2.854 1.741 3.964-2.374 3.489-4.747 6.819-7.279 9.99-1.424-.634-2.848-.951-4.272-2.378-1.741-1.586-2.216-3.013-2.532-4.758l1.108-1.11c3.48-3.488 6.804-6.977 10.127-10.466.316 1.586.633 3.172 1.107 4.758zm2.532 4.915a10.16 10.16 0 002.848 2.062c2.374 1.11 4.748 1.586 6.963 3.013-3.007 3.172-6.33 6.026-9.653 9.039-2.057-1.586-4.114-3.013-6.013-4.123l-.95-.476c2.375-3.013 4.59-6.184 6.805-9.515zm-14.4-.634l-.949.952c-.158-.635-.158-1.428-.316-2.062-.792-3.489-2.058-7.295-2.69-11.1 4.272-4.123 8.386-8.246 12.184-12.687v2.696c.316 3.806 1.108 7.771 2.057 11.735-3.323 3.647-6.804 7.136-10.285 10.466zm-4.114-20.456c.159-.952.475-1.903.791-2.696 3.798-3.33 7.754-6.661 11.552-9.991 1.108-1.11 2.532-2.061 3.798-3.013-.317.793-.475 1.586-.792 2.22-1.107 2.696-2.215 4.599-2.69 6.661-4.114 4.757-8.386 9.197-12.817 13.479-.316-2.22-.316-4.44.158-6.66zm-7.437 3.171c-3.798 3.806-7.754 7.453-11.71 11.101-.316-2.696-.474-5.233.159-7.771 1.266-5.391 4.589-9.832 5.38-15.54 0-.318.158-.793.158-1.11 4.747-4.123 9.336-8.405 13.925-12.528-1.424 4.599-1.582 9.515-3.64 14.113-1.898 4.282-3.322 6.819-3.48 10.942-.159.317-.475.476-.792.793zm6.013-43.609a125.15 125.15 0 0011.077-.951c-.475.951-.791 1.903-1.266 2.854-5.538 4.757-11.235 9.356-17.09 13.638a35.818 35.818 0 011.74-3.489c2.058-3.964 3.799-7.929 5.54-12.052zm-8.228 18.078c5.696-3.964 11.077-8.405 16.298-12.845-1.424 2.855-3.006 5.55-4.43 8.405-.159.158-.159.476-.317.634a583.328 583.328 0 01-14.874 13.004c.633-3.172 1.582-6.026 2.848-8.881.317-.158.317-.158.475-.317zm14.4 8.88c.949-6.66 2.69-10.941 5.696-16.809.633-1.268 1.266-2.378 1.74-3.647l2.374-2.379c.633-.634-.158-1.427-.791-1.11.633-1.586 1.266-3.013 1.899-4.599 3.481-.317 6.804-.475 10.285-.317h.475c-1.899 4.599-4.272 8.881-6.646 13.162-1.899 3.489-2.215 7.136-3.007 10.784-2.69 2.061-5.221 4.598-7.753 6.818-2.374 2.062-4.747 4.123-7.28 6.185 1.267-2.537 2.533-5.075 3.008-8.088zM43.95 171.292c-4.431 3.806-9.02 7.295-13.609 10.942l-1.899 1.427c.159-.317.317-.793.475-1.11 2.215-5.392 3.64-11.1 4.589-16.809 1.424.634 3.006 1.268 4.747 1.427 2.532.317 5.222.476 7.912.476-.475 1.11-.95 2.061-1.424 3.013-.317.158-.475.317-.791.634zm-22.945 23.152c2.057-2.695 3.956-5.074 5.697-7.611.95-.635 1.899-1.269 2.532-1.903 4.747-3.33 9.336-6.978 13.608-10.625l.158-.159c-1.582 3.172-3.323 6.185-5.063 9.357-1.266 2.22-1.9 4.44-2.532 6.818-5.855 3.965-11.552 8.088-17.406 12.052.474-3.013 1.107-5.233 3.006-7.929zm9.81 12.37c-2.056 4.598-3.48 7.77-2.847 13.637.158 2.537.633 5.075 1.107 7.612-1.424 1.269-2.69 2.696-4.272 3.806-1.424 1.268-3.007 2.061-4.747 2.696-.317-3.33-.633-6.661-.791-9.674-.159-2.378-.475-4.757-.633-6.977 3.956-3.806 8.07-7.453 12.184-11.1zm-10.601 29.178c1.266-.634 2.69-1.11 3.798-1.903 1.898-1.269 3.48-2.854 5.221-4.599.475 2.379.95 4.758 1.583 6.978l-2.215 2.22c-2.374 2.378-4.59 4.916-6.805 7.453-.79-3.33-1.266-6.66-1.582-10.149zm15.19-12.369c4.273-3.806 8.23-7.771 12.343-11.735v1.11c.159 2.22.475 4.44.95 6.66-1.9 1.745-3.798 3.489-5.697 5.392-2.057 1.744-3.956 3.647-6.013 5.55-.475-2.22-1.108-4.599-1.582-6.977zm3.166 13.162c-.317-1.586-.792-3.013-1.108-4.758 2.057-1.903 3.956-3.647 6.013-5.55 1.899-1.744 3.798-3.489 5.538-5.233.791 4.282 1.9 8.563 3.007 12.528 0 .317.158.476.158.634-1.582 1.586-3.323 3.013-4.905 4.599-1.9 1.744-3.798 3.489-5.855 5.074-.158 0-.317.318-.633.476-1.583-2.061-1.424-4.44-2.215-7.77zm19.621 11.1c1.424-1.427 2.69-2.854 3.956-4.281 1.74.634 3.323 1.268 5.064 2.537.474.317 1.107.793 1.582 1.11-.316.159-.475.476-.791.634-3.165 2.855-6.172 5.709-9.178 8.563-1.582-1.268-3.165-2.537-4.905-3.647 1.265-1.744 2.69-3.33 4.272-4.916zm26.584 5.075l-.158-.159c2.848-3.806 5.38-7.77 8.07-11.735 1.582 1.11 3.006 2.22 4.747 3.013-2.69 3.648-5.538 7.136-8.228 10.784-1.583-.476-3.007-1.11-4.431-1.903zm-1.266-.793c-1.74-1.269-3.006-3.013-4.747-4.44-1.424-1.11-3.007-2.538-4.589-3.806 3.323-3.013 6.646-5.868 9.653-9.039 1.898 1.427 3.956 2.696 5.854 4.123l1.9 1.427c-2.69 3.965-5.38 7.77-8.07 11.735zm-.475-23.787c-2.057-1.11-3.797-1.11-5.538-2.854-2.373-2.22-2.215-4.123-2.848-7.136l-.95-3.806c2.532-2.537 5.064-5.233 7.596-7.77 2.532 5.391 7.12 10.307 10.602 15.064-.791 1.11-1.583 2.379-2.374 3.648-.95 1.744-2.215 3.33-3.481 4.757-.95-.634-1.899-1.269-3.007-1.903zm156.973 37.742c-.159-.793-1.425-.476-1.266.317l.474 2.379c-.949.317-1.899.634-3.006 1.11-2.532 1.268-4.906 2.695-7.279 4.123-.791-3.806-1.583-7.612-2.69-11.418 1.74-1.11 3.165-2.537 5.222-3.172 3.164-1.268 5.538-.475 8.703-.317 4.272.317 7.12-1.427 10.602-3.647 1.266-.793 2.531-1.586 3.956-2.379a166.729 166.729 0 014.272 12.528c-.158.159-.475.317-.633.476-5.538 3.171-11.868 1.268-17.881 2.537-.158-.793-.316-1.744-.474-2.537zm-34.655 17.126c-.474-4.123-.949-8.087-1.582-12.052 3.323-.793 6.646-2.22 9.969-3.013.316-.158.633-.158.949-.317 1.108 3.647 1.425 7.77 1.425 11.735-3.482.951-6.805 2.537-10.444 3.647h-.317zm-34.654-26.958c3.956.158 7.754.476 11.393-.317 2.057 1.11 3.165 1.268 5.222.951.475 2.696.633 5.55.791 8.405-2.848 0-5.696.634-8.544 1.268-.159 0-.317-.158-.475-.158h-2.532v-6.343a.555.555 0 00-1.108 0v6.343c-1.582 0-3.164-.159-4.747-.793-1.899-.793-4.114-2.061-6.013-3.172-.949-.475-1.424-.951-3.006-1.427v-5.391c3.323.792 5.696.634 9.019.634zm-5.222 12.528c3.64 1.744 6.488 1.902 9.811 1.427v13.003c-2.057 0-3.956-.158-6.013-.951-2.215-.952-4.747-2.379-6.804-3.648-.158 0-.633-.158-.633-.158v-11.418c1.582.635 2.532 1.269 3.639 1.745zm11.235 1.268l2.849-.476c.316 0 .633-.317.791-.475 2.848.158 6.962.158 7.753.158h.317c0 1.11.158 2.22.158 3.33.158 3.172.475 6.344.791 9.357-3.323.158-6.487.792-9.652 1.585-.158 0-.317-.158-.475-.158h-2.373c-.159-4.44-.159-8.881-.159-13.321zm12.976.317v-.793c3.481.635 6.646 2.379 10.285 2.221.95 0 1.741-.159 2.69-.318.633 3.965 1.108 8.088 1.583 12.052-3.956.635-6.172-.793-10.286-1.268-1.107-.159-2.215-.159-3.323-.159-.474-3.964-.791-7.77-.949-11.735zm26.109-2.854c3.323-.952 6.646-2.379 9.653-4.282.949 3.806 1.898 7.612 2.531 11.418-3.323 1.903-6.646 3.647-10.76 4.599-.158-3.965-.316-8.088-1.424-11.735zm31.173-15.858c-5.855 3.33-12.659.159-18.83 3.33-5.064 2.538-9.02 5.709-14.4 7.453-.158-.317-.475-.634-.633-.951-.475-.634-1.424 0-.949.634.158.317.316.476.474.793-.316.159-.791.159-1.107.317-3.165.793-6.172 2.379-9.336 3.172-4.273 1.269-6.33-.159-10.286-.793-.791-.159-1.582-.159-2.373-.159-.159-2.854-.475-5.708-.792-8.563a30.61 30.61 0 002.69-.634c4.748-1.269 10.919-.476 15.982-.634 3.165-.159 6.172-.635 9.178-2.062 4.273-2.061 6.33-5.867 11.077-7.136 2.69-.634 5.696-.476 8.228-1.586 3.482-1.427 9.178-4.44 12.026-6.819 3.64-3.013 5.38-7.611 7.121-11.893 3.165 2.22 6.804 4.44 10.286 5.867-3.64 8.246-10.286 14.907-18.356 19.664zm-88.297 1.427c.95.793 1.741 1.428 2.532 1.745v5.391c-1.582-.793-3.323-1.268-5.064-1.744v-7.77c.792.793 1.741 1.585 2.532 2.378zm-2.532 11.101c1.899.476 3.482 1.268 5.064 2.061v11.418c-1.899-1.11-3.798-1.903-5.697-2.537.159-3.648.317-7.295.317-10.942h.316zm-13.925.951c-.158 2.538-.316 5.075-.633 7.612-.791-.159-1.74-.159-2.531-.317.158-3.489.158-6.978-.475-10.308 1.108.159 2.374.317 3.639.476v2.537zm-2.057 14.272c.317 0 .475 0 .792.159-.159 2.379-.317 4.916-.317 7.294v2.855c-.633-.159-1.424-.159-2.057-.317v-3.013c-.158-2.379 0-4.758.158-7.136.475.158.95.158 1.424.158zm4.431 10.784c-.949-.159-1.899-.159-2.848-.318 0-2.537 0-4.915.158-7.453 0-.951.158-1.903.158-2.854 3.481.317 6.804.317 10.286 1.11.633.159 1.266.317 1.898.634-.158 2.855-.316 5.709-.632 8.722 0 .793-.159 1.586-.159 2.379-2.848-1.11-5.538-1.745-8.861-2.22zm10.602-8.405c2.057.951 3.956 2.061 6.013 3.172v11.417l-.949-.476a61.764 61.764 0 00-5.539-2.854c.158-3.806.317-7.453.475-11.259zm6.646 3.806c1.582.158 1.108.317 1.424.634 4.431 2.22 7.912 2.22 11.868 1.586v13.479c-2.532 0-5.222-.159-7.754-1.11-1.899-.793-2.532-1.903-5.696-2.854.158-3.965.158-7.771.158-11.735zm15.033 2.061l2.848-.475c.475 0 .791-.318.949-.476 3.323.158 8.229.158 9.02.158h.158c.158 1.745.317 3.489.633 5.234.316 2.537.475 5.233.633 7.77-3.798.158-7.595.951-11.235 1.744-.158 0-.316-.158-.633-.158h-2.373v-13.797zm14.557 2.062c-.158-.952-.158-1.903-.316-2.696 4.114.793 8.07 2.854 12.343 2.696.474 0 .949-.159 1.265-.159.159 2.062.317 4.282.475 6.343.158 1.903.158 3.806.158 5.868-3.006 0-5.538-1.11-9.177-1.586-1.425-.159-2.69-.317-4.115-.317 0-3.489-.316-6.819-.633-10.149zm40.193.634c-.475-3.013-.791-6.026-1.266-9.039 1.108-.634 2.215-1.11 3.165-1.744 2.373-1.427 4.272-3.33 6.962-4.282h.158c.792 3.965 1.583 7.929 2.374 11.735-3.798 2.062-7.279 4.282-10.918 6.185l-.475-2.855zm30.54-19.188l.949-.476c2.849-1.744 6.33-3.805 9.495-6.184 1.265 4.44 2.373 8.88 3.639 13.321-1.741 1.268-3.639 2.378-5.538 3.488-1.583.952-3.323 1.427-5.064 1.903-1.266-3.964-2.374-7.929-3.481-12.052zm33.072-18.395c-.95-5.074-1.899-10.149-3.007-15.223-.791-3.172-1.582-6.343-2.374-9.674 0-.158 0-.158.159-.317 1.582-3.647 3.323-7.136 5.222-10.624 1.74 5.867 3.323 11.893 5.063 17.76.158.476.317 1.11.475 1.586-.95 2.22-1.582 4.44-2.057 6.977a46.336 46.336 0 01-3.165 10.942c-.158-.475-.316-.951-.316-1.427zm6.487-18.553c-.316-1.111-.791-2.379-1.107-3.489-1.583-5.233-3.007-10.466-4.589-15.541.316-.634.633-1.427.949-2.061 1.741-3.648 4.589-8.246 4.589-12.369 0-.952-.791-1.428-1.582-1.428.633-1.744 1.424-3.647 2.057-5.391.791 2.696 1.582 5.391 2.057 8.246.791 4.916.633 9.832.949 14.906.159 3.013.633 6.026 1.266 9.039-1.74 2.696-3.323 5.392-4.589 8.088zM30.817 263.743c-2.374-3.172-5.38-6.026-6.804-9.832-.792-1.903-1.266-3.964-1.9-6.026 2.216-2.378 4.273-4.916 6.489-7.294l2.531-2.538c.475 2.062 1.108 4.282 1.583 6.185.474 1.903 1.266 3.647 2.215 5.233v.476c0 .317.317.634.633.476 1.108 1.268 2.532 2.537 4.272 3.33 2.69 1.268 5.539 2.061 8.07 3.33-2.848 3.489-5.696 6.977-8.703 10.307.633-1.903 1.583-3.805 2.374-4.123.317 0 .158-.475 0-.475l-1.266.158c-.158 0-.316.159-.316.317-.791 2.538-1.9 4.599-3.165 6.978-.475.634.475 1.427 1.108.793 4.114-3.965 7.911-8.564 11.55-13.004.16.159.317.159.476.317 1.266.952 2.532 1.745 3.956 2.696-.633.635-1.266 1.11-1.9 1.745-3.955 3.964-8.702 7.77-11.55 12.527-.634-.475-1.108-.951-1.741-1.427-3.165-2.854-5.222-6.66-7.912-10.149zm10.76 12.528c1.266-1.269 2.532-2.379 3.165-3.806 3.165-3.647 6.646-7.136 10.127-10.625 1.266.952 2.532 1.744 3.798 2.696 3.323 2.379 6.33 4.599 9.652 6.502l-2.373 2.854c-1.74 2.062-3.64 3.806-5.38 5.867-.95 1.11-1.741 2.221-2.532 3.331-.317 0-.475-.159-.791-.159.79-1.586 2.215-3.013 3.323-3.489.316-.158 0-.634-.159-.475-1.424.475-3.006 2.061-4.114 3.805-5.063-1.427-10.127-3.013-14.716-6.501zm45.89 17.126c-5.698-2.854-10.92-5.709-16.932-7.612 1.424-1.427 2.69-3.171 3.797-4.598 1.266-1.745 3.007-3.806 3.64-5.868 2.373.952 4.747 2.062 6.962 3.172-1.424 2.061-2.848 4.281-3.956 6.66a.7.7 0 00.95.952c1.74-.793 3.006-1.903 4.272-3.648.158-.317-.158-.634-.475-.317-.79.952-1.582 1.586-2.69 2.062a85.176 85.176 0 013.007-5.075c1.582.793 3.006 1.744 4.589 2.855 1.424-1.428 3.006-2.855 4.43-4.282-2.057-1.11-4.114-2.22-6.17-3.172.949-1.427 1.74-3.013 2.69-4.44 1.423-2.379 2.847-4.757 4.272-6.977a43.976 43.976 0 018.07 4.916c.316.158.475.317.791.634l.633-.634c-.791 3.33-3.323 6.184-5.222 9.039l-.95 1.903c-2.056 1.744-3.955 3.488-6.012 5.233.158.158.316.158.474.317-1.898 2.378-3.64 6.184-6.17 8.88zm44.939-39.803c-.792.159-1.583.476-2.374.793-.791-.159-1.424-.476-2.215-.793-1.583 1.269-3.323 2.537-4.906 3.806.317.159.792.317 1.108.476-3.006 2.061-6.171 4.123-9.178 6.184-1.424 1.11-2.69 2.379-4.114 3.647-2.69 2.538-5.538 5.234-8.228 7.771 2.057-2.855 4.272-5.55 4.589-9.198v-.317c.633-.634 1.424-1.268 2.057-1.903-3.482-1.744-6.805-3.647-10.286-5.391 1.108-1.586 2.216-3.013 3.481-4.599.633-.793-.474-1.745-.949-.952-1.266 1.586-2.532 3.33-3.798 4.916-1.424-.634-2.848-1.268-4.272-1.744-.95-.317-1.74-.634-2.69-.952 2.69-3.647 5.38-7.136 8.07-10.624.791.317 1.582.793 2.374.951 5.221 1.903 9.336 3.806 13.924 6.978a24.942 24.942 0 003.798 2.378c1.424-1.268 2.848-2.378 4.273-3.488-5.855-2.538-11.394-6.344-17.407-8.564-1.582-.475-3.006-1.11-4.588-1.585l1.424-1.903c.474-.793-.633-1.428-1.108-.635-.475.635-.949 1.269-1.424 2.062-.475-.159-.95-.476-1.424-.634-1.266-.793-2.374-1.745-3.323-2.696 1.424-1.903 2.69-3.965 4.114-5.868.475-.634-.633-1.268-1.108-.634-1.424 1.903-2.69 3.647-3.956 5.55-.316-.317-.633-.634-.95-.793-1.74-1.427-3.797-3.171-5.854-4.757 1.108-1.11 2.057-2.379 2.848-3.647.95-1.586 1.741-3.013 2.69-4.441 2.216 3.013 3.007 3.489 6.805 4.758 6.487 2.22 12.5 5.867 19.146 7.929 1.266.317 2.532.475 3.64.634 4.747.793 3.798 1.427 6.962 2.379 5.064 1.427 10.761 1.427 15.666 3.488 3.956 1.745 7.121 4.758 10.285 7.612-.158 0-.316.317-.316.476v7.77c-.475-.158-.95-.158-1.424-.158-3.323-.476-6.804-.793-10.127-1.11 0-1.903 0-3.806.474-5.709.475-2.537 1.266-4.599 1.266-7.136 0-.635-.949-.635-.949 0 .158 3.33-1.266 6.343-1.583 9.673 0 .952-.158 1.903-.158 3.013h-1.266c.158-.159.475-.317.791-.634 1.899-1.586-.474-3.965-2.373-3.172-2.215.952-5.38.159-7.437.793zm3.323 54.234c.474-2.22 1.107-4.44 1.424-6.502.316-1.427.475-2.854.791-4.282.949 0 1.899.159 2.848.159 0 3.172 0 6.343-.158 9.515 0 .475 0 1.11-.158 1.585-.475 0-.95-.158-1.424-.158-1.108 0-2.216-.159-3.323-.317zm20.254 3.33c-.475 0-1.108-.159-1.582-.317 0-3.33.158-6.661.158-9.832 2.215 1.11 4.431 2.537 6.646 3.647v6.819c-1.741 0-3.481 0-5.222-.317zm6.488.158v-6.184c4.747 2.061 8.228 2.061 12.817 1.269v5.074c-1.899-.317-3.956-.476-6.171-.476-2.215.159-4.431.317-6.646.317zm14.4.476v-5.55c.949-.159 1.898-.317 3.006-.476.475-.158.791-.317 1.108-.634 3.797.159 9.494.159 10.443.159.159 3.964.475 7.928.633 11.734-.316-.158-.791-.317-1.107-.475-4.747-2.062-9.336-3.806-14.083-4.758zm16.456 5.868c-.316-2.538-.633-5.233-.791-7.771 0-1.427-.158-2.854-.158-4.281 4.431.634 8.545 2.854 13.134 3.171 0 3.489 0 6.819.316 10.308-4.114.158-8.387-.159-12.501-1.427zm13.134 1.11c.316-3.33.475-6.819.475-10.149h.316c3.64-.159 7.279-1.269 10.919-2.538 0 .635.158 1.269.158 1.903.316 2.696.158 5.392.158 8.088-4.114 1.268-8.07 2.22-12.026 2.696zm34.812-9.356c-2.373.317-4.905.951-7.279 1.585 0-1.427-.158-3.013-.316-4.44l-.475-5.233c3.007-1.269 6.013-2.696 8.703-4.282.95-.634 1.899-1.268 2.69-1.902.159.475.159.951.317 1.585.791 3.965 1.582 8.088 2.373 12.052-1.898 0-3.956.317-6.013.635zm7.438-.793c-.792-4.123-1.583-8.246-2.532-12.369-.158-.635-.317-1.269-.475-2.062 1.266-.793 2.532-1.744 3.956-2.22 4.114-1.586 7.437-.634 11.71-.476 1.582.159 3.006 0 4.272-.317.633 2.696 1.266 5.392 2.057 8.088.633 2.537 1.266 5.391 2.057 7.928-.474 0-.949.159-1.266.159-6.487.793-13.133.793-19.779 1.269zm22.944-1.428l-4.272-16.175c3.006-.792 5.538-2.378 8.545-4.123.632-.475 1.424-.792 2.057-1.268 1.582 6.184 2.848 13.32 7.12 18.236-3.956 2.379-8.703 2.855-13.45 3.33zm15.507-4.915c-.158.158-.474.317-.633.634-3.955-5.392-5.538-11.576-7.278-18.078 4.588-2.696 9.494-6.185 13.133-10.308 1.424 5.709 2.216 11.735 5.222 16.81-3.323 3.964-6.804 7.77-10.444 10.942zm50.953-102.125c-6.013 18.554-12.501 37.425-20.096 55.503-4.906 11.576-11.393 23.945-19.622 34.57v-.159c0-.159-.158-.159-.316-.317-2.215-5.392-3.323-10.942-4.747-16.651 1.424-1.903 2.532-3.964 3.164-6.184.317-.318.475-.635.792-.952 1.424 4.123 3.006 8.246 3.323 12.686 0 .793 1.107.318 1.107.318 0-4.758-1.424-7.929-2.848-11.577-.316-.793-.475-1.585-.791-2.537 1.899-2.854 3.323-6.977 4.272-9.515 1.108-2.695 1.583-5.55 2.057-8.404.95 2.061 2.057 3.964 4.115 5.074.316.159.949 0 .949-.475.475-2.855.158-5.551-1.741-7.771-.158-.158-.474 0-.316.317 1.424 1.903 1.899 3.965 1.266 6.185-1.899-1.744-2.848-3.965-3.64-6.343.475-2.379.95-4.758 2.057-6.978.317-.793.633-1.585 1.108-2.22l.95 6.185c0 .317.474.317.474 0 .158-2.696-.158-5.392-.474-8.088 2.057-4.281 4.114-8.404 6.171-12.527.949-1.903 2.057-3.965 3.006-6.026 0 1.268.159 2.537.317 3.964.316 3.172.949 6.502.949 9.832 0 3.806-1.107 7.453-.949 11.259 0 .317.474.317.474 0 .475-3.806 1.583-7.453 1.741-11.259.158-3.647-.633-7.453-.949-11.1-.159-1.745-.317-3.489-.317-5.234.633-1.902 1.108-3.805 1.108-5.55 0-.951-.633-1.427-1.424-1.586 0-.317 0-.792-.159-1.11 3.323-9.039 8.071-17.76 8.862-27.751.633-8.404 3.006-16.175 2.532-24.579-.475-8.564-7.912-13.797-8.071-22.36-.158-4.123 1.741-7.77 2.058-11.735.316-2.537.316-5.233.316-7.77 3.323.634 6.804 1.11 9.811 2.062l4.747 1.427c.316 9.99.475 19.981 2.69 30.13 4.272 19.188 2.215 38.375-3.956 57.246z"/><path d="M271.336 194.954c-1.582-.48-3.164-.799-4.746-1.279 0-.799-.158-1.438 0-2.556-1.266-.32-2.531-.64-3.797-1.119l-.475 2.397c-1.74-.479-3.48-1.119-5.22-1.758-1.74-.639-3.006 2.237-1.266 3.196 1.899.959 3.955 2.077 5.854 3.196-.791 5.113-2.215 10.387-3.955 15.021a7.545 7.545 0 01-.791 1.597c1.265.64 2.531 1.279 3.796 1.758 1.424-3.355 2.215-6.711 3.481-11.026l1.424-5.752c.474.16.949.319 1.265.479 3.639 1.119 7.594 1.438 11.075 2.877h.158c-1.266 2.556-2.69 5.273-3.955 7.67-1.74 3.196-3.639 6.072-4.905 9.427 1.424.64 2.69 1.279 4.114 1.918.158-.799.474-1.598.791-2.397 1.898-4.314 3.955-8.309 6.012-12.464 1.582-3.196 3.955-7.191 3.796-10.706 0-.799-.791-1.278-1.423-1.278v-.16c-.95-.16-1.741-.32-2.69-.48-.316 1.758-.633 3.516-.791 5.274-1.582-1.918-4.588-3.036-7.752-3.835zm-81.797-29.536c-2.73-1.266-4.978-2.69-8.35-2.373-2.409.158-4.818 1.107-5.782 3.481-1.445 3.48 1.285 6.645 3.052 9.335 2.087 3.164 3.051 8.069 6.584 10.126 2.73 1.582 6.744 1.266 9.153-.633 1.446-1.108 2.409-2.532 3.854-3.639 1.125-.949 2.088-1.424 2.57-3.006 2.088-6.646-4.818-13.133-11.081-13.291zm7.227 12.183c-.964 1.424-2.57 2.215-3.854 3.323-3.533 2.848-6.263 2.373-8.19-1.741-.803-1.898-2.088-3.322-3.212-5.063l-1.446-1.898-1.445-1.899c.482-1.424.803-2.848 1.285-4.272 1.285-1.266 5.299 0 6.745.316.321.159 1.927.317 3.211.633 3.212 3.165 10.76 5.063 6.906 10.601z"/></g></svg>