<svg viewBox="0 0 76 74" fill="none" xmlns="http://www.w3.org/2000/svg"><path fill-rule="evenodd" clip-rule="evenodd" d="M1 37C1 17.118 17.566 1 38 1s37 16.118 37 36-16.566 36-37 36S1 56.882 1 37zm28.59-14.171a3.445 3.445 0 013.365 0l20.181 11.337A3.258 3.258 0 0154.818 37c0 1.17-.64 2.25-1.682 2.834L32.955 51.171a3.445 3.445 0 01-3.364 0 3.258 3.258 0 01-1.682-2.834V25.663c0-1.17.641-2.25 1.682-2.834z" fill="#fff" fill-opacity=".86" stroke="#8B9D83" stroke-width="2" stroke-linejoin="round"/><path d="M30.867 21.832l23.56 13.743c1.33.776 1.322 2.7-.015 3.464L30.73 52.572c-1.337.764-2.999-.206-2.992-1.745l.121-27.276c.007-1.54 1.678-2.494 3.008-1.719z" stroke="#8B9D83" stroke-width="2"/></svg>