<svg viewBox="0 0 121 100" fill="none" xmlns="http://www.w3.org/2000/svg"><path fill-rule="evenodd" clip-rule="evenodd" d="M2 98c0-12.375 16.5-12.375 24.75-20.625 4.125-4.125-8.25-4.125-8.25-24.75C18.5 38.876 23.999 32 35 32c11.001 0 16.5 6.876 16.5 20.625 0 20.625-12.375 20.625-8.25 24.75C51.5 85.625 68 85.625 68 98" fill="#EDE8E2"/><path d="M2 98c0-12.375 16.5-12.375 24.75-20.625 4.125-4.125-8.25-4.125-8.25-24.75C18.5 38.876 23.999 32 35 32c11.001 0 16.5 6.876 16.5 20.625 0 20.625-12.375 20.625-8.25 24.75C51.5 85.625 68 85.625 68 98" stroke="#8B9D83" stroke-width="4" stroke-linecap="round"/><mask id="a" fill="#fff"><path fill-rule="evenodd" clip-rule="evenodd" d="M89.5 63c17.397 0 31.5-14.103 31.5-31.5S106.897 0 89.5 0 58 14.103 58 31.5a31.357 31.357 0 005.846 18.284l-2.921 15.105 14.73-5.087A31.373 31.373 0 0089.5 63z"/></mask><path fill-rule="evenodd" clip-rule="evenodd" d="M89.5 63c17.397 0 31.5-14.103 31.5-31.5S106.897 0 89.5 0 58 14.103 58 31.5a31.357 31.357 0 005.846 18.284l-2.921 15.105 14.73-5.087A31.373 31.373 0 0089.5 63z" fill="#EDE8E2"/><path d="M63.846 49.784l3.928.76.326-1.687-.998-1.398-3.256 2.325zm-2.921 15.105l-3.928-.76-1.316 6.802 6.55-2.261-1.306-3.781zm14.73-5.087l1.76-3.592-1.494-.732-1.572.543 1.305 3.78zM117 31.5C117 46.688 104.688 59 89.5 59v8c19.606 0 35.5-15.894 35.5-35.5h-8zM89.5 4C104.688 4 117 16.312 117 31.5h8C125 11.894 109.106-4 89.5-4v8zM62 31.5C62 16.312 74.312 4 89.5 4v-8C69.894-4 54 11.894 54 31.5h8zm5.102 15.96A27.356 27.356 0 0162 31.5h-8a35.356 35.356 0 006.591 20.608l6.51-4.649zm-7.183 1.564L56.997 64.13l7.855 1.52 2.922-15.105-7.855-1.52zM62.23 68.67l14.73-5.086-2.611-7.562-14.73 5.087 2.611 7.562zM89.5 59a27.374 27.374 0 01-12.085-2.79l-3.521 7.184A35.372 35.372 0 0089.5 67v-8z" fill="#8B9D83" mask="url(#a)"/><path fill-rule="evenodd" clip-rule="evenodd" d="M87.763 34.748l3.957-3.931a3.55 3.55 0 00.673-4.118l-.225-.446a3.55 3.55 0 01.673-4.117l4.907-4.875a.902.902 0 011.438.232l1.982 3.938a7.786 7.786 0 01-1.476 9.034l-10.77 10.7a9.79 9.79 0 01-9.973 2.338l-4.335-1.436a.89.89 0 01-.35-1.476l4.76-4.73a3.609 3.609 0 014.145-.667l.448.222a3.609 3.609 0 004.146-.668z" fill="#306838"/></svg>