<svg width="38" height="30" viewBox="0 0 38 30" fill="none" xmlns="http://www.w3.org/2000/svg"><g clip-path="url(#clip0_702_1870)" stroke="#E1D91E" stroke-width="2"><path d="M13.5 9.333c6.42 0 11.625-1.735 11.625-3.875 0-2.14-5.205-3.875-11.625-3.875S1.875 3.318 1.875 5.458c0 2.14 5.205 3.875 11.625 3.875zM25.125 14.5c0 2.144-5.167 3.875-11.625 3.875S1.875 16.645 1.875 14.5" stroke-linecap="round" stroke-linejoin="round"/><path d="M1.875 5.458v18.084c0 2.144 5.167 3.875 11.625 3.875s11.625-1.731 11.625-3.875V5.458" stroke-linecap="round" stroke-linejoin="round"/><path d="M37 20c0 5.02-3.853 9-8.5 9S20 25.02 20 20s3.853-9 8.5-9 8.5 3.98 8.5 9z" fill="#F6F7F3"/></g><defs><clipPath id="clip0_702_1870"><path fill="#fff" d="M0 0h38v30H0z"/></clipPath></defs></svg>