<svg width="40" height="40" viewBox="0 0 40 40" fill="none" xmlns="http://www.w3.org/2000/svg"><path d="M6.667 36.667H20V20H6.667v16.667zm26.666 0V20H20v16.667h13.333zm-20.833-25H3.333V20H20v-8.333h-7.5zm15 0H20V20h16.667v-8.333H27.5z" fill="#FDFDFD"/><path d="M33.333 36.667v1.666c.92 0 1.667-.746 1.667-1.666h-1.667zm-26.666 0H5c0 .92.746 1.666 1.667 1.666v-1.666zm-3.334-25V10c-.92 0-1.666.746-1.666 1.667h1.666zm33.334 0h1.666c0-.92-.746-1.667-1.666-1.667v1.667zm0 8.333v1.667c.92 0 1.666-.747 1.666-1.667h-1.666zM3.333 20H1.667c0 .92.746 1.667 1.666 1.667V20zm9.167-8.333V10v1.667zM8.333 7.5H6.667h1.666zM12.5 3.333V1.667v1.666zm15 8.334V10v1.667zm0-8.334V5 3.333zM31.667 20v16.667H35V20h-3.333zm1.666 15H6.667v3.333h26.666V35zm-25 1.667V20H5v16.667h3.333zm-5-23.334h33.334V10H3.333v3.333zM35 11.667V20h3.333v-8.333H35zM5 20v-8.333H1.667V20H5zm15-10h-7.5v3.333H20V10zm-7.5 0a2.5 2.5 0 01-1.768-.732l-2.357 2.357a5.833 5.833 0 004.125 1.708V10zm-1.768-.732A2.5 2.5 0 0110 7.5H6.667c0 1.547.614 3.03 1.708 4.125l2.357-2.357zM10 7.5a2.5 2.5 0 01.732-1.768L8.375 3.375A5.833 5.833 0 006.667 7.5H10zm.732-1.768A2.5 2.5 0 0112.5 5V1.667c-1.547 0-3.03.614-4.125 1.708l2.357 2.357zM12.5 5c1.99 0 3.429 1.397 4.477 3.303a14.5 14.5 0 011.082 2.565 14.421 14.421 0 01.294 1.068c.006.024.01.041.011.051l.002.01v-.002c0-.001 0-.002 1.634-.328l1.634-.328v-.002l-.001-.003-.002-.009-.005-.027a9.19 9.19 0 00-.092-.394 17.727 17.727 0 00-.297-1.043 17.75 17.75 0 00-1.34-3.164c-1.243-2.261-3.554-5.03-7.397-5.03V5zm7.5 8.333h7.5V10H20v3.333zm7.5 0c1.547 0 3.03-.614 4.125-1.708l-2.357-2.357A2.5 2.5 0 0127.5 10v3.333zm4.125-1.708A5.833 5.833 0 0033.333 7.5H30a2.5 2.5 0 01-.732 1.768l2.357 2.357zM33.333 7.5c0-1.547-.614-3.03-1.708-4.125l-2.357 2.357A2.5 2.5 0 0130 7.5h3.333zm-1.708-4.125A5.833 5.833 0 0027.5 1.667V5a2.5 2.5 0 011.768.732l2.357-2.357zM27.5 1.667c-3.844 0-6.155 2.769-7.398 5.03a17.82 17.82 0 00-1.34 3.164 17.74 17.74 0 00-.388 1.437l-.005.027-.002.009v.003l-.001.002 1.634.328 1.634.327v.002l.002-.009.01-.05a14.437 14.437 0 01.294-1.069c.226-.714.578-1.647 1.083-2.565C24.07 6.397 25.51 5 27.5 5V1.667zM12.5 10H3.333v3.333H12.5V10zM3.333 21.667h3.334v-3.334H3.333v3.334zm3.334 0H20v-3.334H6.667v3.334zm15-1.667v-8.333h-3.334V20h3.334zm0 16.667V20h-3.334v16.667h3.334zm15-18.334H20v3.334h16.667v-3.334zm-16.667 0H3.333v3.334H20v-3.334zm0 3.334h13.333v-3.334H20v3.334zm13.333 0h3.334v-3.334h-3.334v3.334zM36.667 10H27.5v3.333h9.167V10zM20 38.333h13.333V35H20v3.333zm-13.333 0H20V35H6.667v3.333z" fill="#B2D452"/></svg>